<?xml version="1.0" encoding="utf-8" standalone="no"?>
<!DOCTYPE svg PUBLIC "-//W3C//DTD SVG 1.1//EN"
  "http://www.w3.org/Graphics/SVG/1.1/DTD/svg11.dtd">
<svg xmlns:xlink="http://www.w3.org/1999/xlink" width="432pt" height="288pt" viewBox="0 0 432 288" xmlns="http://www.w3.org/2000/svg" version="1.1">
 <metadata>
  <rdf:RDF xmlns:dc="http://purl.org/dc/elements/1.1/" xmlns:cc="http://creativecommons.org/ns#" xmlns:rdf="http://www.w3.org/1999/02/22-rdf-syntax-ns#">
   <cc:Work>
    <dc:type rdf:resource="http://purl.org/dc/dcmitype/StillImage"/>
    <dc:date>2024-05-29T16:32:10.512845</dc:date>
    <dc:format>image/svg+xml</dc:format>
    <dc:creator>
     <cc:Agent>
      <dc:title>Matplotlib v3.8.3, https://matplotlib.org/</dc:title>
     </cc:Agent>
    </dc:creator>
   </cc:Work>
  </rdf:RDF>
 </metadata>
 <defs>
  <style type="text/css">*{stroke-linejoin: round; stroke-linecap: butt}</style>
 </defs>
 <g id="figure_1">
  <g id="patch_1">
   <path d="M 0 288 
L 432 288 
L 432 0 
L 0 0 
z
" style="fill: #ffffff"/>
  </g>
  <g id="axes_1">
   <g id="patch_2">
    <path d="M 54 252 
L 388.8 252 
L 388.8 34.56 
L 54 34.56 
z
" style="fill: #ffffff"/>
   </g>
   <g id="matplotlib.axis_1">
    <g id="xtick_1">
     <g id="line2d_1">
      <path d="M 54 252 
L 54 34.56 
" clip-path="url(#pe772a2f50b)" style="fill: none; stroke: #b0b0b0; stroke-width: 0.8; stroke-linecap: square"/>
     </g>
     <g id="line2d_2">
      <defs>
       <path id="m2f243d3979" d="M 0 0 
L 0 3.5 
" style="stroke: #000000; stroke-width: 0.8"/>
      </defs>
      <g>
       <use xlink:href="#m2f243d3979" x="54" y="252" style="stroke: #000000; stroke-width: 0.8"/>
      </g>
     </g>
     <g id="text_1">
      <!-- 0 -->
      <g transform="translate(50.81875 266.598437) scale(0.1 -0.1)">
       <defs>
        <path id="DejaVuSans-30" d="M 2034 4250 
Q 1547 4250 1301 3770 
Q 1056 3291 1056 2328 
Q 1056 1369 1301 889 
Q 1547 409 2034 409 
Q 2525 409 2770 889 
Q 3016 1369 3016 2328 
Q 3016 3291 2770 3770 
Q 2525 4250 2034 4250 
z
M 2034 4750 
Q 2819 4750 3233 4129 
Q 3647 3509 3647 2328 
Q 3647 1150 3233 529 
Q 2819 -91 2034 -91 
Q 1250 -91 836 529 
Q 422 1150 422 2328 
Q 422 3509 836 4129 
Q 1250 4750 2034 4750 
z
" transform="scale(0.015625)"/>
       </defs>
       <use xlink:href="#DejaVuSans-30"/>
      </g>
     </g>
    </g>
    <g id="xtick_2">
     <g id="line2d_3">
      <path d="M 92.045455 252 
L 92.045455 34.56 
" clip-path="url(#pe772a2f50b)" style="fill: none; stroke: #b0b0b0; stroke-width: 0.8; stroke-linecap: square"/>
     </g>
     <g id="line2d_4">
      <g>
       <use xlink:href="#m2f243d3979" x="92.045455" y="252" style="stroke: #000000; stroke-width: 0.8"/>
      </g>
     </g>
     <g id="text_2">
      <!-- 25 -->
      <g transform="translate(85.682955 266.598437) scale(0.1 -0.1)">
       <defs>
        <path id="DejaVuSans-32" d="M 1228 531 
L 3431 531 
L 3431 0 
L 469 0 
L 469 531 
Q 828 903 1448 1529 
Q 2069 2156 2228 2338 
Q 2531 2678 2651 2914 
Q 2772 3150 2772 3378 
Q 2772 3750 2511 3984 
Q 2250 4219 1831 4219 
Q 1534 4219 1204 4116 
Q 875 4013 500 3803 
L 500 4441 
Q 881 4594 1212 4672 
Q 1544 4750 1819 4750 
Q 2544 4750 2975 4387 
Q 3406 4025 3406 3419 
Q 3406 3131 3298 2873 
Q 3191 2616 2906 2266 
Q 2828 2175 2409 1742 
Q 1991 1309 1228 531 
z
" transform="scale(0.015625)"/>
        <path id="DejaVuSans-35" d="M 691 4666 
L 3169 4666 
L 3169 4134 
L 1269 4134 
L 1269 2991 
Q 1406 3038 1543 3061 
Q 1681 3084 1819 3084 
Q 2600 3084 3056 2656 
Q 3513 2228 3513 1497 
Q 3513 744 3044 326 
Q 2575 -91 1722 -91 
Q 1428 -91 1123 -41 
Q 819 9 494 109 
L 494 744 
Q 775 591 1075 516 
Q 1375 441 1709 441 
Q 2250 441 2565 725 
Q 2881 1009 2881 1497 
Q 2881 1984 2565 2268 
Q 2250 2553 1709 2553 
Q 1456 2553 1204 2497 
Q 953 2441 691 2322 
L 691 4666 
z
" transform="scale(0.015625)"/>
       </defs>
       <use xlink:href="#DejaVuSans-32"/>
       <use xlink:href="#DejaVuSans-35" x="63.623047"/>
      </g>
     </g>
    </g>
    <g id="xtick_3">
     <g id="line2d_5">
      <path d="M 130.090909 252 
L 130.090909 34.56 
" clip-path="url(#pe772a2f50b)" style="fill: none; stroke: #b0b0b0; stroke-width: 0.8; stroke-linecap: square"/>
     </g>
     <g id="line2d_6">
      <g>
       <use xlink:href="#m2f243d3979" x="130.090909" y="252" style="stroke: #000000; stroke-width: 0.8"/>
      </g>
     </g>
     <g id="text_3">
      <!-- 50 -->
      <g transform="translate(123.728409 266.598437) scale(0.1 -0.1)">
       <use xlink:href="#DejaVuSans-35"/>
       <use xlink:href="#DejaVuSans-30" x="63.623047"/>
      </g>
     </g>
    </g>
    <g id="xtick_4">
     <g id="line2d_7">
      <path d="M 168.136364 252 
L 168.136364 34.56 
" clip-path="url(#pe772a2f50b)" style="fill: none; stroke: #b0b0b0; stroke-width: 0.8; stroke-linecap: square"/>
     </g>
     <g id="line2d_8">
      <g>
       <use xlink:href="#m2f243d3979" x="168.136364" y="252" style="stroke: #000000; stroke-width: 0.8"/>
      </g>
     </g>
     <g id="text_4">
      <!-- 75 -->
      <g transform="translate(161.773864 266.598437) scale(0.1 -0.1)">
       <defs>
        <path id="DejaVuSans-37" d="M 525 4666 
L 3525 4666 
L 3525 4397 
L 1831 0 
L 1172 0 
L 2766 4134 
L 525 4134 
L 525 4666 
z
" transform="scale(0.015625)"/>
       </defs>
       <use xlink:href="#DejaVuSans-37"/>
       <use xlink:href="#DejaVuSans-35" x="63.623047"/>
      </g>
     </g>
    </g>
    <g id="xtick_5">
     <g id="line2d_9">
      <path d="M 206.181818 252 
L 206.181818 34.56 
" clip-path="url(#pe772a2f50b)" style="fill: none; stroke: #b0b0b0; stroke-width: 0.8; stroke-linecap: square"/>
     </g>
     <g id="line2d_10">
      <g>
       <use xlink:href="#m2f243d3979" x="206.181818" y="252" style="stroke: #000000; stroke-width: 0.8"/>
      </g>
     </g>
     <g id="text_5">
      <!-- 100 -->
      <g transform="translate(196.638068 266.598437) scale(0.1 -0.1)">
       <defs>
        <path id="DejaVuSans-31" d="M 794 531 
L 1825 531 
L 1825 4091 
L 703 3866 
L 703 4441 
L 1819 4666 
L 2450 4666 
L 2450 531 
L 3481 531 
L 3481 0 
L 794 0 
L 794 531 
z
" transform="scale(0.015625)"/>
       </defs>
       <use xlink:href="#DejaVuSans-31"/>
       <use xlink:href="#DejaVuSans-30" x="63.623047"/>
       <use xlink:href="#DejaVuSans-30" x="127.246094"/>
      </g>
     </g>
    </g>
    <g id="xtick_6">
     <g id="line2d_11">
      <path d="M 244.227273 252 
L 244.227273 34.56 
" clip-path="url(#pe772a2f50b)" style="fill: none; stroke: #b0b0b0; stroke-width: 0.8; stroke-linecap: square"/>
     </g>
     <g id="line2d_12">
      <g>
       <use xlink:href="#m2f243d3979" x="244.227273" y="252" style="stroke: #000000; stroke-width: 0.8"/>
      </g>
     </g>
     <g id="text_6">
      <!-- 125 -->
      <g transform="translate(234.683523 266.598437) scale(0.1 -0.1)">
       <use xlink:href="#DejaVuSans-31"/>
       <use xlink:href="#DejaVuSans-32" x="63.623047"/>
       <use xlink:href="#DejaVuSans-35" x="127.246094"/>
      </g>
     </g>
    </g>
    <g id="xtick_7">
     <g id="line2d_13">
      <path d="M 282.272727 252 
L 282.272727 34.56 
" clip-path="url(#pe772a2f50b)" style="fill: none; stroke: #b0b0b0; stroke-width: 0.8; stroke-linecap: square"/>
     </g>
     <g id="line2d_14">
      <g>
       <use xlink:href="#m2f243d3979" x="282.272727" y="252" style="stroke: #000000; stroke-width: 0.8"/>
      </g>
     </g>
     <g id="text_7">
      <!-- 150 -->
      <g transform="translate(272.728977 266.598437) scale(0.1 -0.1)">
       <use xlink:href="#DejaVuSans-31"/>
       <use xlink:href="#DejaVuSans-35" x="63.623047"/>
       <use xlink:href="#DejaVuSans-30" x="127.246094"/>
      </g>
     </g>
    </g>
    <g id="xtick_8">
     <g id="line2d_15">
      <path d="M 320.318182 252 
L 320.318182 34.56 
" clip-path="url(#pe772a2f50b)" style="fill: none; stroke: #b0b0b0; stroke-width: 0.8; stroke-linecap: square"/>
     </g>
     <g id="line2d_16">
      <g>
       <use xlink:href="#m2f243d3979" x="320.318182" y="252" style="stroke: #000000; stroke-width: 0.8"/>
      </g>
     </g>
     <g id="text_8">
      <!-- 175 -->
      <g transform="translate(310.774432 266.598437) scale(0.1 -0.1)">
       <use xlink:href="#DejaVuSans-31"/>
       <use xlink:href="#DejaVuSans-37" x="63.623047"/>
       <use xlink:href="#DejaVuSans-35" x="127.246094"/>
      </g>
     </g>
    </g>
    <g id="xtick_9">
     <g id="line2d_17">
      <path d="M 358.363636 252 
L 358.363636 34.56 
" clip-path="url(#pe772a2f50b)" style="fill: none; stroke: #b0b0b0; stroke-width: 0.8; stroke-linecap: square"/>
     </g>
     <g id="line2d_18">
      <g>
       <use xlink:href="#m2f243d3979" x="358.363636" y="252" style="stroke: #000000; stroke-width: 0.8"/>
      </g>
     </g>
     <g id="text_9">
      <!-- 200 -->
      <g transform="translate(348.819886 266.598437) scale(0.1 -0.1)">
       <use xlink:href="#DejaVuSans-32"/>
       <use xlink:href="#DejaVuSans-30" x="63.623047"/>
       <use xlink:href="#DejaVuSans-30" x="127.246094"/>
      </g>
     </g>
    </g>
    <g id="text_10">
     <!-- Fréquence (kHz) -->
     <g transform="translate(180.682813 280.676562) scale(0.1 -0.1)">
      <defs>
       <path id="DejaVuSans-46" d="M 628 4666 
L 3309 4666 
L 3309 4134 
L 1259 4134 
L 1259 2759 
L 3109 2759 
L 3109 2228 
L 1259 2228 
L 1259 0 
L 628 0 
L 628 4666 
z
" transform="scale(0.015625)"/>
       <path id="DejaVuSans-72" d="M 2631 2963 
Q 2534 3019 2420 3045 
Q 2306 3072 2169 3072 
Q 1681 3072 1420 2755 
Q 1159 2438 1159 1844 
L 1159 0 
L 581 0 
L 581 3500 
L 1159 3500 
L 1159 2956 
Q 1341 3275 1631 3429 
Q 1922 3584 2338 3584 
Q 2397 3584 2469 3576 
Q 2541 3569 2628 3553 
L 2631 2963 
z
" transform="scale(0.015625)"/>
       <path id="DejaVuSans-e9" d="M 3597 1894 
L 3597 1613 
L 953 1613 
Q 991 1019 1311 708 
Q 1631 397 2203 397 
Q 2534 397 2845 478 
Q 3156 559 3463 722 
L 3463 178 
Q 3153 47 2828 -22 
Q 2503 -91 2169 -91 
Q 1331 -91 842 396 
Q 353 884 353 1716 
Q 353 2575 817 3079 
Q 1281 3584 2069 3584 
Q 2775 3584 3186 3129 
Q 3597 2675 3597 1894 
z
M 3022 2063 
Q 3016 2534 2758 2815 
Q 2500 3097 2075 3097 
Q 1594 3097 1305 2825 
Q 1016 2553 972 2059 
L 3022 2063 
z
M 2469 5119 
L 3091 5119 
L 2072 3944 
L 1594 3944 
L 2469 5119 
z
" transform="scale(0.015625)"/>
       <path id="DejaVuSans-71" d="M 947 1747 
Q 947 1113 1208 752 
Q 1469 391 1925 391 
Q 2381 391 2643 752 
Q 2906 1113 2906 1747 
Q 2906 2381 2643 2742 
Q 2381 3103 1925 3103 
Q 1469 3103 1208 2742 
Q 947 2381 947 1747 
z
M 2906 525 
Q 2725 213 2448 61 
Q 2172 -91 1784 -91 
Q 1150 -91 751 415 
Q 353 922 353 1747 
Q 353 2572 751 3078 
Q 1150 3584 1784 3584 
Q 2172 3584 2448 3432 
Q 2725 3281 2906 2969 
L 2906 3500 
L 3481 3500 
L 3481 -1331 
L 2906 -1331 
L 2906 525 
z
" transform="scale(0.015625)"/>
       <path id="DejaVuSans-75" d="M 544 1381 
L 544 3500 
L 1119 3500 
L 1119 1403 
Q 1119 906 1312 657 
Q 1506 409 1894 409 
Q 2359 409 2629 706 
Q 2900 1003 2900 1516 
L 2900 3500 
L 3475 3500 
L 3475 0 
L 2900 0 
L 2900 538 
Q 2691 219 2414 64 
Q 2138 -91 1772 -91 
Q 1169 -91 856 284 
Q 544 659 544 1381 
z
M 1991 3584 
L 1991 3584 
z
" transform="scale(0.015625)"/>
       <path id="DejaVuSans-65" d="M 3597 1894 
L 3597 1613 
L 953 1613 
Q 991 1019 1311 708 
Q 1631 397 2203 397 
Q 2534 397 2845 478 
Q 3156 559 3463 722 
L 3463 178 
Q 3153 47 2828 -22 
Q 2503 -91 2169 -91 
Q 1331 -91 842 396 
Q 353 884 353 1716 
Q 353 2575 817 3079 
Q 1281 3584 2069 3584 
Q 2775 3584 3186 3129 
Q 3597 2675 3597 1894 
z
M 3022 2063 
Q 3016 2534 2758 2815 
Q 2500 3097 2075 3097 
Q 1594 3097 1305 2825 
Q 1016 2553 972 2059 
L 3022 2063 
z
" transform="scale(0.015625)"/>
       <path id="DejaVuSans-6e" d="M 3513 2113 
L 3513 0 
L 2938 0 
L 2938 2094 
Q 2938 2591 2744 2837 
Q 2550 3084 2163 3084 
Q 1697 3084 1428 2787 
Q 1159 2491 1159 1978 
L 1159 0 
L 581 0 
L 581 3500 
L 1159 3500 
L 1159 2956 
Q 1366 3272 1645 3428 
Q 1925 3584 2291 3584 
Q 2894 3584 3203 3211 
Q 3513 2838 3513 2113 
z
" transform="scale(0.015625)"/>
       <path id="DejaVuSans-63" d="M 3122 3366 
L 3122 2828 
Q 2878 2963 2633 3030 
Q 2388 3097 2138 3097 
Q 1578 3097 1268 2742 
Q 959 2388 959 1747 
Q 959 1106 1268 751 
Q 1578 397 2138 397 
Q 2388 397 2633 464 
Q 2878 531 3122 666 
L 3122 134 
Q 2881 22 2623 -34 
Q 2366 -91 2075 -91 
Q 1284 -91 818 406 
Q 353 903 353 1747 
Q 353 2603 823 3093 
Q 1294 3584 2113 3584 
Q 2378 3584 2631 3529 
Q 2884 3475 3122 3366 
z
" transform="scale(0.015625)"/>
       <path id="DejaVuSans-20" transform="scale(0.015625)"/>
       <path id="DejaVuSans-28" d="M 1984 4856 
Q 1566 4138 1362 3434 
Q 1159 2731 1159 2009 
Q 1159 1288 1364 580 
Q 1569 -128 1984 -844 
L 1484 -844 
Q 1016 -109 783 600 
Q 550 1309 550 2009 
Q 550 2706 781 3412 
Q 1013 4119 1484 4856 
L 1984 4856 
z
" transform="scale(0.015625)"/>
       <path id="DejaVuSans-6b" d="M 581 4863 
L 1159 4863 
L 1159 1991 
L 2875 3500 
L 3609 3500 
L 1753 1863 
L 3688 0 
L 2938 0 
L 1159 1709 
L 1159 0 
L 581 0 
L 581 4863 
z
" transform="scale(0.015625)"/>
       <path id="DejaVuSans-48" d="M 628 4666 
L 1259 4666 
L 1259 2753 
L 3553 2753 
L 3553 4666 
L 4184 4666 
L 4184 0 
L 3553 0 
L 3553 2222 
L 1259 2222 
L 1259 0 
L 628 0 
L 628 4666 
z
" transform="scale(0.015625)"/>
       <path id="DejaVuSans-7a" d="M 353 3500 
L 3084 3500 
L 3084 2975 
L 922 459 
L 3084 459 
L 3084 0 
L 275 0 
L 275 525 
L 2438 3041 
L 353 3041 
L 353 3500 
z
" transform="scale(0.015625)"/>
       <path id="DejaVuSans-29" d="M 513 4856 
L 1013 4856 
Q 1481 4119 1714 3412 
Q 1947 2706 1947 2009 
Q 1947 1309 1714 600 
Q 1481 -109 1013 -844 
L 513 -844 
Q 928 -128 1133 580 
Q 1338 1288 1338 2009 
Q 1338 2731 1133 3434 
Q 928 4138 513 4856 
z
" transform="scale(0.015625)"/>
      </defs>
      <use xlink:href="#DejaVuSans-46"/>
      <use xlink:href="#DejaVuSans-72" x="50.269531"/>
      <use xlink:href="#DejaVuSans-e9" x="89.132812"/>
      <use xlink:href="#DejaVuSans-71" x="150.65625"/>
      <use xlink:href="#DejaVuSans-75" x="214.132812"/>
      <use xlink:href="#DejaVuSans-65" x="277.511719"/>
      <use xlink:href="#DejaVuSans-6e" x="339.035156"/>
      <use xlink:href="#DejaVuSans-63" x="402.414062"/>
      <use xlink:href="#DejaVuSans-65" x="457.394531"/>
      <use xlink:href="#DejaVuSans-20" x="518.917969"/>
      <use xlink:href="#DejaVuSans-28" x="550.705078"/>
      <use xlink:href="#DejaVuSans-6b" x="589.71875"/>
      <use xlink:href="#DejaVuSans-48" x="647.628906"/>
      <use xlink:href="#DejaVuSans-7a" x="722.824219"/>
      <use xlink:href="#DejaVuSans-29" x="775.314453"/>
     </g>
    </g>
   </g>
   <g id="matplotlib.axis_2">
    <g id="ytick_1">
     <g id="line2d_19">
      <path d="M 54 242.116364 
L 388.8 242.116364 
" clip-path="url(#pe772a2f50b)" style="fill: none; stroke: #b0b0b0; stroke-width: 0.8; stroke-linecap: square"/>
     </g>
     <g id="line2d_20">
      <defs>
       <path id="m6a8b2d4203" d="M 0 0 
L -3.5 0 
" style="stroke: #000000; stroke-width: 0.8"/>
      </defs>
      <g>
       <use xlink:href="#m6a8b2d4203" x="54" y="242.116364" style="stroke: #000000; stroke-width: 0.8"/>
      </g>
     </g>
     <g id="text_11">
      <!-- 0 -->
      <g transform="translate(40.6375 245.915582) scale(0.1 -0.1)">
       <use xlink:href="#DejaVuSans-30"/>
      </g>
     </g>
    </g>
    <g id="ytick_2">
     <g id="line2d_21">
      <path d="M 54 208.983871 
L 388.8 208.983871 
" clip-path="url(#pe772a2f50b)" style="fill: none; stroke: #b0b0b0; stroke-width: 0.8; stroke-linecap: square"/>
     </g>
     <g id="line2d_22">
      <g>
       <use xlink:href="#m6a8b2d4203" x="54" y="208.983871" style="stroke: #000000; stroke-width: 0.8"/>
      </g>
     </g>
     <g id="text_12">
      <!-- 5 -->
      <g transform="translate(40.6375 212.78309) scale(0.1 -0.1)">
       <use xlink:href="#DejaVuSans-35"/>
      </g>
     </g>
    </g>
    <g id="ytick_3">
     <g id="line2d_23">
      <path d="M 54 175.851379 
L 388.8 175.851379 
" clip-path="url(#pe772a2f50b)" style="fill: none; stroke: #b0b0b0; stroke-width: 0.8; stroke-linecap: square"/>
     </g>
     <g id="line2d_24">
      <g>
       <use xlink:href="#m6a8b2d4203" x="54" y="175.851379" style="stroke: #000000; stroke-width: 0.8"/>
      </g>
     </g>
     <g id="text_13">
      <!-- 10 -->
      <g transform="translate(34.275 179.650598) scale(0.1 -0.1)">
       <use xlink:href="#DejaVuSans-31"/>
       <use xlink:href="#DejaVuSans-30" x="63.623047"/>
      </g>
     </g>
    </g>
    <g id="ytick_4">
     <g id="line2d_25">
      <path d="M 54 142.718887 
L 388.8 142.718887 
" clip-path="url(#pe772a2f50b)" style="fill: none; stroke: #b0b0b0; stroke-width: 0.8; stroke-linecap: square"/>
     </g>
     <g id="line2d_26">
      <g>
       <use xlink:href="#m6a8b2d4203" x="54" y="142.718887" style="stroke: #000000; stroke-width: 0.8"/>
      </g>
     </g>
     <g id="text_14">
      <!-- 15 -->
      <g transform="translate(34.275 146.518106) scale(0.1 -0.1)">
       <use xlink:href="#DejaVuSans-31"/>
       <use xlink:href="#DejaVuSans-35" x="63.623047"/>
      </g>
     </g>
    </g>
    <g id="ytick_5">
     <g id="line2d_27">
      <path d="M 54 109.586395 
L 388.8 109.586395 
" clip-path="url(#pe772a2f50b)" style="fill: none; stroke: #b0b0b0; stroke-width: 0.8; stroke-linecap: square"/>
     </g>
     <g id="line2d_28">
      <g>
       <use xlink:href="#m6a8b2d4203" x="54" y="109.586395" style="stroke: #000000; stroke-width: 0.8"/>
      </g>
     </g>
     <g id="text_15">
      <!-- 20 -->
      <g transform="translate(34.275 113.385613) scale(0.1 -0.1)">
       <use xlink:href="#DejaVuSans-32"/>
       <use xlink:href="#DejaVuSans-30" x="63.623047"/>
      </g>
     </g>
    </g>
    <g id="ytick_6">
     <g id="line2d_29">
      <path d="M 54 76.453902 
L 388.8 76.453902 
" clip-path="url(#pe772a2f50b)" style="fill: none; stroke: #b0b0b0; stroke-width: 0.8; stroke-linecap: square"/>
     </g>
     <g id="line2d_30">
      <g>
       <use xlink:href="#m6a8b2d4203" x="54" y="76.453902" style="stroke: #000000; stroke-width: 0.8"/>
      </g>
     </g>
     <g id="text_16">
      <!-- 25 -->
      <g transform="translate(34.275 80.253121) scale(0.1 -0.1)">
       <use xlink:href="#DejaVuSans-32"/>
       <use xlink:href="#DejaVuSans-35" x="63.623047"/>
      </g>
     </g>
    </g>
    <g id="ytick_7">
     <g id="line2d_31">
      <path d="M 54 43.32141 
L 388.8 43.32141 
" clip-path="url(#pe772a2f50b)" style="fill: none; stroke: #b0b0b0; stroke-width: 0.8; stroke-linecap: square"/>
     </g>
     <g id="line2d_32">
      <g>
       <use xlink:href="#m6a8b2d4203" x="54" y="43.32141" style="stroke: #000000; stroke-width: 0.8"/>
      </g>
     </g>
     <g id="text_17">
      <!-- 30 -->
      <g transform="translate(34.275 47.120629) scale(0.1 -0.1)">
       <defs>
        <path id="DejaVuSans-33" d="M 2597 2516 
Q 3050 2419 3304 2112 
Q 3559 1806 3559 1356 
Q 3559 666 3084 287 
Q 2609 -91 1734 -91 
Q 1441 -91 1130 -33 
Q 819 25 488 141 
L 488 750 
Q 750 597 1062 519 
Q 1375 441 1716 441 
Q 2309 441 2620 675 
Q 2931 909 2931 1356 
Q 2931 1769 2642 2001 
Q 2353 2234 1838 2234 
L 1294 2234 
L 1294 2753 
L 1863 2753 
Q 2328 2753 2575 2939 
Q 2822 3125 2822 3475 
Q 2822 3834 2567 4026 
Q 2313 4219 1838 4219 
Q 1578 4219 1281 4162 
Q 984 4106 628 3988 
L 628 4550 
Q 988 4650 1302 4700 
Q 1616 4750 1894 4750 
Q 2613 4750 3031 4423 
Q 3450 4097 3450 3541 
Q 3450 3153 3228 2886 
Q 3006 2619 2597 2516 
z
" transform="scale(0.015625)"/>
       </defs>
       <use xlink:href="#DejaVuSans-33"/>
       <use xlink:href="#DejaVuSans-30" x="63.623047"/>
      </g>
     </g>
    </g>
    <g id="text_18">
     <!-- Module en linéaire -->
     <g transform="translate(28.195312 189.381563) rotate(-90) scale(0.1 -0.1)">
      <defs>
       <path id="DejaVuSans-4d" d="M 628 4666 
L 1569 4666 
L 2759 1491 
L 3956 4666 
L 4897 4666 
L 4897 0 
L 4281 0 
L 4281 4097 
L 3078 897 
L 2444 897 
L 1241 4097 
L 1241 0 
L 628 0 
L 628 4666 
z
" transform="scale(0.015625)"/>
       <path id="DejaVuSans-6f" d="M 1959 3097 
Q 1497 3097 1228 2736 
Q 959 2375 959 1747 
Q 959 1119 1226 758 
Q 1494 397 1959 397 
Q 2419 397 2687 759 
Q 2956 1122 2956 1747 
Q 2956 2369 2687 2733 
Q 2419 3097 1959 3097 
z
M 1959 3584 
Q 2709 3584 3137 3096 
Q 3566 2609 3566 1747 
Q 3566 888 3137 398 
Q 2709 -91 1959 -91 
Q 1206 -91 779 398 
Q 353 888 353 1747 
Q 353 2609 779 3096 
Q 1206 3584 1959 3584 
z
" transform="scale(0.015625)"/>
       <path id="DejaVuSans-64" d="M 2906 2969 
L 2906 4863 
L 3481 4863 
L 3481 0 
L 2906 0 
L 2906 525 
Q 2725 213 2448 61 
Q 2172 -91 1784 -91 
Q 1150 -91 751 415 
Q 353 922 353 1747 
Q 353 2572 751 3078 
Q 1150 3584 1784 3584 
Q 2172 3584 2448 3432 
Q 2725 3281 2906 2969 
z
M 947 1747 
Q 947 1113 1208 752 
Q 1469 391 1925 391 
Q 2381 391 2643 752 
Q 2906 1113 2906 1747 
Q 2906 2381 2643 2742 
Q 2381 3103 1925 3103 
Q 1469 3103 1208 2742 
Q 947 2381 947 1747 
z
" transform="scale(0.015625)"/>
       <path id="DejaVuSans-6c" d="M 603 4863 
L 1178 4863 
L 1178 0 
L 603 0 
L 603 4863 
z
" transform="scale(0.015625)"/>
       <path id="DejaVuSans-69" d="M 603 3500 
L 1178 3500 
L 1178 0 
L 603 0 
L 603 3500 
z
M 603 4863 
L 1178 4863 
L 1178 4134 
L 603 4134 
L 603 4863 
z
" transform="scale(0.015625)"/>
       <path id="DejaVuSans-61" d="M 2194 1759 
Q 1497 1759 1228 1600 
Q 959 1441 959 1056 
Q 959 750 1161 570 
Q 1363 391 1709 391 
Q 2188 391 2477 730 
Q 2766 1069 2766 1631 
L 2766 1759 
L 2194 1759 
z
M 3341 1997 
L 3341 0 
L 2766 0 
L 2766 531 
Q 2569 213 2275 61 
Q 1981 -91 1556 -91 
Q 1019 -91 701 211 
Q 384 513 384 1019 
Q 384 1609 779 1909 
Q 1175 2209 1959 2209 
L 2766 2209 
L 2766 2266 
Q 2766 2663 2505 2880 
Q 2244 3097 1772 3097 
Q 1472 3097 1187 3025 
Q 903 2953 641 2809 
L 641 3341 
Q 956 3463 1253 3523 
Q 1550 3584 1831 3584 
Q 2591 3584 2966 3190 
Q 3341 2797 3341 1997 
z
" transform="scale(0.015625)"/>
      </defs>
      <use xlink:href="#DejaVuSans-4d"/>
      <use xlink:href="#DejaVuSans-6f" x="86.279297"/>
      <use xlink:href="#DejaVuSans-64" x="147.460938"/>
      <use xlink:href="#DejaVuSans-75" x="210.9375"/>
      <use xlink:href="#DejaVuSans-6c" x="274.316406"/>
      <use xlink:href="#DejaVuSans-65" x="302.099609"/>
      <use xlink:href="#DejaVuSans-20" x="363.623047"/>
      <use xlink:href="#DejaVuSans-65" x="395.410156"/>
      <use xlink:href="#DejaVuSans-6e" x="456.933594"/>
      <use xlink:href="#DejaVuSans-20" x="520.3125"/>
      <use xlink:href="#DejaVuSans-6c" x="552.099609"/>
      <use xlink:href="#DejaVuSans-69" x="579.882812"/>
      <use xlink:href="#DejaVuSans-6e" x="607.666016"/>
      <use xlink:href="#DejaVuSans-e9" x="671.044922"/>
      <use xlink:href="#DejaVuSans-61" x="732.568359"/>
      <use xlink:href="#DejaVuSans-69" x="793.847656"/>
      <use xlink:href="#DejaVuSans-72" x="821.630859"/>
      <use xlink:href="#DejaVuSans-65" x="860.494141"/>
     </g>
    </g>
   </g>
   <g id="line2d_33">
    <path d="M 54 232.447676 
L 54.089787 242.108268 
L 54.076091 44.443636 
L 54.112615 242.06467 
L 54.152182 240.353642 
L 54.130876 242.107323 
L 54.222185 241.977157 
L 54.223707 242.078843 
L 54.226751 242.007733 
L 54.228273 224.96027 
L 54.255665 242.114165 
L 54.337844 242.05281 
L 54.380455 241.377469 
L 54.447415 242.104464 
L 54.532636 238.688142 
L 54.560029 241.956792 
L 54.630033 242.099417 
L 54.608727 241.756418 
L 54.672644 242.031671 
L 54.677209 241.895719 
L 54.678731 242.096454 
L 54.683296 241.98141 
L 54.684818 240.937722 
L 54.792867 242.110189 
L 54.837 240.188773 
L 54.905482 241.999174 
L 54.967876 242.106178 
L 54.989182 241.303533 
L 55.015053 241.918001 
L 55.065273 241.566356 
L 55.115493 242.110821 
L 55.124624 241.937275 
L 55.165713 242.101684 
L 55.141364 240.551367 
L 55.235716 242.087755 
L 55.313329 241.874375 
L 55.295067 242.113652 
L 55.348331 241.98182 
L 55.419856 242.103677 
L 55.403116 241.829079 
L 55.459424 242.032581 
L 55.550733 241.767007 
L 55.535515 242.097373 
L 55.572038 241.86033 
L 55.664869 242.103543 
L 55.597909 241.533758 
L 55.683131 241.868168 
L 55.783571 242.090144 
L 55.750091 241.539563 
L 55.795745 241.972891 
L 55.826182 241.742418 
L 55.853575 242.083846 
L 55.906838 241.886782 
L 55.931187 242.107053 
L 56.011844 241.801384 
L 56.017931 241.913235 
L 56.054455 241.183264 
L 56.089456 242.077946 
L 56.122936 241.987756 
L 56.229464 242.096313 
L 56.206636 241.6833 
L 56.234029 241.993783 
L 56.282727 241.730233 
L 56.275118 242.108549 
L 56.345122 241.995375 
L 56.358818 241.709473 
L 56.364905 242.107682 
L 56.456215 241.883753 
L 56.465345 242.088165 
L 56.511 241.77057 
L 56.568829 242.037997 
L 56.66166 241.833192 
L 56.574916 242.104602 
L 56.679922 241.859191 
L 56.698184 242.10433 
L 56.754491 241.812392 
L 56.791015 241.965297 
L 56.874715 241.748986 
L 56.830582 242.101545 
L 56.902107 241.958052 
L 57.002547 242.106019 
L 56.967545 241.577316 
L 57.010156 241.981915 
L 57.011678 241.811451 
L 57.083204 242.100881 
L 57.119727 241.95692 
L 57.139511 242.098921 
L 57.179078 241.66348 
L 57.232342 242.030646 
L 57.271909 241.777819 
L 57.259735 242.094837 
L 57.343435 242.010163 
L 57.387567 242.088391 
L 57.454527 241.820704 
L 57.527575 242.107243 
L 57.536705 241.77059 
L 57.567142 242.015082 
L 57.579316 241.744634 
L 57.612796 242.098921 
L 57.676713 242.055947 
L 57.719324 242.095108 
L 57.728455 241.526994 
L 57.780196 242.074297 
L 57.880636 241.148471 
L 57.79998 242.082976 
L 57.891289 241.942562 
L 57.930856 242.095245 
L 57.956727 241.788318 
L 58.002382 242.055758 
L 58.032818 241.509489 
L 58.046515 242.109635 
L 58.113475 242.038639 
L 58.185 241.682125 
L 58.139345 242.113841 
L 58.223045 242.080035 
L 58.241307 241.7982 
L 58.331095 242.087001 
L 58.332616 241.952241 
L 58.40262 242.110185 
L 58.404142 241.799498 
L 58.443709 242.061188 
L 58.489364 241.518425 
L 58.547193 242.095229 
L 58.556324 241.915489 
L 58.576107 242.104633 
L 58.641545 241.443146 
L 58.668938 242.055576 
L 58.705462 241.796889 
L 58.731333 242.100627 
L 58.781553 241.911723 
L 58.848513 242.107082 
L 58.793727 241.689545 
L 58.892645 241.922449 
L 58.923082 242.087167 
L 58.994607 241.741523 
L 59.000695 241.993285 
L 59.098091 241.256848 
L 59.017435 242.10055 
L 59.111787 241.964666 
L 59.177225 242.099993 
L 59.200053 241.794407 
L 59.22288 242.020932 
L 59.250273 241.26367 
L 59.248751 242.104173 
L 59.329407 242.047502 
L 59.365931 242.104635 
L 59.355278 241.811809 
L 59.410064 242.062471 
L 59.429847 241.838716 
L 59.516591 242.098231 
L 59.521156 241.955519 
L 59.606378 242.110396 
L 59.554636 241.736781 
L 59.627684 241.82036 
L 59.670295 242.086118 
L 59.706818 241.724792 
L 59.70834 242.10037 
L 59.817911 242.077122 
L 59.872696 241.687642 
L 59.901611 242.111432 
L 59.929004 241.997813 
L 60.011182 241.617369 
L 59.960962 242.087129 
L 60.038575 241.899774 
L 60.056836 242.089562 
L 60.05988 241.795775 
L 60.149667 241.975955 
L 60.233367 242.106648 
L 60.163364 241.615618 
L 60.26076 241.983493 
L 60.323155 241.819729 
L 60.332285 242.104306 
L 60.370331 241.833096 
L 60.47838 242.096976 
L 60.467727 241.419489 
L 60.481424 241.857945 
L 60.59556 242.103149 
L 60.516425 241.801955 
L 60.597082 242.08791 
L 60.619909 241.633817 
L 60.703609 242.10025 
L 60.711218 241.861103 
L 60.724915 242.110861 
L 60.808615 241.724925 
L 60.822311 242.069158 
L 60.924273 241.291728 
L 60.826876 242.08935 
L 60.936447 241.9612 
L 60.98058 242.105344 
L 60.960796 241.735385 
L 61.04754 241.989482 
L 61.076455 241.666436 
L 61.085585 242.089733 
L 61.157111 241.990135 
L 61.196678 242.080289 
L 61.186025 241.808387 
L 61.257551 242.024472 
L 61.321467 241.776168 
L 61.3656 242.094562 
L 61.370165 241.850329 
L 61.478215 242.10381 
L 61.386905 241.76223 
L 61.48278 242.055076 
L 61.548218 242.11061 
L 61.533 241.478876 
L 61.589307 241.995735 
L 61.685182 241.42689 
L 61.622787 242.101532 
L 61.698878 242.002741 
L 61.796275 242.103914 
L 61.711053 241.765752 
L 61.805405 241.985818 
L 61.837364 241.813411 
L 61.809971 242.107664 
L 61.916498 241.981691 
L 61.960631 242.087902 
L 61.989545 241.175001 
L 62.024547 241.974302 
L 62.082376 241.770607 
L 62.071724 242.089194 
L 62.134118 242.009638 
L 62.173685 242.087164 
L 62.141727 241.735203 
L 62.245211 242.050728 
L 62.293909 241.524843 
L 62.333476 242.098481 
L 62.356304 242.006983 
L 62.363913 242.092473 
L 62.446091 241.517757 
L 62.464353 242.071364 
L 62.473484 241.733078 
L 62.534356 242.107385 
L 62.575445 241.789148 
L 62.589142 242.099082 
L 62.598273 241.756668 
L 62.68806 242.000452 
L 62.761107 242.10596 
L 62.750455 241.646533 
L 62.797631 242.026848 
L 62.902636 241.159355 
L 62.8722 242.10807 
L 62.908724 241.983382 
L 62.97264 242.084538 
L 62.968075 241.778445 
L 63.016773 242.076503 
L 63.0396 241.783721 
L 63.035035 242.096415 
L 63.127865 241.937782 
L 63.207 241.534036 
L 63.153736 242.093848 
L 63.231349 241.958957 
L 63.318093 242.109133 
L 63.266351 241.747614 
L 63.342442 242.012737 
L 63.395705 242.104062 
L 63.359182 241.627981 
L 63.452013 242.05156 
L 63.467231 241.779195 
L 63.547887 242.091457 
L 63.561584 242.02159 
L 63.655936 242.098409 
L 63.59202 241.704043 
L 63.662024 242.001659 
L 63.663545 241.672935 
L 63.693982 242.100765 
L 63.773116 242.004956 
L 63.785291 242.097372 
L 63.808118 241.770955 
L 63.8766 242.053027 
L 63.967909 241.551397 
L 63.964865 242.09699 
L 63.986171 241.974428 
L 64.072915 242.103828 
L 64.030304 241.786829 
L 64.097264 241.981282 
L 64.173355 242.11153 
L 64.120091 241.598846 
L 64.202269 242.048478 
L 64.292056 241.764971 
L 64.307275 242.09257 
L 64.313362 241.989654 
L 64.424455 241.672251 
L 64.418367 242.098765 
L 64.425976 241.929103 
L 64.427498 242.114927 
L 64.432064 241.67086 
L 64.535547 241.943868 
L 64.584245 241.722882 
L 64.639031 242.087446 
L 64.645118 241.91518 
L 64.740993 242.105839 
L 64.728818 241.6737 
L 64.756211 241.987325 
L 64.759255 241.738685 
L 64.827736 242.105128 
L 64.867304 241.836064 
L 64.922089 242.098223 
L 64.881 241.429578 
L 64.979918 241.995036 
L 65.033182 241.600297 
L 65.059053 242.094154 
L 65.091011 241.812539 
L 65.167102 242.102959 
L 65.14884 241.763029 
L 65.202104 241.954178 
L 65.269064 241.703974 
L 65.250802 242.093603 
L 65.311675 242.02445 
L 65.41668 241.693779 
L 65.395375 242.102085 
L 65.425811 241.927724 
L 65.488205 242.092895 
L 65.476031 241.685532 
L 65.51712 242.059761 
L 65.596255 242.092764 
L 65.628213 241.65659 
L 65.660171 242.07865 
L 65.643431 241.456066 
L 65.739305 241.926785 
L 65.794091 241.403432 
L 65.78496 242.098544 
L 65.842789 241.748317 
L 65.896053 242.105867 
L 65.946273 241.399676 
L 65.953882 241.92327 
L 66.022364 241.643717 
L 65.991927 242.060056 
L 66.066496 241.746336 
L 66.133456 242.085616 
L 66.110629 241.577664 
L 66.177589 242.012399 
L 66.232375 241.581746 
L 66.267376 242.045281 
L 66.288682 241.691955 
L 66.323684 242.089353 
L 66.396731 241.619516 
L 66.402818 241.967697 
L 66.456082 241.618465 
L 66.463691 242.101248 
L 66.513911 241.863551 
L 66.597611 242.103657 
L 66.548913 241.582539 
L 66.615873 242.048949 
L 66.617395 241.508755 
L 66.641744 242.089529 
L 66.726965 241.715412 
L 66.760445 242.094594 
L 66.769576 241.440344 
L 66.83958 241.967444 
L 66.921758 241.602361 
L 66.877625 242.069245 
L 66.952195 241.831283 
L 67.043504 242.066987 
L 67.032851 241.708194 
L 67.063287 241.832421 
L 67.102855 241.695323 
L 67.136335 242.085696 
L 67.169815 241.734235 
L 67.250471 242.110172 
L 67.255036 241.436414 
L 67.280907 241.951361 
L 67.321996 241.632027 
L 67.356998 242.080654 
L 67.385913 241.64264 
L 67.423958 242.091386 
L 67.468091 241.468082 
L 67.497005 241.958248 
L 67.548747 241.612206 
L 67.533529 242.097579 
L 67.605055 241.891917 
L 67.65984 242.112026 
L 67.620273 241.468881 
L 67.714625 241.784541 
L 67.766367 241.568064 
L 67.740496 242.101681 
L 67.824196 241.79268 
L 67.862242 242.095472 
L 67.868329 241.600826 
L 67.935289 241.885962 
L 67.983987 242.095576 
L 67.974856 241.519724 
L 68.043338 241.965899 
L 68.096602 241.609281 
L 68.088993 242.078206 
L 68.154431 241.77427 
L 68.241175 242.095371 
L 68.229 241.630046 
L 68.267045 241.977671 
L 68.306613 241.604236 
L 68.270089 242.111163 
L 68.376616 241.709566 
L 68.423793 242.089897 
L 68.381182 241.299999 
L 68.487709 241.990713 
L 68.533364 241.545227 
L 68.498362 242.112839 
L 68.598802 241.867266 
L 68.610976 242.077921 
L 68.620107 241.612802 
L 68.706851 241.800471 
L 68.708373 241.647281 
L 68.750984 242.098347 
L 68.816422 241.869187 
L 68.884904 242.097513 
L 68.827075 241.550061 
L 68.927515 241.992781 
L 68.979256 241.520372 
L 68.973169 242.066591 
L 69.038607 241.974383 
L 69.137525 241.569802 
L 69.125351 242.08133 
L 69.1497 241.946452 
L 69.219704 242.112294 
L 69.154265 241.466973 
L 69.260793 242.001899 
L 69.3171 241.520591 
L 69.324709 242.089127 
L 69.371885 241.968248 
L 69.382538 241.687796 
L 69.429715 242.069857 
L 69.481456 241.709107 
L 69.560591 242.094572 
L 69.571244 241.59324 
L 69.592549 241.73783 
L 69.598636 241.261816 
L 69.66864 242.094907 
L 69.700598 241.862754 
L 69.714295 242.102597 
L 69.750818 240.853051 
L 69.811691 241.911804 
L 69.903 241.232611 
L 69.851258 242.086182 
L 69.91974 241.889895 
L 69.960829 242.084948 
L 69.956264 241.707213 
L 70.030833 241.99399 
L 70.041485 241.802209 
L 70.035398 242.04376 
L 70.044529 241.890935 
L 70.055182 241.617637 
L 70.134316 242.082297 
L 70.1541 241.992912 
L 70.155622 241.995869 
L 70.163231 241.775395 
L 70.172362 241.897684 
L 70.207364 241.392684 
L 70.183015 242.102862 
L 70.281933 241.925107 
L 70.356502 241.692008 
L 70.286498 242.079633 
L 70.380851 241.995985 
L 70.437158 242.098304 
L 70.456942 241.678803 
L 70.484335 242.026011 
L 70.561947 241.550537 
L 70.58934 242.092316 
L 70.593905 241.922464 
L 70.653256 242.095933 
L 70.625864 241.722713 
L 70.703476 242.020559 
L 70.718695 241.61299 
L 70.800873 242.087551 
L 70.814569 241.785867 
L 70.832831 242.081926 
L 70.870876 241.681132 
L 70.927184 242.054031 
L 71.000231 241.617382 
L 70.945445 242.059517 
L 71.038276 242.025839 
L 71.073278 241.680766 
L 71.045885 242.09373 
L 71.149369 242.02652 
L 71.245244 242.094982 
L 71.240678 241.697876 
L 71.257418 241.990855 
L 71.347205 241.666857 
L 71.366989 242.083127 
L 71.370033 241.80467 
L 71.383729 242.084683 
L 71.427862 241.583521 
L 71.481125 241.871271 
L 71.581565 242.100873 
L 71.549607 241.646898 
L 71.592218 241.979762 
L 71.637873 241.618479 
L 71.598305 242.106661 
L 71.703311 241.857167 
L 71.747444 242.098749 
L 71.729182 241.614074 
L 71.812882 242.05874 
L 71.884407 241.694847 
L 71.834187 242.084284 
L 71.923975 242.040351 
L 72.02898 241.599758 
L 71.942236 242.099224 
L 72.033545 241.787999 
L 72.0792 242.110056 
L 72.056373 241.733395 
L 72.144638 241.938319 
L 72.197902 241.59388 
L 72.207033 242.097521 
L 72.254209 241.96803 
L 72.3303 242.105867 
L 72.312038 241.756052 
L 72.362258 242.094545 
L 72.439871 241.738948 
L 72.468785 242.102678 
L 72.473351 242.058145 
L 72.490091 241.713498 
L 72.544876 242.097368 
L 72.584444 241.990842 
L 72.607271 242.10259 
L 72.654447 241.715622 
L 72.695536 241.996085 
L 72.771627 242.07777 
L 72.747278 241.74424 
L 72.789889 241.972708 
L 72.88272 241.715509 
L 72.869024 242.10029 
L 72.89946 241.85312 
L 72.910113 242.097575 
L 72.945115 241.675063 
L 73.010553 241.896692 
L 73.062295 242.115321 
L 73.098818 241.533018 
L 73.121645 241.967402 
L 73.173387 242.105566 
L 73.203824 241.703122 
L 73.228173 242.029824 
L 73.251 241.375465 
L 73.257087 242.112857 
L 73.339265 241.77781 
L 73.383398 242.103458 
L 73.403182 241.450543 
L 73.448836 241.777008 
L 73.456445 241.720061 
L 73.527971 242.094908 
L 73.547755 241.945081 
L 73.549276 242.10109 
L 73.555364 241.667935 
L 73.657325 241.897339 
L 73.693849 242.091212 
L 73.674065 241.763121 
L 73.706024 241.940594 
L 73.707545 241.620823 
L 73.815595 242.102409 
L 73.859727 241.465789 
L 73.928209 242.046816 
L 73.929731 242.045345 
L 73.931253 242.060957 
L 74.011909 241.675308 
L 73.949515 242.097263 
L 74.043867 241.792436 
L 74.133655 242.090147 
L 74.142785 241.733428 
L 74.158004 242.019234 
L 74.189962 241.835098 
L 74.162569 242.098 
L 74.270618 241.953516 
L 74.307142 242.090701 
L 74.316273 241.709713 
L 74.381711 241.979701 
L 74.441062 241.695867 
L 74.396929 242.094321 
L 74.491282 241.976367 
L 74.567373 242.093027 
L 74.498891 241.831367 
L 74.594765 241.874742 
L 74.611505 241.836911 
L 74.614549 242.087245 
L 74.643464 242.00644 
L 74.713467 242.11296 
L 74.721076 241.796493 
L 74.754556 242.095367 
L 74.806298 241.778542 
L 74.768253 242.109869 
L 74.867171 241.892512 
L 74.893042 242.087613 
L 74.938696 241.817183 
L 74.978264 241.94631 
L 74.990438 242.108744 
L 75.061964 241.834853 
L 75.089356 242.064296 
L 75.138055 241.830377 
L 75.106096 242.101495 
L 75.200449 241.882786 
L 75.241538 242.08524 
L 75.229364 241.802863 
L 75.313064 242.082389 
L 75.352631 241.797602 
L 75.383067 242.103477 
L 75.434809 241.96787 
L 75.466767 242.100969 
L 75.439375 241.908877 
L 75.547424 242.039562 
L 75.576338 241.820347 
L 75.559598 242.093888 
L 75.652429 242.049751 
L 75.653951 242.114298 
L 75.685909 241.819909 
L 75.762 242.065407 
L 75.838091 241.821842 
L 75.813742 242.097381 
L 75.874615 241.906386 
L 75.903529 241.834212 
L 75.952227 242.110347 
L 75.982664 242.027555 
L 76.032884 241.848067 
L 75.999404 242.09463 
L 76.092235 241.967383 
L 76.159195 242.105619 
L 76.143976 241.857313 
L 76.203327 242.094312 
L 76.279418 241.856909 
L 76.274853 242.107126 
L 76.315942 241.981324 
L 76.349422 242.11075 
L 76.373771 241.874314 
L 76.427035 242.073084 
L 76.451384 242.087381 
L 76.542693 241.836952 
L 76.556389 242.099687 
L 76.559433 241.835434 
L 76.653785 242.000119 
L 76.725311 241.849721 
L 76.661395 242.104127 
L 76.758791 241.963468 
L 76.790749 242.107703 
L 76.778575 241.901773 
L 76.869884 241.969254 
L 76.910973 241.837119 
L 76.920104 242.10173 
L 76.959671 241.998932 
L 76.961193 242.099527 
L 77.044893 241.81323 
L 77.069242 242.06911 
L 77.090547 241.894169 
L 77.165116 242.110311 
L 77.180335 242.067771 
L 77.197075 241.842772 
L 77.216858 242.101963 
L 77.291427 241.972294 
L 77.370562 242.106533 
L 77.311211 241.812016 
L 77.400998 242.003954 
L 77.40252 241.898606 
L 77.439044 242.097809 
L 77.510569 242.050503 
L 77.527309 241.857269 
L 77.548615 242.102083 
L 77.621662 241.984856 
L 77.63688 242.104649 
L 77.646011 241.857925 
L 77.731233 241.958828 
L 77.732755 241.958275 
L 77.772322 242.106783 
L 77.813411 241.852735 
L 77.843847 242.029297 
L 77.929069 242.103524 
L 77.872762 241.921049 
L 77.953418 242.01223 
L 78.03864 241.844467 
L 78.027987 242.111366 
L 78.053858 241.938088 
L 78.090382 242.109687 
L 78.102556 241.841299 
L 78.164951 242.062551 
L 78.224302 241.896164 
L 78.17256 242.098242 
L 78.277565 242.006098 
L 78.301915 242.101557 
L 78.292784 241.923175 
L 78.388658 242.095549 
L 78.428225 241.835094 
L 78.452575 242.107397 
L 78.501273 241.956928 
L 78.595625 241.883897 
L 78.613887 242.10646 
L 78.632149 241.913143 
L 78.726502 241.960227 
L 78.822376 242.10151 
L 78.729545 241.786508 
L 78.837595 242.036327 
L 78.881727 241.768982 
L 78.915207 242.108522 
L 78.947165 242.055686 
L 79.021735 242.110822 
L 78.966949 241.885926 
L 79.058258 242.088382 
L 79.138915 241.908558 
L 79.061302 242.109432 
L 79.169351 241.955418 
L 79.205875 242.112381 
L 79.186091 241.891948 
L 79.281965 242.096455 
L 79.339795 241.919114 
L 79.345882 242.112241 
L 79.39458 242.012743 
L 79.491976 241.888366 
L 79.472193 242.110358 
L 79.504151 242.031423 
L 79.607635 242.105645 
L 79.563502 241.922809 
L 79.610678 242.052692 
L 79.694378 241.935476 
L 79.627418 242.106239 
L 79.720249 242.055013 
L 79.787209 242.105422 
L 79.747642 241.928685 
L 79.831342 242.091425 
L 79.937869 241.938703 
L 79.884605 242.099886 
L 79.942435 242.073495 
L 79.948522 241.955148 
L 79.953087 242.11038 
L 80.055049 242.027247 
L 80.122009 242.107697 
L 80.112878 241.957004 
L 80.166142 242.068909 
L 80.169185 241.962167 
L 80.207231 242.10527 
L 80.277235 242.037924 
L 80.328976 242.101033 
L 80.286365 241.93778 
L 80.386805 242.028217 
L 80.438547 241.915926 
L 80.493333 242.107998 
L 80.49942 241.951926 
L 80.610513 242.110416 
L 80.612035 242.044155 
L 80.65008 242.111355 
L 80.6166 241.919006 
L 80.720084 242.090695 
L 80.745955 241.952749 
L 80.815958 242.113914 
L 80.832698 241.996428 
L 80.878353 242.109906 
L 80.920964 241.942446 
L 80.945313 242.096279 
L 81.007707 241.974455 
L 81.030535 242.109304 
L 81.056405 242.048782 
L 81.144671 242.106712 
L 81.060971 241.961499 
L 81.164455 242.000572 
L 81.2862 242.105874 
L 81.167498 241.947609 
L 81.287722 242.045506 
L 81.318158 241.937231 
L 81.35316 242.106675 
L 81.397293 242.032495 
L 81.462731 242.106907 
L 81.40338 241.984271 
L 81.506864 242.090924 
L 81.584476 241.968687 
L 81.5373 242.101745 
L 81.617956 242.084436 
L 81.624044 241.97765 
L 81.684916 242.111955 
L 81.729049 242.05995 
L 81.80514 242.1033 
L 81.817315 241.944542 
L 81.83862 242.083283 
L 81.890362 241.911956 
L 81.911667 242.100137 
L 81.951235 242.020868 
L 82.015151 242.113886 
L 82.053196 241.934068 
L 82.062327 242.048569 
L 82.071458 241.961923 
L 82.124722 242.115609 
L 82.168855 242.028149 
L 82.220596 242.11096 
L 82.211465 241.93577 
L 82.278425 242.083347 
L 82.279947 241.982447 
L 82.381909 242.115109 
L 82.389518 241.984117 
L 82.480827 242.108076 
L 82.436695 241.939819 
L 82.502133 242.08392 
L 82.509742 241.974678 
L 82.540178 242.113861 
L 82.613225 242.054815 
L 82.695404 242.10531 
L 82.646705 241.989037 
L 82.722796 242.082512 
L 82.811062 241.968797 
L 82.756276 242.108839 
L 82.833889 242.016364 
L 82.849107 242.113423 
L 82.878022 241.956782 
L 82.944982 242.105613 
L 82.961722 241.987261 
L 83.057596 242.015592 
L 83.109338 242.113739 
L 83.075858 242.006797 
L 83.168689 242.106187 
L 83.217387 241.996016 
L 83.221953 242.110559 
L 83.281304 242.039988 
L 83.3787 242.106458 
L 83.366525 241.984247 
L 83.393918 242.078787 
L 83.498924 241.985756 
L 83.413702 242.113313 
L 83.506533 242.076459 
L 83.588711 242.108002 
L 83.526316 241.996201 
L 83.619147 242.097377 
L 83.651105 242.015555 
L 83.666324 242.107099 
L 83.73024 242.07353 
L 83.823071 241.99864 
L 83.786547 242.109609 
L 83.839811 242.035843 
L 83.893075 242.111771 
L 83.856551 242.000243 
L 83.950904 242.086539 
L 84.055909 241.960518 
L 84.022429 242.108665 
L 84.063518 242.024695 
L 84.138087 242.113835 
L 84.168524 242.003225 
L 84.176133 242.077204 
L 84.26592 242.00636 
L 84.195916 242.111091 
L 84.285704 242.102966 
L 84.360273 241.987712 
L 84.34962 242.109467 
L 84.396796 242.065051 
L 84.488105 242.012139 
L 84.507889 242.106429 
L 84.512455 241.978725 
L 84.538325 242.109982 
L 84.618982 242.087378 
L 84.733118 242.003156 
L 84.760511 242.036354 
L 84.789425 242.106219 
L 84.790947 241.971374 
L 84.873125 242.091762 
L 84.943129 241.984562 
L 84.879213 242.113363 
L 84.982696 242.04479 
L 84.984218 242.113505 
L 85.016176 241.987486 
L 85.092267 242.093825 
L 85.096833 241.994106 
L 85.124225 242.111891 
L 85.201838 242.095266 
L 85.229231 242.104858 
L 85.210969 242.023087 
L 85.245971 242.075169 
L 85.247493 241.981308 
L 85.261189 242.110894 
L 85.355542 242.059082 
L 85.465113 242.114933 
L 85.411849 241.990136 
L 85.469678 242.110629 
L 85.564031 241.986479 
L 85.475765 242.114285 
L 85.580771 242.081394 
L 85.591424 241.988554 
L 85.690342 242.105766 
L 85.729909 241.965555 
L 85.693385 242.107342 
L 85.801435 242.082806 
L 85.886656 242.107074 
L 85.813609 242.019128 
L 85.903396 242.088433 
L 85.932311 242.007595 
L 85.962747 242.11197 
L 86.014489 242.024233 
L 86.07384 242.115082 
L 86.041882 241.994826 
L 86.127104 242.084942 
L 86.169715 242.111872 
L 86.130147 242.015383 
L 86.233631 242.071002 
L 86.264067 242.006437 
L 86.286895 242.110466 
L 86.343202 242.098914 
L 86.416249 242.000361 
L 86.347767 242.109688 
L 86.455816 242.077217 
L 86.463425 242.095622 
L 86.59278 242.032235 
L 86.670393 242.108684 
L 86.629304 242.018548 
L 86.703873 242.049761 
L 86.779964 242.115952 
L 86.769311 241.996952 
L 86.814965 242.068528 
L 86.901709 242.110062 
L 86.865185 242.02179 
L 86.919971 242.087075 
L 86.921493 241.981815 
L 86.986931 242.109741 
L 87.029542 242.081885 
L 87.076718 242.113518 
L 87.126938 242.010875 
L 87.136069 242.072338 
L 87.16194 241.999422 
L 87.234987 242.111433 
L 87.247162 242.070743 
L 87.257815 242.008057 
L 87.254771 242.108751 
L 87.356733 242.054414 
L 87.382604 242.112856 
L 87.393256 242.024174 
L 87.467825 242.055686 
L 87.543916 242.022664 
L 87.524133 242.115103 
L 87.574353 242.058944 
L 87.659575 242.111141 
L 87.618485 241.992979 
L 87.683924 242.080279 
L 87.737187 242.017245 
L 87.717404 242.113355 
L 87.795016 242.031631 
L 87.866542 242.111942 
L 87.837627 242.014221 
L 87.906109 242.086555 
L 88.000462 242.018015 
L 87.936545 242.110113 
L 88.017202 242.08884 
L 88.026333 242.018811 
L 88.125251 242.113217 
L 88.154165 241.993067 
L 88.236344 242.107611 
L 88.312435 242.008079 
L 88.275911 242.112872 
L 88.348958 242.062595 
L 88.438745 242.030085 
L 88.358089 242.10849 
L 88.458529 242.055128 
L 88.520924 242.113037 
L 88.496575 242.026515 
L 88.569622 242.08458 
L 88.644191 241.99394 
L 88.583318 242.10522 
L 88.677671 242.017199 
L 88.730935 242.110765 
L 88.76898 242.01391 
L 88.788764 242.038713 
L 88.896813 242.110857 
L 88.796373 241.998602 
L 88.899856 242.066672 
L 88.921162 242.014506 
L 88.943989 242.113183 
L 89.007905 242.061829 
L 89.091605 242.110468 
L 89.050516 242.02696 
L 89.118998 242.06565 
L 89.298573 242.018945 
L 89.123564 242.102899 
L 89.307704 242.055544 
L 89.309225 242.114952 
L 89.350315 242.004836 
L 89.418796 242.104919 
L 89.469016 242.007859 
L 89.432493 242.114355 
L 89.529889 242.08521 
L 89.633373 242.106403 
L 89.599893 241.993606 
L 89.640982 242.100409 
L 89.738378 242.11255 
L 89.752075 242.016523 
L 89.855558 242.105443 
L 89.768815 242.014244 
L 89.863167 242.084694 
L 89.920996 242.032124 
L 89.870776 242.105583 
L 89.972738 242.067391 
L 90.0747 242.111267 
L 90.032089 242.021818 
L 90.083831 242.101114 
L 90.184271 242.004324 
L 90.105136 242.112273 
L 90.194924 242.060648 
L 90.204055 242.111424 
L 90.286233 242.018861 
L 90.306016 242.065945 
L 90.407978 242.113081 
L 90.330365 242.033172 
L 90.414065 242.088179 
L 90.511462 242.037917 
L 90.473416 242.110755 
L 90.525158 242.088484 
L 90.532767 242.018312 
L 90.601249 242.111938 
L 90.636251 242.066046 
L 90.71082 242.013221 
L 90.668209 242.106635 
L 90.745822 242.059531 
L 90.847784 242.11202 
L 90.783867 242.026237 
L 90.855393 242.078495 
L 90.901047 242.019966 
L 90.952789 242.11022 
L 90.964964 242.061354 
L 91.065404 242.112401 
L 91.019749 242.013057 
L 91.076056 242.067965 
L 91.159756 242.021504 
L 91.098884 242.112218 
L 91.184105 242.046425 
L 91.241935 242.111834 
L 91.257153 242.008025 
L 91.295198 242.09704 
L 91.384985 242.031238 
L 91.375855 242.107745 
L 91.406291 242.056084 
L 91.473251 242.111853 
L 91.419987 242.012612 
L 91.521949 242.103661 
L 91.573691 242.011538 
L 91.570647 242.110378 
L 91.633042 242.087928 
L 91.736525 242.107818 
L 91.690871 242.008912 
L 91.744135 242.082948 
L 91.811095 242.112374 
L 91.853705 242.026441 
L 91.925231 242.112406 
L 91.941971 242.019302 
L 91.964798 242.07371 
L 92.021105 242.107962 
L 92.030236 242.016273 
L 92.077413 242.080746 
L 92.177853 242.115587 
L 92.094153 242.011804 
L 92.190027 242.082541 
L 92.291989 242.032025 
L 92.208289 242.10544 
L 92.30112 242.059331 
L 92.410691 242.111628 
L 92.305685 242.05079 
L 92.413735 242.088006 
L 92.444171 242.020345 
L 92.471564 242.111221 
L 92.524827 242.079926 
L 92.544611 242.03126 
L 92.632876 242.11212 
L 92.640485 242.025318 
L 92.743969 242.086632 
L 92.792667 242.020232 
L 92.766796 242.111257 
L 92.855062 242.078925 
L 92.961589 242.10407 
L 92.883976 242.039164 
L 92.967676 242.084574 
L 93.0042 242.035931 
L 92.97072 242.112462 
L 93.078769 242.057699 
L 93.148773 242.113674 
L 93.100075 242.032212 
L 93.191384 242.097676 
L 93.290302 242.110466 
L 93.208124 242.041176 
L 93.300955 242.092073 
L 93.340522 242.013037 
L 93.311607 242.109893 
L 93.415091 242.06736 
L 93.495747 242.109909 
L 93.433353 242.029018 
L 93.526184 242.091051 
L 93.55662 242.019451 
L 93.529227 242.11164 
L 93.635755 242.099713 
L 93.737716 242.114893 
L 93.734673 242.00429 
L 93.746847 242.099746 
L 93.762065 242.025729 
L 93.825982 242.11314 
L 93.859462 242.071293 
L 93.946205 242.105138 
L 93.870115 242.032795 
L 93.97512 242.094275 
L 94.07556 242.103104 
L 94.013165 242.014498 
L 94.086213 242.079276 
L 94.087735 242.024224 
L 94.112084 242.113171 
L 94.195784 242.097084 
L 94.241438 242.018759 
L 94.221655 242.111228 
L 94.308398 242.100212 
L 94.408838 242.092111 
L 94.311442 242.036099 
L 94.413404 242.061279 
L 94.463624 242.032217 
L 94.452971 242.112111 
L 94.519931 242.090134 
L 94.586891 242.112017 
L 94.554933 242.040155 
L 94.631024 242.101821 
L 94.734507 242.034791 
L 94.641676 242.11385 
L 94.757335 242.093661 
L 94.848644 242.103607 
L 94.834947 242.026016 
L 94.865384 242.0855 
L 94.965824 242.023085 
L 94.87908 242.108802 
L 94.976476 242.061595 
L 95.078438 242.106976 
L 94.999304 242.03577 
L 95.087569 242.06551 
L 95.367584 242.03657 
L 95.090613 242.107611 
L 95.369105 242.075881 
L 95.452805 242.111293 
L 95.44824 242.011998 
L 95.480198 242.086638 
L 95.580638 242.02026 
L 95.569985 242.114548 
L 95.591291 242.084647 
L 95.687165 242.045332 
L 95.5989 242.110104 
L 95.706949 242.061387 
L 95.722167 242.111836 
L 95.754125 242.029461 
L 95.81652 242.093791 
L 95.897176 242.021776 
L 95.869784 242.112189 
L 95.927613 242.089343 
L 96.037184 242.022812 
L 95.958049 242.110781 
L 96.038705 242.08653 
L 96.119362 242.041227 
L 96.063055 242.10833 
L 96.149798 242.063957 
L 96.221324 242.012831 
L 96.260891 242.111018 
L 96.30198 242.114924 
L 96.373505 242.028068 
L 96.455684 242.109682 
L 96.4359 242.017164 
L 96.484598 242.062655 
L 96.55308 242.02683 
L 96.498295 242.115317 
L 96.594169 242.081836 
L 96.697653 242.112422 
L 96.655042 242.02979 
L 96.70374 242.061995 
L 96.801136 242.10687 
L 96.807224 242.022149 
L 96.814833 242.06619 
L 96.907664 242.038032 
L 96.823964 242.10507 
L 96.919838 242.083975 
L 97.017235 242.11154 
L 96.973102 242.013865 
L 97.029409 242.10094 
L 97.053758 242.034067 
L 97.085716 242.112622 
L 97.140502 242.044304 
L 97.198331 242.108477 
L 97.163329 242.018252 
L 97.254638 242.087476 
L 97.39008 242.036496 
L 97.260725 242.112399 
L 97.393124 242.045873 
L 97.49052 242.111626 
L 97.429647 242.027864 
L 97.504216 242.08469 
L 97.581829 242.021048 
L 97.568133 242.112378 
L 97.615309 242.063247 
L 97.677704 242.111934 
L 97.671616 242.041664 
L 97.72488 242.052773 
L 97.817711 242.098709 
L 97.752273 242.024138 
L 97.834451 242.052121 
L 97.846625 242.020247 
L 97.893802 242.112224 
L 97.944022 242.059529 
L 98.012504 242.111551 
L 97.963805 242.036204 
L 98.056636 242.086073 
L 98.122075 242.028001 
L 98.096204 242.115565 
L 98.167729 242.065665 
L 98.265125 242.108819 
L 98.24382 242.031674 
L 98.278822 242.073586 
L 98.374696 242.042161 
L 98.309258 242.108883 
L 98.388393 242.087219 
L 98.396002 242.018474 
L 98.540575 242.110482 
L 98.62884 242.045349 
L 98.59536 242.112139 
L 98.651667 242.076803 
L 98.747542 242.108373 
L 98.711018 242.037743 
L 98.76276 242.076578 
L 98.784065 242.044574 
L 98.794718 242.108963 
L 98.870809 242.083325 
L 98.962118 242.109815 
L 98.93016 242.035258 
L 98.981902 242.088987 
L 99.000164 242.031802 
L 98.99712 242.111203 
L 99.092995 242.091764 
L 99.188869 242.027519 
L 99.103647 242.113582 
L 99.205609 242.086651 
L 99.222349 242.030642 
L 99.31518 242.106758 
L 99.395836 242.023606 
L 99.359313 242.112665 
L 99.426273 242.084455 
L 99.543453 242.050468 
L 99.443013 242.103826 
L 99.548018 242.091286 
L 99.634762 242.112676 
L 99.592151 242.036771 
L 99.654545 242.046066 
L 99.73368 242.041227 
L 99.662155 242.113232 
L 99.756507 242.066797 
L 99.846295 242.112832 
L 99.821945 242.050447 
L 99.869122 242.108082 
L 99.946735 242.054301 
L 99.980215 242.084938 
L 100.041087 242.11098 
L 100.039565 242.041808 
L 100.092829 242.102981 
L 100.191747 242.027186 
L 100.100438 242.107598 
L 100.217618 242.080979 
L 100.30284 242.11092 
L 100.238924 242.036287 
L 100.330233 242.106063 
L 100.415455 242.055154 
L 100.348495 242.113023 
L 100.441325 242.068465 
L 100.547853 242.112556 
L 100.450456 242.038414 
L 100.55394 242.108179 
L 100.610247 242.050042 
L 100.672642 242.072815 
L 100.760907 242.111814 
L 100.678729 242.042939 
L 100.782213 242.052665 
L 100.829389 242.11266 
L 100.812649 242.028669 
L 100.893305 242.099972 
L 100.964831 242.024278 
L 100.92222 242.111043 
L 101.004398 242.089784 
L 101.021138 242.051633 
L 101.010485 242.113071 
L 101.117013 242.073982 
L 101.211365 242.060821 
L 101.129187 242.114235 
L 101.225062 242.083095 
L 101.267673 242.113308 
L 101.252455 242.043696 
L 101.337676 242.099496 
L 101.418333 242.051889 
L 101.366591 242.112624 
L 101.448769 242.092401 
L 101.552253 242.113307 
L 101.495945 242.033541 
L 101.561384 242.0901 
L 101.603995 242.049136 
L 101.573558 242.108378 
L 101.670955 242.096785 
L 103.343433 242.085261 
L 103.422567 242.11532 
L 103.445395 242.063819 
L 103.454525 242.105545 
L 103.484962 242.059798 
L 103.469744 242.110607 
L 103.564096 242.101363 
L 103.635622 242.110023 
L 103.570184 242.022813 
L 103.672145 242.095121 
L 103.722365 242.034951 
L 103.696495 242.11262 
L 103.781716 242.082738 
L 103.857807 242.112679 
L 103.888244 242.045926 
L 103.889765 242.098124 
L 103.891287 242.053672 
L 103.971944 242.1121 
L 104.000858 242.089248 
L 104.101298 242.11298 
L 104.057165 242.042937 
L 104.111951 242.100894 
L 104.206304 242.062167 
L 104.125647 242.11238 
L 104.223044 242.100722 
L 104.233696 242.052518 
L 104.338702 242.111262 
L 104.411749 242.068167 
L 104.452838 242.082155 
L 104.559365 242.113353 
L 104.544147 242.043599 
L 104.566975 242.094566 
L 104.670458 242.054857 
L 104.57154 242.112355 
L 104.678067 242.077803 
L 104.769376 242.113238 
L 104.690242 242.053136 
L 104.790682 242.100822 
L 104.807422 242.115757 
L 104.900253 242.05114 
L 104.948951 242.113706 
L 105.011345 242.088988 
L 105.125482 242.111438 
L 105.02352 242.070217 
L 105.133091 242.094308 
L 105.219835 242.06151 
L 105.172658 242.10934 
L 105.242662 242.110237 
L 105.260924 242.114425 
L 105.356798 242.070034 
L 105.455716 242.111947 
L 105.469413 242.108747 
L 105.598767 242.072271 
L 105.472456 242.114408 
L 105.617029 242.09146 
L 105.708338 242.114821 
L 105.677902 242.065946 
L 105.728122 242.106843 
L 105.77682 242.063287 
L 105.734209 242.109227 
L 105.839215 242.096294 
L 105.945742 242.111067 
L 105.863564 242.067105 
L 105.951829 242.100741 
L 105.976178 242.054305 
L 105.99444 242.114459 
L 106.062922 242.100177 
L 106.160318 242.114392 
L 106.134447 242.051698 
L 106.172493 242.095212 
L 106.259236 242.063649 
L 106.181624 242.111792 
L 106.283585 242.095123 
L 106.447942 242.086287 
L 106.289673 242.107085 
L 106.450985 242.099967 
L 106.507293 242.050907 
L 106.560556 242.113125 
L 106.632082 242.063821 
L 106.671649 242.100529 
L 106.679258 242.05729 
L 106.782742 242.114614 
L 106.872529 242.056562 
L 106.895356 242.095818 
L 106.963838 242.065559 
L 106.906009 242.113026 
L 107.007971 242.079118 
L 107.120585 242.1114 
L 107.088627 242.060811 
L 107.122107 242.104014 
L 107.135804 242.056859 
L 107.160153 242.111952 
L 107.2332 242.086957 
L 107.301682 242.113588 
L 107.287985 242.058952 
L 107.344293 242.10495 
L 107.414296 242.072107 
L 107.365598 242.111092 
L 107.455385 242.104396 
L 107.537564 242.063118 
L 107.561913 242.112461 
L 107.563435 242.070795 
L 107.673005 242.081357 
L 107.689745 242.061173 
L 107.788664 242.10781 
L 107.829753 242.060534 
L 107.904322 242.092626 
L 108.00324 242.11122 
L 107.960629 242.066906 
L 108.015415 242.107119 
L 108.112811 242.064229 
L 108.131073 242.092587 
L 108.246731 242.112207 
L 108.146291 242.073303 
L 108.248253 242.111832 
L 108.351736 242.074856 
L 108.360867 242.103858 
L 108.411087 242.075204 
L 108.475004 242.11455 
L 108.575444 242.079736 
L 108.587618 242.10183 
L 108.681971 242.112555 
L 108.596749 242.080305 
L 108.700233 242.096742 
L 108.799151 242.082514 
L 108.70632 242.112103 
L 108.815891 242.094987 
L 108.931549 242.106316 
L 108.936115 242.103865 
L 109.031989 242.066851 
L 108.958942 242.113407 
L 109.045685 242.103474 
L 109.152213 242.115412 
L 109.068513 242.08084 
L 109.156778 242.102419 
L 109.245044 242.085499 
L 109.171996 242.111966 
L 109.269393 242.094441 
L 109.369833 242.111255 
L 109.272436 242.086241 
L 109.382007 242.103195 
L 109.388095 242.108176 
L 109.505275 242.090234 
L 109.602671 242.112437 
L 109.563104 242.080811 
L 109.616367 242.107419 
L 109.622455 242.113487 
L 109.728982 242.080091 
L 109.785289 242.116074 
L 109.753331 242.073552 
L 109.840075 242.093601 
L 109.940515 242.084299 
L 109.856815 242.116223 
L 109.949645 242.102057 
L 110.059216 242.110807 
L 109.952689 242.07976 
L 110.060738 242.106156 
L 110.164222 242.083599 
L 110.071391 242.114141 
L 110.174875 242.092433 
L 110.264662 242.114725 
L 110.208355 242.075717 
L 110.287489 242.105185 
L 110.39706 242.086725 
L 110.327056 242.11571 
L 110.398582 242.088647 
L 110.499022 242.113713 
L 110.441193 242.080142 
L 110.509675 242.09719 
L 110.608593 242.110859 
L 110.535545 242.082137 
L 110.620767 242.090682 
L 110.772949 242.114451 
L 110.774471 242.108168 
L 110.871867 242.082826 
L 110.780558 242.111553 
L 110.891651 242.098879 
L 111.037745 242.07315 
L 110.900782 242.108377 
L 111.046876 242.092674 
L 111.15036 242.115928 
L 111.063616 242.078281 
L 111.159491 242.110755 
L 111.189927 242.074591 
L 111.168622 242.114857 
L 111.270584 242.114919 
L 111.4182 242.091097 
L 111.422765 242.101318 
L 111.503422 242.115424 
L 111.474507 242.082651 
L 111.533858 242.106476 
L 111.654082 242.099498 
L 111.538424 242.112275 
L 111.657125 242.107238 
L 111.76974 242.115235 
L 111.672344 242.089838 
L 111.772784 242.101167 
L 111.868658 242.087971 
L 111.788002 242.114146 
L 111.885398 242.091817 
L 112.022362 242.1147 
L 112.025405 242.101272 
L 112.13802 242.095503 
L 112.033015 242.11032 
L 112.141064 242.105928 
L 112.246069 242.113707 
L 112.156282 242.090307 
L 112.253678 242.105931 
L 112.527605 242.100345 
L 112.530649 242.107692 
L 112.655438 242.111316 
L 112.538258 242.084179 
L 112.658482 242.100558 
L 112.760444 242.078222 
L 112.670656 242.110867 
L 112.77414 242.112087 
L 112.909582 242.107077 
L 112.781749 242.098067 
L 112.911104 242.102031 
L 112.971976 242.07986 
L 112.914147 242.112652 
L 113.022196 242.090592 
L 113.113505 242.113373 
L 113.040458 242.087293 
L 113.133289 242.103888 
L 113.19264 242.076516 
L 113.14242 242.115174 
L 113.24286 242.112292 
L 113.856153 242.098476 
L 113.857675 242.109577 
L 113.965724 242.113273 
L 113.882024 242.085373 
L 113.970289 242.105399 
L 114.123993 242.107013 
L 113.973333 242.096277 
L 114.125515 242.097737 
L 114.236607 242.090784 
L 114.128558 242.112791 
L 114.245738 242.097555 
L 114.356831 242.113161 
L 114.271609 242.090594 
L 114.359875 242.111521 
L 114.522709 242.091765 
L 114.53184 242.10854 
L 114.534884 242.089608 
L 114.714458 242.105974 
L 114.81642 242.093641 
L 114.717502 242.111292 
L 114.827073 242.09531 
L 114.924469 242.113541 
L 114.939687 242.105741 
L 115.893867 242.114018 
L 115.895389 242.099256 
L 116.006482 242.102061 
L 115.898433 242.111442 
L 116.008004 242.102568 
L 116.114531 242.113148 
L 116.014091 242.098998 
L 116.12214 242.105718 
L 116.128227 242.099149 
L 116.248451 242.112116 
L 116.332151 242.087885 
L 116.359544 242.105486 
L 116.367153 242.09614 
L 116.47368 242.113828 
L 116.598469 242.099986 
L 116.694344 242.114366 
L 116.628905 242.089919 
L 116.711084 242.107769 
L 116.820655 242.114542 
L 116.718693 242.102319 
L 116.82522 242.104923 
L 116.849569 242.11307 
L 116.937835 242.099288 
L 117.050449 242.114403 
L 117.053493 242.111374 
L 117.166107 242.090401 
L 117.173716 242.097422 
L 117.301549 242.108547 
L 117.412642 242.096935 
L 117.306115 242.111503 
L 117.414164 242.109201 
L 117.56178 242.112891 
L 117.418729 242.094658 
L 117.563302 242.103331 
L 117.688091 242.098867 
L 117.567867 242.114007 
L 117.692656 242.109626 
L 117.81288 242.115152 
L 117.6957 242.099481 
L 117.817445 242.105806 
L 117.93006 242.098297 
L 117.820489 242.111107 
L 117.937669 242.104889 
L 118.035065 242.113872 
L 117.9468 242.099407 
L 118.04724 242.103565 
L 118.156811 242.093541 
L 118.062458 242.114483 
L 118.158333 242.100706 
L 118.284644 242.110671 
L 118.287687 242.101922 
L 118.392693 242.098347 
L 118.296818 242.114363 
L 118.400302 242.113218 
L 118.403345 242.09979 
L 118.636184 242.112496 
L 118.747276 242.099371 
L 118.852282 242.114751 
L 118.782278 242.093206 
L 118.861413 242.110875 
L 118.970984 242.095172 
L 118.875109 242.114632 
L 118.974027 242.112883 
L 119.095773 242.104254 
L 119.194691 242.115841 
L 119.123165 242.095226 
L 119.206865 242.114284 
L 119.30274 242.094313 
L 119.211431 242.115584 
L 119.31948 242.107272 
L 119.433616 242.113109 
L 119.330133 242.098778 
L 119.438182 242.106667 
L 119.444269 242.114953 
L 119.549275 242.096243 
L 119.655802 242.114123 
L 119.661889 242.105339 
L 119.902336 242.100637 
L 119.903858 242.10883 
L 123.212291 242.110082 
L 123.326427 242.113201 
L 123.218378 242.095038 
L 123.327949 242.111637 
L 123.484696 242.096211 
L 123.489262 242.108454 
L 123.62166 242.112489 
L 123.495349 242.099786 
L 123.623182 242.109985 
L 123.743405 242.101199 
L 123.751015 242.107447 
L 123.757102 242.10366 
L 123.87276 242.114068 
L 123.985375 242.105958 
L 123.98994 242.110026 
L 124.000593 242.095798 
L 124.139078 242.110389 
L 124.245605 242.096162 
L 124.142122 242.113313 
L 124.260824 242.107266 
L 124.35822 242.115193 
L 124.376482 242.108891 
L 124.536273 242.106619 
L 124.537795 242.111385 
L 125.536107 242.10686 
L 125.6472 242.113302 
L 125.551325 242.103646 
L 125.648722 242.108699 
L 125.794816 242.103084 
L 125.653287 242.113947 
L 125.799382 242.1089 
L 125.918084 242.112298 
L 126.030698 242.104905 
L 126.03222 242.106172 
L 126.041351 242.103796 
L 126.147878 242.114503 
L 126.284842 242.107785 
L 126.4005 242.113772 
L 126.287885 242.104171 
L 126.405065 242.110954 
L 126.557247 242.108562 
L 126.564856 242.10377 
L 126.678993 242.113317 
L 126.860089 242.104271 
L 126.972704 242.11514 
L 127.076187 242.108051 
L 127.085318 242.113174 
L 127.089884 242.106249 
L 127.226847 242.109964 
L 127.344027 242.106963 
L 127.232935 242.113893 
L 127.347071 242.110261 
L 127.616433 242.107278 
L 127.716873 242.114313 
L 127.627085 242.104215 
L 127.729047 242.110412 
L 128.002975 242.104716 
L 128.112545 242.113484 
L 128.019715 242.095362 
L 128.115589 242.111219 
L 128.407778 242.106223 
L 128.521915 242.114532 
L 129.199124 242.107108 
L 129.299564 242.114442 
L 129.208255 242.10431 
L 129.311738 242.110921 
L 129.473051 242.106691 
L 129.585665 242.114526 
L 129.477616 242.100932 
L 129.588709 242.109638 
L 129.71502 242.107884 
L 129.591753 242.11243 
L 129.716542 242.111326 
L 129.943293 242.108398 
L 129.944815 242.113195 
L 130.165478 242.11412 
L 130.279615 242.108254 
L 130.282658 242.110305 
L 130.850296 242.109427 
L 130.962911 242.108015 
L 130.857905 242.113747 
L 130.964433 242.11057 
L 131.081613 242.115122 
L 131.083135 242.114504 
L 131.223142 242.107938 
L 131.337278 242.114425 
L 131.454458 242.108967 
L 132.257978 242.112847 
L 132.265587 242.115089 
L 132.372115 242.110494 
L 132.518209 242.112317 
L 132.614084 242.105788 
L 132.632345 242.111635 
L 132.790615 242.108651 
L 132.792136 242.112934 
L 132.923013 242.113591 
L 133.037149 242.105382 
L 133.040193 242.113187 
L 133.181722 242.115103 
L 133.043236 242.110433 
L 133.183244 242.112761 
L 133.451084 242.111622 
L 133.580438 242.115519 
L 133.690009 242.107965 
L 133.697618 242.112479 
L 133.895455 242.113472 
L 134.006547 242.107182 
L 133.898498 242.116179 
L 134.008069 242.112224 
L 134.250038 242.115426 
L 134.25156 242.109938 
L 134.347435 242.108907 
L 134.256125 242.113245 
L 134.364175 242.115084 
L 134.501138 242.106204 
L 134.50266 242.112348 
L 135.010947 242.112534 
L 135.120518 242.108298 
L 135.013991 242.115502 
L 135.128127 242.112193 
L 135.782509 242.116087 
L 135.896645 242.10908 
L 136.029044 242.113491 
L 136.298405 242.113403 
L 136.414064 242.111685 
L 136.417107 242.114449 
L 136.575376 242.112459 
L 136.853869 242.115358 
L 136.974093 242.105567 
L 137.088229 242.112846 
L 137.223671 242.108187 
L 137.33172 242.115415 
L 137.336285 242.109141 
L 137.340851 242.114955 
L 137.483902 242.113571 
L 137.611735 242.11593 
L 137.613256 242.11463 
L 137.727393 242.10807 
L 137.73348 242.111912 
L 137.93436 242.115562 
L 137.935882 242.112593 
L 138.042409 242.1074 
L 138.048496 242.109292 
L 138.174807 242.114902 
L 138.176329 242.11259 
L 138.581133 242.111793 
L 138.699835 242.114428 
L 138.585698 242.108956 
L 138.701356 242.112365 
L 138.896149 242.110454 
L 139.008764 242.115929 
L 139.013329 242.114167 
L 139.192904 242.113686 
L 139.311605 242.111619 
L 139.316171 242.114649 
L 142.095011 242.112642 
L 142.221322 242.115035 
L 142.417636 242.113814 
L 142.6383 242.113881 
L 142.761567 242.112155 
L 142.763089 242.113897 
L 143.000493 242.113998 
L 143.887713 242.112285 
L 144.007936 242.114457 
L 144.009458 242.112675 
L 144.290995 242.113138 
L 144.420349 242.112291 
L 144.549704 242.11433 
L 145.338005 242.116196 
L 145.453664 242.113692 
L 145.928471 242.114372 
L 146.082175 242.115481 
L 146.225225 242.113566 
L 146.226747 242.114853 
L 146.693945 242.114382 
L 146.827865 242.111585 
L 146.972438 242.115619 
L 146.97396 242.113162 
L 147.144404 242.113866 
L 147.328544 242.115283 
L 167.684384 242.114957 
L 167.854827 242.115108 
L 168.080056 242.115789 
L 168.252022 242.115032 
L 168.446815 242.115207 
L 169.362949 242.114934 
L 170.431265 242.114132 
L 170.572795 242.115784 
L 178.778438 242.115017 
L 179.024973 242.115234 
L 179.358251 242.114869 
L 179.857407 242.114531 
L 180.012633 242.11556 
L 180.438742 242.115278 
L 180.700495 242.11547 
L 181.192042 242.114949 
L 181.601411 242.115182 
L 186.425575 242.115742 
L 186.568625 242.115395 
L 186.927775 242.115509 
L 187.608027 242.115805 
L 188.886355 242.115106 
L 189.094844 242.115567 
L 193.144402 242.116044 
L 193.334629 242.115665 
L 194.611435 242.114779 
L 194.803184 242.116124 
L 195.360169 242.115514 
L 195.596051 242.115576 
L 196.687195 242.115495 
L 197.498324 242.115827 
L 197.69616 242.115542 
L 198.350542 242.115275 
L 198.657949 242.115926 
L 199.053622 242.115232 
L 199.280373 242.115763 
L 200.82654 242.115436 
L 202.459451 242.115682 
L 203.278189 242.115841 
L 203.619076 242.114951 
L 204.0741 242.11569 
L 204.558038 242.115598 
L 205.168287 242.116114 
L 205.88202 242.115666 
L 206.927509 242.115696 
L 207.423622 242.116054 
L 207.731029 242.115575 
L 208.490416 242.115856 
L 209.027618 242.115951 
L 220.44582 242.115775 
L 220.821709 242.116034 
L 221.144335 242.115626 
L 221.932636 242.115927 
L 222.716373 242.115236 
L 222.932471 242.116274 
L 223.422496 242.115464 
L 223.853171 242.115691 
L 224.766262 242.116295 
L 225.142151 242.115985 
L 229.528031 242.115946 
L 230.346769 242.115382 
L 232.057293 242.115992 
L 232.673629 242.116181 
L 234.165011 242.115753 
L 234.871135 242.116244 
L 235.163324 242.11591 
L 235.744658 242.116092 
L 236.16468 242.116088 
L 237.124947 242.116092 
L 239.115485 242.115535 
L 239.372673 242.116133 
L 262.705189 242.115934 
L 263.000422 242.116005 
L 264.3381 242.116128 
L 265.235973 242.116065 
L 266.025796 242.116125 
L 267.135202 242.116309 
L 267.374127 242.116205 
L 269.944478 242.115931 
L 271.172585 242.11609 
L 271.613913 242.116005 
L 272.577224 242.116048 
L 276.030229 242.115739 
L 276.363507 242.116105 
L 277.783364 242.116004 
L 297.83484 242.116134 
L 298.410087 242.115761 
L 298.827065 242.116159 
L 301.357849 242.115965 
L 301.843309 242.116226 
L 303.098809 242.116133 
L 305.80308 242.116064 
L 306.731389 242.116346 
L 307.152933 242.115745 
L 307.585129 242.116119 
L 308.761495 242.11615 
L 358.438205 242.115491 
L 358.439727 242.075 
L 358.444293 242.116032 
L 358.549298 242.116212 
L 361.433144 242.116236 
L 388.801522 242.116 
L 388.801522 242.116 
" clip-path="url(#pe772a2f50b)" style="fill: none; stroke: #ff0000; stroke-width: 1.5; stroke-linecap: square"/>
   </g>
   <g id="patch_3">
    <path d="M 54 252 
L 54 34.56 
" style="fill: none; stroke: #000000; stroke-width: 0.8; stroke-linejoin: miter; stroke-linecap: square"/>
   </g>
   <g id="patch_4">
    <path d="M 388.8 252 
L 388.8 34.56 
" style="fill: none; stroke: #000000; stroke-width: 0.8; stroke-linejoin: miter; stroke-linecap: square"/>
   </g>
   <g id="patch_5">
    <path d="M 54 252 
L 388.8 252 
" style="fill: none; stroke: #000000; stroke-width: 0.8; stroke-linejoin: miter; stroke-linecap: square"/>
   </g>
   <g id="patch_6">
    <path d="M 54 34.56 
L 388.8 34.56 
" style="fill: none; stroke: #000000; stroke-width: 0.8; stroke-linejoin: miter; stroke-linecap: square"/>
   </g>
   <g id="text_19">
    <!-- Spectre linéaire du courant absorbé par la charge -->
    <g transform="translate(72.001875 28.56) scale(0.12 -0.12)">
     <defs>
      <path id="DejaVuSans-53" d="M 3425 4513 
L 3425 3897 
Q 3066 4069 2747 4153 
Q 2428 4238 2131 4238 
Q 1616 4238 1336 4038 
Q 1056 3838 1056 3469 
Q 1056 3159 1242 3001 
Q 1428 2844 1947 2747 
L 2328 2669 
Q 3034 2534 3370 2195 
Q 3706 1856 3706 1288 
Q 3706 609 3251 259 
Q 2797 -91 1919 -91 
Q 1588 -91 1214 -16 
Q 841 59 441 206 
L 441 856 
Q 825 641 1194 531 
Q 1563 422 1919 422 
Q 2459 422 2753 634 
Q 3047 847 3047 1241 
Q 3047 1584 2836 1778 
Q 2625 1972 2144 2069 
L 1759 2144 
Q 1053 2284 737 2584 
Q 422 2884 422 3419 
Q 422 4038 858 4394 
Q 1294 4750 2059 4750 
Q 2388 4750 2728 4690 
Q 3069 4631 3425 4513 
z
" transform="scale(0.015625)"/>
      <path id="DejaVuSans-70" d="M 1159 525 
L 1159 -1331 
L 581 -1331 
L 581 3500 
L 1159 3500 
L 1159 2969 
Q 1341 3281 1617 3432 
Q 1894 3584 2278 3584 
Q 2916 3584 3314 3078 
Q 3713 2572 3713 1747 
Q 3713 922 3314 415 
Q 2916 -91 2278 -91 
Q 1894 -91 1617 61 
Q 1341 213 1159 525 
z
M 3116 1747 
Q 3116 2381 2855 2742 
Q 2594 3103 2138 3103 
Q 1681 3103 1420 2742 
Q 1159 2381 1159 1747 
Q 1159 1113 1420 752 
Q 1681 391 2138 391 
Q 2594 391 2855 752 
Q 3116 1113 3116 1747 
z
" transform="scale(0.015625)"/>
      <path id="DejaVuSans-74" d="M 1172 4494 
L 1172 3500 
L 2356 3500 
L 2356 3053 
L 1172 3053 
L 1172 1153 
Q 1172 725 1289 603 
Q 1406 481 1766 481 
L 2356 481 
L 2356 0 
L 1766 0 
Q 1100 0 847 248 
Q 594 497 594 1153 
L 594 3053 
L 172 3053 
L 172 3500 
L 594 3500 
L 594 4494 
L 1172 4494 
z
" transform="scale(0.015625)"/>
      <path id="DejaVuSans-62" d="M 3116 1747 
Q 3116 2381 2855 2742 
Q 2594 3103 2138 3103 
Q 1681 3103 1420 2742 
Q 1159 2381 1159 1747 
Q 1159 1113 1420 752 
Q 1681 391 2138 391 
Q 2594 391 2855 752 
Q 3116 1113 3116 1747 
z
M 1159 2969 
Q 1341 3281 1617 3432 
Q 1894 3584 2278 3584 
Q 2916 3584 3314 3078 
Q 3713 2572 3713 1747 
Q 3713 922 3314 415 
Q 2916 -91 2278 -91 
Q 1894 -91 1617 61 
Q 1341 213 1159 525 
L 1159 0 
L 581 0 
L 581 4863 
L 1159 4863 
L 1159 2969 
z
" transform="scale(0.015625)"/>
      <path id="DejaVuSans-73" d="M 2834 3397 
L 2834 2853 
Q 2591 2978 2328 3040 
Q 2066 3103 1784 3103 
Q 1356 3103 1142 2972 
Q 928 2841 928 2578 
Q 928 2378 1081 2264 
Q 1234 2150 1697 2047 
L 1894 2003 
Q 2506 1872 2764 1633 
Q 3022 1394 3022 966 
Q 3022 478 2636 193 
Q 2250 -91 1575 -91 
Q 1294 -91 989 -36 
Q 684 19 347 128 
L 347 722 
Q 666 556 975 473 
Q 1284 391 1588 391 
Q 1994 391 2212 530 
Q 2431 669 2431 922 
Q 2431 1156 2273 1281 
Q 2116 1406 1581 1522 
L 1381 1569 
Q 847 1681 609 1914 
Q 372 2147 372 2553 
Q 372 3047 722 3315 
Q 1072 3584 1716 3584 
Q 2034 3584 2315 3537 
Q 2597 3491 2834 3397 
z
" transform="scale(0.015625)"/>
      <path id="DejaVuSans-68" d="M 3513 2113 
L 3513 0 
L 2938 0 
L 2938 2094 
Q 2938 2591 2744 2837 
Q 2550 3084 2163 3084 
Q 1697 3084 1428 2787 
Q 1159 2491 1159 1978 
L 1159 0 
L 581 0 
L 581 4863 
L 1159 4863 
L 1159 2956 
Q 1366 3272 1645 3428 
Q 1925 3584 2291 3584 
Q 2894 3584 3203 3211 
Q 3513 2838 3513 2113 
z
" transform="scale(0.015625)"/>
      <path id="DejaVuSans-67" d="M 2906 1791 
Q 2906 2416 2648 2759 
Q 2391 3103 1925 3103 
Q 1463 3103 1205 2759 
Q 947 2416 947 1791 
Q 947 1169 1205 825 
Q 1463 481 1925 481 
Q 2391 481 2648 825 
Q 2906 1169 2906 1791 
z
M 3481 434 
Q 3481 -459 3084 -895 
Q 2688 -1331 1869 -1331 
Q 1566 -1331 1297 -1286 
Q 1028 -1241 775 -1147 
L 775 -588 
Q 1028 -725 1275 -790 
Q 1522 -856 1778 -856 
Q 2344 -856 2625 -561 
Q 2906 -266 2906 331 
L 2906 616 
Q 2728 306 2450 153 
Q 2172 0 1784 0 
Q 1141 0 747 490 
Q 353 981 353 1791 
Q 353 2603 747 3093 
Q 1141 3584 1784 3584 
Q 2172 3584 2450 3431 
Q 2728 3278 2906 2969 
L 2906 3500 
L 3481 3500 
L 3481 434 
z
" transform="scale(0.015625)"/>
     </defs>
     <use xlink:href="#DejaVuSans-53"/>
     <use xlink:href="#DejaVuSans-70" x="63.476562"/>
     <use xlink:href="#DejaVuSans-65" x="126.953125"/>
     <use xlink:href="#DejaVuSans-63" x="188.476562"/>
     <use xlink:href="#DejaVuSans-74" x="243.457031"/>
     <use xlink:href="#DejaVuSans-72" x="282.666016"/>
     <use xlink:href="#DejaVuSans-65" x="321.529297"/>
     <use xlink:href="#DejaVuSans-20" x="383.052734"/>
     <use xlink:href="#DejaVuSans-6c" x="414.839844"/>
     <use xlink:href="#DejaVuSans-69" x="442.623047"/>
     <use xlink:href="#DejaVuSans-6e" x="470.40625"/>
     <use xlink:href="#DejaVuSans-e9" x="533.785156"/>
     <use xlink:href="#DejaVuSans-61" x="595.308594"/>
     <use xlink:href="#DejaVuSans-69" x="656.587891"/>
     <use xlink:href="#DejaVuSans-72" x="684.371094"/>
     <use xlink:href="#DejaVuSans-65" x="723.234375"/>
     <use xlink:href="#DejaVuSans-20" x="784.757812"/>
     <use xlink:href="#DejaVuSans-64" x="816.544922"/>
     <use xlink:href="#DejaVuSans-75" x="880.021484"/>
     <use xlink:href="#DejaVuSans-20" x="943.400391"/>
     <use xlink:href="#DejaVuSans-63" x="975.1875"/>
     <use xlink:href="#DejaVuSans-6f" x="1030.167969"/>
     <use xlink:href="#DejaVuSans-75" x="1091.349609"/>
     <use xlink:href="#DejaVuSans-72" x="1154.728516"/>
     <use xlink:href="#DejaVuSans-61" x="1195.841797"/>
     <use xlink:href="#DejaVuSans-6e" x="1257.121094"/>
     <use xlink:href="#DejaVuSans-74" x="1320.5"/>
     <use xlink:href="#DejaVuSans-20" x="1359.708984"/>
     <use xlink:href="#DejaVuSans-61" x="1391.496094"/>
     <use xlink:href="#DejaVuSans-62" x="1452.775391"/>
     <use xlink:href="#DejaVuSans-73" x="1516.251953"/>
     <use xlink:href="#DejaVuSans-6f" x="1568.351562"/>
     <use xlink:href="#DejaVuSans-72" x="1629.533203"/>
     <use xlink:href="#DejaVuSans-62" x="1670.646484"/>
     <use xlink:href="#DejaVuSans-e9" x="1734.123047"/>
     <use xlink:href="#DejaVuSans-20" x="1795.646484"/>
     <use xlink:href="#DejaVuSans-70" x="1827.433594"/>
     <use xlink:href="#DejaVuSans-61" x="1890.910156"/>
     <use xlink:href="#DejaVuSans-72" x="1952.189453"/>
     <use xlink:href="#DejaVuSans-20" x="1993.302734"/>
     <use xlink:href="#DejaVuSans-6c" x="2025.089844"/>
     <use xlink:href="#DejaVuSans-61" x="2052.873047"/>
     <use xlink:href="#DejaVuSans-20" x="2114.152344"/>
     <use xlink:href="#DejaVuSans-63" x="2145.939453"/>
     <use xlink:href="#DejaVuSans-68" x="2200.919922"/>
     <use xlink:href="#DejaVuSans-61" x="2264.298828"/>
     <use xlink:href="#DejaVuSans-72" x="2325.578125"/>
     <use xlink:href="#DejaVuSans-67" x="2364.941406"/>
     <use xlink:href="#DejaVuSans-65" x="2428.417969"/>
    </g>
   </g>
   <g id="legend_1">
    <g id="patch_7">
     <path d="M 342.2 57.238125 
L 381.8 57.238125 
Q 383.8 57.238125 383.8 55.238125 
L 383.8 41.56 
Q 383.8 39.56 381.8 39.56 
L 342.2 39.56 
Q 340.2 39.56 340.2 41.56 
L 340.2 55.238125 
Q 340.2 57.238125 342.2 57.238125 
z
" style="fill: #ffffff; opacity: 0.8; stroke: #cccccc; stroke-linejoin: miter"/>
    </g>
    <g id="line2d_34">
     <path d="M 344.2 47.658437 
L 354.2 47.658437 
L 364.2 47.658437 
" style="fill: none; stroke: #ff0000; stroke-width: 1.5; stroke-linecap: square"/>
    </g>
    <g id="text_20">
     <!-- $I_{a}$ -->
     <g transform="translate(372.2 51.158437) scale(0.1 -0.1)">
      <defs>
       <path id="DejaVuSans-Oblique-49" d="M 1081 4666 
L 1716 4666 
L 806 0 
L 172 0 
L 1081 4666 
z
" transform="scale(0.015625)"/>
       <path id="DejaVuSans-Oblique-61" d="M 3438 1997 
L 3047 0 
L 2472 0 
L 2578 531 
Q 2325 219 2001 64 
Q 1678 -91 1281 -91 
Q 834 -91 548 182 
Q 263 456 263 884 
Q 263 1497 752 1853 
Q 1241 2209 2100 2209 
L 2900 2209 
L 2931 2363 
Q 2938 2388 2941 2417 
Q 2944 2447 2944 2509 
Q 2944 2788 2717 2942 
Q 2491 3097 2081 3097 
Q 1800 3097 1504 3025 
Q 1209 2953 897 2809 
L 997 3341 
Q 1322 3463 1633 3523 
Q 1944 3584 2234 3584 
Q 2853 3584 3176 3315 
Q 3500 3047 3500 2534 
Q 3500 2431 3484 2292 
Q 3469 2153 3438 1997 
z
M 2816 1759 
L 2241 1759 
Q 1534 1759 1195 1570 
Q 856 1381 856 984 
Q 856 709 1029 553 
Q 1203 397 1509 397 
Q 1978 397 2328 733 
Q 2678 1069 2791 1631 
L 2816 1759 
z
" transform="scale(0.015625)"/>
      </defs>
      <use xlink:href="#DejaVuSans-Oblique-49" transform="translate(0 0.09375)"/>
      <use xlink:href="#DejaVuSans-Oblique-61" transform="translate(29.492188 -16.3125) scale(0.7)"/>
     </g>
    </g>
   </g>
  </g>
 </g>
 <defs>
  <clipPath id="pe772a2f50b">
   <rect x="54" y="34.56" width="334.8" height="217.44"/>
  </clipPath>
 </defs>
</svg>
