<?xml version="1.0" encoding="utf-8" standalone="no"?>
<!DOCTYPE svg PUBLIC "-//W3C//DTD SVG 1.1//EN"
  "http://www.w3.org/Graphics/SVG/1.1/DTD/svg11.dtd">
<svg xmlns:xlink="http://www.w3.org/1999/xlink" width="432pt" height="288pt" viewBox="0 0 432 288" xmlns="http://www.w3.org/2000/svg" version="1.1">
 <metadata>
  <rdf:RDF xmlns:dc="http://purl.org/dc/elements/1.1/" xmlns:cc="http://creativecommons.org/ns#" xmlns:rdf="http://www.w3.org/1999/02/22-rdf-syntax-ns#">
   <cc:Work>
    <dc:type rdf:resource="http://purl.org/dc/dcmitype/StillImage"/>
    <dc:date>2024-05-29T16:32:17.072294</dc:date>
    <dc:format>image/svg+xml</dc:format>
    <dc:creator>
     <cc:Agent>
      <dc:title>Matplotlib v3.8.3, https://matplotlib.org/</dc:title>
     </cc:Agent>
    </dc:creator>
   </cc:Work>
  </rdf:RDF>
 </metadata>
 <defs>
  <style type="text/css">*{stroke-linejoin: round; stroke-linecap: butt}</style>
 </defs>
 <g id="figure_1">
  <g id="patch_1">
   <path d="M 0 288 
L 432 288 
L 432 0 
L 0 0 
z
" style="fill: #ffffff"/>
  </g>
  <g id="axes_1">
   <g id="patch_2">
    <path d="M 54 252 
L 388.8 252 
L 388.8 34.56 
L 54 34.56 
z
" style="fill: #ffffff"/>
   </g>
   <g id="PathCollection_1">
    <defs>
     <path id="m0550be53ed" d="M -3 3 
L 3 -3 
M -3 -3 
L 3 3 
" style="stroke: #0000ff; stroke-width: 1.5"/>
    </defs>
    <g clip-path="url(#p32c8997d8a)">
     <use xlink:href="#m0550be53ed" x="70.74" y="95.647477" style="fill: #0000ff; stroke: #0000ff; stroke-width: 1.5"/>
     <use xlink:href="#m0550be53ed" x="87.48" y="108.071231" style="fill: #0000ff; stroke: #0000ff; stroke-width: 1.5"/>
     <use xlink:href="#m0550be53ed" x="95.85" y="94.918087" style="fill: #0000ff; stroke: #0000ff; stroke-width: 1.5"/>
     <use xlink:href="#m0550be53ed" x="104.22" y="112.927822" style="fill: #0000ff; stroke: #0000ff; stroke-width: 1.5"/>
     <use xlink:href="#m0550be53ed" x="112.59" y="100.211637" style="fill: #0000ff; stroke: #0000ff; stroke-width: 1.5"/>
     <use xlink:href="#m0550be53ed" x="120.96" y="116.512271" style="fill: #0000ff; stroke: #0000ff; stroke-width: 1.5"/>
     <use xlink:href="#m0550be53ed" x="129.33" y="109.046868" style="fill: #0000ff; stroke: #0000ff; stroke-width: 1.5"/>
     <use xlink:href="#m0550be53ed" x="137.7" y="119.522573" style="fill: #0000ff; stroke: #0000ff; stroke-width: 1.5"/>
     <use xlink:href="#m0550be53ed" x="146.07" y="111.642047" style="fill: #0000ff; stroke: #0000ff; stroke-width: 1.5"/>
     <use xlink:href="#m0550be53ed" x="154.44" y="121.982169" style="fill: #0000ff; stroke: #0000ff; stroke-width: 1.5"/>
     <use xlink:href="#m0550be53ed" x="162.81" y="117.73952" style="fill: #0000ff; stroke: #0000ff; stroke-width: 1.5"/>
     <use xlink:href="#m0550be53ed" x="171.18" y="124.061728" style="fill: #0000ff; stroke: #0000ff; stroke-width: 1.5"/>
     <use xlink:href="#m0550be53ed" x="187.92" y="125.863123" style="fill: #0000ff; stroke: #0000ff; stroke-width: 1.5"/>
     <use xlink:href="#m0550be53ed" x="196.29" y="123.967178" style="fill: #0000ff; stroke: #0000ff; stroke-width: 1.5"/>
     <use xlink:href="#m0550be53ed" x="204.66" y="127.452067" style="fill: #0000ff; stroke: #0000ff; stroke-width: 1.5"/>
     <use xlink:href="#m0550be53ed" x="213.03" y="125.467659" style="fill: #0000ff; stroke: #0000ff; stroke-width: 1.5"/>
     <use xlink:href="#m0550be53ed" x="221.4" y="128.873425" style="fill: #0000ff; stroke: #0000ff; stroke-width: 1.5"/>
     <use xlink:href="#m0550be53ed" x="229.77" y="126.817828" style="fill: #0000ff; stroke: #0000ff; stroke-width: 1.5"/>
     <use xlink:href="#m0550be53ed" x="238.14" y="130.1592" style="fill: #0000ff; stroke: #0000ff; stroke-width: 1.5"/>
     <use xlink:href="#m0550be53ed" x="246.51" y="128.045076" style="fill: #0000ff; stroke: #0000ff; stroke-width: 1.5"/>
     <use xlink:href="#m0550be53ed" x="254.88" y="131.333021" style="fill: #0000ff; stroke: #0000ff; stroke-width: 1.5"/>
     <use xlink:href="#m0550be53ed" x="263.25" y="129.16993" style="fill: #0000ff; stroke: #0000ff; stroke-width: 1.5"/>
     <use xlink:href="#m0550be53ed" x="271.62" y="132.412831" style="fill: #0000ff; stroke: #0000ff; stroke-width: 1.5"/>
     <use xlink:href="#m0550be53ed" x="288.36" y="133.412579" style="fill: #0000ff; stroke: #0000ff; stroke-width: 1.5"/>
     <use xlink:href="#m0550be53ed" x="296.73" y="131.172179" style="fill: #0000ff; stroke: #0000ff; stroke-width: 1.5"/>
     <use xlink:href="#m0550be53ed" x="305.1" y="134.343323" style="fill: #0000ff; stroke: #0000ff; stroke-width: 1.5"/>
     <use xlink:href="#m0550be53ed" x="313.47" y="132.071874" style="fill: #0000ff; stroke: #0000ff; stroke-width: 1.5"/>
     <use xlink:href="#m0550be53ed" x="321.84" y="135.213975" style="fill: #0000ff; stroke: #0000ff; stroke-width: 1.5"/>
     <use xlink:href="#m0550be53ed" x="330.21" y="132.915301" style="fill: #0000ff; stroke: #0000ff; stroke-width: 1.5"/>
     <use xlink:href="#m0550be53ed" x="338.58" y="136.031827" style="fill: #0000ff; stroke: #0000ff; stroke-width: 1.5"/>
     <use xlink:href="#m0550be53ed" x="346.95" y="133.709084" style="fill: #0000ff; stroke: #0000ff; stroke-width: 1.5"/>
     <use xlink:href="#m0550be53ed" x="355.32" y="136.802918" style="fill: #0000ff; stroke: #0000ff; stroke-width: 1.5"/>
     <use xlink:href="#m0550be53ed" x="363.69" y="134.458745" style="fill: #0000ff; stroke: #0000ff; stroke-width: 1.5"/>
     <use xlink:href="#m0550be53ed" x="388.8" y="138.224277" style="fill: #0000ff; stroke: #0000ff; stroke-width: 1.5"/>
    </g>
   </g>
   <g id="PathCollection_2">
    <defs>
     <path id="m778e6ff45b" d="M -3 3 
L 3 -3 
M -3 -3 
L 3 3 
" style="stroke: #ff0000; stroke-width: 1.5"/>
    </defs>
    <g clip-path="url(#p32c8997d8a)">
     <use xlink:href="#m778e6ff45b" x="79.11" y="85.449414" style="fill: #ff0000; stroke: #ff0000; stroke-width: 1.5"/>
     <use xlink:href="#m778e6ff45b" x="179.55" y="122.278674" style="fill: #ff0000; stroke: #ff0000; stroke-width: 1.5"/>
     <use xlink:href="#m778e6ff45b" x="279.99" y="130.208167" style="fill: #ff0000; stroke: #ff0000; stroke-width: 1.5"/>
     <use xlink:href="#m778e6ff45b" x="372.06" y="137.532308" style="fill: #ff0000; stroke: #ff0000; stroke-width: 1.5"/>
     <use xlink:href="#m778e6ff45b" x="380.43" y="135.168932" style="fill: #ff0000; stroke: #ff0000; stroke-width: 1.5"/>
    </g>
   </g>
   <g id="matplotlib.axis_1">
    <g id="xtick_1">
     <g id="line2d_1">
      <path d="M 54 252 
L 54 34.56 
" clip-path="url(#p32c8997d8a)" style="fill: none; stroke: #b0b0b0; stroke-width: 0.8; stroke-linecap: square"/>
     </g>
     <g id="line2d_2">
      <defs>
       <path id="me81e617c78" d="M 0 0 
L 0 3.5 
" style="stroke: #000000; stroke-width: 0.8"/>
      </defs>
      <g>
       <use xlink:href="#me81e617c78" x="54" y="252" style="stroke: #000000; stroke-width: 0.8"/>
      </g>
     </g>
     <g id="text_1">
      <!-- 0 -->
      <g transform="translate(50.81875 266.598437) scale(0.1 -0.1)">
       <defs>
        <path id="DejaVuSans-30" d="M 2034 4250 
Q 1547 4250 1301 3770 
Q 1056 3291 1056 2328 
Q 1056 1369 1301 889 
Q 1547 409 2034 409 
Q 2525 409 2770 889 
Q 3016 1369 3016 2328 
Q 3016 3291 2770 3770 
Q 2525 4250 2034 4250 
z
M 2034 4750 
Q 2819 4750 3233 4129 
Q 3647 3509 3647 2328 
Q 3647 1150 3233 529 
Q 2819 -91 2034 -91 
Q 1250 -91 836 529 
Q 422 1150 422 2328 
Q 422 3509 836 4129 
Q 1250 4750 2034 4750 
z
" transform="scale(0.015625)"/>
       </defs>
       <use xlink:href="#DejaVuSans-30"/>
      </g>
     </g>
    </g>
    <g id="xtick_2">
     <g id="line2d_3">
      <path d="M 95.85 252 
L 95.85 34.56 
" clip-path="url(#p32c8997d8a)" style="fill: none; stroke: #b0b0b0; stroke-width: 0.8; stroke-linecap: square"/>
     </g>
     <g id="line2d_4">
      <g>
       <use xlink:href="#me81e617c78" x="95.85" y="252" style="stroke: #000000; stroke-width: 0.8"/>
      </g>
     </g>
     <g id="text_2">
      <!-- 250 -->
      <g transform="translate(86.30625 266.598437) scale(0.1 -0.1)">
       <defs>
        <path id="DejaVuSans-32" d="M 1228 531 
L 3431 531 
L 3431 0 
L 469 0 
L 469 531 
Q 828 903 1448 1529 
Q 2069 2156 2228 2338 
Q 2531 2678 2651 2914 
Q 2772 3150 2772 3378 
Q 2772 3750 2511 3984 
Q 2250 4219 1831 4219 
Q 1534 4219 1204 4116 
Q 875 4013 500 3803 
L 500 4441 
Q 881 4594 1212 4672 
Q 1544 4750 1819 4750 
Q 2544 4750 2975 4387 
Q 3406 4025 3406 3419 
Q 3406 3131 3298 2873 
Q 3191 2616 2906 2266 
Q 2828 2175 2409 1742 
Q 1991 1309 1228 531 
z
" transform="scale(0.015625)"/>
        <path id="DejaVuSans-35" d="M 691 4666 
L 3169 4666 
L 3169 4134 
L 1269 4134 
L 1269 2991 
Q 1406 3038 1543 3061 
Q 1681 3084 1819 3084 
Q 2600 3084 3056 2656 
Q 3513 2228 3513 1497 
Q 3513 744 3044 326 
Q 2575 -91 1722 -91 
Q 1428 -91 1123 -41 
Q 819 9 494 109 
L 494 744 
Q 775 591 1075 516 
Q 1375 441 1709 441 
Q 2250 441 2565 725 
Q 2881 1009 2881 1497 
Q 2881 1984 2565 2268 
Q 2250 2553 1709 2553 
Q 1456 2553 1204 2497 
Q 953 2441 691 2322 
L 691 4666 
z
" transform="scale(0.015625)"/>
       </defs>
       <use xlink:href="#DejaVuSans-32"/>
       <use xlink:href="#DejaVuSans-35" x="63.623047"/>
       <use xlink:href="#DejaVuSans-30" x="127.246094"/>
      </g>
     </g>
    </g>
    <g id="xtick_3">
     <g id="line2d_5">
      <path d="M 137.7 252 
L 137.7 34.56 
" clip-path="url(#p32c8997d8a)" style="fill: none; stroke: #b0b0b0; stroke-width: 0.8; stroke-linecap: square"/>
     </g>
     <g id="line2d_6">
      <g>
       <use xlink:href="#me81e617c78" x="137.7" y="252" style="stroke: #000000; stroke-width: 0.8"/>
      </g>
     </g>
     <g id="text_3">
      <!-- 500 -->
      <g transform="translate(128.15625 266.598437) scale(0.1 -0.1)">
       <use xlink:href="#DejaVuSans-35"/>
       <use xlink:href="#DejaVuSans-30" x="63.623047"/>
       <use xlink:href="#DejaVuSans-30" x="127.246094"/>
      </g>
     </g>
    </g>
    <g id="xtick_4">
     <g id="line2d_7">
      <path d="M 179.55 252 
L 179.55 34.56 
" clip-path="url(#p32c8997d8a)" style="fill: none; stroke: #b0b0b0; stroke-width: 0.8; stroke-linecap: square"/>
     </g>
     <g id="line2d_8">
      <g>
       <use xlink:href="#me81e617c78" x="179.55" y="252" style="stroke: #000000; stroke-width: 0.8"/>
      </g>
     </g>
     <g id="text_4">
      <!-- 750 -->
      <g transform="translate(170.00625 266.598437) scale(0.1 -0.1)">
       <defs>
        <path id="DejaVuSans-37" d="M 525 4666 
L 3525 4666 
L 3525 4397 
L 1831 0 
L 1172 0 
L 2766 4134 
L 525 4134 
L 525 4666 
z
" transform="scale(0.015625)"/>
       </defs>
       <use xlink:href="#DejaVuSans-37"/>
       <use xlink:href="#DejaVuSans-35" x="63.623047"/>
       <use xlink:href="#DejaVuSans-30" x="127.246094"/>
      </g>
     </g>
    </g>
    <g id="xtick_5">
     <g id="line2d_9">
      <path d="M 221.4 252 
L 221.4 34.56 
" clip-path="url(#p32c8997d8a)" style="fill: none; stroke: #b0b0b0; stroke-width: 0.8; stroke-linecap: square"/>
     </g>
     <g id="line2d_10">
      <g>
       <use xlink:href="#me81e617c78" x="221.4" y="252" style="stroke: #000000; stroke-width: 0.8"/>
      </g>
     </g>
     <g id="text_5">
      <!-- 1000 -->
      <g transform="translate(208.675 266.598437) scale(0.1 -0.1)">
       <defs>
        <path id="DejaVuSans-31" d="M 794 531 
L 1825 531 
L 1825 4091 
L 703 3866 
L 703 4441 
L 1819 4666 
L 2450 4666 
L 2450 531 
L 3481 531 
L 3481 0 
L 794 0 
L 794 531 
z
" transform="scale(0.015625)"/>
       </defs>
       <use xlink:href="#DejaVuSans-31"/>
       <use xlink:href="#DejaVuSans-30" x="63.623047"/>
       <use xlink:href="#DejaVuSans-30" x="127.246094"/>
       <use xlink:href="#DejaVuSans-30" x="190.869141"/>
      </g>
     </g>
    </g>
    <g id="xtick_6">
     <g id="line2d_11">
      <path d="M 263.25 252 
L 263.25 34.56 
" clip-path="url(#p32c8997d8a)" style="fill: none; stroke: #b0b0b0; stroke-width: 0.8; stroke-linecap: square"/>
     </g>
     <g id="line2d_12">
      <g>
       <use xlink:href="#me81e617c78" x="263.25" y="252" style="stroke: #000000; stroke-width: 0.8"/>
      </g>
     </g>
     <g id="text_6">
      <!-- 1250 -->
      <g transform="translate(250.525 266.598437) scale(0.1 -0.1)">
       <use xlink:href="#DejaVuSans-31"/>
       <use xlink:href="#DejaVuSans-32" x="63.623047"/>
       <use xlink:href="#DejaVuSans-35" x="127.246094"/>
       <use xlink:href="#DejaVuSans-30" x="190.869141"/>
      </g>
     </g>
    </g>
    <g id="xtick_7">
     <g id="line2d_13">
      <path d="M 305.1 252 
L 305.1 34.56 
" clip-path="url(#p32c8997d8a)" style="fill: none; stroke: #b0b0b0; stroke-width: 0.8; stroke-linecap: square"/>
     </g>
     <g id="line2d_14">
      <g>
       <use xlink:href="#me81e617c78" x="305.1" y="252" style="stroke: #000000; stroke-width: 0.8"/>
      </g>
     </g>
     <g id="text_7">
      <!-- 1500 -->
      <g transform="translate(292.375 266.598437) scale(0.1 -0.1)">
       <use xlink:href="#DejaVuSans-31"/>
       <use xlink:href="#DejaVuSans-35" x="63.623047"/>
       <use xlink:href="#DejaVuSans-30" x="127.246094"/>
       <use xlink:href="#DejaVuSans-30" x="190.869141"/>
      </g>
     </g>
    </g>
    <g id="xtick_8">
     <g id="line2d_15">
      <path d="M 346.95 252 
L 346.95 34.56 
" clip-path="url(#p32c8997d8a)" style="fill: none; stroke: #b0b0b0; stroke-width: 0.8; stroke-linecap: square"/>
     </g>
     <g id="line2d_16">
      <g>
       <use xlink:href="#me81e617c78" x="346.95" y="252" style="stroke: #000000; stroke-width: 0.8"/>
      </g>
     </g>
     <g id="text_8">
      <!-- 1750 -->
      <g transform="translate(334.225 266.598437) scale(0.1 -0.1)">
       <use xlink:href="#DejaVuSans-31"/>
       <use xlink:href="#DejaVuSans-37" x="63.623047"/>
       <use xlink:href="#DejaVuSans-35" x="127.246094"/>
       <use xlink:href="#DejaVuSans-30" x="190.869141"/>
      </g>
     </g>
    </g>
    <g id="xtick_9">
     <g id="line2d_17">
      <path d="M 388.8 252 
L 388.8 34.56 
" clip-path="url(#p32c8997d8a)" style="fill: none; stroke: #b0b0b0; stroke-width: 0.8; stroke-linecap: square"/>
     </g>
     <g id="line2d_18">
      <g>
       <use xlink:href="#me81e617c78" x="388.8" y="252" style="stroke: #000000; stroke-width: 0.8"/>
      </g>
     </g>
     <g id="text_9">
      <!-- 2000 -->
      <g transform="translate(376.075 266.598437) scale(0.1 -0.1)">
       <use xlink:href="#DejaVuSans-32"/>
       <use xlink:href="#DejaVuSans-30" x="63.623047"/>
       <use xlink:href="#DejaVuSans-30" x="127.246094"/>
       <use xlink:href="#DejaVuSans-30" x="190.869141"/>
      </g>
     </g>
    </g>
    <g id="text_10">
     <!-- Fréquence (Hz) -->
     <g transform="translate(183.578125 280.676562) scale(0.1 -0.1)">
      <defs>
       <path id="DejaVuSans-46" d="M 628 4666 
L 3309 4666 
L 3309 4134 
L 1259 4134 
L 1259 2759 
L 3109 2759 
L 3109 2228 
L 1259 2228 
L 1259 0 
L 628 0 
L 628 4666 
z
" transform="scale(0.015625)"/>
       <path id="DejaVuSans-72" d="M 2631 2963 
Q 2534 3019 2420 3045 
Q 2306 3072 2169 3072 
Q 1681 3072 1420 2755 
Q 1159 2438 1159 1844 
L 1159 0 
L 581 0 
L 581 3500 
L 1159 3500 
L 1159 2956 
Q 1341 3275 1631 3429 
Q 1922 3584 2338 3584 
Q 2397 3584 2469 3576 
Q 2541 3569 2628 3553 
L 2631 2963 
z
" transform="scale(0.015625)"/>
       <path id="DejaVuSans-e9" d="M 3597 1894 
L 3597 1613 
L 953 1613 
Q 991 1019 1311 708 
Q 1631 397 2203 397 
Q 2534 397 2845 478 
Q 3156 559 3463 722 
L 3463 178 
Q 3153 47 2828 -22 
Q 2503 -91 2169 -91 
Q 1331 -91 842 396 
Q 353 884 353 1716 
Q 353 2575 817 3079 
Q 1281 3584 2069 3584 
Q 2775 3584 3186 3129 
Q 3597 2675 3597 1894 
z
M 3022 2063 
Q 3016 2534 2758 2815 
Q 2500 3097 2075 3097 
Q 1594 3097 1305 2825 
Q 1016 2553 972 2059 
L 3022 2063 
z
M 2469 5119 
L 3091 5119 
L 2072 3944 
L 1594 3944 
L 2469 5119 
z
" transform="scale(0.015625)"/>
       <path id="DejaVuSans-71" d="M 947 1747 
Q 947 1113 1208 752 
Q 1469 391 1925 391 
Q 2381 391 2643 752 
Q 2906 1113 2906 1747 
Q 2906 2381 2643 2742 
Q 2381 3103 1925 3103 
Q 1469 3103 1208 2742 
Q 947 2381 947 1747 
z
M 2906 525 
Q 2725 213 2448 61 
Q 2172 -91 1784 -91 
Q 1150 -91 751 415 
Q 353 922 353 1747 
Q 353 2572 751 3078 
Q 1150 3584 1784 3584 
Q 2172 3584 2448 3432 
Q 2725 3281 2906 2969 
L 2906 3500 
L 3481 3500 
L 3481 -1331 
L 2906 -1331 
L 2906 525 
z
" transform="scale(0.015625)"/>
       <path id="DejaVuSans-75" d="M 544 1381 
L 544 3500 
L 1119 3500 
L 1119 1403 
Q 1119 906 1312 657 
Q 1506 409 1894 409 
Q 2359 409 2629 706 
Q 2900 1003 2900 1516 
L 2900 3500 
L 3475 3500 
L 3475 0 
L 2900 0 
L 2900 538 
Q 2691 219 2414 64 
Q 2138 -91 1772 -91 
Q 1169 -91 856 284 
Q 544 659 544 1381 
z
M 1991 3584 
L 1991 3584 
z
" transform="scale(0.015625)"/>
       <path id="DejaVuSans-65" d="M 3597 1894 
L 3597 1613 
L 953 1613 
Q 991 1019 1311 708 
Q 1631 397 2203 397 
Q 2534 397 2845 478 
Q 3156 559 3463 722 
L 3463 178 
Q 3153 47 2828 -22 
Q 2503 -91 2169 -91 
Q 1331 -91 842 396 
Q 353 884 353 1716 
Q 353 2575 817 3079 
Q 1281 3584 2069 3584 
Q 2775 3584 3186 3129 
Q 3597 2675 3597 1894 
z
M 3022 2063 
Q 3016 2534 2758 2815 
Q 2500 3097 2075 3097 
Q 1594 3097 1305 2825 
Q 1016 2553 972 2059 
L 3022 2063 
z
" transform="scale(0.015625)"/>
       <path id="DejaVuSans-6e" d="M 3513 2113 
L 3513 0 
L 2938 0 
L 2938 2094 
Q 2938 2591 2744 2837 
Q 2550 3084 2163 3084 
Q 1697 3084 1428 2787 
Q 1159 2491 1159 1978 
L 1159 0 
L 581 0 
L 581 3500 
L 1159 3500 
L 1159 2956 
Q 1366 3272 1645 3428 
Q 1925 3584 2291 3584 
Q 2894 3584 3203 3211 
Q 3513 2838 3513 2113 
z
" transform="scale(0.015625)"/>
       <path id="DejaVuSans-63" d="M 3122 3366 
L 3122 2828 
Q 2878 2963 2633 3030 
Q 2388 3097 2138 3097 
Q 1578 3097 1268 2742 
Q 959 2388 959 1747 
Q 959 1106 1268 751 
Q 1578 397 2138 397 
Q 2388 397 2633 464 
Q 2878 531 3122 666 
L 3122 134 
Q 2881 22 2623 -34 
Q 2366 -91 2075 -91 
Q 1284 -91 818 406 
Q 353 903 353 1747 
Q 353 2603 823 3093 
Q 1294 3584 2113 3584 
Q 2378 3584 2631 3529 
Q 2884 3475 3122 3366 
z
" transform="scale(0.015625)"/>
       <path id="DejaVuSans-20" transform="scale(0.015625)"/>
       <path id="DejaVuSans-28" d="M 1984 4856 
Q 1566 4138 1362 3434 
Q 1159 2731 1159 2009 
Q 1159 1288 1364 580 
Q 1569 -128 1984 -844 
L 1484 -844 
Q 1016 -109 783 600 
Q 550 1309 550 2009 
Q 550 2706 781 3412 
Q 1013 4119 1484 4856 
L 1984 4856 
z
" transform="scale(0.015625)"/>
       <path id="DejaVuSans-48" d="M 628 4666 
L 1259 4666 
L 1259 2753 
L 3553 2753 
L 3553 4666 
L 4184 4666 
L 4184 0 
L 3553 0 
L 3553 2222 
L 1259 2222 
L 1259 0 
L 628 0 
L 628 4666 
z
" transform="scale(0.015625)"/>
       <path id="DejaVuSans-7a" d="M 353 3500 
L 3084 3500 
L 3084 2975 
L 922 459 
L 3084 459 
L 3084 0 
L 275 0 
L 275 525 
L 2438 3041 
L 353 3041 
L 353 3500 
z
" transform="scale(0.015625)"/>
       <path id="DejaVuSans-29" d="M 513 4856 
L 1013 4856 
Q 1481 4119 1714 3412 
Q 1947 2706 1947 2009 
Q 1947 1309 1714 600 
Q 1481 -109 1013 -844 
L 513 -844 
Q 928 -128 1133 580 
Q 1338 1288 1338 2009 
Q 1338 2731 1133 3434 
Q 928 4138 513 4856 
z
" transform="scale(0.015625)"/>
      </defs>
      <use xlink:href="#DejaVuSans-46"/>
      <use xlink:href="#DejaVuSans-72" x="50.269531"/>
      <use xlink:href="#DejaVuSans-e9" x="89.132812"/>
      <use xlink:href="#DejaVuSans-71" x="150.65625"/>
      <use xlink:href="#DejaVuSans-75" x="214.132812"/>
      <use xlink:href="#DejaVuSans-65" x="277.511719"/>
      <use xlink:href="#DejaVuSans-6e" x="339.035156"/>
      <use xlink:href="#DejaVuSans-63" x="402.414062"/>
      <use xlink:href="#DejaVuSans-65" x="457.394531"/>
      <use xlink:href="#DejaVuSans-20" x="518.917969"/>
      <use xlink:href="#DejaVuSans-28" x="550.705078"/>
      <use xlink:href="#DejaVuSans-48" x="589.71875"/>
      <use xlink:href="#DejaVuSans-7a" x="664.914062"/>
      <use xlink:href="#DejaVuSans-29" x="717.404297"/>
     </g>
    </g>
   </g>
   <g id="matplotlib.axis_2">
    <g id="ytick_1">
     <g id="line2d_19">
      <path d="M 54 252 
L 388.8 252 
" clip-path="url(#p32c8997d8a)" style="fill: none; stroke: #b0b0b0; stroke-width: 0.8; stroke-linecap: square"/>
     </g>
     <g id="line2d_20">
      <defs>
       <path id="m57a192151e" d="M 0 0 
L -3.5 0 
" style="stroke: #000000; stroke-width: 0.8"/>
      </defs>
      <g>
       <use xlink:href="#m57a192151e" x="54" y="252" style="stroke: #000000; stroke-width: 0.8"/>
      </g>
     </g>
     <g id="text_11">
      <!-- −50 -->
      <g transform="translate(25.895312 255.799219) scale(0.1 -0.1)">
       <defs>
        <path id="DejaVuSans-2212" d="M 678 2272 
L 4684 2272 
L 4684 1741 
L 678 1741 
L 678 2272 
z
" transform="scale(0.015625)"/>
       </defs>
       <use xlink:href="#DejaVuSans-2212"/>
       <use xlink:href="#DejaVuSans-35" x="83.789062"/>
       <use xlink:href="#DejaVuSans-30" x="147.412109"/>
      </g>
     </g>
    </g>
    <g id="ytick_2">
     <g id="line2d_21">
      <path d="M 54 220.937143 
L 388.8 220.937143 
" clip-path="url(#p32c8997d8a)" style="fill: none; stroke: #b0b0b0; stroke-width: 0.8; stroke-linecap: square"/>
     </g>
     <g id="line2d_22">
      <g>
       <use xlink:href="#m57a192151e" x="54" y="220.937143" style="stroke: #000000; stroke-width: 0.8"/>
      </g>
     </g>
     <g id="text_12">
      <!-- −40 -->
      <g transform="translate(25.895312 224.736362) scale(0.1 -0.1)">
       <defs>
        <path id="DejaVuSans-34" d="M 2419 4116 
L 825 1625 
L 2419 1625 
L 2419 4116 
z
M 2253 4666 
L 3047 4666 
L 3047 1625 
L 3713 1625 
L 3713 1100 
L 3047 1100 
L 3047 0 
L 2419 0 
L 2419 1100 
L 313 1100 
L 313 1709 
L 2253 4666 
z
" transform="scale(0.015625)"/>
       </defs>
       <use xlink:href="#DejaVuSans-2212"/>
       <use xlink:href="#DejaVuSans-34" x="83.789062"/>
       <use xlink:href="#DejaVuSans-30" x="147.412109"/>
      </g>
     </g>
    </g>
    <g id="ytick_3">
     <g id="line2d_23">
      <path d="M 54 189.874286 
L 388.8 189.874286 
" clip-path="url(#p32c8997d8a)" style="fill: none; stroke: #b0b0b0; stroke-width: 0.8; stroke-linecap: square"/>
     </g>
     <g id="line2d_24">
      <g>
       <use xlink:href="#m57a192151e" x="54" y="189.874286" style="stroke: #000000; stroke-width: 0.8"/>
      </g>
     </g>
     <g id="text_13">
      <!-- −30 -->
      <g transform="translate(25.895312 193.673504) scale(0.1 -0.1)">
       <defs>
        <path id="DejaVuSans-33" d="M 2597 2516 
Q 3050 2419 3304 2112 
Q 3559 1806 3559 1356 
Q 3559 666 3084 287 
Q 2609 -91 1734 -91 
Q 1441 -91 1130 -33 
Q 819 25 488 141 
L 488 750 
Q 750 597 1062 519 
Q 1375 441 1716 441 
Q 2309 441 2620 675 
Q 2931 909 2931 1356 
Q 2931 1769 2642 2001 
Q 2353 2234 1838 2234 
L 1294 2234 
L 1294 2753 
L 1863 2753 
Q 2328 2753 2575 2939 
Q 2822 3125 2822 3475 
Q 2822 3834 2567 4026 
Q 2313 4219 1838 4219 
Q 1578 4219 1281 4162 
Q 984 4106 628 3988 
L 628 4550 
Q 988 4650 1302 4700 
Q 1616 4750 1894 4750 
Q 2613 4750 3031 4423 
Q 3450 4097 3450 3541 
Q 3450 3153 3228 2886 
Q 3006 2619 2597 2516 
z
" transform="scale(0.015625)"/>
       </defs>
       <use xlink:href="#DejaVuSans-2212"/>
       <use xlink:href="#DejaVuSans-33" x="83.789062"/>
       <use xlink:href="#DejaVuSans-30" x="147.412109"/>
      </g>
     </g>
    </g>
    <g id="ytick_4">
     <g id="line2d_25">
      <path d="M 54 158.811429 
L 388.8 158.811429 
" clip-path="url(#p32c8997d8a)" style="fill: none; stroke: #b0b0b0; stroke-width: 0.8; stroke-linecap: square"/>
     </g>
     <g id="line2d_26">
      <g>
       <use xlink:href="#m57a192151e" x="54" y="158.811429" style="stroke: #000000; stroke-width: 0.8"/>
      </g>
     </g>
     <g id="text_14">
      <!-- −20 -->
      <g transform="translate(25.895312 162.610647) scale(0.1 -0.1)">
       <use xlink:href="#DejaVuSans-2212"/>
       <use xlink:href="#DejaVuSans-32" x="83.789062"/>
       <use xlink:href="#DejaVuSans-30" x="147.412109"/>
      </g>
     </g>
    </g>
    <g id="ytick_5">
     <g id="line2d_27">
      <path d="M 54 127.748571 
L 388.8 127.748571 
" clip-path="url(#p32c8997d8a)" style="fill: none; stroke: #b0b0b0; stroke-width: 0.8; stroke-linecap: square"/>
     </g>
     <g id="line2d_28">
      <g>
       <use xlink:href="#m57a192151e" x="54" y="127.748571" style="stroke: #000000; stroke-width: 0.8"/>
      </g>
     </g>
     <g id="text_15">
      <!-- −10 -->
      <g transform="translate(25.895312 131.54779) scale(0.1 -0.1)">
       <use xlink:href="#DejaVuSans-2212"/>
       <use xlink:href="#DejaVuSans-31" x="83.789062"/>
       <use xlink:href="#DejaVuSans-30" x="147.412109"/>
      </g>
     </g>
    </g>
    <g id="ytick_6">
     <g id="line2d_29">
      <path d="M 54 96.685714 
L 388.8 96.685714 
" clip-path="url(#p32c8997d8a)" style="fill: none; stroke: #b0b0b0; stroke-width: 0.8; stroke-linecap: square"/>
     </g>
     <g id="line2d_30">
      <g>
       <use xlink:href="#m57a192151e" x="54" y="96.685714" style="stroke: #000000; stroke-width: 0.8"/>
      </g>
     </g>
     <g id="text_16">
      <!-- 0 -->
      <g transform="translate(40.6375 100.484933) scale(0.1 -0.1)">
       <use xlink:href="#DejaVuSans-30"/>
      </g>
     </g>
    </g>
    <g id="ytick_7">
     <g id="line2d_31">
      <path d="M 54 65.622857 
L 388.8 65.622857 
" clip-path="url(#p32c8997d8a)" style="fill: none; stroke: #b0b0b0; stroke-width: 0.8; stroke-linecap: square"/>
     </g>
     <g id="line2d_32">
      <g>
       <use xlink:href="#m57a192151e" x="54" y="65.622857" style="stroke: #000000; stroke-width: 0.8"/>
      </g>
     </g>
     <g id="text_17">
      <!-- 10 -->
      <g transform="translate(34.275 69.422076) scale(0.1 -0.1)">
       <use xlink:href="#DejaVuSans-31"/>
       <use xlink:href="#DejaVuSans-30" x="63.623047"/>
      </g>
     </g>
    </g>
    <g id="ytick_8">
     <g id="line2d_33">
      <path d="M 54 34.56 
L 388.8 34.56 
" clip-path="url(#p32c8997d8a)" style="fill: none; stroke: #b0b0b0; stroke-width: 0.8; stroke-linecap: square"/>
     </g>
     <g id="line2d_34">
      <g>
       <use xlink:href="#m57a192151e" x="54" y="34.56" style="stroke: #000000; stroke-width: 0.8"/>
      </g>
     </g>
     <g id="text_18">
      <!-- 20 -->
      <g transform="translate(34.275 38.359219) scale(0.1 -0.1)">
       <use xlink:href="#DejaVuSans-32"/>
       <use xlink:href="#DejaVuSans-30" x="63.623047"/>
      </g>
     </g>
    </g>
    <g id="text_19">
     <!-- Module en dB -->
     <g transform="translate(19.815625 177.490156) rotate(-90) scale(0.1 -0.1)">
      <defs>
       <path id="DejaVuSans-4d" d="M 628 4666 
L 1569 4666 
L 2759 1491 
L 3956 4666 
L 4897 4666 
L 4897 0 
L 4281 0 
L 4281 4097 
L 3078 897 
L 2444 897 
L 1241 4097 
L 1241 0 
L 628 0 
L 628 4666 
z
" transform="scale(0.015625)"/>
       <path id="DejaVuSans-6f" d="M 1959 3097 
Q 1497 3097 1228 2736 
Q 959 2375 959 1747 
Q 959 1119 1226 758 
Q 1494 397 1959 397 
Q 2419 397 2687 759 
Q 2956 1122 2956 1747 
Q 2956 2369 2687 2733 
Q 2419 3097 1959 3097 
z
M 1959 3584 
Q 2709 3584 3137 3096 
Q 3566 2609 3566 1747 
Q 3566 888 3137 398 
Q 2709 -91 1959 -91 
Q 1206 -91 779 398 
Q 353 888 353 1747 
Q 353 2609 779 3096 
Q 1206 3584 1959 3584 
z
" transform="scale(0.015625)"/>
       <path id="DejaVuSans-64" d="M 2906 2969 
L 2906 4863 
L 3481 4863 
L 3481 0 
L 2906 0 
L 2906 525 
Q 2725 213 2448 61 
Q 2172 -91 1784 -91 
Q 1150 -91 751 415 
Q 353 922 353 1747 
Q 353 2572 751 3078 
Q 1150 3584 1784 3584 
Q 2172 3584 2448 3432 
Q 2725 3281 2906 2969 
z
M 947 1747 
Q 947 1113 1208 752 
Q 1469 391 1925 391 
Q 2381 391 2643 752 
Q 2906 1113 2906 1747 
Q 2906 2381 2643 2742 
Q 2381 3103 1925 3103 
Q 1469 3103 1208 2742 
Q 947 2381 947 1747 
z
" transform="scale(0.015625)"/>
       <path id="DejaVuSans-6c" d="M 603 4863 
L 1178 4863 
L 1178 0 
L 603 0 
L 603 4863 
z
" transform="scale(0.015625)"/>
       <path id="DejaVuSans-42" d="M 1259 2228 
L 1259 519 
L 2272 519 
Q 2781 519 3026 730 
Q 3272 941 3272 1375 
Q 3272 1813 3026 2020 
Q 2781 2228 2272 2228 
L 1259 2228 
z
M 1259 4147 
L 1259 2741 
L 2194 2741 
Q 2656 2741 2882 2914 
Q 3109 3088 3109 3444 
Q 3109 3797 2882 3972 
Q 2656 4147 2194 4147 
L 1259 4147 
z
M 628 4666 
L 2241 4666 
Q 2963 4666 3353 4366 
Q 3744 4066 3744 3513 
Q 3744 3084 3544 2831 
Q 3344 2578 2956 2516 
Q 3422 2416 3680 2098 
Q 3938 1781 3938 1306 
Q 3938 681 3513 340 
Q 3088 0 2303 0 
L 628 0 
L 628 4666 
z
" transform="scale(0.015625)"/>
      </defs>
      <use xlink:href="#DejaVuSans-4d"/>
      <use xlink:href="#DejaVuSans-6f" x="86.279297"/>
      <use xlink:href="#DejaVuSans-64" x="147.460938"/>
      <use xlink:href="#DejaVuSans-75" x="210.9375"/>
      <use xlink:href="#DejaVuSans-6c" x="274.316406"/>
      <use xlink:href="#DejaVuSans-65" x="302.099609"/>
      <use xlink:href="#DejaVuSans-20" x="363.623047"/>
      <use xlink:href="#DejaVuSans-65" x="395.410156"/>
      <use xlink:href="#DejaVuSans-6e" x="456.933594"/>
      <use xlink:href="#DejaVuSans-20" x="520.3125"/>
      <use xlink:href="#DejaVuSans-64" x="552.099609"/>
      <use xlink:href="#DejaVuSans-42" x="615.576172"/>
     </g>
    </g>
   </g>
   <g id="line2d_35">
    <path d="M 54 91.588814 
L 54.1674 146.395764 
L 54.3348 154.696353 
L 54.5022 153.375865 
L 54.6696 154.726896 
L 54.837 146.40169 
L 55.0044 151.212218 
L 55.1718 167.77246 
L 55.3392 161.998812 
L 55.5066 151.559268 
L 55.674 177.131457 
L 56.0088 143.250375 
L 56.1762 157.864566 
L 56.3436 146.538977 
L 56.511 152.372821 
L 56.6784 180.322323 
L 56.8458 156.66748 
L 57.1806 150.291018 
L 57.348 150.984205 
L 57.5154 148.648652 
L 57.6828 160.102576 
L 57.8502 158.874741 
L 58.0176 154.649891 
L 58.185 159.087622 
L 58.3524 142.384585 
L 58.5198 168.535768 
L 58.8546 139.442241 
L 59.022 141.599053 
L 59.1894 159.66841 
L 59.3568 152.885058 
L 59.5242 158.629531 
L 59.6916 141.941594 
L 59.859 163.898511 
L 60.0264 161.815231 
L 60.3612 150.777873 
L 60.5286 148.098149 
L 60.696 154.428866 
L 61.0308 146.776462 
L 61.1982 150.45393 
L 61.3656 143.914803 
L 61.533 152.039151 
L 61.7004 142.592406 
L 61.8678 144.05247 
L 62.2026 163.10493 
L 62.37 50.878479 
L 62.5374 151.689368 
L 62.7048 151.44302 
L 63.0396 144.704765 
L 63.207 159.259301 
L 63.3744 136.345437 
L 63.5418 143.848409 
L 63.7092 158.239436 
L 63.8766 187.172918 
L 64.044 154.121035 
L 64.2114 144.758689 
L 64.3788 149.114245 
L 64.5462 148.364517 
L 64.7136 151.559555 
L 64.881 162.039589 
L 65.2158 154.673922 
L 65.3832 142.820089 
L 65.5506 159.468363 
L 65.718 142.937028 
L 66.0528 158.010867 
L 66.2202 150.698173 
L 66.3876 162.161343 
L 66.555 152.655422 
L 66.7224 151.653563 
L 66.8898 171.471351 
L 67.0572 148.867479 
L 67.2246 162.796699 
L 67.5594 146.738865 
L 67.7268 153.969654 
L 67.8942 154.633775 
L 68.229 145.958554 
L 68.3964 185.683204 
L 68.5638 151.684428 
L 68.7312 149.807075 
L 68.8986 159.3117 
L 69.066 155.423641 
L 69.2334 148.154847 
L 69.4008 155.042179 
L 69.5682 152.756863 
L 69.7356 153.516328 
L 69.903 150.672246 
L 70.0704 156.097103 
L 70.2378 141.521345 
L 70.4052 166.265427 
L 70.5726 151.006306 
L 70.74 114.549974 
L 70.9074 158.04517 
L 71.0748 155.968963 
L 71.2422 149.775015 
L 71.4096 152.114441 
L 71.577 145.721863 
L 71.7444 146.132717 
L 72.0792 159.796364 
L 72.2466 168.068245 
L 72.414 146.234081 
L 72.5814 145.571905 
L 72.7488 147.858149 
L 72.9162 162.451905 
L 73.0836 150.830744 
L 73.251 158.556918 
L 73.4184 144.903958 
L 73.5858 147.81843 
L 73.7532 147.843527 
L 73.9206 158.383106 
L 74.088 151.487632 
L 74.2554 151.257179 
L 74.4228 157.933178 
L 74.5902 157.746527 
L 74.7576 152.611531 
L 74.925 155.728887 
L 75.0924 161.393412 
L 75.2598 149.65294 
L 75.4272 154.767846 
L 75.5946 149.820879 
L 75.762 160.515372 
L 75.9294 154.994977 
L 76.0968 155.189137 
L 76.2642 161.137002 
L 76.4316 154.243526 
L 76.599 169.949487 
L 76.7664 160.209097 
L 76.9338 157.312573 
L 77.1012 148.532296 
L 77.2686 160.847253 
L 77.436 157.519507 
L 77.6034 168.300445 
L 77.7708 162.435962 
L 78.1056 140.12825 
L 78.273 155.68905 
L 78.4404 148.797546 
L 78.6078 166.484347 
L 78.9426 152.143218 
L 79.11 83.852582 
L 79.2774 149.925568 
L 79.4448 153.974242 
L 79.6122 138.844504 
L 80.1144 156.025759 
L 80.2818 147.436956 
L 80.4492 164.393474 
L 80.6166 166.225813 
L 80.784 151.962539 
L 80.9514 152.029429 
L 81.1188 158.567778 
L 81.4536 153.589939 
L 81.621 147.080009 
L 81.7884 177.080757 
L 81.9558 159.115796 
L 82.1232 204.757353 
L 82.2906 152.503347 
L 82.458 176.670404 
L 82.6254 144.695787 
L 82.7928 155.847799 
L 82.9602 148.435728 
L 83.1276 172.91521 
L 83.295 148.384332 
L 83.6298 159.001012 
L 83.7972 143.974402 
L 83.9646 145.435514 
L 84.132 164.276278 
L 84.2994 142.243185 
L 84.4668 153.351345 
L 84.6342 153.051722 
L 84.8016 195.973169 
L 84.969 158.784352 
L 85.1364 147.704464 
L 85.3038 148.7436 
L 85.4712 146.196006 
L 85.6386 145.507081 
L 85.806 155.380866 
L 85.9734 149.19055 
L 86.1408 157.273416 
L 86.3082 145.791159 
L 86.4756 156.819026 
L 86.643 159.38604 
L 86.8104 155.427175 
L 87.1452 171.276788 
L 87.48 131.372327 
L 87.6474 157.905359 
L 87.8148 164.863348 
L 87.9822 142.97063 
L 88.1496 163.502448 
L 88.317 156.264273 
L 88.4844 174.372167 
L 88.8192 163.968435 
L 88.9866 147.832217 
L 89.154 157.248348 
L 89.4888 151.958644 
L 89.6562 169.714351 
L 89.8236 155.881388 
L 89.991 151.492036 
L 90.1584 156.359202 
L 90.3258 149.091611 
L 90.4932 149.387904 
L 90.6606 152.863251 
L 90.828 172.982635 
L 90.9954 143.154692 
L 91.3302 168.006241 
L 91.4976 160.425553 
L 91.665 158.111298 
L 91.8324 139.732273 
L 91.9998 156.448312 
L 92.1672 145.671073 
L 92.3346 145.193609 
L 92.502 143.513605 
L 92.6694 159.206574 
L 92.8368 160.449304 
L 93.0042 159.278939 
L 93.1716 141.540236 
L 93.339 158.174351 
L 93.5064 157.771339 
L 93.6738 178.614306 
L 93.8412 150.378813 
L 94.0086 141.767466 
L 94.3434 158.472198 
L 94.5108 154.214567 
L 94.6782 160.710621 
L 94.8456 141.991292 
L 95.013 154.50301 
L 95.1804 150.551352 
L 95.3478 162.654118 
L 95.85 126.279354 
L 96.1848 157.486871 
L 96.3522 153.630488 
L 96.5196 143.518063 
L 96.687 151.719177 
L 96.8544 145.131951 
L 97.0218 151.216702 
L 97.1892 180.754895 
L 97.3566 165.086338 
L 97.524 179.607034 
L 97.6914 143.832614 
L 97.8588 151.687429 
L 98.0262 151.332343 
L 98.1936 161.125214 
L 98.361 153.817613 
L 98.5284 176.750525 
L 98.6958 150.778265 
L 98.8632 148.336639 
L 99.0306 157.898736 
L 99.198 148.207895 
L 99.3654 148.86193 
L 99.5328 158.766431 
L 99.7002 150.7165 
L 99.8676 163.946333 
L 100.035 144.703546 
L 100.2024 152.742455 
L 100.3698 155.02049 
L 100.5372 149.144434 
L 100.7046 153.082856 
L 100.872 152.62681 
L 101.0394 160.035819 
L 101.2068 143.186146 
L 101.5416 166.250942 
L 101.709 152.435699 
L 101.8764 156.7895 
L 102.0438 155.896598 
L 102.3786 174.7139 
L 102.546 150.016638 
L 102.7134 146.442181 
L 102.8808 166.736398 
L 103.0482 162.152117 
L 103.2156 181.976694 
L 103.383 152.677461 
L 103.5504 151.801207 
L 103.7178 144.729696 
L 103.8852 169.414693 
L 104.22 129.890954 
L 104.3874 155.934379 
L 104.5548 158.656076 
L 104.7222 144.57689 
L 104.8896 141.772553 
L 105.057 163.055206 
L 105.2244 146.142573 
L 105.3918 145.776676 
L 105.5592 173.294004 
L 105.7266 165.667364 
L 105.894 152.948036 
L 106.0614 152.753322 
L 106.2288 144.889567 
L 106.5636 163.967901 
L 106.731 148.268374 
L 106.8984 151.415383 
L 107.0658 151.269777 
L 107.2332 144.447445 
L 107.4006 148.410421 
L 107.568 163.717913 
L 107.9028 151.902994 
L 108.0702 180.759193 
L 108.405 166.261105 
L 108.5724 154.363661 
L 108.7398 153.465567 
L 109.0746 143.301115 
L 109.242 150.858462 
L 109.4094 153.287516 
L 109.5768 146.654702 
L 109.7442 147.287687 
L 109.9116 154.716645 
L 110.079 153.86437 
L 110.2464 160.160404 
L 110.4138 174.635261 
L 110.5812 142.424522 
L 110.916 168.191075 
L 111.0834 148.773669 
L 111.2508 143.331924 
L 111.4182 145.425375 
L 111.5856 137.734257 
L 111.753 158.126142 
L 111.9204 159.588899 
L 112.2552 147.988229 
L 112.4226 148.898947 
L 112.59 105.576377 
L 112.7574 149.63713 
L 112.9248 148.568625 
L 113.2596 141.679782 
L 113.427 163.818532 
L 113.5944 144.963595 
L 113.7618 149.197492 
L 113.9292 164.777596 
L 114.0966 152.364856 
L 114.264 175.67171 
L 114.4314 154.604392 
L 114.7662 162.115374 
L 114.9336 144.577618 
L 115.101 159.464297 
L 115.2684 152.378104 
L 115.4358 161.852657 
L 115.6032 146.95563 
L 115.7706 154.72619 
L 115.938 144.21612 
L 116.2728 156.538828 
L 116.4402 148.078894 
L 116.6076 150.398059 
L 116.775 147.71302 
L 116.9424 163.336556 
L 117.1098 154.479029 
L 117.2772 137.909728 
L 117.4446 155.905389 
L 117.612 149.482475 
L 117.7794 153.890044 
L 117.9468 153.601262 
L 118.1142 146.088423 
L 118.2816 148.452279 
L 118.449 148.581318 
L 118.6164 162.59519 
L 118.7838 146.4838 
L 118.9512 146.477314 
L 119.1186 155.642311 
L 119.286 156.337132 
L 119.4534 155.557825 
L 119.6208 149.287073 
L 119.7882 153.546481 
L 120.123 152.227225 
L 120.2904 145.957003 
L 120.4578 153.742033 
L 120.6252 143.990284 
L 120.7926 143.754912 
L 120.96 135.981676 
L 121.2948 155.400563 
L 121.4622 146.357254 
L 121.6296 153.254867 
L 121.797 147.946294 
L 121.9644 150.885222 
L 122.1318 150.306048 
L 122.2992 155.056509 
L 122.4666 146.269552 
L 122.634 154.101268 
L 122.8014 145.926114 
L 122.9688 152.483345 
L 123.1362 151.35219 
L 123.3036 177.206793 
L 123.471 153.134256 
L 123.6384 153.796995 
L 123.8058 149.5418 
L 123.9732 149.179101 
L 124.1406 160.084548 
L 124.308 157.516155 
L 124.4754 161.210975 
L 124.8102 151.74983 
L 124.9776 156.280001 
L 125.3124 140.412948 
L 125.4798 169.532192 
L 125.8146 156.655471 
L 125.982 153.342234 
L 126.1494 154.108073 
L 126.3168 160.191589 
L 126.4842 151.469814 
L 126.6516 176.16535 
L 126.819 155.57763 
L 126.9864 164.301752 
L 127.3212 148.973629 
L 127.4886 151.847723 
L 127.656 149.209784 
L 127.8234 159.975741 
L 127.9908 155.501316 
L 128.1582 154.475845 
L 128.493 142.583916 
L 128.6604 175.033026 
L 128.9952 148.194952 
L 129.1626 149.216064 
L 129.33 119.97982 
L 129.4974 160.944377 
L 129.6648 152.752101 
L 129.8322 156.043564 
L 129.9996 149.462681 
L 130.3344 168.837177 
L 130.5018 149.604198 
L 130.6692 154.742835 
L 130.8366 151.028669 
L 131.004 168.832382 
L 131.1714 141.155421 
L 131.3388 142.255659 
L 131.5062 162.717266 
L 131.6736 166.5899 
L 131.841 162.669054 
L 132.0084 142.98283 
L 132.3432 146.554453 
L 132.678 147.920869 
L 132.8454 150.113591 
L 133.1802 144.798057 
L 133.3476 156.471851 
L 133.515 141.512295 
L 133.6824 156.671741 
L 133.8498 141.528404 
L 134.0172 146.769956 
L 134.352 166.892891 
L 134.5194 144.483112 
L 134.6868 157.621381 
L 134.8542 154.811707 
L 135.0216 167.322683 
L 135.189 152.741629 
L 135.3564 154.973395 
L 135.5238 161.68247 
L 135.6912 150.972098 
L 135.8586 151.448351 
L 136.026 149.238344 
L 136.1934 145.053183 
L 136.3608 150.171913 
L 136.5282 159.807973 
L 136.6956 144.827788 
L 136.863 147.74353 
L 137.0304 144.417107 
L 137.1978 147.922605 
L 137.3652 146.972722 
L 137.5326 170.270186 
L 137.7 137.848946 
L 137.8674 149.894087 
L 138.0348 153.432175 
L 138.2022 144.017244 
L 138.3696 158.032223 
L 138.537 155.946507 
L 138.8718 145.717355 
L 139.0392 174.807037 
L 139.374 155.112356 
L 139.5414 160.05993 
L 139.7088 136.946793 
L 139.8762 153.503995 
L 140.0436 152.855723 
L 140.211 137.465816 
L 140.3784 159.864505 
L 140.5458 159.96907 
L 140.7132 149.979058 
L 140.8806 151.829901 
L 141.048 150.139079 
L 141.2154 190.826883 
L 141.3828 155.913987 
L 141.5502 157.124963 
L 141.7176 141.876511 
L 141.885 154.423961 
L 142.0524 158.166009 
L 142.2198 149.528717 
L 142.3872 148.54173 
L 142.5546 142.418102 
L 142.722 161.299972 
L 143.0568 146.002726 
L 143.2242 153.902255 
L 143.3916 170.782185 
L 143.559 148.017322 
L 143.8938 155.969055 
L 144.2286 145.735758 
L 144.396 169.429847 
L 144.5634 158.281639 
L 144.7308 159.960642 
L 144.8982 138.55589 
L 145.0656 162.2154 
L 145.233 154.660854 
L 145.4004 154.124769 
L 145.5678 159.988158 
L 145.7352 147.588571 
L 145.9026 176.240793 
L 146.07 113.343774 
L 146.4048 162.266864 
L 146.5722 142.031384 
L 146.7396 141.219429 
L 146.907 173.980624 
L 147.2418 141.418225 
L 147.4092 154.083967 
L 147.5766 144.564695 
L 147.744 144.036686 
L 147.9114 154.526095 
L 148.0788 154.785543 
L 148.2462 145.806131 
L 148.4136 178.890432 
L 148.581 144.817208 
L 148.7484 148.182472 
L 148.9158 148.638066 
L 149.0832 193.67636 
L 149.2506 161.007485 
L 149.418 157.699749 
L 149.5854 148.048329 
L 149.7528 148.363263 
L 149.9202 163.690142 
L 150.0876 150.203429 
L 150.4224 153.54525 
L 150.5898 151.80755 
L 150.7572 145.991435 
L 150.9246 154.055395 
L 151.092 153.297785 
L 151.2594 190.336411 
L 151.5942 142.965698 
L 151.7616 148.876726 
L 151.929 166.951088 
L 152.0964 172.151144 
L 152.2638 144.536684 
L 152.4312 154.86954 
L 152.5986 148.698782 
L 152.9334 157.635118 
L 153.1008 149.557275 
L 153.2682 152.366492 
L 153.4356 145.500781 
L 153.603 151.120062 
L 153.7704 172.282609 
L 153.9378 160.637858 
L 154.1052 164.386778 
L 154.44 141.66885 
L 154.6074 145.790655 
L 154.7748 159.385264 
L 154.9422 145.719568 
L 155.1096 147.576279 
L 155.277 145.588581 
L 155.4444 157.789573 
L 155.6118 154.389795 
L 155.7792 143.348956 
L 155.9466 141.600673 
L 156.2814 161.357054 
L 156.4488 160.567163 
L 156.6162 145.31597 
L 156.7836 162.812738 
L 156.951 149.620157 
L 157.1184 166.285773 
L 157.2858 148.687143 
L 157.4532 148.90025 
L 157.6206 159.563343 
L 157.788 147.933373 
L 157.9554 154.288399 
L 158.1228 149.205305 
L 158.2902 168.741463 
L 158.625 154.434727 
L 158.7924 152.832419 
L 158.9598 170.807597 
L 159.1272 155.524972 
L 159.2946 162.878281 
L 159.462 155.85234 
L 159.6294 154.984291 
L 159.7968 155.764323 
L 159.9642 162.041261 
L 160.1316 152.783734 
L 160.299 163.257807 
L 160.4664 184.07515 
L 160.6338 152.040952 
L 160.8012 145.529837 
L 160.9686 154.454105 
L 161.136 142.559726 
L 161.4708 159.962466 
L 161.6382 160.410031 
L 161.8056 145.450552 
L 162.1404 162.976822 
L 162.3078 146.108955 
L 162.4752 147.368132 
L 162.6426 151.191509 
L 162.81 124.992802 
L 162.9774 163.321324 
L 163.1448 150.407478 
L 163.4796 162.441355 
L 163.8144 153.521318 
L 163.9818 140.669473 
L 164.3166 156.243864 
L 164.484 155.519753 
L 164.8188 139.711897 
L 165.1536 163.335174 
L 165.4884 140.348677 
L 165.6558 144.02004 
L 165.8232 139.081134 
L 165.9906 177.961496 
L 166.3254 146.036096 
L 166.4928 144.263897 
L 166.6602 144.208577 
L 166.8276 152.278321 
L 166.995 142.786049 
L 167.1624 145.837013 
L 167.3298 146.41156 
L 167.4972 146.047796 
L 167.6646 140.166217 
L 167.832 173.469916 
L 167.9994 166.831611 
L 168.1668 153.256111 
L 168.3342 151.645605 
L 168.5016 152.281571 
L 168.669 156.944527 
L 168.8364 152.921467 
L 169.0038 153.864712 
L 169.1712 143.812725 
L 169.3386 147.592018 
L 169.506 167.996768 
L 169.6734 147.807492 
L 169.8408 148.418853 
L 170.0082 154.248578 
L 170.1756 149.6178 
L 170.343 150.676027 
L 170.5104 150.004317 
L 170.6778 154.398493 
L 170.8452 153.798618 
L 171.0126 151.474258 
L 171.18 130.262026 
L 171.3474 152.026954 
L 171.5148 188.426336 
L 171.6822 150.871655 
L 171.8496 147.8267 
L 172.017 148.105058 
L 172.1844 146.985868 
L 172.3518 148.055208 
L 172.5192 170.032742 
L 172.6866 175.830733 
L 172.854 148.180245 
L 173.0214 155.417437 
L 173.1888 138.08592 
L 173.3562 138.581413 
L 173.5236 154.113605 
L 173.691 152.041186 
L 173.8584 154.932354 
L 174.0258 166.658149 
L 174.1932 148.534464 
L 174.3606 171.984366 
L 174.528 154.289345 
L 174.8628 143.306445 
L 175.0302 171.599831 
L 175.1976 146.089646 
L 175.365 158.757218 
L 175.5324 145.483023 
L 175.8672 149.131797 
L 176.0346 140.734253 
L 176.202 148.205741 
L 176.3694 146.795614 
L 176.5368 151.470031 
L 176.7042 192.28272 
L 177.039 158.71002 
L 177.2064 166.567166 
L 177.3738 145.237046 
L 177.5412 148.937526 
L 177.7086 145.39898 
L 177.876 157.002904 
L 178.0434 144.9073 
L 178.2108 150.528714 
L 178.3782 147.905648 
L 178.5456 155.181083 
L 178.713 168.460922 
L 178.8804 148.503788 
L 179.0478 153.152886 
L 179.2152 149.388527 
L 179.3826 157.484519 
L 179.55 116.155004 
L 179.7174 156.894652 
L 179.8848 146.389848 
L 180.0522 143.005764 
L 180.2196 142.69921 
L 180.387 159.546312 
L 180.5544 162.316425 
L 180.7218 145.166716 
L 180.8892 157.86593 
L 181.0566 145.766282 
L 181.224 142.284354 
L 181.3914 154.764508 
L 181.5588 155.069081 
L 181.8936 152.866715 
L 182.061 148.216327 
L 182.2284 179.14457 
L 182.3958 144.180347 
L 182.5632 146.008759 
L 182.7306 166.761385 
L 182.898 143.77775 
L 183.0654 144.455525 
L 183.2328 138.509134 
L 183.4002 160.426633 
L 183.5676 151.91325 
L 183.735 151.277784 
L 184.0698 153.555016 
L 184.2372 165.832864 
L 184.4046 149.769951 
L 184.572 146.846764 
L 184.7394 162.789073 
L 184.9068 141.438433 
L 185.0742 137.06593 
L 185.2416 148.970844 
L 185.409 146.330598 
L 185.5764 160.088652 
L 185.7438 151.015026 
L 185.9112 153.156115 
L 186.0786 146.977107 
L 186.246 153.744027 
L 186.4134 151.807422 
L 186.5808 154.489191 
L 186.7482 151.824127 
L 186.9156 173.542719 
L 187.083 155.051574 
L 187.2504 167.732033 
L 187.5852 152.35545 
L 187.7526 151.908369 
L 187.92 140.725922 
L 188.0874 153.06157 
L 188.2548 147.558142 
L 188.4222 145.736772 
L 188.5896 151.118251 
L 188.757 145.986488 
L 188.9244 160.508553 
L 189.0918 154.116678 
L 189.2592 137.417866 
L 189.4266 154.186866 
L 189.594 154.848013 
L 189.7614 154.004108 
L 189.9288 170.142772 
L 190.0962 151.292152 
L 190.2636 153.733892 
L 190.431 142.722371 
L 190.5984 159.034059 
L 190.7658 143.460443 
L 190.9332 158.354129 
L 191.1006 144.56443 
L 191.268 142.786161 
L 191.4354 146.02641 
L 191.6028 146.065684 
L 191.7702 158.040088 
L 191.9376 149.411967 
L 192.105 156.420972 
L 192.2724 152.093137 
L 192.6072 169.283034 
L 192.942 158.872349 
L 193.1094 164.723098 
L 193.2768 142.115275 
L 193.4442 145.766564 
L 193.6116 164.647151 
L 193.779 146.70377 
L 193.9464 152.821076 
L 194.1138 142.81933 
L 194.2812 154.980839 
L 194.4486 155.686083 
L 194.616 153.137047 
L 194.7834 143.987285 
L 194.9508 157.729073 
L 195.2856 141.87389 
L 195.453 155.484754 
L 195.6204 150.411817 
L 195.7878 150.460275 
L 195.9552 154.668608 
L 196.1226 141.797959 
L 196.29 142.912088 
L 196.4574 201.926749 
L 196.6248 149.883732 
L 196.7922 150.175014 
L 196.9596 153.24374 
L 197.127 146.581447 
L 197.2944 144.494764 
L 197.4618 152.745716 
L 197.6292 147.135446 
L 197.7966 163.565357 
L 198.1314 144.250112 
L 198.2988 148.036698 
L 198.4662 141.338215 
L 198.6336 157.203745 
L 198.801 147.493744 
L 198.9684 145.957214 
L 199.1358 147.098851 
L 199.3032 147.024149 
L 199.4706 145.494025 
L 199.638 165.697004 
L 199.8054 164.085534 
L 199.9728 149.419274 
L 200.1402 162.18076 
L 200.3076 145.039001 
L 200.475 148.929433 
L 200.6424 146.732354 
L 200.8098 162.370794 
L 200.9772 149.989636 
L 201.1446 150.699352 
L 201.312 150.039459 
L 201.4794 153.098339 
L 201.6468 146.553175 
L 201.8142 185.311327 
L 202.149 150.57427 
L 202.3164 149.257104 
L 202.4838 170.760331 
L 202.6512 139.795908 
L 202.8186 149.560849 
L 202.986 171.479715 
L 203.1534 163.68537 
L 203.3208 148.701036 
L 203.6556 171.323398 
L 203.9904 146.226631 
L 204.3252 150.991568 
L 204.4926 161.748114 
L 204.66 154.34561 
L 204.8274 158.998295 
L 204.9948 168.92041 
L 205.1622 143.845624 
L 205.3296 139.741648 
L 205.6644 159.027588 
L 205.8318 149.900264 
L 205.9992 164.257101 
L 206.1666 141.125327 
L 206.334 160.739214 
L 206.5014 147.057189 
L 206.6688 148.403045 
L 206.8362 141.471072 
L 207.0036 143.70972 
L 207.171 172.537263 
L 207.3384 144.53728 
L 207.5058 170.47443 
L 207.6732 139.083822 
L 207.8406 156.617114 
L 208.008 143.268157 
L 208.1754 150.737385 
L 208.3428 139.023489 
L 208.5102 168.615825 
L 208.6776 158.182133 
L 208.845 157.14114 
L 209.0124 145.31994 
L 209.1798 141.642112 
L 209.3472 148.1206 
L 209.5146 143.480803 
L 209.682 144.498383 
L 209.8494 149.1478 
L 210.0168 177.341072 
L 210.1842 181.112698 
L 210.3516 153.577934 
L 210.519 148.119451 
L 210.6864 156.738851 
L 210.8538 142.826951 
L 211.356 167.776713 
L 211.5234 145.180202 
L 211.6908 174.938268 
L 211.8582 153.444343 
L 212.0256 151.887692 
L 212.193 149.18226 
L 212.3604 148.644748 
L 212.5278 143.938146 
L 212.6952 143.306392 
L 212.8626 165.631514 
L 213.03 144.829921 
L 213.1974 144.723998 
L 213.3648 145.578627 
L 213.5322 149.476741 
L 213.6996 146.004745 
L 213.867 154.737504 
L 214.0344 154.284432 
L 214.2018 148.117166 
L 214.3692 154.973847 
L 214.5366 155.647034 
L 214.704 144.037759 
L 215.2062 157.85298 
L 215.3736 154.031131 
L 215.541 143.828416 
L 215.7084 156.000738 
L 215.8758 150.020007 
L 216.0432 150.201498 
L 216.378 162.337727 
L 216.5454 141.604695 
L 216.7128 144.212464 
L 216.8802 168.120456 
L 217.0476 149.460905 
L 217.215 161.765058 
L 217.3824 157.294593 
L 217.5498 147.448114 
L 217.7172 159.05077 
L 217.8846 147.623299 
L 218.052 156.974182 
L 218.2194 174.698324 
L 218.5542 140.285548 
L 218.7216 151.886801 
L 218.889 145.785316 
L 219.0564 143.940579 
L 219.3912 158.31607 
L 219.5586 154.656916 
L 219.726 173.28942 
L 219.8934 144.220405 
L 220.0608 157.046732 
L 220.2282 158.27783 
L 220.3956 161.791833 
L 220.563 152.803932 
L 220.7304 153.534398 
L 220.8978 169.443259 
L 221.0652 147.662095 
L 221.2326 153.464298 
L 221.4 146.482315 
L 221.7348 152.820289 
L 221.9022 149.321523 
L 222.0696 160.801488 
L 222.237 140.595046 
L 222.5718 166.599568 
L 222.7392 138.349431 
L 222.9066 175.670941 
L 223.074 149.639214 
L 223.2414 152.144589 
L 223.4088 163.968112 
L 223.5762 153.453299 
L 223.7436 150.751209 
L 223.911 161.633155 
L 224.0784 160.09985 
L 224.2458 154.682332 
L 224.4132 154.409569 
L 224.5806 136.384514 
L 224.9154 145.301471 
L 225.0828 148.473766 
L 225.2502 143.04877 
L 225.4176 159.854711 
L 225.7524 147.418812 
L 226.0872 163.411482 
L 226.2546 163.242956 
L 226.422 153.569092 
L 226.5894 175.767234 
L 226.7568 143.951289 
L 226.9242 140.57713 
L 227.0916 152.67959 
L 227.259 154.821023 
L 227.4264 168.194352 
L 227.5938 146.903641 
L 227.7612 151.511836 
L 227.9286 162.647582 
L 228.2634 145.225262 
L 228.4308 157.173662 
L 228.7656 147.181788 
L 228.933 161.402472 
L 229.1004 158.170809 
L 229.2678 145.86649 
L 229.4352 159.872311 
L 229.77 129.485285 
L 229.9374 139.800833 
L 230.1048 159.239117 
L 230.2722 155.182448 
L 230.4396 158.732985 
L 230.7744 139.179071 
L 231.444 178.50379 
L 231.6114 142.319855 
L 231.9462 146.827415 
L 232.1136 142.027004 
L 232.281 162.764603 
L 232.4484 168.000688 
L 232.6158 146.928488 
L 232.7832 154.504601 
L 232.9506 155.656286 
L 233.118 149.156181 
L 233.2854 162.79968 
L 233.4528 147.344529 
L 233.6202 164.264252 
L 233.955 147.450297 
L 234.2898 160.992816 
L 234.4572 175.209276 
L 234.6246 143.283717 
L 234.792 151.616474 
L 234.9594 148.932179 
L 235.1268 152.924623 
L 235.2942 145.309706 
L 235.4616 158.356827 
L 235.7964 145.755925 
L 235.9638 148.179912 
L 236.1312 137.303712 
L 236.2986 140.622352 
L 236.466 163.006104 
L 236.6334 152.686238 
L 236.8008 159.669459 
L 236.9682 156.573501 
L 237.1356 180.971209 
L 237.303 153.122756 
L 237.6378 148.586978 
L 237.9726 151.212242 
L 238.3074 160.892904 
L 238.4748 153.40341 
L 238.6422 161.750934 
L 238.8096 137.329734 
L 238.977 158.030885 
L 239.1444 140.996583 
L 239.3118 144.184122 
L 239.4792 152.476962 
L 239.6466 137.516799 
L 239.814 155.29156 
L 239.9814 141.526464 
L 240.1488 140.222543 
L 240.4836 149.255818 
L 240.651 161.708009 
L 240.8184 143.30263 
L 241.1532 147.449902 
L 241.3206 159.655056 
L 241.6554 138.211522 
L 241.8228 139.852492 
L 241.9902 160.053624 
L 242.1576 142.359739 
L 242.325 163.925453 
L 242.4924 140.962424 
L 242.6598 137.102682 
L 242.8272 151.875178 
L 242.9946 150.355411 
L 243.162 141.395621 
L 243.6642 161.053329 
L 243.8316 149.862601 
L 243.999 158.31628 
L 244.1664 147.919674 
L 244.3338 150.390499 
L 244.5012 159.082351 
L 244.6686 157.865291 
L 244.836 150.840949 
L 245.0034 154.035014 
L 245.3382 147.265769 
L 245.5056 166.983733 
L 245.673 144.236096 
L 245.8404 151.224081 
L 246.0078 148.1428 
L 246.1752 140.220692 
L 246.3426 152.309695 
L 246.51 129.620376 
L 246.6774 149.849595 
L 246.8448 146.553481 
L 247.0122 151.498426 
L 247.347 143.50667 
L 247.6818 170.58583 
L 248.184 142.512817 
L 248.3514 139.965343 
L 248.5188 144.413927 
L 248.6862 157.814095 
L 248.8536 152.308413 
L 249.1884 155.045396 
L 249.3558 146.145992 
L 249.6906 152.243025 
L 249.858 142.692969 
L 250.0254 148.977763 
L 250.1928 171.31905 
L 250.3602 157.520547 
L 250.5276 159.981617 
L 250.695 142.007639 
L 250.8624 147.000475 
L 251.0298 146.818393 
L 251.1972 145.411027 
L 251.3646 150.379926 
L 251.6994 146.235738 
L 251.8668 150.189452 
L 252.0342 149.267838 
L 252.2016 149.078587 
L 252.369 150.324312 
L 252.5364 146.928365 
L 252.7038 149.14684 
L 252.8712 148.176929 
L 253.0386 154.100331 
L 253.206 147.812462 
L 253.3734 148.107103 
L 253.7082 145.580401 
L 253.8756 141.941012 
L 254.043 159.195866 
L 254.5452 146.706373 
L 254.7126 155.524156 
L 254.88 135.466951 
L 255.0474 156.402654 
L 255.2148 160.616863 
L 255.717 142.75359 
L 255.8844 150.258351 
L 256.0518 142.168171 
L 256.2192 148.296091 
L 256.3866 148.597056 
L 256.554 143.973518 
L 256.7214 163.078691 
L 256.8888 161.33837 
L 257.0562 165.901185 
L 257.2236 143.015104 
L 257.391 143.300229 
L 257.5584 142.783209 
L 257.7258 152.343532 
L 257.8932 168.414921 
L 258.0606 140.222938 
L 258.228 145.488086 
L 258.3954 155.968741 
L 258.5628 142.71676 
L 258.8976 160.356109 
L 259.065 151.350275 
L 259.2324 156.296913 
L 259.3998 142.530563 
L 259.5672 148.20194 
L 259.7346 163.572641 
L 259.902 166.040961 
L 260.0694 149.613645 
L 260.2368 148.001578 
L 260.4042 150.627488 
L 260.5716 144.289325 
L 260.739 151.265291 
L 260.9064 151.341023 
L 261.0738 155.507187 
L 261.4086 145.526687 
L 261.7434 168.829915 
L 262.0782 151.167128 
L 262.413 167.694188 
L 262.5804 152.622023 
L 262.7478 153.403914 
L 262.9152 151.939083 
L 263.0826 155.936202 
L 263.4174 136.190277 
L 263.5848 143.557226 
L 263.7522 142.048274 
L 263.9196 157.567726 
L 264.2544 145.941216 
L 264.4218 145.799207 
L 264.7566 158.270903 
L 264.924 149.977026 
L 265.0914 152.087604 
L 265.2588 163.91302 
L 265.4262 149.116089 
L 265.5936 150.962732 
L 265.761 149.41553 
L 265.9284 158.361653 
L 266.2632 142.98293 
L 266.4306 185.286749 
L 266.598 151.065176 
L 266.7654 146.200429 
L 267.1002 147.905802 
L 267.2676 153.186626 
L 267.435 143.501535 
L 267.7698 158.397036 
L 267.9372 155.604206 
L 268.1046 149.760966 
L 268.272 154.001191 
L 268.4394 147.321529 
L 268.6068 172.14177 
L 268.7742 142.565559 
L 268.9416 152.607922 
L 269.109 144.65044 
L 269.2764 149.842089 
L 269.4438 141.753837 
L 269.6112 141.652261 
L 269.7786 156.024432 
L 270.1134 143.470861 
L 270.2808 158.209411 
L 270.4482 144.151048 
L 270.6156 147.206845 
L 270.783 153.69364 
L 270.9504 149.196308 
L 271.2852 158.224112 
L 271.4526 147.385804 
L 271.62 144.816743 
L 271.7874 162.549119 
L 271.9548 156.70509 
L 272.1222 163.700336 
L 272.2896 147.039289 
L 272.457 149.639677 
L 272.6244 142.035143 
L 272.7918 145.705426 
L 272.9592 142.286821 
L 273.294 149.428281 
L 273.4614 155.921036 
L 273.6288 146.319009 
L 273.7962 151.468775 
L 273.9636 164.700503 
L 274.131 159.779534 
L 274.2984 150.820066 
L 274.4658 153.055278 
L 274.6332 140.056983 
L 274.8006 146.700139 
L 274.968 145.220446 
L 275.1354 138.368606 
L 275.3028 137.781928 
L 275.4702 144.131933 
L 275.6376 140.615569 
L 275.805 148.136769 
L 276.1398 141.913109 
L 276.3072 150.008037 
L 276.4746 152.142541 
L 276.642 138.324182 
L 276.9768 160.956484 
L 277.1442 162.407778 
L 277.3116 145.914796 
L 277.479 159.488469 
L 277.6464 153.037739 
L 277.8138 164.79839 
L 277.9812 160.670543 
L 278.1486 162.287173 
L 278.316 155.076889 
L 278.4834 142.599104 
L 278.6508 140.708873 
L 278.9856 153.193416 
L 279.153 147.461177 
L 279.3204 147.828719 
L 279.6552 143.774364 
L 279.8226 158.009613 
L 279.99 123.131266 
L 280.1574 153.613757 
L 280.3248 145.991406 
L 280.4922 152.685028 
L 280.6596 145.727521 
L 280.827 149.22266 
L 280.9944 145.172886 
L 281.1618 159.132757 
L 281.3292 139.789973 
L 281.664 153.500109 
L 281.8314 137.982 
L 281.9988 146.034189 
L 282.1662 162.132333 
L 282.3336 140.341867 
L 282.501 146.617736 
L 282.6684 163.457581 
L 282.8358 145.668906 
L 283.0032 154.458296 
L 283.1706 153.491662 
L 283.338 142.668387 
L 283.6728 148.39964 
L 283.8402 166.165494 
L 284.175 135.551824 
L 284.3424 140.700114 
L 284.5098 156.368893 
L 284.6772 140.968502 
L 284.8446 153.975592 
L 285.012 157.213659 
L 285.1794 154.500074 
L 285.3468 147.091212 
L 285.5142 148.967254 
L 285.6816 153.121307 
L 285.849 146.458774 
L 286.0164 148.598351 
L 286.1838 138.205873 
L 286.5186 150.817407 
L 286.686 146.691709 
L 286.8534 150.916947 
L 287.1882 140.797948 
L 287.3556 149.881666 
L 287.523 149.865827 
L 287.6904 152.844443 
L 287.8578 150.832195 
L 288.0252 169.726155 
L 288.1926 161.590681 
L 288.36 134.010189 
L 288.5274 152.056307 
L 288.6948 142.665357 
L 288.8622 174.670605 
L 289.197 142.826666 
L 289.3644 148.220763 
L 289.5318 149.60652 
L 289.6992 161.47107 
L 290.034 141.858078 
L 290.3688 152.099475 
L 290.5362 162.334107 
L 290.7036 138.557783 
L 290.871 147.294913 
L 291.0384 143.71918 
L 291.2058 156.819729 
L 291.3732 157.439411 
L 291.5406 159.222369 
L 291.708 165.695483 
L 291.8754 147.392127 
L 292.0428 145.656174 
L 292.2102 145.288447 
L 292.3776 160.354409 
L 292.545 162.676886 
L 292.7124 146.417942 
L 292.8798 146.202934 
L 293.0472 143.861794 
L 293.2146 157.480387 
L 293.382 144.96091 
L 293.5494 152.47719 
L 293.7168 149.85619 
L 293.8842 158.543212 
L 294.0516 147.152572 
L 294.219 146.409478 
L 294.5538 146.180822 
L 294.7212 145.193066 
L 294.8886 153.338962 
L 295.2234 155.552842 
L 295.3908 152.588606 
L 295.5582 160.673347 
L 295.7256 144.965968 
L 295.893 144.216314 
L 296.0604 148.008111 
L 296.2278 149.163525 
L 296.3952 172.816061 
L 296.5626 141.747478 
L 296.73 133.486873 
L 297.0648 146.867604 
L 297.2322 142.120121 
L 297.3996 170.874655 
L 297.567 154.063519 
L 297.7344 154.857758 
L 297.9018 173.460128 
L 298.0692 148.632549 
L 298.404 157.523979 
L 298.5714 150.399294 
L 298.7388 165.214909 
L 298.9062 153.431868 
L 299.0736 160.871211 
L 299.241 174.937583 
L 299.4084 163.554305 
L 299.5758 164.013136 
L 299.9106 141.614907 
L 300.078 141.436188 
L 300.2454 144.423601 
L 300.4128 153.136145 
L 300.5802 142.359354 
L 300.7476 159.910372 
L 300.915 142.022618 
L 301.0824 147.640697 
L 301.2498 146.120182 
L 301.4172 148.050735 
L 301.5846 159.268062 
L 301.752 145.979685 
L 301.9194 170.803573 
L 302.0868 170.527858 
L 302.2542 144.934247 
L 302.589 152.047628 
L 302.7564 147.620551 
L 302.9238 148.662382 
L 303.0912 151.54718 
L 303.2586 140.900412 
L 303.5934 143.722027 
L 303.7608 152.234286 
L 303.9282 144.112193 
L 304.0956 147.450878 
L 304.263 187.649057 
L 304.4304 155.248344 
L 304.7652 150.08863 
L 304.9326 155.388543 
L 305.1 135.034342 
L 305.2674 155.323963 
L 305.4348 154.844957 
L 305.7696 143.390793 
L 306.1044 167.4346 
L 306.2718 147.531546 
L 306.4392 167.690781 
L 306.774 144.280463 
L 306.9414 147.40131 
L 307.2762 156.141771 
L 307.4436 159.053788 
L 307.611 153.315103 
L 307.9458 169.5626 
L 308.1132 140.56593 
L 308.2806 149.90679 
L 308.6154 149.602868 
L 308.7828 148.966689 
L 308.9502 148.844603 
L 309.1176 147.568013 
L 309.285 161.192222 
L 309.6198 148.994085 
L 309.7872 145.665277 
L 309.9546 146.412843 
L 310.122 142.198964 
L 310.2894 166.003082 
L 310.4568 156.647153 
L 310.6242 153.602092 
L 310.7916 140.635281 
L 310.959 153.08908 
L 311.2938 142.816606 
L 311.4612 151.798763 
L 311.6286 150.488697 
L 311.796 174.814565 
L 311.9634 150.689681 
L 312.2982 147.20911 
L 312.4656 157.576398 
L 312.633 149.874207 
L 312.8004 154.103336 
L 312.9678 140.288571 
L 313.1352 142.011655 
L 313.3026 152.319549 
L 313.47 134.327877 
L 313.6374 164.83958 
L 313.8048 151.42257 
L 313.9722 161.387662 
L 314.1396 186.230146 
L 314.307 144.879568 
L 314.4744 152.689742 
L 314.6418 150.662894 
L 314.8092 146.857148 
L 314.9766 147.216609 
L 315.144 148.533055 
L 315.4788 142.052401 
L 315.6462 179.956353 
L 315.8136 153.137279 
L 315.981 144.294838 
L 316.1484 172.050393 
L 316.3158 154.303226 
L 316.4832 175.45594 
L 316.818 146.581554 
L 316.9854 143.345261 
L 317.3202 169.870873 
L 317.4876 140.497968 
L 317.655 136.188211 
L 317.8224 143.958256 
L 317.9898 159.325814 
L 318.1572 148.204297 
L 318.3246 147.554426 
L 318.492 142.067231 
L 318.6594 163.044574 
L 318.9942 138.830142 
L 319.1616 162.49676 
L 319.329 135.752774 
L 319.4964 137.63094 
L 319.6638 143.016544 
L 319.8312 155.851943 
L 319.9986 158.920182 
L 320.166 145.680223 
L 320.3334 150.986993 
L 320.5008 164.280901 
L 320.6682 148.894489 
L 320.8356 158.877823 
L 321.1704 157.882901 
L 321.3378 154.865765 
L 321.5052 158.676351 
L 321.84 148.735869 
L 322.0074 156.139814 
L 322.1748 144.492153 
L 322.3422 156.538815 
L 322.5096 154.634246 
L 322.677 141.973815 
L 322.8444 153.811773 
L 323.0118 182.120107 
L 323.1792 155.088329 
L 323.3466 162.831831 
L 323.514 139.408788 
L 323.6814 150.391433 
L 323.8488 143.367813 
L 324.0162 150.935621 
L 324.1836 141.871466 
L 324.351 151.010366 
L 324.5184 146.405389 
L 324.6858 165.006508 
L 325.0206 144.736055 
L 325.188 170.337246 
L 325.3554 150.67261 
L 325.5228 153.402432 
L 325.6902 142.35221 
L 326.025 167.836927 
L 326.1924 143.086151 
L 326.3598 169.482788 
L 326.5272 168.741913 
L 326.862 137.746201 
L 327.0294 147.833259 
L 327.1968 165.464283 
L 327.5316 151.208585 
L 327.699 158.859984 
L 327.8664 155.572446 
L 328.0338 144.800524 
L 328.2012 146.089348 
L 328.536 160.570105 
L 328.7034 145.133397 
L 328.8708 146.768274 
L 329.0382 146.964128 
L 329.2056 144.140582 
L 329.373 147.273827 
L 329.5404 160.901981 
L 329.7078 148.101021 
L 329.8752 160.807999 
L 330.0426 138.023525 
L 330.21 136.522813 
L 330.3774 140.245319 
L 330.5448 151.955257 
L 330.7122 147.029743 
L 330.8796 152.168477 
L 331.047 168.811314 
L 331.2144 148.121957 
L 331.3818 147.340244 
L 331.5492 158.862031 
L 331.7166 155.438742 
L 331.884 149.572872 
L 332.3862 161.636703 
L 332.5536 150.003115 
L 332.721 151.472594 
L 332.8884 146.818833 
L 333.0558 155.581913 
L 333.2232 155.068069 
L 333.3906 141.193139 
L 333.558 145.39784 
L 333.7254 154.439828 
L 333.8928 144.844843 
L 334.0602 143.841304 
L 334.2276 157.727624 
L 334.395 141.624925 
L 334.5624 149.613073 
L 334.7298 142.071993 
L 334.8972 150.396956 
L 335.0646 140.402544 
L 335.3994 163.423252 
L 335.5668 165.647516 
L 335.7342 145.459287 
L 335.9016 154.717353 
L 336.069 154.876036 
L 336.2364 141.386497 
L 336.4038 159.811926 
L 336.5712 156.548657 
L 336.7386 145.1996 
L 336.906 156.32076 
L 337.0734 144.549127 
L 337.2408 182.133387 
L 337.4082 145.100191 
L 337.5756 146.876869 
L 337.743 160.976044 
L 338.0778 147.61686 
L 338.2452 154.282756 
L 338.4126 148.24364 
L 338.58 147.77654 
L 338.7474 147.838752 
L 338.9148 141.698804 
L 339.0822 166.54638 
L 339.2496 143.415471 
L 339.417 149.453387 
L 339.5844 161.061828 
L 339.7518 149.572464 
L 339.9192 158.345097 
L 340.0866 159.111976 
L 340.254 147.000211 
L 340.4214 146.85248 
L 340.5888 144.310185 
L 340.7562 161.769073 
L 340.9236 149.229781 
L 341.091 165.202505 
L 341.2584 156.138647 
L 341.4258 159.558903 
L 341.5932 150.731735 
L 341.7606 152.89563 
L 341.928 146.429214 
L 342.0954 154.533705 
L 342.2628 151.409766 
L 342.4302 162.662556 
L 342.5976 139.46822 
L 342.9324 146.092538 
L 343.0998 150.486962 
L 343.2672 147.391439 
L 343.4346 150.51339 
L 343.602 141.572879 
L 343.7694 153.682904 
L 343.9368 156.367501 
L 344.1042 145.988408 
L 344.2716 147.158398 
L 344.439 155.239846 
L 344.6064 149.147666 
L 344.7738 150.539869 
L 344.9412 160.668707 
L 345.1086 154.711755 
L 345.276 165.857733 
L 345.4434 149.157061 
L 345.6108 157.885855 
L 346.113 145.425673 
L 346.2804 151.382464 
L 346.4478 149.678568 
L 346.6152 150.255645 
L 346.7826 139.21803 
L 346.95 148.399477 
L 347.1174 146.118451 
L 347.2848 160.981923 
L 347.4522 150.799951 
L 347.6196 153.750607 
L 347.787 150.75717 
L 347.9544 141.4106 
L 348.2892 154.861188 
L 348.4566 145.620124 
L 348.624 166.463428 
L 348.7914 140.517268 
L 348.9588 156.093057 
L 349.461 141.727474 
L 349.7958 152.490147 
L 349.9632 159.101049 
L 350.298 139.282802 
L 350.4654 156.245748 
L 350.6328 149.171796 
L 350.8002 181.824939 
L 350.9676 149.883492 
L 351.135 148.48864 
L 351.3024 145.857174 
L 351.4698 159.404588 
L 351.6372 161.841256 
L 351.8046 140.109817 
L 352.1394 165.674641 
L 352.3068 157.271393 
L 352.4742 139.425251 
L 352.6416 158.193774 
L 352.809 144.239631 
L 352.9764 143.518801 
L 353.1438 168.920071 
L 353.3112 160.811289 
L 353.4786 145.867064 
L 353.646 160.621579 
L 353.8134 147.450762 
L 353.9808 151.239808 
L 354.3156 149.722168 
L 354.483 154.777069 
L 354.6504 164.791239 
L 354.8178 162.755149 
L 355.1526 146.905412 
L 355.32 146.555312 
L 355.4874 144.835646 
L 355.6548 153.959442 
L 355.8222 144.135141 
L 355.9896 158.292667 
L 356.157 149.205454 
L 356.3244 149.65067 
L 356.4918 158.15009 
L 356.8266 148.498061 
L 356.994 138.261849 
L 357.1614 152.607898 
L 357.3288 156.663499 
L 357.4962 155.223648 
L 357.6636 150.924018 
L 357.831 166.477072 
L 357.9984 148.182479 
L 358.3332 157.416742 
L 358.5006 146.777554 
L 358.668 147.295973 
L 358.8354 149.37167 
L 359.0028 155.730377 
L 359.3376 138.719863 
L 359.505 179.937644 
L 359.6724 143.251463 
L 359.8398 167.151002 
L 360.0072 147.568951 
L 360.1746 162.973739 
L 360.5094 138.366969 
L 360.6768 160.040515 
L 360.8442 161.511966 
L 361.0116 147.694486 
L 361.179 143.933059 
L 361.3464 159.693071 
L 361.5138 149.411243 
L 361.6812 151.399783 
L 361.8486 148.167824 
L 362.016 153.888977 
L 362.1834 152.9996 
L 362.3508 149.229469 
L 362.5182 159.911273 
L 362.6856 146.751427 
L 362.853 160.272907 
L 363.0204 158.30699 
L 363.1878 142.362812 
L 363.3552 147.773248 
L 363.5226 145.848584 
L 363.69 146.375878 
L 363.8574 163.591266 
L 364.0248 147.643542 
L 364.1922 142.770494 
L 364.527 169.690233 
L 364.6944 155.98162 
L 364.8618 155.785796 
L 365.0292 144.087883 
L 365.364 179.017348 
L 365.5314 142.096348 
L 365.6988 146.587891 
L 365.8662 165.354842 
L 366.0336 150.830465 
L 366.201 155.54062 
L 366.3684 150.211449 
L 366.5358 151.121799 
L 366.7032 149.506483 
L 366.8706 157.18036 
L 367.038 149.90674 
L 367.2054 172.869566 
L 367.3728 142.876872 
L 367.5402 146.438139 
L 367.7076 157.40991 
L 367.875 155.924784 
L 368.0424 145.390469 
L 368.3772 153.669056 
L 368.5446 136.602697 
L 368.712 161.99395 
L 368.8794 142.965315 
L 369.0468 157.239706 
L 369.2142 141.306258 
L 369.549 163.14089 
L 369.7164 147.000425 
L 369.8838 148.414759 
L 370.0512 151.75815 
L 370.2186 135.705971 
L 370.386 157.584796 
L 370.5534 161.913225 
L 370.7208 142.502147 
L 370.8882 147.141116 
L 371.0556 155.255314 
L 371.223 150.70828 
L 371.3904 155.343145 
L 371.5578 156.75486 
L 371.7252 148.580217 
L 371.8926 150.106956 
L 372.06 135.746973 
L 372.2274 158.187286 
L 372.3948 138.934697 
L 372.5622 152.920995 
L 372.7296 145.023649 
L 372.897 150.350116 
L 373.0644 147.134583 
L 373.2318 147.062573 
L 373.3992 174.473612 
L 373.5666 168.547934 
L 373.734 146.78328 
L 373.9014 153.701916 
L 374.0688 144.790433 
L 374.2362 166.939668 
L 374.4036 154.324295 
L 374.571 157.877756 
L 374.7384 149.535288 
L 374.9058 146.747456 
L 375.0732 140.380136 
L 375.5754 155.075892 
L 375.7428 155.31318 
L 375.9102 154.307448 
L 376.245 138.642933 
L 376.4124 147.445842 
L 376.5798 139.001367 
L 376.7472 140.202401 
L 376.9146 163.425445 
L 377.082 146.708645 
L 377.4168 164.796173 
L 377.5842 146.218802 
L 377.7516 146.024675 
L 377.919 158.225138 
L 378.0864 144.789989 
L 378.4212 158.818882 
L 378.756 137.650722 
L 379.0908 167.883175 
L 379.2582 141.373652 
L 379.593 143.858857 
L 379.7604 150.897341 
L 379.9278 150.268584 
L 380.0952 154.600593 
L 380.43 130.533572 
L 380.7648 146.614944 
L 380.9322 153.026692 
L 381.0996 151.827097 
L 381.267 155.636265 
L 381.4344 146.763833 
L 381.6018 144.6068 
L 381.7692 160.89201 
L 381.9366 150.403707 
L 382.104 150.517653 
L 382.2714 153.529989 
L 382.4388 147.930234 
L 382.6062 160.545537 
L 382.7736 146.17315 
L 382.941 141.509126 
L 383.1084 141.099046 
L 383.2758 148.820573 
L 383.4432 142.966061 
L 383.6106 154.573649 
L 383.778 143.51325 
L 383.9454 146.214224 
L 384.1128 156.332156 
L 384.2802 183.865519 
L 384.4476 155.905053 
L 384.615 149.77822 
L 384.7824 156.90448 
L 384.9498 148.108141 
L 385.1172 149.266635 
L 385.2846 138.220116 
L 385.6194 152.091107 
L 385.7868 149.481863 
L 385.9542 144.829525 
L 386.1216 152.135661 
L 386.289 151.012473 
L 386.4564 151.170562 
L 386.7912 144.639314 
L 386.9586 152.578938 
L 387.2934 150.979737 
L 387.4608 147.394531 
L 387.6282 157.431016 
L 387.7956 146.621891 
L 387.963 157.552587 
L 388.1304 157.748505 
L 388.2978 145.087682 
L 388.4652 151.00886 
L 388.6326 150.532098 
L 388.8 150.978151 
L 388.9674 141.547977 
L 388.9674 141.547977 
" clip-path="url(#p32c8997d8a)" style="fill: none; stroke: #008000; stroke-linecap: square"/>
   </g>
   <g id="patch_3">
    <path d="M 54 252 
L 54 34.56 
" style="fill: none; stroke: #000000; stroke-width: 0.8; stroke-linejoin: miter; stroke-linecap: square"/>
   </g>
   <g id="patch_4">
    <path d="M 388.8 252 
L 388.8 34.56 
" style="fill: none; stroke: #000000; stroke-width: 0.8; stroke-linejoin: miter; stroke-linecap: square"/>
   </g>
   <g id="patch_5">
    <path d="M 54 252 
L 388.8 252 
" style="fill: none; stroke: #000000; stroke-width: 0.8; stroke-linejoin: miter; stroke-linecap: square"/>
   </g>
   <g id="patch_6">
    <path d="M 54 34.56 
L 388.8 34.56 
" style="fill: none; stroke: #000000; stroke-width: 0.8; stroke-linejoin: miter; stroke-linecap: square"/>
   </g>
   <g id="text_20">
    <!-- Spectre en dB du courant absorbé par la charge avec les normes -->
    <g transform="translate(25.949063 28.56) scale(0.12 -0.12)">
     <defs>
      <path id="DejaVuSans-53" d="M 3425 4513 
L 3425 3897 
Q 3066 4069 2747 4153 
Q 2428 4238 2131 4238 
Q 1616 4238 1336 4038 
Q 1056 3838 1056 3469 
Q 1056 3159 1242 3001 
Q 1428 2844 1947 2747 
L 2328 2669 
Q 3034 2534 3370 2195 
Q 3706 1856 3706 1288 
Q 3706 609 3251 259 
Q 2797 -91 1919 -91 
Q 1588 -91 1214 -16 
Q 841 59 441 206 
L 441 856 
Q 825 641 1194 531 
Q 1563 422 1919 422 
Q 2459 422 2753 634 
Q 3047 847 3047 1241 
Q 3047 1584 2836 1778 
Q 2625 1972 2144 2069 
L 1759 2144 
Q 1053 2284 737 2584 
Q 422 2884 422 3419 
Q 422 4038 858 4394 
Q 1294 4750 2059 4750 
Q 2388 4750 2728 4690 
Q 3069 4631 3425 4513 
z
" transform="scale(0.015625)"/>
      <path id="DejaVuSans-70" d="M 1159 525 
L 1159 -1331 
L 581 -1331 
L 581 3500 
L 1159 3500 
L 1159 2969 
Q 1341 3281 1617 3432 
Q 1894 3584 2278 3584 
Q 2916 3584 3314 3078 
Q 3713 2572 3713 1747 
Q 3713 922 3314 415 
Q 2916 -91 2278 -91 
Q 1894 -91 1617 61 
Q 1341 213 1159 525 
z
M 3116 1747 
Q 3116 2381 2855 2742 
Q 2594 3103 2138 3103 
Q 1681 3103 1420 2742 
Q 1159 2381 1159 1747 
Q 1159 1113 1420 752 
Q 1681 391 2138 391 
Q 2594 391 2855 752 
Q 3116 1113 3116 1747 
z
" transform="scale(0.015625)"/>
      <path id="DejaVuSans-74" d="M 1172 4494 
L 1172 3500 
L 2356 3500 
L 2356 3053 
L 1172 3053 
L 1172 1153 
Q 1172 725 1289 603 
Q 1406 481 1766 481 
L 2356 481 
L 2356 0 
L 1766 0 
Q 1100 0 847 248 
Q 594 497 594 1153 
L 594 3053 
L 172 3053 
L 172 3500 
L 594 3500 
L 594 4494 
L 1172 4494 
z
" transform="scale(0.015625)"/>
      <path id="DejaVuSans-61" d="M 2194 1759 
Q 1497 1759 1228 1600 
Q 959 1441 959 1056 
Q 959 750 1161 570 
Q 1363 391 1709 391 
Q 2188 391 2477 730 
Q 2766 1069 2766 1631 
L 2766 1759 
L 2194 1759 
z
M 3341 1997 
L 3341 0 
L 2766 0 
L 2766 531 
Q 2569 213 2275 61 
Q 1981 -91 1556 -91 
Q 1019 -91 701 211 
Q 384 513 384 1019 
Q 384 1609 779 1909 
Q 1175 2209 1959 2209 
L 2766 2209 
L 2766 2266 
Q 2766 2663 2505 2880 
Q 2244 3097 1772 3097 
Q 1472 3097 1187 3025 
Q 903 2953 641 2809 
L 641 3341 
Q 956 3463 1253 3523 
Q 1550 3584 1831 3584 
Q 2591 3584 2966 3190 
Q 3341 2797 3341 1997 
z
" transform="scale(0.015625)"/>
      <path id="DejaVuSans-62" d="M 3116 1747 
Q 3116 2381 2855 2742 
Q 2594 3103 2138 3103 
Q 1681 3103 1420 2742 
Q 1159 2381 1159 1747 
Q 1159 1113 1420 752 
Q 1681 391 2138 391 
Q 2594 391 2855 752 
Q 3116 1113 3116 1747 
z
M 1159 2969 
Q 1341 3281 1617 3432 
Q 1894 3584 2278 3584 
Q 2916 3584 3314 3078 
Q 3713 2572 3713 1747 
Q 3713 922 3314 415 
Q 2916 -91 2278 -91 
Q 1894 -91 1617 61 
Q 1341 213 1159 525 
L 1159 0 
L 581 0 
L 581 4863 
L 1159 4863 
L 1159 2969 
z
" transform="scale(0.015625)"/>
      <path id="DejaVuSans-73" d="M 2834 3397 
L 2834 2853 
Q 2591 2978 2328 3040 
Q 2066 3103 1784 3103 
Q 1356 3103 1142 2972 
Q 928 2841 928 2578 
Q 928 2378 1081 2264 
Q 1234 2150 1697 2047 
L 1894 2003 
Q 2506 1872 2764 1633 
Q 3022 1394 3022 966 
Q 3022 478 2636 193 
Q 2250 -91 1575 -91 
Q 1294 -91 989 -36 
Q 684 19 347 128 
L 347 722 
Q 666 556 975 473 
Q 1284 391 1588 391 
Q 1994 391 2212 530 
Q 2431 669 2431 922 
Q 2431 1156 2273 1281 
Q 2116 1406 1581 1522 
L 1381 1569 
Q 847 1681 609 1914 
Q 372 2147 372 2553 
Q 372 3047 722 3315 
Q 1072 3584 1716 3584 
Q 2034 3584 2315 3537 
Q 2597 3491 2834 3397 
z
" transform="scale(0.015625)"/>
      <path id="DejaVuSans-68" d="M 3513 2113 
L 3513 0 
L 2938 0 
L 2938 2094 
Q 2938 2591 2744 2837 
Q 2550 3084 2163 3084 
Q 1697 3084 1428 2787 
Q 1159 2491 1159 1978 
L 1159 0 
L 581 0 
L 581 4863 
L 1159 4863 
L 1159 2956 
Q 1366 3272 1645 3428 
Q 1925 3584 2291 3584 
Q 2894 3584 3203 3211 
Q 3513 2838 3513 2113 
z
" transform="scale(0.015625)"/>
      <path id="DejaVuSans-67" d="M 2906 1791 
Q 2906 2416 2648 2759 
Q 2391 3103 1925 3103 
Q 1463 3103 1205 2759 
Q 947 2416 947 1791 
Q 947 1169 1205 825 
Q 1463 481 1925 481 
Q 2391 481 2648 825 
Q 2906 1169 2906 1791 
z
M 3481 434 
Q 3481 -459 3084 -895 
Q 2688 -1331 1869 -1331 
Q 1566 -1331 1297 -1286 
Q 1028 -1241 775 -1147 
L 775 -588 
Q 1028 -725 1275 -790 
Q 1522 -856 1778 -856 
Q 2344 -856 2625 -561 
Q 2906 -266 2906 331 
L 2906 616 
Q 2728 306 2450 153 
Q 2172 0 1784 0 
Q 1141 0 747 490 
Q 353 981 353 1791 
Q 353 2603 747 3093 
Q 1141 3584 1784 3584 
Q 2172 3584 2450 3431 
Q 2728 3278 2906 2969 
L 2906 3500 
L 3481 3500 
L 3481 434 
z
" transform="scale(0.015625)"/>
      <path id="DejaVuSans-76" d="M 191 3500 
L 800 3500 
L 1894 563 
L 2988 3500 
L 3597 3500 
L 2284 0 
L 1503 0 
L 191 3500 
z
" transform="scale(0.015625)"/>
      <path id="DejaVuSans-6d" d="M 3328 2828 
Q 3544 3216 3844 3400 
Q 4144 3584 4550 3584 
Q 5097 3584 5394 3201 
Q 5691 2819 5691 2113 
L 5691 0 
L 5113 0 
L 5113 2094 
Q 5113 2597 4934 2840 
Q 4756 3084 4391 3084 
Q 3944 3084 3684 2787 
Q 3425 2491 3425 1978 
L 3425 0 
L 2847 0 
L 2847 2094 
Q 2847 2600 2669 2842 
Q 2491 3084 2119 3084 
Q 1678 3084 1418 2786 
Q 1159 2488 1159 1978 
L 1159 0 
L 581 0 
L 581 3500 
L 1159 3500 
L 1159 2956 
Q 1356 3278 1631 3431 
Q 1906 3584 2284 3584 
Q 2666 3584 2933 3390 
Q 3200 3197 3328 2828 
z
" transform="scale(0.015625)"/>
     </defs>
     <use xlink:href="#DejaVuSans-53"/>
     <use xlink:href="#DejaVuSans-70" x="63.476562"/>
     <use xlink:href="#DejaVuSans-65" x="126.953125"/>
     <use xlink:href="#DejaVuSans-63" x="188.476562"/>
     <use xlink:href="#DejaVuSans-74" x="243.457031"/>
     <use xlink:href="#DejaVuSans-72" x="282.666016"/>
     <use xlink:href="#DejaVuSans-65" x="321.529297"/>
     <use xlink:href="#DejaVuSans-20" x="383.052734"/>
     <use xlink:href="#DejaVuSans-65" x="414.839844"/>
     <use xlink:href="#DejaVuSans-6e" x="476.363281"/>
     <use xlink:href="#DejaVuSans-20" x="539.742188"/>
     <use xlink:href="#DejaVuSans-64" x="571.529297"/>
     <use xlink:href="#DejaVuSans-42" x="635.005859"/>
     <use xlink:href="#DejaVuSans-20" x="703.609375"/>
     <use xlink:href="#DejaVuSans-64" x="735.396484"/>
     <use xlink:href="#DejaVuSans-75" x="798.873047"/>
     <use xlink:href="#DejaVuSans-20" x="862.251953"/>
     <use xlink:href="#DejaVuSans-63" x="894.039062"/>
     <use xlink:href="#DejaVuSans-6f" x="949.019531"/>
     <use xlink:href="#DejaVuSans-75" x="1010.201172"/>
     <use xlink:href="#DejaVuSans-72" x="1073.580078"/>
     <use xlink:href="#DejaVuSans-61" x="1114.693359"/>
     <use xlink:href="#DejaVuSans-6e" x="1175.972656"/>
     <use xlink:href="#DejaVuSans-74" x="1239.351562"/>
     <use xlink:href="#DejaVuSans-20" x="1278.560547"/>
     <use xlink:href="#DejaVuSans-61" x="1310.347656"/>
     <use xlink:href="#DejaVuSans-62" x="1371.626953"/>
     <use xlink:href="#DejaVuSans-73" x="1435.103516"/>
     <use xlink:href="#DejaVuSans-6f" x="1487.203125"/>
     <use xlink:href="#DejaVuSans-72" x="1548.384766"/>
     <use xlink:href="#DejaVuSans-62" x="1589.498047"/>
     <use xlink:href="#DejaVuSans-e9" x="1652.974609"/>
     <use xlink:href="#DejaVuSans-20" x="1714.498047"/>
     <use xlink:href="#DejaVuSans-70" x="1746.285156"/>
     <use xlink:href="#DejaVuSans-61" x="1809.761719"/>
     <use xlink:href="#DejaVuSans-72" x="1871.041016"/>
     <use xlink:href="#DejaVuSans-20" x="1912.154297"/>
     <use xlink:href="#DejaVuSans-6c" x="1943.941406"/>
     <use xlink:href="#DejaVuSans-61" x="1971.724609"/>
     <use xlink:href="#DejaVuSans-20" x="2033.003906"/>
     <use xlink:href="#DejaVuSans-63" x="2064.791016"/>
     <use xlink:href="#DejaVuSans-68" x="2119.771484"/>
     <use xlink:href="#DejaVuSans-61" x="2183.150391"/>
     <use xlink:href="#DejaVuSans-72" x="2244.429688"/>
     <use xlink:href="#DejaVuSans-67" x="2283.792969"/>
     <use xlink:href="#DejaVuSans-65" x="2347.269531"/>
     <use xlink:href="#DejaVuSans-20" x="2408.792969"/>
     <use xlink:href="#DejaVuSans-61" x="2440.580078"/>
     <use xlink:href="#DejaVuSans-76" x="2501.859375"/>
     <use xlink:href="#DejaVuSans-65" x="2561.039062"/>
     <use xlink:href="#DejaVuSans-63" x="2622.5625"/>
     <use xlink:href="#DejaVuSans-20" x="2677.542969"/>
     <use xlink:href="#DejaVuSans-6c" x="2709.330078"/>
     <use xlink:href="#DejaVuSans-65" x="2737.113281"/>
     <use xlink:href="#DejaVuSans-73" x="2798.636719"/>
     <use xlink:href="#DejaVuSans-20" x="2850.736328"/>
     <use xlink:href="#DejaVuSans-6e" x="2882.523438"/>
     <use xlink:href="#DejaVuSans-6f" x="2945.902344"/>
     <use xlink:href="#DejaVuSans-72" x="3007.083984"/>
     <use xlink:href="#DejaVuSans-6d" x="3046.447266"/>
     <use xlink:href="#DejaVuSans-65" x="3143.859375"/>
     <use xlink:href="#DejaVuSans-73" x="3205.382812"/>
    </g>
   </g>
   <g id="legend_1">
    <g id="patch_7">
     <path d="M 241.745313 87.394375 
L 381.8 87.394375 
Q 383.8 87.394375 383.8 85.394375 
L 383.8 41.56 
Q 383.8 39.56 381.8 39.56 
L 241.745313 39.56 
Q 239.745313 39.56 239.745313 41.56 
L 239.745313 85.394375 
Q 239.745313 87.394375 241.745313 87.394375 
z
" style="fill: #ffffff; opacity: 0.8; stroke: #cccccc; stroke-linejoin: miter"/>
    </g>
    <g id="line2d_36">
     <path d="M 243.745313 47.658437 
L 253.745313 47.658437 
L 263.745313 47.658437 
" style="fill: none; stroke: #008000; stroke-linecap: square"/>
    </g>
    <g id="text_21">
     <!-- $I_{a}$ -->
     <g transform="translate(271.745313 51.158437) scale(0.1 -0.1)">
      <defs>
       <path id="DejaVuSans-Oblique-49" d="M 1081 4666 
L 1716 4666 
L 806 0 
L 172 0 
L 1081 4666 
z
" transform="scale(0.015625)"/>
       <path id="DejaVuSans-Oblique-61" d="M 3438 1997 
L 3047 0 
L 2472 0 
L 2578 531 
Q 2325 219 2001 64 
Q 1678 -91 1281 -91 
Q 834 -91 548 182 
Q 263 456 263 884 
Q 263 1497 752 1853 
Q 1241 2209 2100 2209 
L 2900 2209 
L 2931 2363 
Q 2938 2388 2941 2417 
Q 2944 2447 2944 2509 
Q 2944 2788 2717 2942 
Q 2491 3097 2081 3097 
Q 1800 3097 1504 3025 
Q 1209 2953 897 2809 
L 997 3341 
Q 1322 3463 1633 3523 
Q 1944 3584 2234 3584 
Q 2853 3584 3176 3315 
Q 3500 3047 3500 2534 
Q 3500 2431 3484 2292 
Q 3469 2153 3438 1997 
z
M 2816 1759 
L 2241 1759 
Q 1534 1759 1195 1570 
Q 856 1381 856 984 
Q 856 709 1029 553 
Q 1203 397 1509 397 
Q 1978 397 2328 733 
Q 2678 1069 2791 1631 
L 2816 1759 
z
" transform="scale(0.015625)"/>
      </defs>
      <use xlink:href="#DejaVuSans-Oblique-49" transform="translate(0 0.09375)"/>
      <use xlink:href="#DejaVuSans-Oblique-61" transform="translate(29.492188 -16.3125) scale(0.7)"/>
     </g>
    </g>
    <g id="PathCollection_3">
     <g>
      <use xlink:href="#m0550be53ed" x="253.745313" y="63.611562" style="fill: #0000ff; stroke: #0000ff; stroke-width: 1.5"/>
     </g>
    </g>
    <g id="text_22">
     <!-- Norme respectée -->
     <g transform="translate(271.745313 66.236562) scale(0.1 -0.1)">
      <defs>
       <path id="DejaVuSans-4e" d="M 628 4666 
L 1478 4666 
L 3547 763 
L 3547 4666 
L 4159 4666 
L 4159 0 
L 3309 0 
L 1241 3903 
L 1241 0 
L 628 0 
L 628 4666 
z
" transform="scale(0.015625)"/>
      </defs>
      <use xlink:href="#DejaVuSans-4e"/>
      <use xlink:href="#DejaVuSans-6f" x="74.804688"/>
      <use xlink:href="#DejaVuSans-72" x="135.986328"/>
      <use xlink:href="#DejaVuSans-6d" x="175.349609"/>
      <use xlink:href="#DejaVuSans-65" x="272.761719"/>
      <use xlink:href="#DejaVuSans-20" x="334.285156"/>
      <use xlink:href="#DejaVuSans-72" x="366.072266"/>
      <use xlink:href="#DejaVuSans-65" x="404.935547"/>
      <use xlink:href="#DejaVuSans-73" x="466.458984"/>
      <use xlink:href="#DejaVuSans-70" x="518.558594"/>
      <use xlink:href="#DejaVuSans-65" x="582.035156"/>
      <use xlink:href="#DejaVuSans-63" x="643.558594"/>
      <use xlink:href="#DejaVuSans-74" x="698.539062"/>
      <use xlink:href="#DejaVuSans-e9" x="737.748047"/>
      <use xlink:href="#DejaVuSans-65" x="799.271484"/>
     </g>
    </g>
    <g id="PathCollection_4">
     <g>
      <use xlink:href="#m778e6ff45b" x="253.745313" y="78.689687" style="fill: #ff0000; stroke: #ff0000; stroke-width: 1.5"/>
     </g>
    </g>
    <g id="text_23">
     <!-- Norme non respectée -->
     <g transform="translate(271.745313 81.314687) scale(0.1 -0.1)">
      <use xlink:href="#DejaVuSans-4e"/>
      <use xlink:href="#DejaVuSans-6f" x="74.804688"/>
      <use xlink:href="#DejaVuSans-72" x="135.986328"/>
      <use xlink:href="#DejaVuSans-6d" x="175.349609"/>
      <use xlink:href="#DejaVuSans-65" x="272.761719"/>
      <use xlink:href="#DejaVuSans-20" x="334.285156"/>
      <use xlink:href="#DejaVuSans-6e" x="366.072266"/>
      <use xlink:href="#DejaVuSans-6f" x="429.451172"/>
      <use xlink:href="#DejaVuSans-6e" x="490.632812"/>
      <use xlink:href="#DejaVuSans-20" x="554.011719"/>
      <use xlink:href="#DejaVuSans-72" x="585.798828"/>
      <use xlink:href="#DejaVuSans-65" x="624.662109"/>
      <use xlink:href="#DejaVuSans-73" x="686.185547"/>
      <use xlink:href="#DejaVuSans-70" x="738.285156"/>
      <use xlink:href="#DejaVuSans-65" x="801.761719"/>
      <use xlink:href="#DejaVuSans-63" x="863.285156"/>
      <use xlink:href="#DejaVuSans-74" x="918.265625"/>
      <use xlink:href="#DejaVuSans-e9" x="957.474609"/>
      <use xlink:href="#DejaVuSans-65" x="1018.998047"/>
     </g>
    </g>
   </g>
  </g>
 </g>
 <defs>
  <clipPath id="p32c8997d8a">
   <rect x="54" y="34.56" width="334.8" height="217.44"/>
  </clipPath>
 </defs>
</svg>
