<?xml version="1.0" encoding="utf-8" standalone="no"?>
<!DOCTYPE svg PUBLIC "-//W3C//DTD SVG 1.1//EN"
  "http://www.w3.org/Graphics/SVG/1.1/DTD/svg11.dtd">
<svg xmlns:xlink="http://www.w3.org/1999/xlink" width="432pt" height="288pt" viewBox="0 0 432 288" xmlns="http://www.w3.org/2000/svg" version="1.1">
 <metadata>
  <rdf:RDF xmlns:dc="http://purl.org/dc/elements/1.1/" xmlns:cc="http://creativecommons.org/ns#" xmlns:rdf="http://www.w3.org/1999/02/22-rdf-syntax-ns#">
   <cc:Work>
    <dc:type rdf:resource="http://purl.org/dc/dcmitype/StillImage"/>
    <dc:date>2024-05-29T16:32:13.831205</dc:date>
    <dc:format>image/svg+xml</dc:format>
    <dc:creator>
     <cc:Agent>
      <dc:title>Matplotlib v3.8.3, https://matplotlib.org/</dc:title>
     </cc:Agent>
    </dc:creator>
   </cc:Work>
  </rdf:RDF>
 </metadata>
 <defs>
  <style type="text/css">*{stroke-linejoin: round; stroke-linecap: butt}</style>
 </defs>
 <g id="figure_1">
  <g id="patch_1">
   <path d="M 0 288 
L 432 288 
L 432 0 
L 0 0 
z
" style="fill: #ffffff"/>
  </g>
  <g id="axes_1">
   <g id="patch_2">
    <path d="M 54 252 
L 388.8 252 
L 388.8 34.56 
L 54 34.56 
z
" style="fill: #ffffff"/>
   </g>
   <g id="PathCollection_1">
    <defs>
     <path id="m41501cb56b" d="M -3 3 
L 3 -3 
M -3 -3 
L 3 3 
" style="stroke: #0000ff; stroke-width: 1.5"/>
    </defs>
    <g clip-path="url(#pde134f1f7c)">
     <use xlink:href="#m41501cb56b" x="70.74" y="234.959745" style="fill: #0000ff; stroke: #0000ff; stroke-width: 1.5"/>
     <use xlink:href="#m41501cb56b" x="87.48" y="239.266969" style="fill: #0000ff; stroke: #0000ff; stroke-width: 1.5"/>
     <use xlink:href="#m41501cb56b" x="95.85" y="234.562155" style="fill: #0000ff; stroke: #0000ff; stroke-width: 1.5"/>
     <use xlink:href="#m41501cb56b" x="104.22" y="240.128414" style="fill: #0000ff; stroke: #0000ff; stroke-width: 1.5"/>
     <use xlink:href="#m41501cb56b" x="112.59" y="237.01396" style="fill: #0000ff; stroke: #0000ff; stroke-width: 1.5"/>
     <use xlink:href="#m41501cb56b" x="120.96" y="240.592269" style="fill: #0000ff; stroke: #0000ff; stroke-width: 1.5"/>
     <use xlink:href="#m41501cb56b" x="129.33" y="239.465764" style="fill: #0000ff; stroke: #0000ff; stroke-width: 1.5"/>
     <use xlink:href="#m41501cb56b" x="137.7" y="240.897088" style="fill: #0000ff; stroke: #0000ff; stroke-width: 1.5"/>
     <use xlink:href="#m41501cb56b" x="146.07" y="239.929619" style="fill: #0000ff; stroke: #0000ff; stroke-width: 1.5"/>
     <use xlink:href="#m41501cb56b" x="154.44" y="241.100301" style="fill: #0000ff; stroke: #0000ff; stroke-width: 1.5"/>
     <use xlink:href="#m41501cb56b" x="162.81" y="240.724799" style="fill: #0000ff; stroke: #0000ff; stroke-width: 1.5"/>
     <use xlink:href="#m41501cb56b" x="171.18" y="241.245452" style="fill: #0000ff; stroke: #0000ff; stroke-width: 1.5"/>
     <use xlink:href="#m41501cb56b" x="187.92" y="241.354316" style="fill: #0000ff; stroke: #0000ff; stroke-width: 1.5"/>
     <use xlink:href="#m41501cb56b" x="196.29" y="241.239327" style="fill: #0000ff; stroke: #0000ff; stroke-width: 1.5"/>
     <use xlink:href="#m41501cb56b" x="204.66" y="241.438988" style="fill: #0000ff; stroke: #0000ff; stroke-width: 1.5"/>
     <use xlink:href="#m41501cb56b" x="213.03" y="241.331647" style="fill: #0000ff; stroke: #0000ff; stroke-width: 1.5"/>
     <use xlink:href="#m41501cb56b" x="221.4" y="241.506726" style="fill: #0000ff; stroke: #0000ff; stroke-width: 1.5"/>
     <use xlink:href="#m41501cb56b" x="229.77" y="241.406382" style="fill: #0000ff; stroke: #0000ff; stroke-width: 1.5"/>
     <use xlink:href="#m41501cb56b" x="238.14" y="241.562147" style="fill: #0000ff; stroke: #0000ff; stroke-width: 1.5"/>
     <use xlink:href="#m41501cb56b" x="246.51" y="241.468119" style="fill: #0000ff; stroke: #0000ff; stroke-width: 1.5"/>
     <use xlink:href="#m41501cb56b" x="254.88" y="241.608332" style="fill: #0000ff; stroke: #0000ff; stroke-width: 1.5"/>
     <use xlink:href="#m41501cb56b" x="263.25" y="241.519979" style="fill: #0000ff; stroke: #0000ff; stroke-width: 1.5"/>
     <use xlink:href="#m41501cb56b" x="271.62" y="241.647411" style="fill: #0000ff; stroke: #0000ff; stroke-width: 1.5"/>
     <use xlink:href="#m41501cb56b" x="288.36" y="241.680908" style="fill: #0000ff; stroke: #0000ff; stroke-width: 1.5"/>
     <use xlink:href="#m41501cb56b" x="296.73" y="241.602239" style="fill: #0000ff; stroke: #0000ff; stroke-width: 1.5"/>
     <use xlink:href="#m41501cb56b" x="305.1" y="241.709938" style="fill: #0000ff; stroke: #0000ff; stroke-width: 1.5"/>
     <use xlink:href="#m41501cb56b" x="313.47" y="241.635408" style="fill: #0000ff; stroke: #0000ff; stroke-width: 1.5"/>
     <use xlink:href="#m41501cb56b" x="321.84" y="241.73534" style="fill: #0000ff; stroke: #0000ff; stroke-width: 1.5"/>
     <use xlink:href="#m41501cb56b" x="330.21" y="241.664557" style="fill: #0000ff; stroke: #0000ff; stroke-width: 1.5"/>
     <use xlink:href="#m41501cb56b" x="338.58" y="241.757753" style="fill: #0000ff; stroke: #0000ff; stroke-width: 1.5"/>
     <use xlink:href="#m41501cb56b" x="346.95" y="241.690374" style="fill: #0000ff; stroke: #0000ff; stroke-width: 1.5"/>
     <use xlink:href="#m41501cb56b" x="355.32" y="241.777676" style="fill: #0000ff; stroke: #0000ff; stroke-width: 1.5"/>
     <use xlink:href="#m41501cb56b" x="363.69" y="241.713401" style="fill: #0000ff; stroke: #0000ff; stroke-width: 1.5"/>
     <use xlink:href="#m41501cb56b" x="388.8" y="241.811545" style="fill: #0000ff; stroke: #0000ff; stroke-width: 1.5"/>
    </g>
   </g>
   <g id="PathCollection_2">
    <defs>
     <path id="ma0a809a620" d="M -3 3 
L 3 -3 
M -3 -3 
L 3 3 
" style="stroke: #ff0000; stroke-width: 1.5"/>
    </defs>
    <g clip-path="url(#pde134f1f7c)">
     <use xlink:href="#ma0a809a620" x="79.11" y="226.875417" style="fill: #ff0000; stroke: #ff0000; stroke-width: 1.5"/>
     <use xlink:href="#ma0a809a620" x="179.55" y="241.122389" style="fill: #ff0000; stroke: #ff0000; stroke-width: 1.5"/>
     <use xlink:href="#ma0a809a620" x="279.99" y="241.564155" style="fill: #ff0000; stroke: #ff0000; stroke-width: 1.5"/>
     <use xlink:href="#ma0a809a620" x="372.06" y="241.795502" style="fill: #ff0000; stroke: #ff0000; stroke-width: 1.5"/>
     <use xlink:href="#ma0a809a620" x="380.43" y="241.734066" style="fill: #ff0000; stroke: #ff0000; stroke-width: 1.5"/>
    </g>
   </g>
   <g id="matplotlib.axis_1">
    <g id="xtick_1">
     <g id="line2d_1">
      <path d="M 54 252 
L 54 34.56 
" clip-path="url(#pde134f1f7c)" style="fill: none; stroke: #b0b0b0; stroke-width: 0.8; stroke-linecap: square"/>
     </g>
     <g id="line2d_2">
      <defs>
       <path id="m4505bb12a8" d="M 0 0 
L 0 3.5 
" style="stroke: #000000; stroke-width: 0.8"/>
      </defs>
      <g>
       <use xlink:href="#m4505bb12a8" x="54" y="252" style="stroke: #000000; stroke-width: 0.8"/>
      </g>
     </g>
     <g id="text_1">
      <!-- 0 -->
      <g transform="translate(50.81875 266.598437) scale(0.1 -0.1)">
       <defs>
        <path id="DejaVuSans-30" d="M 2034 4250 
Q 1547 4250 1301 3770 
Q 1056 3291 1056 2328 
Q 1056 1369 1301 889 
Q 1547 409 2034 409 
Q 2525 409 2770 889 
Q 3016 1369 3016 2328 
Q 3016 3291 2770 3770 
Q 2525 4250 2034 4250 
z
M 2034 4750 
Q 2819 4750 3233 4129 
Q 3647 3509 3647 2328 
Q 3647 1150 3233 529 
Q 2819 -91 2034 -91 
Q 1250 -91 836 529 
Q 422 1150 422 2328 
Q 422 3509 836 4129 
Q 1250 4750 2034 4750 
z
" transform="scale(0.015625)"/>
       </defs>
       <use xlink:href="#DejaVuSans-30"/>
      </g>
     </g>
    </g>
    <g id="xtick_2">
     <g id="line2d_3">
      <path d="M 95.85 252 
L 95.85 34.56 
" clip-path="url(#pde134f1f7c)" style="fill: none; stroke: #b0b0b0; stroke-width: 0.8; stroke-linecap: square"/>
     </g>
     <g id="line2d_4">
      <g>
       <use xlink:href="#m4505bb12a8" x="95.85" y="252" style="stroke: #000000; stroke-width: 0.8"/>
      </g>
     </g>
     <g id="text_2">
      <!-- 250 -->
      <g transform="translate(86.30625 266.598437) scale(0.1 -0.1)">
       <defs>
        <path id="DejaVuSans-32" d="M 1228 531 
L 3431 531 
L 3431 0 
L 469 0 
L 469 531 
Q 828 903 1448 1529 
Q 2069 2156 2228 2338 
Q 2531 2678 2651 2914 
Q 2772 3150 2772 3378 
Q 2772 3750 2511 3984 
Q 2250 4219 1831 4219 
Q 1534 4219 1204 4116 
Q 875 4013 500 3803 
L 500 4441 
Q 881 4594 1212 4672 
Q 1544 4750 1819 4750 
Q 2544 4750 2975 4387 
Q 3406 4025 3406 3419 
Q 3406 3131 3298 2873 
Q 3191 2616 2906 2266 
Q 2828 2175 2409 1742 
Q 1991 1309 1228 531 
z
" transform="scale(0.015625)"/>
        <path id="DejaVuSans-35" d="M 691 4666 
L 3169 4666 
L 3169 4134 
L 1269 4134 
L 1269 2991 
Q 1406 3038 1543 3061 
Q 1681 3084 1819 3084 
Q 2600 3084 3056 2656 
Q 3513 2228 3513 1497 
Q 3513 744 3044 326 
Q 2575 -91 1722 -91 
Q 1428 -91 1123 -41 
Q 819 9 494 109 
L 494 744 
Q 775 591 1075 516 
Q 1375 441 1709 441 
Q 2250 441 2565 725 
Q 2881 1009 2881 1497 
Q 2881 1984 2565 2268 
Q 2250 2553 1709 2553 
Q 1456 2553 1204 2497 
Q 953 2441 691 2322 
L 691 4666 
z
" transform="scale(0.015625)"/>
       </defs>
       <use xlink:href="#DejaVuSans-32"/>
       <use xlink:href="#DejaVuSans-35" x="63.623047"/>
       <use xlink:href="#DejaVuSans-30" x="127.246094"/>
      </g>
     </g>
    </g>
    <g id="xtick_3">
     <g id="line2d_5">
      <path d="M 137.7 252 
L 137.7 34.56 
" clip-path="url(#pde134f1f7c)" style="fill: none; stroke: #b0b0b0; stroke-width: 0.8; stroke-linecap: square"/>
     </g>
     <g id="line2d_6">
      <g>
       <use xlink:href="#m4505bb12a8" x="137.7" y="252" style="stroke: #000000; stroke-width: 0.8"/>
      </g>
     </g>
     <g id="text_3">
      <!-- 500 -->
      <g transform="translate(128.15625 266.598437) scale(0.1 -0.1)">
       <use xlink:href="#DejaVuSans-35"/>
       <use xlink:href="#DejaVuSans-30" x="63.623047"/>
       <use xlink:href="#DejaVuSans-30" x="127.246094"/>
      </g>
     </g>
    </g>
    <g id="xtick_4">
     <g id="line2d_7">
      <path d="M 179.55 252 
L 179.55 34.56 
" clip-path="url(#pde134f1f7c)" style="fill: none; stroke: #b0b0b0; stroke-width: 0.8; stroke-linecap: square"/>
     </g>
     <g id="line2d_8">
      <g>
       <use xlink:href="#m4505bb12a8" x="179.55" y="252" style="stroke: #000000; stroke-width: 0.8"/>
      </g>
     </g>
     <g id="text_4">
      <!-- 750 -->
      <g transform="translate(170.00625 266.598437) scale(0.1 -0.1)">
       <defs>
        <path id="DejaVuSans-37" d="M 525 4666 
L 3525 4666 
L 3525 4397 
L 1831 0 
L 1172 0 
L 2766 4134 
L 525 4134 
L 525 4666 
z
" transform="scale(0.015625)"/>
       </defs>
       <use xlink:href="#DejaVuSans-37"/>
       <use xlink:href="#DejaVuSans-35" x="63.623047"/>
       <use xlink:href="#DejaVuSans-30" x="127.246094"/>
      </g>
     </g>
    </g>
    <g id="xtick_5">
     <g id="line2d_9">
      <path d="M 221.4 252 
L 221.4 34.56 
" clip-path="url(#pde134f1f7c)" style="fill: none; stroke: #b0b0b0; stroke-width: 0.8; stroke-linecap: square"/>
     </g>
     <g id="line2d_10">
      <g>
       <use xlink:href="#m4505bb12a8" x="221.4" y="252" style="stroke: #000000; stroke-width: 0.8"/>
      </g>
     </g>
     <g id="text_5">
      <!-- 1000 -->
      <g transform="translate(208.675 266.598437) scale(0.1 -0.1)">
       <defs>
        <path id="DejaVuSans-31" d="M 794 531 
L 1825 531 
L 1825 4091 
L 703 3866 
L 703 4441 
L 1819 4666 
L 2450 4666 
L 2450 531 
L 3481 531 
L 3481 0 
L 794 0 
L 794 531 
z
" transform="scale(0.015625)"/>
       </defs>
       <use xlink:href="#DejaVuSans-31"/>
       <use xlink:href="#DejaVuSans-30" x="63.623047"/>
       <use xlink:href="#DejaVuSans-30" x="127.246094"/>
       <use xlink:href="#DejaVuSans-30" x="190.869141"/>
      </g>
     </g>
    </g>
    <g id="xtick_6">
     <g id="line2d_11">
      <path d="M 263.25 252 
L 263.25 34.56 
" clip-path="url(#pde134f1f7c)" style="fill: none; stroke: #b0b0b0; stroke-width: 0.8; stroke-linecap: square"/>
     </g>
     <g id="line2d_12">
      <g>
       <use xlink:href="#m4505bb12a8" x="263.25" y="252" style="stroke: #000000; stroke-width: 0.8"/>
      </g>
     </g>
     <g id="text_6">
      <!-- 1250 -->
      <g transform="translate(250.525 266.598437) scale(0.1 -0.1)">
       <use xlink:href="#DejaVuSans-31"/>
       <use xlink:href="#DejaVuSans-32" x="63.623047"/>
       <use xlink:href="#DejaVuSans-35" x="127.246094"/>
       <use xlink:href="#DejaVuSans-30" x="190.869141"/>
      </g>
     </g>
    </g>
    <g id="xtick_7">
     <g id="line2d_13">
      <path d="M 305.1 252 
L 305.1 34.56 
" clip-path="url(#pde134f1f7c)" style="fill: none; stroke: #b0b0b0; stroke-width: 0.8; stroke-linecap: square"/>
     </g>
     <g id="line2d_14">
      <g>
       <use xlink:href="#m4505bb12a8" x="305.1" y="252" style="stroke: #000000; stroke-width: 0.8"/>
      </g>
     </g>
     <g id="text_7">
      <!-- 1500 -->
      <g transform="translate(292.375 266.598437) scale(0.1 -0.1)">
       <use xlink:href="#DejaVuSans-31"/>
       <use xlink:href="#DejaVuSans-35" x="63.623047"/>
       <use xlink:href="#DejaVuSans-30" x="127.246094"/>
       <use xlink:href="#DejaVuSans-30" x="190.869141"/>
      </g>
     </g>
    </g>
    <g id="xtick_8">
     <g id="line2d_15">
      <path d="M 346.95 252 
L 346.95 34.56 
" clip-path="url(#pde134f1f7c)" style="fill: none; stroke: #b0b0b0; stroke-width: 0.8; stroke-linecap: square"/>
     </g>
     <g id="line2d_16">
      <g>
       <use xlink:href="#m4505bb12a8" x="346.95" y="252" style="stroke: #000000; stroke-width: 0.8"/>
      </g>
     </g>
     <g id="text_8">
      <!-- 1750 -->
      <g transform="translate(334.225 266.598437) scale(0.1 -0.1)">
       <use xlink:href="#DejaVuSans-31"/>
       <use xlink:href="#DejaVuSans-37" x="63.623047"/>
       <use xlink:href="#DejaVuSans-35" x="127.246094"/>
       <use xlink:href="#DejaVuSans-30" x="190.869141"/>
      </g>
     </g>
    </g>
    <g id="xtick_9">
     <g id="line2d_17">
      <path d="M 388.8 252 
L 388.8 34.56 
" clip-path="url(#pde134f1f7c)" style="fill: none; stroke: #b0b0b0; stroke-width: 0.8; stroke-linecap: square"/>
     </g>
     <g id="line2d_18">
      <g>
       <use xlink:href="#m4505bb12a8" x="388.8" y="252" style="stroke: #000000; stroke-width: 0.8"/>
      </g>
     </g>
     <g id="text_9">
      <!-- 2000 -->
      <g transform="translate(376.075 266.598437) scale(0.1 -0.1)">
       <use xlink:href="#DejaVuSans-32"/>
       <use xlink:href="#DejaVuSans-30" x="63.623047"/>
       <use xlink:href="#DejaVuSans-30" x="127.246094"/>
       <use xlink:href="#DejaVuSans-30" x="190.869141"/>
      </g>
     </g>
    </g>
    <g id="text_10">
     <!-- Fréquence (Hz) -->
     <g transform="translate(183.578125 280.676562) scale(0.1 -0.1)">
      <defs>
       <path id="DejaVuSans-46" d="M 628 4666 
L 3309 4666 
L 3309 4134 
L 1259 4134 
L 1259 2759 
L 3109 2759 
L 3109 2228 
L 1259 2228 
L 1259 0 
L 628 0 
L 628 4666 
z
" transform="scale(0.015625)"/>
       <path id="DejaVuSans-72" d="M 2631 2963 
Q 2534 3019 2420 3045 
Q 2306 3072 2169 3072 
Q 1681 3072 1420 2755 
Q 1159 2438 1159 1844 
L 1159 0 
L 581 0 
L 581 3500 
L 1159 3500 
L 1159 2956 
Q 1341 3275 1631 3429 
Q 1922 3584 2338 3584 
Q 2397 3584 2469 3576 
Q 2541 3569 2628 3553 
L 2631 2963 
z
" transform="scale(0.015625)"/>
       <path id="DejaVuSans-e9" d="M 3597 1894 
L 3597 1613 
L 953 1613 
Q 991 1019 1311 708 
Q 1631 397 2203 397 
Q 2534 397 2845 478 
Q 3156 559 3463 722 
L 3463 178 
Q 3153 47 2828 -22 
Q 2503 -91 2169 -91 
Q 1331 -91 842 396 
Q 353 884 353 1716 
Q 353 2575 817 3079 
Q 1281 3584 2069 3584 
Q 2775 3584 3186 3129 
Q 3597 2675 3597 1894 
z
M 3022 2063 
Q 3016 2534 2758 2815 
Q 2500 3097 2075 3097 
Q 1594 3097 1305 2825 
Q 1016 2553 972 2059 
L 3022 2063 
z
M 2469 5119 
L 3091 5119 
L 2072 3944 
L 1594 3944 
L 2469 5119 
z
" transform="scale(0.015625)"/>
       <path id="DejaVuSans-71" d="M 947 1747 
Q 947 1113 1208 752 
Q 1469 391 1925 391 
Q 2381 391 2643 752 
Q 2906 1113 2906 1747 
Q 2906 2381 2643 2742 
Q 2381 3103 1925 3103 
Q 1469 3103 1208 2742 
Q 947 2381 947 1747 
z
M 2906 525 
Q 2725 213 2448 61 
Q 2172 -91 1784 -91 
Q 1150 -91 751 415 
Q 353 922 353 1747 
Q 353 2572 751 3078 
Q 1150 3584 1784 3584 
Q 2172 3584 2448 3432 
Q 2725 3281 2906 2969 
L 2906 3500 
L 3481 3500 
L 3481 -1331 
L 2906 -1331 
L 2906 525 
z
" transform="scale(0.015625)"/>
       <path id="DejaVuSans-75" d="M 544 1381 
L 544 3500 
L 1119 3500 
L 1119 1403 
Q 1119 906 1312 657 
Q 1506 409 1894 409 
Q 2359 409 2629 706 
Q 2900 1003 2900 1516 
L 2900 3500 
L 3475 3500 
L 3475 0 
L 2900 0 
L 2900 538 
Q 2691 219 2414 64 
Q 2138 -91 1772 -91 
Q 1169 -91 856 284 
Q 544 659 544 1381 
z
M 1991 3584 
L 1991 3584 
z
" transform="scale(0.015625)"/>
       <path id="DejaVuSans-65" d="M 3597 1894 
L 3597 1613 
L 953 1613 
Q 991 1019 1311 708 
Q 1631 397 2203 397 
Q 2534 397 2845 478 
Q 3156 559 3463 722 
L 3463 178 
Q 3153 47 2828 -22 
Q 2503 -91 2169 -91 
Q 1331 -91 842 396 
Q 353 884 353 1716 
Q 353 2575 817 3079 
Q 1281 3584 2069 3584 
Q 2775 3584 3186 3129 
Q 3597 2675 3597 1894 
z
M 3022 2063 
Q 3016 2534 2758 2815 
Q 2500 3097 2075 3097 
Q 1594 3097 1305 2825 
Q 1016 2553 972 2059 
L 3022 2063 
z
" transform="scale(0.015625)"/>
       <path id="DejaVuSans-6e" d="M 3513 2113 
L 3513 0 
L 2938 0 
L 2938 2094 
Q 2938 2591 2744 2837 
Q 2550 3084 2163 3084 
Q 1697 3084 1428 2787 
Q 1159 2491 1159 1978 
L 1159 0 
L 581 0 
L 581 3500 
L 1159 3500 
L 1159 2956 
Q 1366 3272 1645 3428 
Q 1925 3584 2291 3584 
Q 2894 3584 3203 3211 
Q 3513 2838 3513 2113 
z
" transform="scale(0.015625)"/>
       <path id="DejaVuSans-63" d="M 3122 3366 
L 3122 2828 
Q 2878 2963 2633 3030 
Q 2388 3097 2138 3097 
Q 1578 3097 1268 2742 
Q 959 2388 959 1747 
Q 959 1106 1268 751 
Q 1578 397 2138 397 
Q 2388 397 2633 464 
Q 2878 531 3122 666 
L 3122 134 
Q 2881 22 2623 -34 
Q 2366 -91 2075 -91 
Q 1284 -91 818 406 
Q 353 903 353 1747 
Q 353 2603 823 3093 
Q 1294 3584 2113 3584 
Q 2378 3584 2631 3529 
Q 2884 3475 3122 3366 
z
" transform="scale(0.015625)"/>
       <path id="DejaVuSans-20" transform="scale(0.015625)"/>
       <path id="DejaVuSans-28" d="M 1984 4856 
Q 1566 4138 1362 3434 
Q 1159 2731 1159 2009 
Q 1159 1288 1364 580 
Q 1569 -128 1984 -844 
L 1484 -844 
Q 1016 -109 783 600 
Q 550 1309 550 2009 
Q 550 2706 781 3412 
Q 1013 4119 1484 4856 
L 1984 4856 
z
" transform="scale(0.015625)"/>
       <path id="DejaVuSans-48" d="M 628 4666 
L 1259 4666 
L 1259 2753 
L 3553 2753 
L 3553 4666 
L 4184 4666 
L 4184 0 
L 3553 0 
L 3553 2222 
L 1259 2222 
L 1259 0 
L 628 0 
L 628 4666 
z
" transform="scale(0.015625)"/>
       <path id="DejaVuSans-7a" d="M 353 3500 
L 3084 3500 
L 3084 2975 
L 922 459 
L 3084 459 
L 3084 0 
L 275 0 
L 275 525 
L 2438 3041 
L 353 3041 
L 353 3500 
z
" transform="scale(0.015625)"/>
       <path id="DejaVuSans-29" d="M 513 4856 
L 1013 4856 
Q 1481 4119 1714 3412 
Q 1947 2706 1947 2009 
Q 1947 1309 1714 600 
Q 1481 -109 1013 -844 
L 513 -844 
Q 928 -128 1133 580 
Q 1338 1288 1338 2009 
Q 1338 2731 1133 3434 
Q 928 4138 513 4856 
z
" transform="scale(0.015625)"/>
      </defs>
      <use xlink:href="#DejaVuSans-46"/>
      <use xlink:href="#DejaVuSans-72" x="50.269531"/>
      <use xlink:href="#DejaVuSans-e9" x="89.132812"/>
      <use xlink:href="#DejaVuSans-71" x="150.65625"/>
      <use xlink:href="#DejaVuSans-75" x="214.132812"/>
      <use xlink:href="#DejaVuSans-65" x="277.511719"/>
      <use xlink:href="#DejaVuSans-6e" x="339.035156"/>
      <use xlink:href="#DejaVuSans-63" x="402.414062"/>
      <use xlink:href="#DejaVuSans-65" x="457.394531"/>
      <use xlink:href="#DejaVuSans-20" x="518.917969"/>
      <use xlink:href="#DejaVuSans-28" x="550.705078"/>
      <use xlink:href="#DejaVuSans-48" x="589.71875"/>
      <use xlink:href="#DejaVuSans-7a" x="664.914062"/>
      <use xlink:href="#DejaVuSans-29" x="717.404297"/>
     </g>
    </g>
   </g>
   <g id="matplotlib.axis_2">
    <g id="ytick_1">
     <g id="line2d_19">
      <path d="M 54 242.116364 
L 388.8 242.116364 
" clip-path="url(#pde134f1f7c)" style="fill: none; stroke: #b0b0b0; stroke-width: 0.8; stroke-linecap: square"/>
     </g>
     <g id="line2d_20">
      <defs>
       <path id="m5767d63670" d="M 0 0 
L -3.5 0 
" style="stroke: #000000; stroke-width: 0.8"/>
      </defs>
      <g>
       <use xlink:href="#m5767d63670" x="54" y="242.116364" style="stroke: #000000; stroke-width: 0.8"/>
      </g>
     </g>
     <g id="text_11">
      <!-- 0 -->
      <g transform="translate(40.6375 245.915582) scale(0.1 -0.1)">
       <use xlink:href="#DejaVuSans-30"/>
      </g>
     </g>
    </g>
    <g id="ytick_2">
     <g id="line2d_21">
      <path d="M 54 208.983871 
L 388.8 208.983871 
" clip-path="url(#pde134f1f7c)" style="fill: none; stroke: #b0b0b0; stroke-width: 0.8; stroke-linecap: square"/>
     </g>
     <g id="line2d_22">
      <g>
       <use xlink:href="#m5767d63670" x="54" y="208.983871" style="stroke: #000000; stroke-width: 0.8"/>
      </g>
     </g>
     <g id="text_12">
      <!-- 5 -->
      <g transform="translate(40.6375 212.78309) scale(0.1 -0.1)">
       <use xlink:href="#DejaVuSans-35"/>
      </g>
     </g>
    </g>
    <g id="ytick_3">
     <g id="line2d_23">
      <path d="M 54 175.851379 
L 388.8 175.851379 
" clip-path="url(#pde134f1f7c)" style="fill: none; stroke: #b0b0b0; stroke-width: 0.8; stroke-linecap: square"/>
     </g>
     <g id="line2d_24">
      <g>
       <use xlink:href="#m5767d63670" x="54" y="175.851379" style="stroke: #000000; stroke-width: 0.8"/>
      </g>
     </g>
     <g id="text_13">
      <!-- 10 -->
      <g transform="translate(34.275 179.650598) scale(0.1 -0.1)">
       <use xlink:href="#DejaVuSans-31"/>
       <use xlink:href="#DejaVuSans-30" x="63.623047"/>
      </g>
     </g>
    </g>
    <g id="ytick_4">
     <g id="line2d_25">
      <path d="M 54 142.718887 
L 388.8 142.718887 
" clip-path="url(#pde134f1f7c)" style="fill: none; stroke: #b0b0b0; stroke-width: 0.8; stroke-linecap: square"/>
     </g>
     <g id="line2d_26">
      <g>
       <use xlink:href="#m5767d63670" x="54" y="142.718887" style="stroke: #000000; stroke-width: 0.8"/>
      </g>
     </g>
     <g id="text_14">
      <!-- 15 -->
      <g transform="translate(34.275 146.518106) scale(0.1 -0.1)">
       <use xlink:href="#DejaVuSans-31"/>
       <use xlink:href="#DejaVuSans-35" x="63.623047"/>
      </g>
     </g>
    </g>
    <g id="ytick_5">
     <g id="line2d_27">
      <path d="M 54 109.586395 
L 388.8 109.586395 
" clip-path="url(#pde134f1f7c)" style="fill: none; stroke: #b0b0b0; stroke-width: 0.8; stroke-linecap: square"/>
     </g>
     <g id="line2d_28">
      <g>
       <use xlink:href="#m5767d63670" x="54" y="109.586395" style="stroke: #000000; stroke-width: 0.8"/>
      </g>
     </g>
     <g id="text_15">
      <!-- 20 -->
      <g transform="translate(34.275 113.385613) scale(0.1 -0.1)">
       <use xlink:href="#DejaVuSans-32"/>
       <use xlink:href="#DejaVuSans-30" x="63.623047"/>
      </g>
     </g>
    </g>
    <g id="ytick_6">
     <g id="line2d_29">
      <path d="M 54 76.453902 
L 388.8 76.453902 
" clip-path="url(#pde134f1f7c)" style="fill: none; stroke: #b0b0b0; stroke-width: 0.8; stroke-linecap: square"/>
     </g>
     <g id="line2d_30">
      <g>
       <use xlink:href="#m5767d63670" x="54" y="76.453902" style="stroke: #000000; stroke-width: 0.8"/>
      </g>
     </g>
     <g id="text_16">
      <!-- 25 -->
      <g transform="translate(34.275 80.253121) scale(0.1 -0.1)">
       <use xlink:href="#DejaVuSans-32"/>
       <use xlink:href="#DejaVuSans-35" x="63.623047"/>
      </g>
     </g>
    </g>
    <g id="ytick_7">
     <g id="line2d_31">
      <path d="M 54 43.32141 
L 388.8 43.32141 
" clip-path="url(#pde134f1f7c)" style="fill: none; stroke: #b0b0b0; stroke-width: 0.8; stroke-linecap: square"/>
     </g>
     <g id="line2d_32">
      <g>
       <use xlink:href="#m5767d63670" x="54" y="43.32141" style="stroke: #000000; stroke-width: 0.8"/>
      </g>
     </g>
     <g id="text_17">
      <!-- 30 -->
      <g transform="translate(34.275 47.120629) scale(0.1 -0.1)">
       <defs>
        <path id="DejaVuSans-33" d="M 2597 2516 
Q 3050 2419 3304 2112 
Q 3559 1806 3559 1356 
Q 3559 666 3084 287 
Q 2609 -91 1734 -91 
Q 1441 -91 1130 -33 
Q 819 25 488 141 
L 488 750 
Q 750 597 1062 519 
Q 1375 441 1716 441 
Q 2309 441 2620 675 
Q 2931 909 2931 1356 
Q 2931 1769 2642 2001 
Q 2353 2234 1838 2234 
L 1294 2234 
L 1294 2753 
L 1863 2753 
Q 2328 2753 2575 2939 
Q 2822 3125 2822 3475 
Q 2822 3834 2567 4026 
Q 2313 4219 1838 4219 
Q 1578 4219 1281 4162 
Q 984 4106 628 3988 
L 628 4550 
Q 988 4650 1302 4700 
Q 1616 4750 1894 4750 
Q 2613 4750 3031 4423 
Q 3450 4097 3450 3541 
Q 3450 3153 3228 2886 
Q 3006 2619 2597 2516 
z
" transform="scale(0.015625)"/>
       </defs>
       <use xlink:href="#DejaVuSans-33"/>
       <use xlink:href="#DejaVuSans-30" x="63.623047"/>
      </g>
     </g>
    </g>
    <g id="text_18">
     <!-- Module en linéaire -->
     <g transform="translate(28.195312 189.381563) rotate(-90) scale(0.1 -0.1)">
      <defs>
       <path id="DejaVuSans-4d" d="M 628 4666 
L 1569 4666 
L 2759 1491 
L 3956 4666 
L 4897 4666 
L 4897 0 
L 4281 0 
L 4281 4097 
L 3078 897 
L 2444 897 
L 1241 4097 
L 1241 0 
L 628 0 
L 628 4666 
z
" transform="scale(0.015625)"/>
       <path id="DejaVuSans-6f" d="M 1959 3097 
Q 1497 3097 1228 2736 
Q 959 2375 959 1747 
Q 959 1119 1226 758 
Q 1494 397 1959 397 
Q 2419 397 2687 759 
Q 2956 1122 2956 1747 
Q 2956 2369 2687 2733 
Q 2419 3097 1959 3097 
z
M 1959 3584 
Q 2709 3584 3137 3096 
Q 3566 2609 3566 1747 
Q 3566 888 3137 398 
Q 2709 -91 1959 -91 
Q 1206 -91 779 398 
Q 353 888 353 1747 
Q 353 2609 779 3096 
Q 1206 3584 1959 3584 
z
" transform="scale(0.015625)"/>
       <path id="DejaVuSans-64" d="M 2906 2969 
L 2906 4863 
L 3481 4863 
L 3481 0 
L 2906 0 
L 2906 525 
Q 2725 213 2448 61 
Q 2172 -91 1784 -91 
Q 1150 -91 751 415 
Q 353 922 353 1747 
Q 353 2572 751 3078 
Q 1150 3584 1784 3584 
Q 2172 3584 2448 3432 
Q 2725 3281 2906 2969 
z
M 947 1747 
Q 947 1113 1208 752 
Q 1469 391 1925 391 
Q 2381 391 2643 752 
Q 2906 1113 2906 1747 
Q 2906 2381 2643 2742 
Q 2381 3103 1925 3103 
Q 1469 3103 1208 2742 
Q 947 2381 947 1747 
z
" transform="scale(0.015625)"/>
       <path id="DejaVuSans-6c" d="M 603 4863 
L 1178 4863 
L 1178 0 
L 603 0 
L 603 4863 
z
" transform="scale(0.015625)"/>
       <path id="DejaVuSans-69" d="M 603 3500 
L 1178 3500 
L 1178 0 
L 603 0 
L 603 3500 
z
M 603 4863 
L 1178 4863 
L 1178 4134 
L 603 4134 
L 603 4863 
z
" transform="scale(0.015625)"/>
       <path id="DejaVuSans-61" d="M 2194 1759 
Q 1497 1759 1228 1600 
Q 959 1441 959 1056 
Q 959 750 1161 570 
Q 1363 391 1709 391 
Q 2188 391 2477 730 
Q 2766 1069 2766 1631 
L 2766 1759 
L 2194 1759 
z
M 3341 1997 
L 3341 0 
L 2766 0 
L 2766 531 
Q 2569 213 2275 61 
Q 1981 -91 1556 -91 
Q 1019 -91 701 211 
Q 384 513 384 1019 
Q 384 1609 779 1909 
Q 1175 2209 1959 2209 
L 2766 2209 
L 2766 2266 
Q 2766 2663 2505 2880 
Q 2244 3097 1772 3097 
Q 1472 3097 1187 3025 
Q 903 2953 641 2809 
L 641 3341 
Q 956 3463 1253 3523 
Q 1550 3584 1831 3584 
Q 2591 3584 2966 3190 
Q 3341 2797 3341 1997 
z
" transform="scale(0.015625)"/>
      </defs>
      <use xlink:href="#DejaVuSans-4d"/>
      <use xlink:href="#DejaVuSans-6f" x="86.279297"/>
      <use xlink:href="#DejaVuSans-64" x="147.460938"/>
      <use xlink:href="#DejaVuSans-75" x="210.9375"/>
      <use xlink:href="#DejaVuSans-6c" x="274.316406"/>
      <use xlink:href="#DejaVuSans-65" x="302.099609"/>
      <use xlink:href="#DejaVuSans-20" x="363.623047"/>
      <use xlink:href="#DejaVuSans-65" x="395.410156"/>
      <use xlink:href="#DejaVuSans-6e" x="456.933594"/>
      <use xlink:href="#DejaVuSans-20" x="520.3125"/>
      <use xlink:href="#DejaVuSans-6c" x="552.099609"/>
      <use xlink:href="#DejaVuSans-69" x="579.882812"/>
      <use xlink:href="#DejaVuSans-6e" x="607.666016"/>
      <use xlink:href="#DejaVuSans-e9" x="671.044922"/>
      <use xlink:href="#DejaVuSans-61" x="732.568359"/>
      <use xlink:href="#DejaVuSans-69" x="793.847656"/>
      <use xlink:href="#DejaVuSans-72" x="821.630859"/>
      <use xlink:href="#DejaVuSans-65" x="860.494141"/>
     </g>
    </g>
   </g>
   <g id="line2d_33">
    <path d="M 54 232.447676 
L 54.1674 241.95003 
L 54.5022 242.017219 
L 55.8414 242.051738 
L 56.0088 241.906355 
L 56.1762 242.045281 
L 56.3436 241.951787 
L 56.8458 242.038685 
L 57.5154 241.975612 
L 57.8502 242.050409 
L 58.3524 241.892435 
L 58.5198 242.084136 
L 59.022 241.879009 
L 59.1894 242.054177 
L 59.6916 241.88496 
L 59.859 242.070915 
L 62.2026 242.068162 
L 62.37 44.443636 
L 62.5374 242.004016 
L 63.207 242.052262 
L 63.3744 241.765994 
L 63.8766 242.108268 
L 64.2114 241.92857 
L 64.881 242.064201 
L 65.2158 242.026314 
L 65.3832 241.899548 
L 65.5506 242.053248 
L 65.718 241.90142 
L 66.0528 242.046047 
L 66.2202 241.995451 
L 66.3876 242.06467 
L 66.7224 242.003718 
L 66.8898 242.090438 
L 67.0572 241.977877 
L 67.392 242.036947 
L 67.5594 241.954207 
L 67.8942 242.026046 
L 68.229 241.944551 
L 68.3964 242.107323 
L 68.7312 241.987194 
L 69.066 242.031182 
L 69.2334 241.970365 
L 69.5682 242.012564 
L 70.0704 242.03533 
L 70.2378 241.877637 
L 70.4052 242.078229 
L 70.5726 241.998181 
L 70.74 240.353642 
L 70.9074 242.046226 
L 72.0792 242.054764 
L 72.2466 242.082999 
L 72.5814 241.939556 
L 73.251 242.048837 
L 73.4184 241.930581 
L 74.4228 242.045641 
L 77.9382 241.989308 
L 78.1056 241.851667 
L 78.273 242.032841 
L 78.4404 241.977157 
L 78.6078 242.078843 
L 78.9426 242.007733 
L 79.11 224.96027 
L 79.2774 241.988324 
L 79.4448 242.02152 
L 79.6122 241.825242 
L 79.947 241.981293 
L 80.1144 242.0349 
L 80.2818 241.962385 
L 80.6166 242.078117 
L 80.9514 242.006813 
L 81.4536 242.01878 
L 81.621 241.958257 
L 81.7884 242.099258 
L 82.2906 242.010595 
L 82.458 242.09873 
L 82.6254 241.927692 
L 82.7928 242.033818 
L 82.9602 241.973373 
L 83.1276 242.09307 
L 83.295 241.972827 
L 83.6298 242.051023 
L 83.7972 241.917329 
L 83.9646 241.937759 
L 84.132 242.07217 
L 84.2994 241.890075 
L 84.6342 242.014808 
L 84.8016 242.112147 
L 85.4712 241.947549 
L 85.9734 241.981154 
L 86.1408 242.042096 
L 86.3082 241.942406 
L 86.643 242.052862 
L 87.3126 241.914171 
L 87.48 241.60981 
L 87.6474 242.045495 
L 87.8148 242.074052 
L 87.9822 241.901954 
L 88.1496 242.069561 
L 88.6518 242.082542 
L 90.6606 242.013379 
L 90.828 242.093186 
L 90.9954 241.90486 
L 91.3302 242.082846 
L 91.665 242.046569 
L 91.8324 241.843783 
L 91.9998 242.037412 
L 92.3346 241.934528 
L 92.502 241.910413 
L 92.8368 242.057675 
L 93.0042 242.052356 
L 93.1716 241.877971 
L 93.339 242.046894 
L 93.8412 241.992554 
L 94.0086 241.881953 
L 94.3434 242.048411 
L 95.1804 241.994128 
L 95.3478 242.066524 
L 95.6826 241.95905 
L 95.85 241.377469 
L 96.0174 241.891053 
L 96.1848 242.043262 
L 97.0218 242.00001 
L 97.1892 242.103336 
L 98.0262 242.001003 
L 98.5284 242.098834 
L 98.8632 241.972319 
L 99.0306 242.04546 
L 99.3654 241.97782 
L 99.5328 242.049877 
L 99.7002 241.995615 
L 99.8676 242.071076 
L 100.035 241.927801 
L 100.3698 242.028598 
L 100.7046 242.015042 
L 102.2112 242.071227 
L 102.3786 242.095977 
L 102.7134 241.950602 
L 102.8808 242.079537 
L 104.0526 242.015178 
L 104.22 241.551017 
L 104.3874 242.034347 
L 104.5548 242.049331 
L 104.8896 241.882042 
L 105.057 242.067984 
L 105.3918 241.942219 
L 105.5592 242.093715 
L 107.4006 241.973105 
L 107.568 242.070303 
L 107.9028 242.005781 
L 108.2376 242.095532 
L 109.9116 242.026599 
L 111.4182 241.937625 
L 111.5856 241.800269 
L 111.753 242.046646 
L 112.4226 241.9782 
L 112.59 238.688142 
L 112.7574 241.985557 
L 113.2596 241.880425 
L 113.427 242.070645 
L 113.5944 241.931401 
L 114.264 242.097375 
L 114.5988 242.048998 
L 114.7662 242.064493 
L 114.9336 241.926032 
L 115.101 242.053229 
L 115.6032 241.956792 
L 115.7706 242.026662 
L 115.938 241.920863 
L 116.2728 242.03794 
L 116.6076 241.992731 
L 116.775 241.965504 
L 116.9424 242.068982 
L 117.1098 242.025004 
L 117.2772 241.804354 
L 117.4446 242.03417 
L 117.7794 242.020927 
L 120.7926 241.914064 
L 120.96 241.756418 
L 121.2948 242.031036 
L 121.4622 241.949555 
L 121.797 241.96809 
L 122.2992 242.028832 
L 122.4666 241.948467 
L 122.634 242.022409 
L 122.8014 241.944138 
L 123.3036 242.099417 
L 123.6384 242.020266 
L 123.9732 241.981039 
L 124.308 242.043421 
L 124.9776 242.036421 
L 125.3124 241.857195 
L 125.4798 242.08643 
L 126.4842 242.002173 
L 126.6516 242.098057 
L 126.9864 242.072254 
L 127.656 241.981347 
L 127.9908 242.031671 
L 128.3256 241.970949 
L 128.493 241.895719 
L 128.6604 242.096454 
L 129.1626 241.98141 
L 129.33 240.937722 
L 129.4974 242.059789 
L 129.9996 241.983854 
L 130.3344 242.084848 
L 130.5018 241.985237 
L 131.004 242.084837 
L 131.1714 241.871073 
L 131.3388 241.890285 
L 131.5062 242.066756 
L 131.841 242.066579 
L 132.0084 241.902148 
L 132.8454 241.990096 
L 133.1802 241.929117 
L 133.3476 242.03755 
L 133.515 241.877477 
L 133.6824 242.038709 
L 133.8498 241.877762 
L 134.352 242.079962 
L 134.5194 241.924694 
L 134.8542 242.027229 
L 135.0216 242.081104 
L 135.3564 242.028291 
L 135.6912 241.997881 
L 137.5326 242.088024 
L 137.7 241.802945 
L 138.0348 242.017632 
L 138.2022 241.91796 
L 138.537 242.03442 
L 138.8718 241.941452 
L 139.0392 242.096118 
L 139.5414 242.055956 
L 139.7088 241.781269 
L 139.8762 242.018156 
L 140.0436 242.013322 
L 140.211 241.793916 
L 140.3784 242.055075 
L 141.5502 242.041275 
L 141.7176 241.88384 
L 142.0524 242.046851 
L 142.5546 241.89299 
L 142.722 242.061261 
L 143.2242 242.021013 
L 143.3916 242.089079 
L 143.559 241.968869 
L 143.8938 242.034557 
L 144.2286 241.94169 
L 144.396 242.086203 
L 144.7308 242.05551 
L 144.8982 241.818946 
L 145.0656 242.064876 
L 145.7352 241.964106 
L 145.9026 242.098159 
L 146.07 240.188773 
L 146.2374 241.873001 
L 146.4048 242.065072 
L 146.5722 241.886495 
L 146.7396 241.872234 
L 146.907 242.094839 
L 147.2418 241.875806 
L 147.4092 242.022289 
L 147.744 241.918245 
L 148.0788 242.027056 
L 148.2462 241.942599 
L 148.4136 242.101405 
L 148.581 241.929383 
L 149.418 242.044407 
L 149.7528 241.972603 
L 149.9202 242.070208 
L 150.255 242.007774 
L 151.4268 242.049257 
L 151.5942 241.901876 
L 152.0964 242.091712 
L 152.2638 241.925454 
L 152.4312 242.02761 
L 152.766 242.027212 
L 153.2682 242.009516 
L 153.4356 241.938621 
L 154.1052 242.072531 
L 154.44 241.880233 
L 154.7748 242.052858 
L 154.9422 241.941481 
L 155.6118 242.024397 
L 155.9466 241.879037 
L 156.2814 242.061494 
L 156.4488 242.058185 
L 156.6162 241.93617 
L 156.7836 242.067106 
L 156.951 241.985392 
L 157.1184 242.078287 
L 157.4532 241.978213 
L 157.6206 242.053691 
L 157.788 241.967948 
L 158.2902 242.084624 
L 158.7924 242.013143 
L 158.9598 242.089131 
L 159.462 242.033846 
L 161.973 242.042697 
L 162.1404 242.067702 
L 162.4752 241.961598 
L 162.6426 241.999793 
L 162.81 241.303533 
L 162.9774 242.068929 
L 163.3122 242.031897 
L 163.647 242.046124 
L 163.8144 242.018282 
L 163.9818 241.862077 
L 164.3166 242.036207 
L 164.6514 241.944666 
L 164.8188 241.843371 
L 165.1536 242.068977 
L 165.8232 241.830304 
L 165.9906 242.100339 
L 166.6602 241.920754 
L 166.8276 242.008815 
L 166.995 241.899001 
L 167.4972 241.945684 
L 167.6646 241.852411 
L 167.832 242.094008 
L 169.3386 241.964145 
L 169.506 242.082822 
L 169.8408 241.973194 
L 170.1756 241.985369 
L 171.0126 242.00221 
L 171.18 241.566356 
L 171.3474 242.006793 
L 171.5148 242.108986 
L 171.8496 241.96677 
L 172.5192 242.087521 
L 172.6866 242.097597 
L 172.854 241.970639 
L 173.0214 242.031143 
L 173.1888 241.808402 
L 173.3562 241.819508 
L 173.5236 242.022495 
L 174.1932 241.974416 
L 174.3606 242.091406 
L 174.8628 241.907226 
L 175.0302 242.090684 
L 175.1976 241.946213 
L 175.365 242.049832 
L 175.5324 241.938387 
L 175.8672 241.980564 
L 176.0346 241.863295 
L 176.3694 241.954888 
L 177.2064 242.079073 
L 177.3738 241.935112 
L 177.876 242.040592 
L 178.0434 241.930627 
L 178.713 242.083957 
L 178.8804 241.974093 
L 179.3826 242.04325 
L 179.55 240.551367 
L 179.7174 242.039982 
L 180.0522 241.902512 
L 180.2196 241.897597 
L 180.5544 242.06526 
L 180.7218 241.934165 
L 180.8892 242.045288 
L 181.224 241.890765 
L 181.5588 242.028913 
L 183.0654 241.924302 
L 183.2328 241.817914 
L 183.4002 242.057576 
L 183.9024 242.011481 
L 184.7394 242.06702 
L 185.0742 241.784215 
L 185.2416 241.978934 
L 185.409 241.949225 
L 185.5764 242.056085 
L 186.0786 241.957046 
L 186.4134 242.004995 
L 187.4178 242.055916 
L 187.92 241.863138 
L 188.0874 242.014882 
L 188.4222 241.941704 
L 188.9244 242.057932 
L 189.0918 242.022516 
L 189.2592 241.792768 
L 189.4266 242.023003 
L 190.2636 242.019815 
L 190.431 241.897972 
L 190.5984 242.051183 
L 190.7658 241.9096 
L 190.9332 242.047814 
L 191.268 241.899002 
L 192.105 242.037252 
L 192.4398 242.067143 
L 193.1094 242.07361 
L 193.2768 241.88792 
L 193.9464 242.013057 
L 194.1138 241.899536 
L 194.4486 242.032823 
L 195.7878 241.9933 
L 195.9552 242.026279 
L 196.1226 241.882483 
L 196.29 241.901022 
L 196.4574 242.113652 
L 196.7922 241.99067 
L 197.127 241.952304 
L 197.2944 241.92486 
L 197.4618 242.012478 
L 197.6292 241.958905 
L 197.7966 242.069779 
L 198.4662 241.874375 
L 198.6336 242.041712 
L 198.9684 241.944534 
L 200.1402 242.064744 
L 200.3076 241.932432 
L 200.8098 242.065466 
L 201.1446 241.995461 
L 201.6468 241.95196 
L 201.8142 242.10707 
L 202.3164 241.98182 
L 202.4838 242.089035 
L 202.6512 241.845066 
L 202.986 242.090454 
L 204.3252 241.998052 
L 204.66 242.024096 
L 204.9948 242.085042 
L 205.3296 241.843972 
L 205.6644 242.051152 
L 205.8318 241.988084 
L 205.9992 242.072108 
L 206.1666 241.870526 
L 206.334 242.058922 
L 206.8362 241.876746 
L 207.0036 241.913385 
L 207.171 242.092408 
L 207.3384 241.925462 
L 207.5058 242.08845 
L 207.6732 241.830361 
L 207.8406 242.038394 
L 208.008 241.906631 
L 208.1754 241.995802 
L 208.3428 241.829079 
L 208.5102 242.084327 
L 209.682 241.924911 
L 210.1842 242.103677 
L 210.519 241.969981 
L 210.6864 242.039094 
L 210.8538 241.899659 
L 211.356 242.082271 
L 211.5234 241.934347 
L 211.6908 242.096314 
L 212.193 241.981071 
L 212.6952 241.907225 
L 212.8626 242.076394 
L 213.1974 241.928086 
L 214.5366 242.032581 
L 214.704 241.918261 
L 215.3736 242.021919 
L 215.541 241.915163 
L 215.7084 242.034749 
L 216.0432 241.990916 
L 216.378 242.065341 
L 216.5454 241.879108 
L 216.7128 241.92081 
L 216.8802 242.083128 
L 217.0476 241.983837 
L 217.3824 242.042213 
L 217.5498 241.962512 
L 217.7172 242.051264 
L 217.8846 241.964497 
L 218.2194 242.095954 
L 218.889 241.942331 
L 219.0564 241.916829 
L 219.3912 242.04762 
L 220.2282 242.047425 
L 220.8978 242.086232 
L 221.0652 241.964934 
L 221.2326 242.017867 
L 221.5674 241.983177 
L 222.0696 242.059187 
L 222.237 241.86067 
L 222.5718 242.079162 
L 222.7392 241.81436 
L 222.9066 242.097373 
L 223.074 241.985577 
L 224.0784 242.056135 
L 224.4132 242.024532 
L 224.5806 241.767007 
L 225.0828 241.973776 
L 225.2502 241.903193 
L 225.4176 242.05503 
L 225.7524 241.962178 
L 226.2546 242.068652 
L 226.422 242.018629 
L 226.5894 242.097509 
L 226.9242 241.86033 
L 227.259 242.027291 
L 227.4264 242.08331 
L 227.5938 241.956176 
L 228.096 242.019527 
L 228.2634 241.934954 
L 228.4308 242.041545 
L 228.7656 241.959445 
L 229.1004 242.046876 
L 229.2678 241.943375 
L 229.4352 242.05511 
L 229.6026 241.965712 
L 229.77 241.533758 
L 230.1048 242.052167 
L 230.607 241.948577 
L 230.7744 241.832373 
L 231.1092 242.044503 
L 231.444 242.10097 
L 231.6114 241.891358 
L 231.9462 241.955268 
L 232.1136 241.88642 
L 232.281 242.06693 
L 232.4484 242.082832 
L 232.6158 241.956471 
L 232.9506 242.032638 
L 233.118 241.980809 
L 233.2854 242.067059 
L 233.4528 241.961327 
L 233.6202 242.072131 
L 234.1224 242.015122 
L 234.4572 242.096712 
L 234.6246 241.906873 
L 234.9594 241.97854 
L 235.629 242.012354 
L 236.1312 241.790018 
L 236.2986 241.861187 
L 236.466 242.067807 
L 236.8008 242.054182 
L 237.9726 241.999972 
L 238.3074 242.059573 
L 238.6422 242.063073 
L 238.8096 241.790647 
L 238.977 242.046152 
L 239.1444 241.868168 
L 239.4792 242.010387 
L 239.6466 241.795133 
L 239.814 242.030344 
L 240.1488 241.853511 
L 240.651 242.062903 
L 240.8184 241.907167 
L 241.488 241.966699 
L 241.6554 241.811256 
L 241.8228 241.846201 
L 241.9902 242.055928 
L 242.1576 241.892022 
L 242.325 242.071006 
L 242.6598 241.785119 
L 242.8272 242.005553 
L 243.4968 242.044601 
L 243.999 242.047621 
L 244.3338 241.992661 
L 244.6686 242.045284 
L 245.3382 241.960419 
L 245.5056 242.080206 
L 245.673 241.921152 
L 246.0078 241.970234 
L 246.1752 241.853475 
L 246.3426 242.009065 
L 246.51 241.539563 
L 246.6774 241.987601 
L 247.347 241.910307 
L 247.6818 242.088679 
L 248.184 241.894553 
L 248.3514 241.848452 
L 248.8536 242.009055 
L 249.6906 242.008534 
L 249.858 241.897496 
L 250.3602 242.043445 
L 250.5276 242.055604 
L 250.695 241.88609 
L 251.0298 241.955161 
L 251.6994 241.948046 
L 252.2016 241.980027 
L 253.3734 241.969847 
L 253.8756 241.88495 
L 254.043 242.05196 
L 254.7126 242.031814 
L 254.88 241.742418 
L 255.0474 242.037145 
L 255.3822 242.023671 
L 255.717 241.898477 
L 255.8844 241.991444 
L 256.0518 241.888814 
L 256.3866 241.975073 
L 256.554 241.917316 
L 256.7214 242.068068 
L 257.0562 242.077185 
L 257.2236 241.90266 
L 257.7258 242.009334 
L 257.8932 242.083846 
L 258.0606 241.853519 
L 258.3954 242.034555 
L 258.5628 241.897881 
L 258.8976 242.057268 
L 259.3998 241.894845 
L 259.902 242.077589 
L 260.2368 241.968697 
L 261.0738 242.031708 
L 261.4086 241.938962 
L 261.7434 242.084831 
L 262.2456 242.053846 
L 262.5804 242.011521 
L 263.25 241.971701 
L 263.4174 241.761941 
L 263.5848 241.911078 
L 263.7522 241.886782 
L 263.9196 242.043699 
L 264.5892 242.000717 
L 264.924 241.988811 
L 265.9284 242.047852 
L 266.2632 241.90215 
L 266.4306 242.107053 
L 266.7654 241.947604 
L 268.272 242.02171 
L 268.4394 241.961062 
L 268.6068 242.091695 
L 268.7742 241.895419 
L 268.9416 242.011411 
L 269.109 241.927057 
L 269.2764 241.987529 
L 269.6112 241.879943 
L 269.7786 242.034892 
L 270.1134 241.909759 
L 270.2808 242.047075 
L 270.4482 241.919918 
L 271.2852 242.04715 
L 271.62 241.929376 
L 271.7874 242.066134 
L 273.1266 241.933165 
L 273.4614 242.034265 
L 273.6288 241.949081 
L 274.131 242.054687 
L 274.6332 241.850265 
L 274.968 241.934889 
L 275.3028 241.801384 
L 275.4702 241.919639 
L 275.6376 241.861058 
L 275.805 241.970169 
L 276.1398 241.88447 
L 276.4746 242.007728 
L 276.642 241.813794 
L 276.9768 242.05984 
L 277.1442 242.065605 
L 277.3116 241.943993 
L 277.479 242.053342 
L 277.8138 242.073848 
L 278.316 242.028964 
L 278.6508 241.862818 
L 278.9856 242.015869 
L 279.6552 241.914355 
L 279.8226 242.046041 
L 279.99 241.183264 
L 280.1574 242.018952 
L 280.3248 241.944969 
L 280.4922 242.012009 
L 280.827 241.981476 
L 280.9944 241.934248 
L 281.1618 242.051658 
L 281.3292 241.844946 
L 281.664 242.018128 
L 281.8314 241.806021 
L 282.1662 242.064558 
L 282.3336 241.855826 
L 282.6684 242.069405 
L 282.8358 241.940823 
L 283.1706 242.018066 
L 283.338 241.897096 
L 284.0076 241.964057 
L 284.175 241.744764 
L 284.5098 242.036946 
L 284.6772 241.867651 
L 285.012 242.041767 
L 286.0164 241.975087 
L 286.1838 241.811129 
L 286.5186 241.996515 
L 287.1882 241.864487 
L 287.523 241.987756 
L 288.1926 242.062436 
L 288.36 241.699777 
L 288.5274 242.007031 
L 288.6948 241.897047 
L 288.8622 242.095912 
L 289.197 241.899654 
L 289.6992 242.061956 
L 290.2014 241.957588 
L 290.5362 242.065327 
L 290.7036 241.818988 
L 290.871 241.960755 
L 291.0384 241.913527 
L 291.3732 242.043005 
L 291.8754 241.961873 
L 292.2102 241.935802 
L 292.545 242.066608 
L 292.8798 241.947636 
L 293.0472 241.91566 
L 293.2146 242.043227 
L 293.382 241.931364 
L 293.8842 242.048768 
L 294.219 241.950199 
L 295.3908 242.011261 
L 295.5582 242.058641 
L 295.893 241.920866 
L 296.3952 242.092898 
L 296.73 241.6833 
L 297.0648 241.955748 
L 297.2322 241.888002 
L 297.3996 242.089266 
L 297.7344 242.027533 
L 297.9018 242.093992 
L 298.0692 241.975444 
L 298.7388 242.075141 
L 299.0736 242.059482 
L 299.5758 242.0713 
L 300.078 241.876126 
L 300.4128 242.015441 
L 300.5802 241.892016 
L 300.7476 242.055283 
L 300.915 241.886345 
L 301.2498 241.946598 
L 302.0868 242.08856 
L 302.2542 241.930998 
L 303.0912 242.002826 
L 303.2586 241.866393 
L 304.5978 242.011882 
L 304.9326 242.03096 
L 305.1 241.730233 
L 305.2674 242.03055 
L 305.6022 241.972036 
L 305.7696 241.908529 
L 306.1044 242.081395 
L 306.2718 241.963461 
L 306.4392 242.082053 
L 306.774 241.921793 
L 307.7784 242.068512 
L 307.9458 242.086498 
L 308.1132 241.860117 
L 308.448 241.986552 
L 311.6286 241.993559 
L 311.796 242.096129 
L 312.1308 241.970829 
L 313.1352 241.886158 
L 313.3026 242.009144 
L 313.47 241.709473 
L 313.6374 242.073978 
L 313.8048 242.001772 
L 314.1396 242.107682 
L 314.307 241.930245 
L 314.6418 241.995134 
L 315.4788 241.886852 
L 315.6462 242.102542 
L 315.981 241.922001 
L 316.1484 242.091527 
L 316.3158 242.023805 
L 316.6506 242.059324 
L 316.9854 241.907827 
L 317.3202 242.087173 
L 317.655 241.761886 
L 317.9898 242.052578 
L 318.492 241.887105 
L 318.6594 242.067946 
L 318.9942 241.824932 
L 319.1616 242.065939 
L 319.329 241.750258 
L 319.6638 241.902683 
L 319.9986 242.050631 
L 320.166 241.94097 
L 320.5008 242.072186 
L 320.6682 241.978154 
L 321.003 242.047753 
L 322.5096 242.026049 
L 322.677 241.885512 
L 323.0118 242.10459 
L 323.514 241.837168 
L 323.6814 241.99267 
L 323.8488 241.908175 
L 324.0162 241.99756 
L 324.1836 241.883753 
L 324.351 241.998217 
L 324.5184 241.950149 
L 324.6858 242.074499 
L 325.0206 241.928255 
L 325.188 242.088165 
L 325.6902 241.891897 
L 326.025 242.082422 
L 326.1924 241.903783 
L 326.3598 242.086321 
L 326.6946 242.011926 
L 326.862 241.800549 
L 327.1968 242.075896 
L 328.2012 241.946209 
L 328.536 242.058198 
L 328.7034 241.933714 
L 329.8752 242.059215 
L 330.0426 241.806975 
L 330.21 241.77057 
L 331.047 242.084787 
L 331.3818 241.961277 
L 331.7166 242.031277 
L 332.0514 242.015169 
L 332.721 242.002196 
L 332.8884 241.955166 
L 333.2232 242.028907 
L 333.3906 241.871758 
L 333.7254 242.024738 
L 334.0602 241.915355 
L 334.2276 242.044555 
L 334.395 241.879463 
L 334.5624 241.985323 
L 334.7298 241.887185 
L 334.8972 241.992721 
L 335.0646 241.856995 
L 335.3994 242.069286 
L 335.5668 242.076442 
L 335.7342 241.938074 
L 336.069 242.027653 
L 336.2364 241.875239 
L 336.4038 242.054835 
L 337.0734 241.92563 
L 337.2408 242.104602 
L 337.4082 241.933264 
L 338.4126 241.971323 
L 338.9148 241.880757 
L 339.0822 242.079015 
L 339.2496 241.908909 
L 339.5844 242.06028 
L 339.7518 241.984928 
L 340.0866 242.051559 
L 340.4214 241.955567 
L 340.5888 241.922222 
L 340.7562 242.063144 
L 340.9236 241.981547 
L 341.091 242.075103 
L 341.928 241.950442 
L 342.4302 242.066555 
L 342.5976 241.838395 
L 343.4346 241.993783 
L 343.602 241.878548 
L 343.9368 242.036938 
L 344.2716 241.959173 
L 344.6064 241.980724 
L 345.7782 242.015935 
L 346.113 241.937629 
L 346.4478 241.985958 
L 346.6152 241.991419 
L 346.7826 241.833192 
L 346.95 241.972989 
L 347.1174 241.946576 
L 347.2848 242.059947 
L 347.6196 242.019935 
L 348.4566 241.940187 
L 348.624 242.078785 
L 348.7914 241.859191 
L 348.9588 242.035306 
L 349.6284 241.950781 
L 349.9632 242.051506 
L 350.298 241.834548 
L 350.4654 242.036218 
L 350.6328 241.980966 
L 350.8002 242.10433 
L 351.135 241.973933 
L 351.3024 241.943255 
L 351.6372 242.063428 
L 351.8046 241.851306 
L 352.1394 242.076522 
L 352.3068 242.042085 
L 352.4742 241.837508 
L 352.6416 242.046994 
L 352.9764 241.910492 
L 353.1438 242.085041 
L 354.3156 241.986379 
L 354.8178 242.066896 
L 355.4874 241.929638 
L 355.6548 242.021416 
L 355.8222 241.919686 
L 355.9896 242.047501 
L 356.3244 241.985688 
L 356.6592 242.022124 
L 356.994 241.812392 
L 357.3288 242.038662 
L 359.3376 241.822539 
L 359.505 242.102522 
L 359.6724 241.906372 
L 359.8398 242.080652 
L 360.0072 241.963884 
L 360.1746 242.067691 
L 360.5094 241.814752 
L 360.6768 242.055869 
L 361.0116 241.965297 
L 361.179 241.916718 
L 361.3464 242.054291 
L 361.6812 242.001579 
L 362.3508 241.981544 
L 362.5182 242.055287 
L 362.6856 241.954358 
L 363.0204 242.047574 
L 363.1878 241.892073 
L 363.5226 241.943145 
L 363.69 241.949785 
L 363.8574 242.069868 
L 364.1922 241.89875 
L 364.527 242.086779 
L 365.0292 241.918996 
L 365.364 242.101545 
L 365.5314 241.887599 
L 366.201 242.031917 
L 366.7032 241.984284 
L 367.2054 242.092991 
L 367.3728 241.900459 
L 367.875 242.034288 
L 368.0424 241.937162 
L 368.3772 242.01935 
L 368.5446 241.772612 
L 368.712 242.064024 
L 368.8794 241.90187 
L 369.0468 242.041911 
L 369.2142 241.873801 
L 369.549 242.06829 
L 369.8838 241.973151 
L 370.0512 242.004588 
L 370.2186 241.748986 
L 370.386 242.043791 
L 370.5534 242.06371 
L 370.7208 241.894378 
L 371.223 241.995541 
L 371.5578 242.039186 
L 372.06 241.7501 
L 372.2274 242.046961 
L 372.3948 241.827181 
L 372.5622 242.013819 
L 372.7296 241.932222 
L 373.0644 241.958895 
L 373.2318 241.958052 
L 373.3992 242.095611 
L 373.5666 242.084165 
L 373.734 241.95474 
L 373.9014 242.019586 
L 374.0688 241.929011 
L 374.2362 242.080088 
L 375.0732 241.856564 
L 375.5754 242.028958 
L 375.9102 242.023834 
L 376.245 241.820859 
L 376.4124 241.962487 
L 376.5798 241.828607 
L 376.7472 241.853118 
L 376.9146 242.069293 
L 377.082 241.953844 
L 377.4168 242.073841 
L 377.7516 241.945391 
L 377.919 242.047155 
L 378.0864 241.929005 
L 378.4212 242.050135 
L 378.756 241.798306 
L 379.0908 242.082539 
L 379.2582 241.87501 
L 380.0952 242.025823 
L 380.43 241.577316 
L 380.5974 241.890837 
L 381.267 242.032514 
L 381.6018 241.926444 
L 381.7692 242.059569 
L 382.104 241.993822 
L 382.6062 242.058092 
L 382.941 241.877421 
L 383.1084 241.870046 
L 383.2758 241.977395 
L 383.4432 241.901882 
L 383.6106 242.025642 
L 383.778 241.910407 
L 384.7824 242.040037 
L 385.2846 241.811451 
L 385.6194 242.007313 
L 386.7912 241.926901 
L 387.126 242.002606 
L 388.9674 241.878108 
L 388.9674 241.878108 
" clip-path="url(#pde134f1f7c)" style="fill: none; stroke: #008000; stroke-linecap: square"/>
   </g>
   <g id="patch_3">
    <path d="M 54 252 
L 54 34.56 
" style="fill: none; stroke: #000000; stroke-width: 0.8; stroke-linejoin: miter; stroke-linecap: square"/>
   </g>
   <g id="patch_4">
    <path d="M 388.8 252 
L 388.8 34.56 
" style="fill: none; stroke: #000000; stroke-width: 0.8; stroke-linejoin: miter; stroke-linecap: square"/>
   </g>
   <g id="patch_5">
    <path d="M 54 252 
L 388.8 252 
" style="fill: none; stroke: #000000; stroke-width: 0.8; stroke-linejoin: miter; stroke-linecap: square"/>
   </g>
   <g id="patch_6">
    <path d="M 54 34.56 
L 388.8 34.56 
" style="fill: none; stroke: #000000; stroke-width: 0.8; stroke-linejoin: miter; stroke-linecap: square"/>
   </g>
   <g id="text_19">
    <!-- Spectre linéaire du courant absorbé par la charge avec les normes -->
    <g transform="translate(21.080625 28.56) scale(0.12 -0.12)">
     <defs>
      <path id="DejaVuSans-53" d="M 3425 4513 
L 3425 3897 
Q 3066 4069 2747 4153 
Q 2428 4238 2131 4238 
Q 1616 4238 1336 4038 
Q 1056 3838 1056 3469 
Q 1056 3159 1242 3001 
Q 1428 2844 1947 2747 
L 2328 2669 
Q 3034 2534 3370 2195 
Q 3706 1856 3706 1288 
Q 3706 609 3251 259 
Q 2797 -91 1919 -91 
Q 1588 -91 1214 -16 
Q 841 59 441 206 
L 441 856 
Q 825 641 1194 531 
Q 1563 422 1919 422 
Q 2459 422 2753 634 
Q 3047 847 3047 1241 
Q 3047 1584 2836 1778 
Q 2625 1972 2144 2069 
L 1759 2144 
Q 1053 2284 737 2584 
Q 422 2884 422 3419 
Q 422 4038 858 4394 
Q 1294 4750 2059 4750 
Q 2388 4750 2728 4690 
Q 3069 4631 3425 4513 
z
" transform="scale(0.015625)"/>
      <path id="DejaVuSans-70" d="M 1159 525 
L 1159 -1331 
L 581 -1331 
L 581 3500 
L 1159 3500 
L 1159 2969 
Q 1341 3281 1617 3432 
Q 1894 3584 2278 3584 
Q 2916 3584 3314 3078 
Q 3713 2572 3713 1747 
Q 3713 922 3314 415 
Q 2916 -91 2278 -91 
Q 1894 -91 1617 61 
Q 1341 213 1159 525 
z
M 3116 1747 
Q 3116 2381 2855 2742 
Q 2594 3103 2138 3103 
Q 1681 3103 1420 2742 
Q 1159 2381 1159 1747 
Q 1159 1113 1420 752 
Q 1681 391 2138 391 
Q 2594 391 2855 752 
Q 3116 1113 3116 1747 
z
" transform="scale(0.015625)"/>
      <path id="DejaVuSans-74" d="M 1172 4494 
L 1172 3500 
L 2356 3500 
L 2356 3053 
L 1172 3053 
L 1172 1153 
Q 1172 725 1289 603 
Q 1406 481 1766 481 
L 2356 481 
L 2356 0 
L 1766 0 
Q 1100 0 847 248 
Q 594 497 594 1153 
L 594 3053 
L 172 3053 
L 172 3500 
L 594 3500 
L 594 4494 
L 1172 4494 
z
" transform="scale(0.015625)"/>
      <path id="DejaVuSans-62" d="M 3116 1747 
Q 3116 2381 2855 2742 
Q 2594 3103 2138 3103 
Q 1681 3103 1420 2742 
Q 1159 2381 1159 1747 
Q 1159 1113 1420 752 
Q 1681 391 2138 391 
Q 2594 391 2855 752 
Q 3116 1113 3116 1747 
z
M 1159 2969 
Q 1341 3281 1617 3432 
Q 1894 3584 2278 3584 
Q 2916 3584 3314 3078 
Q 3713 2572 3713 1747 
Q 3713 922 3314 415 
Q 2916 -91 2278 -91 
Q 1894 -91 1617 61 
Q 1341 213 1159 525 
L 1159 0 
L 581 0 
L 581 4863 
L 1159 4863 
L 1159 2969 
z
" transform="scale(0.015625)"/>
      <path id="DejaVuSans-73" d="M 2834 3397 
L 2834 2853 
Q 2591 2978 2328 3040 
Q 2066 3103 1784 3103 
Q 1356 3103 1142 2972 
Q 928 2841 928 2578 
Q 928 2378 1081 2264 
Q 1234 2150 1697 2047 
L 1894 2003 
Q 2506 1872 2764 1633 
Q 3022 1394 3022 966 
Q 3022 478 2636 193 
Q 2250 -91 1575 -91 
Q 1294 -91 989 -36 
Q 684 19 347 128 
L 347 722 
Q 666 556 975 473 
Q 1284 391 1588 391 
Q 1994 391 2212 530 
Q 2431 669 2431 922 
Q 2431 1156 2273 1281 
Q 2116 1406 1581 1522 
L 1381 1569 
Q 847 1681 609 1914 
Q 372 2147 372 2553 
Q 372 3047 722 3315 
Q 1072 3584 1716 3584 
Q 2034 3584 2315 3537 
Q 2597 3491 2834 3397 
z
" transform="scale(0.015625)"/>
      <path id="DejaVuSans-68" d="M 3513 2113 
L 3513 0 
L 2938 0 
L 2938 2094 
Q 2938 2591 2744 2837 
Q 2550 3084 2163 3084 
Q 1697 3084 1428 2787 
Q 1159 2491 1159 1978 
L 1159 0 
L 581 0 
L 581 4863 
L 1159 4863 
L 1159 2956 
Q 1366 3272 1645 3428 
Q 1925 3584 2291 3584 
Q 2894 3584 3203 3211 
Q 3513 2838 3513 2113 
z
" transform="scale(0.015625)"/>
      <path id="DejaVuSans-67" d="M 2906 1791 
Q 2906 2416 2648 2759 
Q 2391 3103 1925 3103 
Q 1463 3103 1205 2759 
Q 947 2416 947 1791 
Q 947 1169 1205 825 
Q 1463 481 1925 481 
Q 2391 481 2648 825 
Q 2906 1169 2906 1791 
z
M 3481 434 
Q 3481 -459 3084 -895 
Q 2688 -1331 1869 -1331 
Q 1566 -1331 1297 -1286 
Q 1028 -1241 775 -1147 
L 775 -588 
Q 1028 -725 1275 -790 
Q 1522 -856 1778 -856 
Q 2344 -856 2625 -561 
Q 2906 -266 2906 331 
L 2906 616 
Q 2728 306 2450 153 
Q 2172 0 1784 0 
Q 1141 0 747 490 
Q 353 981 353 1791 
Q 353 2603 747 3093 
Q 1141 3584 1784 3584 
Q 2172 3584 2450 3431 
Q 2728 3278 2906 2969 
L 2906 3500 
L 3481 3500 
L 3481 434 
z
" transform="scale(0.015625)"/>
      <path id="DejaVuSans-76" d="M 191 3500 
L 800 3500 
L 1894 563 
L 2988 3500 
L 3597 3500 
L 2284 0 
L 1503 0 
L 191 3500 
z
" transform="scale(0.015625)"/>
      <path id="DejaVuSans-6d" d="M 3328 2828 
Q 3544 3216 3844 3400 
Q 4144 3584 4550 3584 
Q 5097 3584 5394 3201 
Q 5691 2819 5691 2113 
L 5691 0 
L 5113 0 
L 5113 2094 
Q 5113 2597 4934 2840 
Q 4756 3084 4391 3084 
Q 3944 3084 3684 2787 
Q 3425 2491 3425 1978 
L 3425 0 
L 2847 0 
L 2847 2094 
Q 2847 2600 2669 2842 
Q 2491 3084 2119 3084 
Q 1678 3084 1418 2786 
Q 1159 2488 1159 1978 
L 1159 0 
L 581 0 
L 581 3500 
L 1159 3500 
L 1159 2956 
Q 1356 3278 1631 3431 
Q 1906 3584 2284 3584 
Q 2666 3584 2933 3390 
Q 3200 3197 3328 2828 
z
" transform="scale(0.015625)"/>
     </defs>
     <use xlink:href="#DejaVuSans-53"/>
     <use xlink:href="#DejaVuSans-70" x="63.476562"/>
     <use xlink:href="#DejaVuSans-65" x="126.953125"/>
     <use xlink:href="#DejaVuSans-63" x="188.476562"/>
     <use xlink:href="#DejaVuSans-74" x="243.457031"/>
     <use xlink:href="#DejaVuSans-72" x="282.666016"/>
     <use xlink:href="#DejaVuSans-65" x="321.529297"/>
     <use xlink:href="#DejaVuSans-20" x="383.052734"/>
     <use xlink:href="#DejaVuSans-6c" x="414.839844"/>
     <use xlink:href="#DejaVuSans-69" x="442.623047"/>
     <use xlink:href="#DejaVuSans-6e" x="470.40625"/>
     <use xlink:href="#DejaVuSans-e9" x="533.785156"/>
     <use xlink:href="#DejaVuSans-61" x="595.308594"/>
     <use xlink:href="#DejaVuSans-69" x="656.587891"/>
     <use xlink:href="#DejaVuSans-72" x="684.371094"/>
     <use xlink:href="#DejaVuSans-65" x="723.234375"/>
     <use xlink:href="#DejaVuSans-20" x="784.757812"/>
     <use xlink:href="#DejaVuSans-64" x="816.544922"/>
     <use xlink:href="#DejaVuSans-75" x="880.021484"/>
     <use xlink:href="#DejaVuSans-20" x="943.400391"/>
     <use xlink:href="#DejaVuSans-63" x="975.1875"/>
     <use xlink:href="#DejaVuSans-6f" x="1030.167969"/>
     <use xlink:href="#DejaVuSans-75" x="1091.349609"/>
     <use xlink:href="#DejaVuSans-72" x="1154.728516"/>
     <use xlink:href="#DejaVuSans-61" x="1195.841797"/>
     <use xlink:href="#DejaVuSans-6e" x="1257.121094"/>
     <use xlink:href="#DejaVuSans-74" x="1320.5"/>
     <use xlink:href="#DejaVuSans-20" x="1359.708984"/>
     <use xlink:href="#DejaVuSans-61" x="1391.496094"/>
     <use xlink:href="#DejaVuSans-62" x="1452.775391"/>
     <use xlink:href="#DejaVuSans-73" x="1516.251953"/>
     <use xlink:href="#DejaVuSans-6f" x="1568.351562"/>
     <use xlink:href="#DejaVuSans-72" x="1629.533203"/>
     <use xlink:href="#DejaVuSans-62" x="1670.646484"/>
     <use xlink:href="#DejaVuSans-e9" x="1734.123047"/>
     <use xlink:href="#DejaVuSans-20" x="1795.646484"/>
     <use xlink:href="#DejaVuSans-70" x="1827.433594"/>
     <use xlink:href="#DejaVuSans-61" x="1890.910156"/>
     <use xlink:href="#DejaVuSans-72" x="1952.189453"/>
     <use xlink:href="#DejaVuSans-20" x="1993.302734"/>
     <use xlink:href="#DejaVuSans-6c" x="2025.089844"/>
     <use xlink:href="#DejaVuSans-61" x="2052.873047"/>
     <use xlink:href="#DejaVuSans-20" x="2114.152344"/>
     <use xlink:href="#DejaVuSans-63" x="2145.939453"/>
     <use xlink:href="#DejaVuSans-68" x="2200.919922"/>
     <use xlink:href="#DejaVuSans-61" x="2264.298828"/>
     <use xlink:href="#DejaVuSans-72" x="2325.578125"/>
     <use xlink:href="#DejaVuSans-67" x="2364.941406"/>
     <use xlink:href="#DejaVuSans-65" x="2428.417969"/>
     <use xlink:href="#DejaVuSans-20" x="2489.941406"/>
     <use xlink:href="#DejaVuSans-61" x="2521.728516"/>
     <use xlink:href="#DejaVuSans-76" x="2583.007812"/>
     <use xlink:href="#DejaVuSans-65" x="2642.1875"/>
     <use xlink:href="#DejaVuSans-63" x="2703.710938"/>
     <use xlink:href="#DejaVuSans-20" x="2758.691406"/>
     <use xlink:href="#DejaVuSans-6c" x="2790.478516"/>
     <use xlink:href="#DejaVuSans-65" x="2818.261719"/>
     <use xlink:href="#DejaVuSans-73" x="2879.785156"/>
     <use xlink:href="#DejaVuSans-20" x="2931.884766"/>
     <use xlink:href="#DejaVuSans-6e" x="2963.671875"/>
     <use xlink:href="#DejaVuSans-6f" x="3027.050781"/>
     <use xlink:href="#DejaVuSans-72" x="3088.232422"/>
     <use xlink:href="#DejaVuSans-6d" x="3127.595703"/>
     <use xlink:href="#DejaVuSans-65" x="3225.007812"/>
     <use xlink:href="#DejaVuSans-73" x="3286.53125"/>
    </g>
   </g>
   <g id="legend_1">
    <g id="patch_7">
     <path d="M 241.745313 87.394375 
L 381.8 87.394375 
Q 383.8 87.394375 383.8 85.394375 
L 383.8 41.56 
Q 383.8 39.56 381.8 39.56 
L 241.745313 39.56 
Q 239.745313 39.56 239.745313 41.56 
L 239.745313 85.394375 
Q 239.745313 87.394375 241.745313 87.394375 
z
" style="fill: #ffffff; opacity: 0.8; stroke: #cccccc; stroke-linejoin: miter"/>
    </g>
    <g id="line2d_34">
     <path d="M 243.745313 47.658437 
L 253.745313 47.658437 
L 263.745313 47.658437 
" style="fill: none; stroke: #008000; stroke-linecap: square"/>
    </g>
    <g id="text_20">
     <!-- $I_{a}$ -->
     <g transform="translate(271.745313 51.158437) scale(0.1 -0.1)">
      <defs>
       <path id="DejaVuSans-Oblique-49" d="M 1081 4666 
L 1716 4666 
L 806 0 
L 172 0 
L 1081 4666 
z
" transform="scale(0.015625)"/>
       <path id="DejaVuSans-Oblique-61" d="M 3438 1997 
L 3047 0 
L 2472 0 
L 2578 531 
Q 2325 219 2001 64 
Q 1678 -91 1281 -91 
Q 834 -91 548 182 
Q 263 456 263 884 
Q 263 1497 752 1853 
Q 1241 2209 2100 2209 
L 2900 2209 
L 2931 2363 
Q 2938 2388 2941 2417 
Q 2944 2447 2944 2509 
Q 2944 2788 2717 2942 
Q 2491 3097 2081 3097 
Q 1800 3097 1504 3025 
Q 1209 2953 897 2809 
L 997 3341 
Q 1322 3463 1633 3523 
Q 1944 3584 2234 3584 
Q 2853 3584 3176 3315 
Q 3500 3047 3500 2534 
Q 3500 2431 3484 2292 
Q 3469 2153 3438 1997 
z
M 2816 1759 
L 2241 1759 
Q 1534 1759 1195 1570 
Q 856 1381 856 984 
Q 856 709 1029 553 
Q 1203 397 1509 397 
Q 1978 397 2328 733 
Q 2678 1069 2791 1631 
L 2816 1759 
z
" transform="scale(0.015625)"/>
      </defs>
      <use xlink:href="#DejaVuSans-Oblique-49" transform="translate(0 0.09375)"/>
      <use xlink:href="#DejaVuSans-Oblique-61" transform="translate(29.492188 -16.3125) scale(0.7)"/>
     </g>
    </g>
    <g id="PathCollection_3">
     <g>
      <use xlink:href="#m41501cb56b" x="253.745313" y="63.611562" style="fill: #0000ff; stroke: #0000ff; stroke-width: 1.5"/>
     </g>
    </g>
    <g id="text_21">
     <!-- Norme respectée -->
     <g transform="translate(271.745313 66.236562) scale(0.1 -0.1)">
      <defs>
       <path id="DejaVuSans-4e" d="M 628 4666 
L 1478 4666 
L 3547 763 
L 3547 4666 
L 4159 4666 
L 4159 0 
L 3309 0 
L 1241 3903 
L 1241 0 
L 628 0 
L 628 4666 
z
" transform="scale(0.015625)"/>
      </defs>
      <use xlink:href="#DejaVuSans-4e"/>
      <use xlink:href="#DejaVuSans-6f" x="74.804688"/>
      <use xlink:href="#DejaVuSans-72" x="135.986328"/>
      <use xlink:href="#DejaVuSans-6d" x="175.349609"/>
      <use xlink:href="#DejaVuSans-65" x="272.761719"/>
      <use xlink:href="#DejaVuSans-20" x="334.285156"/>
      <use xlink:href="#DejaVuSans-72" x="366.072266"/>
      <use xlink:href="#DejaVuSans-65" x="404.935547"/>
      <use xlink:href="#DejaVuSans-73" x="466.458984"/>
      <use xlink:href="#DejaVuSans-70" x="518.558594"/>
      <use xlink:href="#DejaVuSans-65" x="582.035156"/>
      <use xlink:href="#DejaVuSans-63" x="643.558594"/>
      <use xlink:href="#DejaVuSans-74" x="698.539062"/>
      <use xlink:href="#DejaVuSans-e9" x="737.748047"/>
      <use xlink:href="#DejaVuSans-65" x="799.271484"/>
     </g>
    </g>
    <g id="PathCollection_4">
     <g>
      <use xlink:href="#ma0a809a620" x="253.745313" y="78.689687" style="fill: #ff0000; stroke: #ff0000; stroke-width: 1.5"/>
     </g>
    </g>
    <g id="text_22">
     <!-- Norme non respectée -->
     <g transform="translate(271.745313 81.314687) scale(0.1 -0.1)">
      <use xlink:href="#DejaVuSans-4e"/>
      <use xlink:href="#DejaVuSans-6f" x="74.804688"/>
      <use xlink:href="#DejaVuSans-72" x="135.986328"/>
      <use xlink:href="#DejaVuSans-6d" x="175.349609"/>
      <use xlink:href="#DejaVuSans-65" x="272.761719"/>
      <use xlink:href="#DejaVuSans-20" x="334.285156"/>
      <use xlink:href="#DejaVuSans-6e" x="366.072266"/>
      <use xlink:href="#DejaVuSans-6f" x="429.451172"/>
      <use xlink:href="#DejaVuSans-6e" x="490.632812"/>
      <use xlink:href="#DejaVuSans-20" x="554.011719"/>
      <use xlink:href="#DejaVuSans-72" x="585.798828"/>
      <use xlink:href="#DejaVuSans-65" x="624.662109"/>
      <use xlink:href="#DejaVuSans-73" x="686.185547"/>
      <use xlink:href="#DejaVuSans-70" x="738.285156"/>
      <use xlink:href="#DejaVuSans-65" x="801.761719"/>
      <use xlink:href="#DejaVuSans-63" x="863.285156"/>
      <use xlink:href="#DejaVuSans-74" x="918.265625"/>
      <use xlink:href="#DejaVuSans-e9" x="957.474609"/>
      <use xlink:href="#DejaVuSans-65" x="1018.998047"/>
     </g>
    </g>
   </g>
  </g>
 </g>
 <defs>
  <clipPath id="pde134f1f7c">
   <rect x="54" y="34.56" width="334.8" height="217.44"/>
  </clipPath>
 </defs>
</svg>
