<?xml version="1.0" encoding="utf-8" standalone="no"?>
<!DOCTYPE svg PUBLIC "-//W3C//DTD SVG 1.1//EN"
  "http://www.w3.org/Graphics/SVG/1.1/DTD/svg11.dtd">
<svg xmlns:xlink="http://www.w3.org/1999/xlink" width="432pt" height="288pt" viewBox="0 0 432 288" xmlns="http://www.w3.org/2000/svg" version="1.1">
 <metadata>
  <rdf:RDF xmlns:dc="http://purl.org/dc/elements/1.1/" xmlns:cc="http://creativecommons.org/ns#" xmlns:rdf="http://www.w3.org/1999/02/22-rdf-syntax-ns#">
   <cc:Work>
    <dc:type rdf:resource="http://purl.org/dc/dcmitype/StillImage"/>
    <dc:date>2024-05-29T16:27:56.566196</dc:date>
    <dc:format>image/svg+xml</dc:format>
    <dc:creator>
     <cc:Agent>
      <dc:title>Matplotlib v3.8.3, https://matplotlib.org/</dc:title>
     </cc:Agent>
    </dc:creator>
   </cc:Work>
  </rdf:RDF>
 </metadata>
 <defs>
  <style type="text/css">*{stroke-linejoin: round; stroke-linecap: butt}</style>
 </defs>
 <g id="figure_1">
  <g id="patch_1">
   <path d="M 0 288 
L 432 288 
L 432 0 
L 0 0 
z
" style="fill: #ffffff"/>
  </g>
  <g id="axes_1">
   <g id="patch_2">
    <path d="M 54 252 
L 388.8 252 
L 388.8 34.56 
L 54 34.56 
z
" style="fill: #ffffff"/>
   </g>
   <g id="matplotlib.axis_1">
    <g id="xtick_1">
     <g id="line2d_1">
      <path d="M 69.218182 252 
L 69.218182 34.56 
" clip-path="url(#p61f76788c2)" style="fill: none; stroke: #b0b0b0; stroke-width: 0.8; stroke-linecap: square"/>
     </g>
     <g id="line2d_2">
      <defs>
       <path id="m326e7523b1" d="M 0 0 
L 0 3.5 
" style="stroke: #000000; stroke-width: 0.8"/>
      </defs>
      <g>
       <use xlink:href="#m326e7523b1" x="69.218182" y="252" style="stroke: #000000; stroke-width: 0.8"/>
      </g>
     </g>
     <g id="text_1">
      <!-- 0.960 -->
      <g transform="translate(54.904119 266.598437) scale(0.1 -0.1)">
       <defs>
        <path id="DejaVuSans-30" d="M 2034 4250 
Q 1547 4250 1301 3770 
Q 1056 3291 1056 2328 
Q 1056 1369 1301 889 
Q 1547 409 2034 409 
Q 2525 409 2770 889 
Q 3016 1369 3016 2328 
Q 3016 3291 2770 3770 
Q 2525 4250 2034 4250 
z
M 2034 4750 
Q 2819 4750 3233 4129 
Q 3647 3509 3647 2328 
Q 3647 1150 3233 529 
Q 2819 -91 2034 -91 
Q 1250 -91 836 529 
Q 422 1150 422 2328 
Q 422 3509 836 4129 
Q 1250 4750 2034 4750 
z
" transform="scale(0.015625)"/>
        <path id="DejaVuSans-2e" d="M 684 794 
L 1344 794 
L 1344 0 
L 684 0 
L 684 794 
z
" transform="scale(0.015625)"/>
        <path id="DejaVuSans-39" d="M 703 97 
L 703 672 
Q 941 559 1184 500 
Q 1428 441 1663 441 
Q 2288 441 2617 861 
Q 2947 1281 2994 2138 
Q 2813 1869 2534 1725 
Q 2256 1581 1919 1581 
Q 1219 1581 811 2004 
Q 403 2428 403 3163 
Q 403 3881 828 4315 
Q 1253 4750 1959 4750 
Q 2769 4750 3195 4129 
Q 3622 3509 3622 2328 
Q 3622 1225 3098 567 
Q 2575 -91 1691 -91 
Q 1453 -91 1209 -44 
Q 966 3 703 97 
z
M 1959 2075 
Q 2384 2075 2632 2365 
Q 2881 2656 2881 3163 
Q 2881 3666 2632 3958 
Q 2384 4250 1959 4250 
Q 1534 4250 1286 3958 
Q 1038 3666 1038 3163 
Q 1038 2656 1286 2365 
Q 1534 2075 1959 2075 
z
" transform="scale(0.015625)"/>
        <path id="DejaVuSans-36" d="M 2113 2584 
Q 1688 2584 1439 2293 
Q 1191 2003 1191 1497 
Q 1191 994 1439 701 
Q 1688 409 2113 409 
Q 2538 409 2786 701 
Q 3034 994 3034 1497 
Q 3034 2003 2786 2293 
Q 2538 2584 2113 2584 
z
M 3366 4563 
L 3366 3988 
Q 3128 4100 2886 4159 
Q 2644 4219 2406 4219 
Q 1781 4219 1451 3797 
Q 1122 3375 1075 2522 
Q 1259 2794 1537 2939 
Q 1816 3084 2150 3084 
Q 2853 3084 3261 2657 
Q 3669 2231 3669 1497 
Q 3669 778 3244 343 
Q 2819 -91 2113 -91 
Q 1303 -91 875 529 
Q 447 1150 447 2328 
Q 447 3434 972 4092 
Q 1497 4750 2381 4750 
Q 2619 4750 2861 4703 
Q 3103 4656 3366 4563 
z
" transform="scale(0.015625)"/>
       </defs>
       <use xlink:href="#DejaVuSans-30"/>
       <use xlink:href="#DejaVuSans-2e" x="63.623047"/>
       <use xlink:href="#DejaVuSans-39" x="95.410156"/>
       <use xlink:href="#DejaVuSans-36" x="159.033203"/>
       <use xlink:href="#DejaVuSans-30" x="222.65625"/>
      </g>
     </g>
    </g>
    <g id="xtick_2">
     <g id="line2d_3">
      <path d="M 107.263636 252 
L 107.263636 34.56 
" clip-path="url(#p61f76788c2)" style="fill: none; stroke: #b0b0b0; stroke-width: 0.8; stroke-linecap: square"/>
     </g>
     <g id="line2d_4">
      <g>
       <use xlink:href="#m326e7523b1" x="107.263636" y="252" style="stroke: #000000; stroke-width: 0.8"/>
      </g>
     </g>
     <g id="text_2">
      <!-- 0.965 -->
      <g transform="translate(92.949574 266.598437) scale(0.1 -0.1)">
       <defs>
        <path id="DejaVuSans-35" d="M 691 4666 
L 3169 4666 
L 3169 4134 
L 1269 4134 
L 1269 2991 
Q 1406 3038 1543 3061 
Q 1681 3084 1819 3084 
Q 2600 3084 3056 2656 
Q 3513 2228 3513 1497 
Q 3513 744 3044 326 
Q 2575 -91 1722 -91 
Q 1428 -91 1123 -41 
Q 819 9 494 109 
L 494 744 
Q 775 591 1075 516 
Q 1375 441 1709 441 
Q 2250 441 2565 725 
Q 2881 1009 2881 1497 
Q 2881 1984 2565 2268 
Q 2250 2553 1709 2553 
Q 1456 2553 1204 2497 
Q 953 2441 691 2322 
L 691 4666 
z
" transform="scale(0.015625)"/>
       </defs>
       <use xlink:href="#DejaVuSans-30"/>
       <use xlink:href="#DejaVuSans-2e" x="63.623047"/>
       <use xlink:href="#DejaVuSans-39" x="95.410156"/>
       <use xlink:href="#DejaVuSans-36" x="159.033203"/>
       <use xlink:href="#DejaVuSans-35" x="222.65625"/>
      </g>
     </g>
    </g>
    <g id="xtick_3">
     <g id="line2d_5">
      <path d="M 145.309091 252 
L 145.309091 34.56 
" clip-path="url(#p61f76788c2)" style="fill: none; stroke: #b0b0b0; stroke-width: 0.8; stroke-linecap: square"/>
     </g>
     <g id="line2d_6">
      <g>
       <use xlink:href="#m326e7523b1" x="145.309091" y="252" style="stroke: #000000; stroke-width: 0.8"/>
      </g>
     </g>
     <g id="text_3">
      <!-- 0.970 -->
      <g transform="translate(130.995028 266.598437) scale(0.1 -0.1)">
       <defs>
        <path id="DejaVuSans-37" d="M 525 4666 
L 3525 4666 
L 3525 4397 
L 1831 0 
L 1172 0 
L 2766 4134 
L 525 4134 
L 525 4666 
z
" transform="scale(0.015625)"/>
       </defs>
       <use xlink:href="#DejaVuSans-30"/>
       <use xlink:href="#DejaVuSans-2e" x="63.623047"/>
       <use xlink:href="#DejaVuSans-39" x="95.410156"/>
       <use xlink:href="#DejaVuSans-37" x="159.033203"/>
       <use xlink:href="#DejaVuSans-30" x="222.65625"/>
      </g>
     </g>
    </g>
    <g id="xtick_4">
     <g id="line2d_7">
      <path d="M 183.354545 252 
L 183.354545 34.56 
" clip-path="url(#p61f76788c2)" style="fill: none; stroke: #b0b0b0; stroke-width: 0.8; stroke-linecap: square"/>
     </g>
     <g id="line2d_8">
      <g>
       <use xlink:href="#m326e7523b1" x="183.354545" y="252" style="stroke: #000000; stroke-width: 0.8"/>
      </g>
     </g>
     <g id="text_4">
      <!-- 0.975 -->
      <g transform="translate(169.040483 266.598437) scale(0.1 -0.1)">
       <use xlink:href="#DejaVuSans-30"/>
       <use xlink:href="#DejaVuSans-2e" x="63.623047"/>
       <use xlink:href="#DejaVuSans-39" x="95.410156"/>
       <use xlink:href="#DejaVuSans-37" x="159.033203"/>
       <use xlink:href="#DejaVuSans-35" x="222.65625"/>
      </g>
     </g>
    </g>
    <g id="xtick_5">
     <g id="line2d_9">
      <path d="M 221.4 252 
L 221.4 34.56 
" clip-path="url(#p61f76788c2)" style="fill: none; stroke: #b0b0b0; stroke-width: 0.8; stroke-linecap: square"/>
     </g>
     <g id="line2d_10">
      <g>
       <use xlink:href="#m326e7523b1" x="221.4" y="252" style="stroke: #000000; stroke-width: 0.8"/>
      </g>
     </g>
     <g id="text_5">
      <!-- 0.980 -->
      <g transform="translate(207.085938 266.598437) scale(0.1 -0.1)">
       <defs>
        <path id="DejaVuSans-38" d="M 2034 2216 
Q 1584 2216 1326 1975 
Q 1069 1734 1069 1313 
Q 1069 891 1326 650 
Q 1584 409 2034 409 
Q 2484 409 2743 651 
Q 3003 894 3003 1313 
Q 3003 1734 2745 1975 
Q 2488 2216 2034 2216 
z
M 1403 2484 
Q 997 2584 770 2862 
Q 544 3141 544 3541 
Q 544 4100 942 4425 
Q 1341 4750 2034 4750 
Q 2731 4750 3128 4425 
Q 3525 4100 3525 3541 
Q 3525 3141 3298 2862 
Q 3072 2584 2669 2484 
Q 3125 2378 3379 2068 
Q 3634 1759 3634 1313 
Q 3634 634 3220 271 
Q 2806 -91 2034 -91 
Q 1263 -91 848 271 
Q 434 634 434 1313 
Q 434 1759 690 2068 
Q 947 2378 1403 2484 
z
M 1172 3481 
Q 1172 3119 1398 2916 
Q 1625 2713 2034 2713 
Q 2441 2713 2670 2916 
Q 2900 3119 2900 3481 
Q 2900 3844 2670 4047 
Q 2441 4250 2034 4250 
Q 1625 4250 1398 4047 
Q 1172 3844 1172 3481 
z
" transform="scale(0.015625)"/>
       </defs>
       <use xlink:href="#DejaVuSans-30"/>
       <use xlink:href="#DejaVuSans-2e" x="63.623047"/>
       <use xlink:href="#DejaVuSans-39" x="95.410156"/>
       <use xlink:href="#DejaVuSans-38" x="159.033203"/>
       <use xlink:href="#DejaVuSans-30" x="222.65625"/>
      </g>
     </g>
    </g>
    <g id="xtick_6">
     <g id="line2d_11">
      <path d="M 259.445455 252 
L 259.445455 34.56 
" clip-path="url(#p61f76788c2)" style="fill: none; stroke: #b0b0b0; stroke-width: 0.8; stroke-linecap: square"/>
     </g>
     <g id="line2d_12">
      <g>
       <use xlink:href="#m326e7523b1" x="259.445455" y="252" style="stroke: #000000; stroke-width: 0.8"/>
      </g>
     </g>
     <g id="text_6">
      <!-- 0.985 -->
      <g transform="translate(245.131392 266.598437) scale(0.1 -0.1)">
       <use xlink:href="#DejaVuSans-30"/>
       <use xlink:href="#DejaVuSans-2e" x="63.623047"/>
       <use xlink:href="#DejaVuSans-39" x="95.410156"/>
       <use xlink:href="#DejaVuSans-38" x="159.033203"/>
       <use xlink:href="#DejaVuSans-35" x="222.65625"/>
      </g>
     </g>
    </g>
    <g id="xtick_7">
     <g id="line2d_13">
      <path d="M 297.490909 252 
L 297.490909 34.56 
" clip-path="url(#p61f76788c2)" style="fill: none; stroke: #b0b0b0; stroke-width: 0.8; stroke-linecap: square"/>
     </g>
     <g id="line2d_14">
      <g>
       <use xlink:href="#m326e7523b1" x="297.490909" y="252" style="stroke: #000000; stroke-width: 0.8"/>
      </g>
     </g>
     <g id="text_7">
      <!-- 0.990 -->
      <g transform="translate(283.176847 266.598437) scale(0.1 -0.1)">
       <use xlink:href="#DejaVuSans-30"/>
       <use xlink:href="#DejaVuSans-2e" x="63.623047"/>
       <use xlink:href="#DejaVuSans-39" x="95.410156"/>
       <use xlink:href="#DejaVuSans-39" x="159.033203"/>
       <use xlink:href="#DejaVuSans-30" x="222.65625"/>
      </g>
     </g>
    </g>
    <g id="xtick_8">
     <g id="line2d_15">
      <path d="M 335.536364 252 
L 335.536364 34.56 
" clip-path="url(#p61f76788c2)" style="fill: none; stroke: #b0b0b0; stroke-width: 0.8; stroke-linecap: square"/>
     </g>
     <g id="line2d_16">
      <g>
       <use xlink:href="#m326e7523b1" x="335.536364" y="252" style="stroke: #000000; stroke-width: 0.8"/>
      </g>
     </g>
     <g id="text_8">
      <!-- 0.995 -->
      <g transform="translate(321.222301 266.598437) scale(0.1 -0.1)">
       <use xlink:href="#DejaVuSans-30"/>
       <use xlink:href="#DejaVuSans-2e" x="63.623047"/>
       <use xlink:href="#DejaVuSans-39" x="95.410156"/>
       <use xlink:href="#DejaVuSans-39" x="159.033203"/>
       <use xlink:href="#DejaVuSans-35" x="222.65625"/>
      </g>
     </g>
    </g>
    <g id="xtick_9">
     <g id="line2d_17">
      <path d="M 373.581818 252 
L 373.581818 34.56 
" clip-path="url(#p61f76788c2)" style="fill: none; stroke: #b0b0b0; stroke-width: 0.8; stroke-linecap: square"/>
     </g>
     <g id="line2d_18">
      <g>
       <use xlink:href="#m326e7523b1" x="373.581818" y="252" style="stroke: #000000; stroke-width: 0.8"/>
      </g>
     </g>
     <g id="text_9">
      <!-- 1.000 -->
      <g transform="translate(359.267756 266.598437) scale(0.1 -0.1)">
       <defs>
        <path id="DejaVuSans-31" d="M 794 531 
L 1825 531 
L 1825 4091 
L 703 3866 
L 703 4441 
L 1819 4666 
L 2450 4666 
L 2450 531 
L 3481 531 
L 3481 0 
L 794 0 
L 794 531 
z
" transform="scale(0.015625)"/>
       </defs>
       <use xlink:href="#DejaVuSans-31"/>
       <use xlink:href="#DejaVuSans-2e" x="63.623047"/>
       <use xlink:href="#DejaVuSans-30" x="95.410156"/>
       <use xlink:href="#DejaVuSans-30" x="159.033203"/>
       <use xlink:href="#DejaVuSans-30" x="222.65625"/>
      </g>
     </g>
    </g>
    <g id="text_10">
     <!-- Temps (s) -->
     <g transform="translate(197.375 280.276563) scale(0.1 -0.1)">
      <defs>
       <path id="DejaVuSans-54" d="M -19 4666 
L 3928 4666 
L 3928 4134 
L 2272 4134 
L 2272 0 
L 1638 0 
L 1638 4134 
L -19 4134 
L -19 4666 
z
" transform="scale(0.015625)"/>
       <path id="DejaVuSans-65" d="M 3597 1894 
L 3597 1613 
L 953 1613 
Q 991 1019 1311 708 
Q 1631 397 2203 397 
Q 2534 397 2845 478 
Q 3156 559 3463 722 
L 3463 178 
Q 3153 47 2828 -22 
Q 2503 -91 2169 -91 
Q 1331 -91 842 396 
Q 353 884 353 1716 
Q 353 2575 817 3079 
Q 1281 3584 2069 3584 
Q 2775 3584 3186 3129 
Q 3597 2675 3597 1894 
z
M 3022 2063 
Q 3016 2534 2758 2815 
Q 2500 3097 2075 3097 
Q 1594 3097 1305 2825 
Q 1016 2553 972 2059 
L 3022 2063 
z
" transform="scale(0.015625)"/>
       <path id="DejaVuSans-6d" d="M 3328 2828 
Q 3544 3216 3844 3400 
Q 4144 3584 4550 3584 
Q 5097 3584 5394 3201 
Q 5691 2819 5691 2113 
L 5691 0 
L 5113 0 
L 5113 2094 
Q 5113 2597 4934 2840 
Q 4756 3084 4391 3084 
Q 3944 3084 3684 2787 
Q 3425 2491 3425 1978 
L 3425 0 
L 2847 0 
L 2847 2094 
Q 2847 2600 2669 2842 
Q 2491 3084 2119 3084 
Q 1678 3084 1418 2786 
Q 1159 2488 1159 1978 
L 1159 0 
L 581 0 
L 581 3500 
L 1159 3500 
L 1159 2956 
Q 1356 3278 1631 3431 
Q 1906 3584 2284 3584 
Q 2666 3584 2933 3390 
Q 3200 3197 3328 2828 
z
" transform="scale(0.015625)"/>
       <path id="DejaVuSans-70" d="M 1159 525 
L 1159 -1331 
L 581 -1331 
L 581 3500 
L 1159 3500 
L 1159 2969 
Q 1341 3281 1617 3432 
Q 1894 3584 2278 3584 
Q 2916 3584 3314 3078 
Q 3713 2572 3713 1747 
Q 3713 922 3314 415 
Q 2916 -91 2278 -91 
Q 1894 -91 1617 61 
Q 1341 213 1159 525 
z
M 3116 1747 
Q 3116 2381 2855 2742 
Q 2594 3103 2138 3103 
Q 1681 3103 1420 2742 
Q 1159 2381 1159 1747 
Q 1159 1113 1420 752 
Q 1681 391 2138 391 
Q 2594 391 2855 752 
Q 3116 1113 3116 1747 
z
" transform="scale(0.015625)"/>
       <path id="DejaVuSans-73" d="M 2834 3397 
L 2834 2853 
Q 2591 2978 2328 3040 
Q 2066 3103 1784 3103 
Q 1356 3103 1142 2972 
Q 928 2841 928 2578 
Q 928 2378 1081 2264 
Q 1234 2150 1697 2047 
L 1894 2003 
Q 2506 1872 2764 1633 
Q 3022 1394 3022 966 
Q 3022 478 2636 193 
Q 2250 -91 1575 -91 
Q 1294 -91 989 -36 
Q 684 19 347 128 
L 347 722 
Q 666 556 975 473 
Q 1284 391 1588 391 
Q 1994 391 2212 530 
Q 2431 669 2431 922 
Q 2431 1156 2273 1281 
Q 2116 1406 1581 1522 
L 1381 1569 
Q 847 1681 609 1914 
Q 372 2147 372 2553 
Q 372 3047 722 3315 
Q 1072 3584 1716 3584 
Q 2034 3584 2315 3537 
Q 2597 3491 2834 3397 
z
" transform="scale(0.015625)"/>
       <path id="DejaVuSans-20" transform="scale(0.015625)"/>
       <path id="DejaVuSans-28" d="M 1984 4856 
Q 1566 4138 1362 3434 
Q 1159 2731 1159 2009 
Q 1159 1288 1364 580 
Q 1569 -128 1984 -844 
L 1484 -844 
Q 1016 -109 783 600 
Q 550 1309 550 2009 
Q 550 2706 781 3412 
Q 1013 4119 1484 4856 
L 1984 4856 
z
" transform="scale(0.015625)"/>
       <path id="DejaVuSans-29" d="M 513 4856 
L 1013 4856 
Q 1481 4119 1714 3412 
Q 1947 2706 1947 2009 
Q 1947 1309 1714 600 
Q 1481 -109 1013 -844 
L 513 -844 
Q 928 -128 1133 580 
Q 1338 1288 1338 2009 
Q 1338 2731 1133 3434 
Q 928 4138 513 4856 
z
" transform="scale(0.015625)"/>
      </defs>
      <use xlink:href="#DejaVuSans-54"/>
      <use xlink:href="#DejaVuSans-65" x="44.083984"/>
      <use xlink:href="#DejaVuSans-6d" x="105.607422"/>
      <use xlink:href="#DejaVuSans-70" x="203.019531"/>
      <use xlink:href="#DejaVuSans-73" x="266.496094"/>
      <use xlink:href="#DejaVuSans-20" x="318.595703"/>
      <use xlink:href="#DejaVuSans-28" x="350.382812"/>
      <use xlink:href="#DejaVuSans-73" x="389.396484"/>
      <use xlink:href="#DejaVuSans-29" x="441.496094"/>
     </g>
    </g>
   </g>
   <g id="matplotlib.axis_2">
    <g id="ytick_1">
     <g id="line2d_19">
      <path d="M 54 252 
L 388.8 252 
" clip-path="url(#p61f76788c2)" style="fill: none; stroke: #b0b0b0; stroke-width: 0.8; stroke-linecap: square"/>
     </g>
     <g id="line2d_20">
      <defs>
       <path id="m7d6af8a1e4" d="M 0 0 
L -3.5 0 
" style="stroke: #000000; stroke-width: 0.8"/>
      </defs>
      <g>
       <use xlink:href="#m7d6af8a1e4" x="54" y="252" style="stroke: #000000; stroke-width: 0.8"/>
      </g>
     </g>
     <g id="text_11">
      <!-- −400 -->
      <g transform="translate(19.532812 255.799219) scale(0.1 -0.1)">
       <defs>
        <path id="DejaVuSans-2212" d="M 678 2272 
L 4684 2272 
L 4684 1741 
L 678 1741 
L 678 2272 
z
" transform="scale(0.015625)"/>
        <path id="DejaVuSans-34" d="M 2419 4116 
L 825 1625 
L 2419 1625 
L 2419 4116 
z
M 2253 4666 
L 3047 4666 
L 3047 1625 
L 3713 1625 
L 3713 1100 
L 3047 1100 
L 3047 0 
L 2419 0 
L 2419 1100 
L 313 1100 
L 313 1709 
L 2253 4666 
z
" transform="scale(0.015625)"/>
       </defs>
       <use xlink:href="#DejaVuSans-2212"/>
       <use xlink:href="#DejaVuSans-34" x="83.789062"/>
       <use xlink:href="#DejaVuSans-30" x="147.412109"/>
       <use xlink:href="#DejaVuSans-30" x="211.035156"/>
      </g>
     </g>
    </g>
    <g id="ytick_2">
     <g id="line2d_21">
      <path d="M 54 224.82 
L 388.8 224.82 
" clip-path="url(#p61f76788c2)" style="fill: none; stroke: #b0b0b0; stroke-width: 0.8; stroke-linecap: square"/>
     </g>
     <g id="line2d_22">
      <g>
       <use xlink:href="#m7d6af8a1e4" x="54" y="224.82" style="stroke: #000000; stroke-width: 0.8"/>
      </g>
     </g>
     <g id="text_12">
      <!-- −300 -->
      <g transform="translate(19.532812 228.619219) scale(0.1 -0.1)">
       <defs>
        <path id="DejaVuSans-33" d="M 2597 2516 
Q 3050 2419 3304 2112 
Q 3559 1806 3559 1356 
Q 3559 666 3084 287 
Q 2609 -91 1734 -91 
Q 1441 -91 1130 -33 
Q 819 25 488 141 
L 488 750 
Q 750 597 1062 519 
Q 1375 441 1716 441 
Q 2309 441 2620 675 
Q 2931 909 2931 1356 
Q 2931 1769 2642 2001 
Q 2353 2234 1838 2234 
L 1294 2234 
L 1294 2753 
L 1863 2753 
Q 2328 2753 2575 2939 
Q 2822 3125 2822 3475 
Q 2822 3834 2567 4026 
Q 2313 4219 1838 4219 
Q 1578 4219 1281 4162 
Q 984 4106 628 3988 
L 628 4550 
Q 988 4650 1302 4700 
Q 1616 4750 1894 4750 
Q 2613 4750 3031 4423 
Q 3450 4097 3450 3541 
Q 3450 3153 3228 2886 
Q 3006 2619 2597 2516 
z
" transform="scale(0.015625)"/>
       </defs>
       <use xlink:href="#DejaVuSans-2212"/>
       <use xlink:href="#DejaVuSans-33" x="83.789062"/>
       <use xlink:href="#DejaVuSans-30" x="147.412109"/>
       <use xlink:href="#DejaVuSans-30" x="211.035156"/>
      </g>
     </g>
    </g>
    <g id="ytick_3">
     <g id="line2d_23">
      <path d="M 54 197.64 
L 388.8 197.64 
" clip-path="url(#p61f76788c2)" style="fill: none; stroke: #b0b0b0; stroke-width: 0.8; stroke-linecap: square"/>
     </g>
     <g id="line2d_24">
      <g>
       <use xlink:href="#m7d6af8a1e4" x="54" y="197.64" style="stroke: #000000; stroke-width: 0.8"/>
      </g>
     </g>
     <g id="text_13">
      <!-- −200 -->
      <g transform="translate(19.532812 201.439219) scale(0.1 -0.1)">
       <defs>
        <path id="DejaVuSans-32" d="M 1228 531 
L 3431 531 
L 3431 0 
L 469 0 
L 469 531 
Q 828 903 1448 1529 
Q 2069 2156 2228 2338 
Q 2531 2678 2651 2914 
Q 2772 3150 2772 3378 
Q 2772 3750 2511 3984 
Q 2250 4219 1831 4219 
Q 1534 4219 1204 4116 
Q 875 4013 500 3803 
L 500 4441 
Q 881 4594 1212 4672 
Q 1544 4750 1819 4750 
Q 2544 4750 2975 4387 
Q 3406 4025 3406 3419 
Q 3406 3131 3298 2873 
Q 3191 2616 2906 2266 
Q 2828 2175 2409 1742 
Q 1991 1309 1228 531 
z
" transform="scale(0.015625)"/>
       </defs>
       <use xlink:href="#DejaVuSans-2212"/>
       <use xlink:href="#DejaVuSans-32" x="83.789062"/>
       <use xlink:href="#DejaVuSans-30" x="147.412109"/>
       <use xlink:href="#DejaVuSans-30" x="211.035156"/>
      </g>
     </g>
    </g>
    <g id="ytick_4">
     <g id="line2d_25">
      <path d="M 54 170.46 
L 388.8 170.46 
" clip-path="url(#p61f76788c2)" style="fill: none; stroke: #b0b0b0; stroke-width: 0.8; stroke-linecap: square"/>
     </g>
     <g id="line2d_26">
      <g>
       <use xlink:href="#m7d6af8a1e4" x="54" y="170.46" style="stroke: #000000; stroke-width: 0.8"/>
      </g>
     </g>
     <g id="text_14">
      <!-- −100 -->
      <g transform="translate(19.532812 174.259219) scale(0.1 -0.1)">
       <use xlink:href="#DejaVuSans-2212"/>
       <use xlink:href="#DejaVuSans-31" x="83.789062"/>
       <use xlink:href="#DejaVuSans-30" x="147.412109"/>
       <use xlink:href="#DejaVuSans-30" x="211.035156"/>
      </g>
     </g>
    </g>
    <g id="ytick_5">
     <g id="line2d_27">
      <path d="M 54 143.28 
L 388.8 143.28 
" clip-path="url(#p61f76788c2)" style="fill: none; stroke: #b0b0b0; stroke-width: 0.8; stroke-linecap: square"/>
     </g>
     <g id="line2d_28">
      <g>
       <use xlink:href="#m7d6af8a1e4" x="54" y="143.28" style="stroke: #000000; stroke-width: 0.8"/>
      </g>
     </g>
     <g id="text_15">
      <!-- 0 -->
      <g transform="translate(40.6375 147.079219) scale(0.1 -0.1)">
       <use xlink:href="#DejaVuSans-30"/>
      </g>
     </g>
    </g>
    <g id="ytick_6">
     <g id="line2d_29">
      <path d="M 54 116.1 
L 388.8 116.1 
" clip-path="url(#p61f76788c2)" style="fill: none; stroke: #b0b0b0; stroke-width: 0.8; stroke-linecap: square"/>
     </g>
     <g id="line2d_30">
      <g>
       <use xlink:href="#m7d6af8a1e4" x="54" y="116.1" style="stroke: #000000; stroke-width: 0.8"/>
      </g>
     </g>
     <g id="text_16">
      <!-- 100 -->
      <g transform="translate(27.9125 119.899219) scale(0.1 -0.1)">
       <use xlink:href="#DejaVuSans-31"/>
       <use xlink:href="#DejaVuSans-30" x="63.623047"/>
       <use xlink:href="#DejaVuSans-30" x="127.246094"/>
      </g>
     </g>
    </g>
    <g id="ytick_7">
     <g id="line2d_31">
      <path d="M 54 88.92 
L 388.8 88.92 
" clip-path="url(#p61f76788c2)" style="fill: none; stroke: #b0b0b0; stroke-width: 0.8; stroke-linecap: square"/>
     </g>
     <g id="line2d_32">
      <g>
       <use xlink:href="#m7d6af8a1e4" x="54" y="88.92" style="stroke: #000000; stroke-width: 0.8"/>
      </g>
     </g>
     <g id="text_17">
      <!-- 200 -->
      <g transform="translate(27.9125 92.719219) scale(0.1 -0.1)">
       <use xlink:href="#DejaVuSans-32"/>
       <use xlink:href="#DejaVuSans-30" x="63.623047"/>
       <use xlink:href="#DejaVuSans-30" x="127.246094"/>
      </g>
     </g>
    </g>
    <g id="ytick_8">
     <g id="line2d_33">
      <path d="M 54 61.74 
L 388.8 61.74 
" clip-path="url(#p61f76788c2)" style="fill: none; stroke: #b0b0b0; stroke-width: 0.8; stroke-linecap: square"/>
     </g>
     <g id="line2d_34">
      <g>
       <use xlink:href="#m7d6af8a1e4" x="54" y="61.74" style="stroke: #000000; stroke-width: 0.8"/>
      </g>
     </g>
     <g id="text_18">
      <!-- 300 -->
      <g transform="translate(27.9125 65.539219) scale(0.1 -0.1)">
       <use xlink:href="#DejaVuSans-33"/>
       <use xlink:href="#DejaVuSans-30" x="63.623047"/>
       <use xlink:href="#DejaVuSans-30" x="127.246094"/>
      </g>
     </g>
    </g>
    <g id="ytick_9">
     <g id="line2d_35">
      <path d="M 54 34.56 
L 388.8 34.56 
" clip-path="url(#p61f76788c2)" style="fill: none; stroke: #b0b0b0; stroke-width: 0.8; stroke-linecap: square"/>
     </g>
     <g id="line2d_36">
      <g>
       <use xlink:href="#m7d6af8a1e4" x="54" y="34.56" style="stroke: #000000; stroke-width: 0.8"/>
      </g>
     </g>
     <g id="text_19">
      <!-- 400 -->
      <g transform="translate(27.9125 38.359219) scale(0.1 -0.1)">
       <use xlink:href="#DejaVuSans-34"/>
       <use xlink:href="#DejaVuSans-30" x="63.623047"/>
       <use xlink:href="#DejaVuSans-30" x="127.246094"/>
      </g>
     </g>
    </g>
    <g id="text_20">
     <!-- Tension (V) -->
     <g transform="translate(13.453125 170.862031) rotate(-90) scale(0.1 -0.1)">
      <defs>
       <path id="DejaVuSans-6e" d="M 3513 2113 
L 3513 0 
L 2938 0 
L 2938 2094 
Q 2938 2591 2744 2837 
Q 2550 3084 2163 3084 
Q 1697 3084 1428 2787 
Q 1159 2491 1159 1978 
L 1159 0 
L 581 0 
L 581 3500 
L 1159 3500 
L 1159 2956 
Q 1366 3272 1645 3428 
Q 1925 3584 2291 3584 
Q 2894 3584 3203 3211 
Q 3513 2838 3513 2113 
z
" transform="scale(0.015625)"/>
       <path id="DejaVuSans-69" d="M 603 3500 
L 1178 3500 
L 1178 0 
L 603 0 
L 603 3500 
z
M 603 4863 
L 1178 4863 
L 1178 4134 
L 603 4134 
L 603 4863 
z
" transform="scale(0.015625)"/>
       <path id="DejaVuSans-6f" d="M 1959 3097 
Q 1497 3097 1228 2736 
Q 959 2375 959 1747 
Q 959 1119 1226 758 
Q 1494 397 1959 397 
Q 2419 397 2687 759 
Q 2956 1122 2956 1747 
Q 2956 2369 2687 2733 
Q 2419 3097 1959 3097 
z
M 1959 3584 
Q 2709 3584 3137 3096 
Q 3566 2609 3566 1747 
Q 3566 888 3137 398 
Q 2709 -91 1959 -91 
Q 1206 -91 779 398 
Q 353 888 353 1747 
Q 353 2609 779 3096 
Q 1206 3584 1959 3584 
z
" transform="scale(0.015625)"/>
       <path id="DejaVuSans-56" d="M 1831 0 
L 50 4666 
L 709 4666 
L 2188 738 
L 3669 4666 
L 4325 4666 
L 2547 0 
L 1831 0 
z
" transform="scale(0.015625)"/>
      </defs>
      <use xlink:href="#DejaVuSans-54"/>
      <use xlink:href="#DejaVuSans-65" x="44.083984"/>
      <use xlink:href="#DejaVuSans-6e" x="105.607422"/>
      <use xlink:href="#DejaVuSans-73" x="168.986328"/>
      <use xlink:href="#DejaVuSans-69" x="221.085938"/>
      <use xlink:href="#DejaVuSans-6f" x="248.869141"/>
      <use xlink:href="#DejaVuSans-6e" x="310.050781"/>
      <use xlink:href="#DejaVuSans-20" x="373.429688"/>
      <use xlink:href="#DejaVuSans-28" x="405.216797"/>
      <use xlink:href="#DejaVuSans-56" x="444.230469"/>
      <use xlink:href="#DejaVuSans-29" x="512.638672"/>
     </g>
    </g>
   </g>
   <g id="line2d_37">
    <path d="M 69.218182 144.986788 
L 69.265358 145.031504 
L 69.320144 144.907353 
L 69.339166 144.959494 
L 69.737122 143.296319 
L 69.973004 142.207181 
L 69.977569 142.216613 
L 69.984417 142.237379 
L 70.041485 141.990092 
L 70.160948 141.765131 
L 70.061269 142.012092 
L 70.181493 141.828086 
L 70.644886 139.657374 
L 70.811525 138.669204 
L 70.820656 138.685535 
L 70.839679 138.534488 
L 70.998709 137.99092 
L 71.00784 138.027283 
L 71.013927 138.043363 
L 71.073278 137.893806 
L 71.100671 137.935018 
L 71.110563 137.885825 
L 71.201872 138.019505 
L 71.244483 138.022422 
L 71.264266 137.925109 
L 71.29242 137.934007 
L 71.419492 137.586053 
L 71.436993 137.597562 
L 71.989413 134.919311 
L 71.9955 134.937822 
L 72.002348 134.955298 
L 72.063982 134.725836 
L 72.076156 134.773024 
L 72.079961 134.777422 
L 72.135507 134.62841 
L 72.156813 134.692982 
L 72.663578 132.390727 
L 72.827935 131.498312 
L 72.837826 131.518911 
L 72.856088 131.387034 
L 73.015118 130.931687 
L 73.190127 130.899017 
L 73.195454 130.861087 
L 73.360571 130.350273 
L 73.373506 130.368832 
L 73.388725 130.243677 
L 73.590365 129.211806 
L 73.597214 129.222856 
L 73.614715 129.101943 
L 73.779071 128.246156 
L 73.785919 128.262986 
L 73.789724 128.265714 
L 73.816355 128.086541 
L 73.829291 128.109034 
L 73.960928 127.654091 
L 74.07963 127.522861 
L 73.982234 127.684231 
L 74.087239 127.554192 
L 74.099414 127.606949 
L 74.18844 127.462061 
L 74.38932 126.748567 
L 74.209745 127.477252 
L 74.391603 126.752648 
L 74.396929 126.761944 
L 74.442584 126.5363 
L 74.919674 124.0337 
L 74.928044 124.065068 
L 74.93337 124.072943 
L 74.988916 123.896999 
L 75.108379 123.832427 
L 75.010222 123.939749 
L 75.111423 123.839415 
L 75.12588 123.902859 
L 75.185231 123.75538 
L 75.20958 123.769636 
L 75.454593 122.769843 
L 75.458397 122.77735 
L 75.462202 122.781012 
L 75.487312 122.586238 
L 75.94614 120.54539 
L 75.950705 120.556684 
L 75.961358 120.593756 
L 76.02147 120.445053 
L 76.048863 120.481727 
L 76.058755 120.430484 
L 76.152346 120.540202 
L 76.192675 120.518895 
L 76.172891 120.456863 
L 76.206371 120.440896 
L 76.405729 119.82713 
L 76.227676 120.470345 
L 76.408773 119.833588 
L 76.414099 119.841003 
L 76.458232 119.634951 
L 77.086743 116.757146 
L 77.10957 116.821189 
L 77.576768 114.983707 
L 77.775365 113.987444 
L 77.780692 114.001042 
L 77.785257 114.004251 
L 77.811889 113.837091 
L 77.827107 113.853142 
L 78.075925 113.368741 
L 78.089621 113.441925 
L 78.209084 113.512499 
L 78.113209 113.394678 
L 78.216693 113.492271 
L 79.029344 109.778764 
L 79.035431 109.799787 
L 79.04304 109.816216 
L 79.103913 109.655466 
L 79.12674 109.706808 
L 79.179243 109.638306 
L 79.234789 109.732779 
L 79.275117 109.716778 
L 79.255334 109.658961 
L 79.291857 109.633586 
L 79.310119 109.674886 
L 79.897541 107.053813 
L 80.056571 106.488457 
L 80.060375 106.496527 
L 80.070267 106.522721 
L 80.131901 106.354883 
L 80.153967 106.399519 
L 80.207231 106.314207 
L 80.26506 106.416668 
L 80.344195 106.410063 
L 80.2818 106.361719 
L 80.357891 106.333839 
L 80.375392 106.372638 
L 80.735302 104.759605 
L 80.943791 103.573814 
L 81.07695 102.945393 
L 81.197935 102.625952 
L 81.213914 102.671979 
L 81.527408 102.465908 
L 82.013629 100.141638 
L 82.338537 99.216653 
L 82.343103 99.23058 
L 82.476262 99.414845 
L 82.375822 99.224241 
L 82.481588 99.407597 
L 82.489958 99.380198 
L 82.547787 99.485927 
L 82.578224 99.465304 
L 82.585072 99.474879 
L 82.644423 99.334193 
L 82.65888 99.360871 
L 82.714426 99.160722 
L 82.950308 97.936793 
L 83.014985 97.551727 
L 83.255433 96.083183 
L 83.256194 96.083578 
L 83.26152 96.086864 
L 83.288152 95.9267 
L 83.479901 95.408391 
L 83.556753 95.399873 
L 83.495119 95.454687 
L 83.573493 95.473791 
L 83.727957 95.585347 
L 83.593276 95.437214 
L 83.741654 95.537385 
L 83.901445 95.166947 
L 83.762959 95.551758 
L 83.908293 95.176699 
L 83.917424 95.163259 
L 83.931881 95.070217 
L 84.151784 94.027621 
L 84.434081 92.606325 
L 84.444734 92.614917 
L 84.507128 92.375633 
L 84.660071 92.165425 
L 84.520064 92.391126 
L 84.673767 92.217235 
L 84.870843 92.425979 
L 84.697355 92.172917 
L 84.881495 92.400082 
L 85.840241 88.306762 
L 84.905084 92.414616 
L 85.858503 88.361976 
L 85.968835 88.50617 
L 86.202434 89.022856 
L 86.213086 88.998948 
L 86.790616 86.037943 
L 87.059217 84.784175 
L 87.079762 84.787225 
L 87.171832 84.654343 
L 87.219769 84.716853 
L 87.460977 85.252093 
L 87.466304 85.246359 
L 87.494457 85.267707 
L 87.810235 84.293595 
L 88.169384 82.146067 
L 88.266019 81.724079 
L 88.428093 81.325558 
L 88.434941 81.345314 
L 88.609189 81.528019 
L 88.465377 81.310902 
L 88.615276 81.520015 
L 88.616798 81.519612 
L 88.64343 81.635276 
L 88.648756 81.637726 
L 88.655605 81.635606 
L 88.674627 81.746272 
L 88.82757 82.000456 
L 88.846593 81.9513 
L 88.921162 81.835044 
L 89.300855 79.722027 
L 89.577065 78.039585 
L 89.678266 77.687875 
L 89.797729 77.539898 
L 89.809143 77.576469 
L 89.835014 77.562436 
L 90.109702 78.55349 
L 90.277863 79.133321 
L 90.288515 79.116857 
L 90.30906 79.142 
L 90.598205 77.840209 
L 90.77778 76.293272 
L 91.104971 73.824193 
L 91.282263 73.410877 
L 91.326395 73.469193 
L 91.705328 75.557967 
L 91.876533 76.254679 
L 91.887185 76.240473 
L 91.905447 76.258861 
L 92.117741 75.32917 
L 92.842887 69.308444 
L 92.854301 69.327533 
L 92.996591 69.590565 
L 93.58173 73.580567 
L 93.638037 73.460167 
L 93.886855 71.462704 
L 94.516887 65.026691 
L 94.540475 65.036771 
L 94.554933 65.017614 
L 94.606675 65.124706 
L 94.771792 66.072516 
L 95.001586 68.562065 
L 95.378236 71.935966 
L 95.423891 71.882435 
L 95.571507 70.826023 
L 95.878915 65.589215 
L 96.248716 60.183992 
L 96.34383 59.825732 
L 96.403942 59.905149 
L 96.498295 60.404383 
L 96.781353 64.237967 
L 97.251595 70.288698 
L 97.345947 70.436585 
L 97.393124 70.333497 
L 97.537696 69.332061 
L 97.728685 66.041883 
L 98.35263 54.807472 
L 98.360239 54.791398 
L 98.426438 54.910975 
L 98.522313 55.628288 
L 98.758195 59.565973 
L 99.274091 68.064451 
L 99.336485 68.223195 
L 99.396597 68.122374 
L 99.491711 67.501918 
L 99.734441 63.930499 
L 100.271643 56.498253 
L 100.337842 56.462196 
L 100.370561 56.548127 
L 100.474805 57.078075 
L 101.15658 60.432494 
L 101.167994 60.426499 
L 101.313327 60.152602 
L 101.57508 58.846408 
L 102.039995 56.701224 
L 102.164785 56.65997 
L 102.179242 56.680676 
L 102.335989 57.062343 
L 102.660897 58.648856 
L 102.982001 59.874816 
L 103.1319 59.95068 
L 103.145596 59.93757 
L 103.336585 59.498026 
L 104.067057 57.049475 
L 104.070862 57.052462 
L 104.261089 57.329278 
L 105.041782 59.606046 
L 105.087436 59.583326 
L 105.314948 59.139809 
L 105.94422 57.386099 
L 106.113903 57.438781 
L 106.247823 57.684167 
L 106.984383 59.329688 
L 106.995035 59.322798 
L 107.112215 59.06583 
L 107.281137 57.711496 
L 107.757466 52.984984 
L 107.821383 53.073722 
L 107.928671 53.711147 
L 108.155422 56.632515 
L 108.669035 63.051824 
L 108.736756 63.170849 
L 108.797629 63.080055 
L 108.913287 62.426767 
L 109.14993 59.637626 
L 109.62702 54.38212 
L 109.703111 54.241836 
L 109.765505 54.316959 
L 109.868989 54.797776 
L 110.09574 57.041486 
L 110.609354 61.976869 
L 110.69838 62.062115 
L 110.741752 61.992767 
L 110.867302 61.410624 
L 111.165578 58.525037 
L 111.562012 55.327064 
L 111.676148 55.216881 
L 111.709628 55.270099 
L 111.806264 55.617899 
L 112.038341 57.378122 
L 112.553476 61.158788 
L 112.639459 61.217924 
L 112.678265 61.171767 
L 112.793924 60.787752 
L 113.026001 59.1807 
L 113.516787 56.017677 
L 113.616466 55.95526 
L 113.654512 56.001172 
L 113.847783 56.749086 
L 114.292154 60.270781 
L 114.897076 65.417918 
L 114.899359 65.417349 
L 115.003604 65.253596 
L 115.161112 64.33349 
L 115.898433 58.908175 
L 115.920499 58.943395 
L 116.020939 59.229221 
L 116.295627 61.220662 
L 116.762825 64.516084 
L 116.868592 64.612599 
L 116.913485 64.556882 
L 117.306115 63.633149 
L 117.382205 63.742981 
L 117.649285 64.821789 
L 118.016043 66.702619 
L 118.273991 67.106355 
L 118.274752 67.106054 
L 118.391171 66.925154 
L 118.631618 65.997046 
L 119.002181 64.380283 
L 119.208387 64.048222 
L 119.214475 64.058195 
L 119.375787 64.494325 
L 119.589603 66.709516 
L 120.081911 72.920294 
L 120.218114 73.367185 
L 120.270616 73.28633 
L 120.515629 71.554548 
L 121.18599 65.20577 
L 121.227079 65.303374 
L 121.421872 67.355019 
L 122.153866 78.997921 
L 122.163758 78.985762 
L 122.283982 78.374545 
L 122.590628 73.62578 
L 122.952821 67.969531 
L 123.012172 67.764159 
L 123.071523 67.935033 
L 123.173485 68.841544 
L 123.467195 74.906715 
L 123.924502 83.211831 
L 123.983853 83.389941 
L 124.043965 83.239374 
L 124.088097 82.989172 
L 124.208321 81.610133 
L 124.799547 73.004077 
L 124.881725 73.271026 
L 125.143478 76.645253 
L 125.639591 84.9091 
L 125.769706 85.432047 
L 125.791012 85.378155 
L 125.800904 85.390958 
L 125.850363 85.220111 
L 126.625729 80.933033 
L 126.639425 80.97652 
L 126.662253 80.948973 
L 126.861611 81.558913 
L 128.012866 89.840262 
L 128.015149 89.838921 
L 128.136134 89.536067 
L 128.716707 85.613867 
L 128.773775 85.765178 
L 128.909978 86.537609 
L 129.584144 94.07094 
L 129.587948 94.067744 
L 129.590231 94.066187 
L 129.635125 94.207938 
L 129.686866 94.28569 
L 129.740891 94.164361 
L 129.897638 93.840367 
L 129.757631 94.178606 
L 129.906769 93.862306 
L 129.912095 93.863154 
L 129.934923 93.75836 
L 129.959272 93.755516 
L 130.125911 93.378884 
L 130.149499 93.388433 
L 130.315377 93.14831 
L 130.318421 93.156391 
L 130.332878 93.194963 
L 130.390707 93.117056 
L 130.424948 93.125799 
L 130.428753 93.115638 
L 130.520823 93.206607 
L 130.542128 93.166862 
L 131.041285 94.340509 
L 131.490221 98.762894 
L 131.817412 100.50279 
L 131.90796 100.325651 
L 132.232107 98.575748 
L 132.406355 98.205779 
L 132.451249 98.28917 
L 133.12161 102.496827 
L 133.123893 102.494942 
L 133.126175 102.493671 
L 133.148242 102.660987 
L 133.947196 106.209139 
L 134.027853 106.13527 
L 134.422765 104.787899 
L 134.437222 104.849388 
L 134.459288 104.789272 
L 134.651798 105.473124 
L 135.357161 110.620981 
L 135.357922 110.620674 
L 135.372379 110.580651 
L 135.393685 110.696556 
L 135.418034 110.710968 
L 135.584673 111.214451 
L 135.597608 111.191147 
L 135.688917 111.529034 
L 135.852513 112.009257 
L 135.863165 111.978523 
L 135.865448 111.975279 
L 135.915668 112.135343 
L 136.040457 112.347826 
L 136.051871 112.306866 
L 136.057197 112.290958 
L 136.115026 112.395361 
L 136.149267 112.395455 
L 136.191117 112.387994 
L 136.171334 112.322271 
L 136.238294 112.329384 
L 136.363844 112.108667 
L 136.376779 112.14935 
L 136.423195 112.092997 
L 136.398085 112.046788 
L 136.430804 112.050307 
L 136.437652 112.020868 
L 136.524395 112.187389 
L 137.334003 117.515949 
L 137.550101 117.697806 
L 137.711414 118.079022 
L 138.283617 119.39431 
L 137.728154 118.050774 
L 138.301879 119.327191 
L 138.435038 119.385218 
L 138.445691 119.336431 
L 138.4533 119.302957 
L 138.540805 119.475882 
L 139.275082 124.212508 
L 139.285735 124.187338 
L 139.339759 124.379353 
L 139.423459 124.482201 
L 139.364869 124.365092 
L 139.463026 124.459411 
L 139.555857 124.368886 
L 139.59999 124.419018 
L 139.730866 124.702208 
L 139.743041 124.662212 
L 139.745324 124.662146 
L 139.764346 124.790918 
L 140.451447 126.677136 
L 139.781847 124.762806 
L 140.457535 126.66059 
L 140.468187 126.612878 
L 140.52906 126.809971 
L 140.546561 126.784128 
L 140.979518 129.61172 
L 141.253445 131.140884 
L 141.266381 131.107633 
L 141.288447 131.245599 
L 141.312035 131.234921 
L 141.401062 131.371472 
L 141.436064 131.347208 
L 141.477914 131.329166 
L 141.457369 131.253877 
L 141.493893 131.247785 
L 141.534221 131.259719 
L 141.514437 131.332652 
L 141.577593 131.317044 
L 141.747275 131.763011 
L 141.748036 131.762615 
L 141.75945 131.730732 
L 141.783799 131.889873 
L 141.795974 131.862349 
L 141.849237 132.110641 
L 142.014355 132.808894 
L 142.028051 132.792765 
L 142.391005 133.892051 
L 142.400135 133.857151 
L 142.406984 133.833964 
L 142.469378 134.05819 
L 142.485357 134.033381 
L 142.833093 136.144782 
L 143.042343 137.564731 
L 143.046908 137.556543 
L 143.050713 137.551999 
L 143.079627 137.757663 
L 143.093324 137.749986 
L 143.303335 138.340382 
L 143.314748 138.281087 
L 143.435733 138.168944 
L 143.339858 138.331645 
L 143.441059 138.183681 
L 143.571175 138.365853 
L 143.473017 138.17227 
L 143.579545 138.332254 
L 143.585632 138.315745 
L 143.648026 138.549323 
L 143.657918 138.51581 
L 143.660962 138.512821 
L 143.686072 138.668548 
L 143.705855 138.666705 
L 143.954673 139.806836 
L 143.959238 139.795542 
L 143.963804 139.788207 
L 144.01098 140.006294 
L 144.180663 140.734604 
L 144.194359 140.699779 
L 144.473613 141.323782 
L 144.68895 142.36915 
L 145.317461 145.274986 
L 145.331157 145.204546 
L 145.337245 145.190621 
L 145.395074 145.30866 
L 145.422466 145.30108 
L 145.549538 145.646787 
L 145.564756 145.61968 
L 145.883577 147.112096 
L 146.082175 147.90426 
L 146.096632 147.868907 
L 146.117937 148.009011 
L 146.141525 147.997244 
L 146.269358 148.241052 
L 146.27925 148.197186 
L 146.286098 148.176115 
L 146.346971 148.369825 
L 146.365994 148.34279 
L 147.219734 152.293944 
L 147.230386 152.235613 
L 147.314086 152.172938 
L 147.256257 152.26713 
L 147.346045 152.208347 
L 147.351371 152.196625 
L 147.411483 152.36398 
L 147.431266 152.327492 
L 148.172392 155.33105 
L 148.176196 155.321485 
L 148.188371 155.272192 
L 148.246961 155.399427 
L 148.275115 155.385326 
L 148.440993 155.907883 
L 148.442515 155.90589 
L 148.450124 155.889168 
L 148.479038 156.085864 
L 148.491974 156.081152 
L 148.733182 157.575784 
L 148.912756 158.536969 
L 149.122767 159.255138 
L 149.144073 159.200609 
L 149.274949 159.352749 
L 149.284841 159.30932 
L 149.290167 159.300484 
L 149.344953 159.490994 
L 149.620402 160.643964 
L 149.363975 159.479452 
L 149.623445 160.637816 
L 149.628011 160.631852 
L 149.657686 160.841522 
L 149.6691 160.834503 
L 149.802259 161.573051 
L 149.998574 162.300895 
L 150.002378 162.290897 
L 150.01227 162.259441 
L 150.073143 162.447539 
L 150.094448 162.397393 
L 150.224564 162.516992 
L 150.231412 162.490232 
L 150.241304 162.455839 
L 150.302176 162.640481 
L 150.323482 162.627167 
L 150.94971 165.929804 
L 150.956558 165.910259 
L 150.961124 165.904435 
L 151.011344 166.072826 
L 151.137655 166.322983 
L 151.146785 166.275888 
L 151.193201 166.250554 
L 151.244943 166.354842 
L 151.406255 166.795214 
L 151.267009 166.333239 
L 151.411582 166.780474 
L 151.416147 166.77398 
L 151.462563 166.960113 
L 151.900846 169.155532 
L 151.909977 169.131427 
L 151.913782 169.133019 
L 151.929761 169.241999 
L 152.050745 169.545987 
L 152.067485 169.491708 
L 152.387828 169.836312 
L 152.751543 171.705686 
L 153.153303 173.377828 
L 153.164716 173.325553 
L 153.247655 173.313522 
L 153.190587 173.395109 
L 153.262874 173.384716 
L 153.459949 173.814567 
L 153.283418 173.334282 
L 153.471363 173.796915 
L 153.528431 174.090904 
L 153.765074 175.301923 
L 153.769639 175.295144 
L 153.773444 175.296197 
L 153.790945 175.410867 
L 153.95454 176.187179 
L 153.965954 176.168862 
L 154.058024 176.481887 
L 154.179769 176.684097 
L 154.186617 176.654857 
L 154.274122 176.597417 
L 154.217054 176.688576 
L 154.300754 176.643494 
L 154.310645 176.615393 
L 154.370757 176.772026 
L 154.392063 176.755473 
L 155.244281 180.44615 
L 155.257977 180.380717 
L 155.301349 180.360622 
L 155.281565 180.430104 
L 155.353091 180.441501 
L 155.512882 180.836761 
L 155.374396 180.41833 
L 155.518208 180.824876 
L 155.522774 180.821183 
L 155.550927 180.984175 
L 155.562341 180.975203 
L 155.647563 181.370517 
L 156.007473 183.244539 
L 156.012038 183.235417 
L 156.017365 183.230613 
L 156.044757 183.384472 
L 156.063019 183.380329 
L 156.271508 183.783442 
L 156.275313 183.771446 
L 156.403145 183.657219 
L 156.405428 183.658662 
L 156.573589 184.084174 
L 157.33602 187.530713 
L 157.338303 187.52784 
L 157.471462 187.366658 
L 157.48668 187.415531 
L 157.50342 187.352173 
L 157.673864 187.646237 
L 157.910506 188.709623 
L 157.912789 188.708375 
L 157.934855 188.816811 
L 158.176064 190.155264 
L 158.179107 190.1514 
L 158.184434 190.15243 
L 158.204978 190.271637 
L 158.364008 190.808065 
L 158.367052 190.802739 
L 158.378465 190.777862 
L 158.439338 190.913553 
L 158.464448 190.874926 
L 158.514668 190.920546 
L 158.56641 190.828258 
L 158.609782 190.825295 
L 158.628805 190.896204 
L 158.657719 190.892459 
L 159.316666 194.022186 
L 159.322754 194.015153 
L 159.346342 194.121429 
L 159.467326 194.452678 
L 159.492436 194.442357 
L 159.579941 194.518048 
L 159.616465 194.488559 
L 159.656032 194.434183 
L 159.636248 194.40798 
L 159.663641 194.389301 
L 159.823432 194.084529 
L 159.865282 194.092577 
L 159.845498 194.13632 
L 159.909415 194.154578 
L 160.37433 196.623436 
L 160.572166 197.755405 
L 160.578254 197.753846 
L 160.633039 197.959419 
L 160.797395 198.299036 
L 160.798917 198.296648 
L 160.970122 198.077989 
L 160.977731 198.090618 
L 161.004363 198.073252 
L 161.588741 200.365705 
L 161.788099 201.183367 
L 161.789621 201.180542 
L 161.797991 201.172301 
L 161.853537 201.306511 
L 161.976044 201.435597 
L 161.983653 201.405781 
L 162.151814 201.146646 
L 162.013328 201.416813 
L 162.159423 201.156902 
L 162.281168 201.213263 
L 162.185294 201.111645 
L 162.292582 201.196362 
L 162.34128 201.31494 
L 162.720974 203.482047 
L 163.042838 205.219411 
L 163.049686 205.211319 
L 163.102189 205.309809 
L 163.193498 205.410106 
L 163.236109 205.361969 
L 163.487209 204.608445 
L 163.491014 204.611027 
L 163.49634 204.618325 
L 163.551125 204.507742 
L 163.593736 204.503748 
L 163.572431 204.539262 
L 163.641674 204.571406 
L 164.168223 207.592947 
L 164.442911 208.939661 
L 164.562374 209.069906 
L 164.571505 209.037785 
L 164.962612 208.064794 
L 164.999896 208.085076 
L 165.123925 208.403226 
L 165.893965 212.568399 
L 165.902335 212.550525 
L 165.931249 212.582379 
L 166.186154 211.885364 
L 166.408339 211.211438 
L 166.485952 211.304643 
L 166.679984 212.218119 
L 167.302407 216.387425 
L 167.306973 216.382904 
L 167.33817 216.440031 
L 167.536006 216.126842 
L 167.969725 213.956712 
L 168.006248 213.968536 
L 168.118863 214.311285 
L 168.32583 215.946502 
L 168.771723 220.154767 
L 168.93684 220.686223 
L 168.960428 220.663805 
L 169.012931 220.622507 
L 169.025866 220.570892 
L 169.220659 219.554594 
L 169.672639 216.490508 
L 169.720576 216.578679 
L 169.871236 217.517331 
L 170.21745 221.911974 
L 170.541597 224.935811 
L 170.648125 225.097531 
L 170.692257 225.010295 
L 170.893137 223.726704 
L 171.472189 218.099211 
L 171.558933 218.33127 
L 171.745355 220.351385 
L 172.436261 230.322031 
L 172.457566 230.310561 
L 172.518439 230.171075 
L 172.683556 228.760086 
L 173.053358 222.81601 
L 173.351635 219.729262 
L 173.412507 219.605394 
L 173.474141 219.687221 
L 173.570015 220.1942 
L 173.756438 222.69957 
L 174.456475 235.33248 
L 174.505934 235.261353 
L 174.6117 234.525628 
L 174.836929 230.823824 
L 175.361956 222.018588 
L 175.43196 221.846843 
L 175.491311 221.956085 
L 175.603165 222.762575 
L 175.826111 226.149359 
L 176.350377 233.589274 
L 176.403641 233.668536 
L 176.460709 233.576209 
L 176.597673 232.850902 
L 177.217814 229.648159 
L 177.325102 229.718652 
L 177.481849 230.223756 
L 177.925459 232.742277 
L 178.189495 233.467411 
L 178.30287 233.392954 
L 178.468748 232.894903 
L 179.195416 230.116559 
L 179.243354 230.146625 
L 179.389448 230.453044 
L 179.695334 231.760238 
L 180.074266 233.014867 
L 180.215035 233.028609 
L 180.225687 233.018166 
L 180.385478 232.688104 
L 180.777346 231.17391 
L 181.078666 230.489362 
L 181.220195 230.538222 
L 181.403575 230.935407 
L 182.122634 232.734352 
L 182.124155 232.733823 
L 182.274815 232.562173 
L 182.548743 231.81513 
L 182.986265 230.784663 
L 183.155187 230.798025 
L 183.346936 231.114705 
L 184.064474 232.490729 
L 184.234917 232.329504 
L 184.55526 231.622427 
L 184.935715 230.987802 
L 185.119094 231.020426 
L 185.345084 231.354214 
L 185.951528 232.305629 
L 186.139473 232.219895 
L 186.424053 231.772234 
L 186.879076 231.147621 
L 187.083761 231.19067 
L 187.353123 231.536769 
L 187.863693 232.1564 
L 188.07903 232.096465 
L 188.391003 231.71319 
L 188.830047 231.268787 
L 189.059842 231.32777 
L 189.406055 231.71337 
L 189.813142 232.048407 
L 190.058915 231.974973 
L 190.287949 231.676256 
L 190.466002 230.536598 
L 191.170604 224.904213 
L 191.24289 225.006879 
L 191.373766 225.607965 
L 191.732155 228.81564 
L 192.080651 230.942311 
L 192.143045 230.991775 
L 192.200875 230.922007 
L 192.334034 230.431684 
L 192.722858 227.394159 
L 193.03407 225.720277 
L 193.200709 225.637299 
L 193.288975 225.537685 
L 194.099343 223.68581 
L 194.229458 223.764477 
L 195.111352 225.420998 
L 195.12657 225.402941 
L 195.350277 225.122829 
L 195.498655 224.447014 
L 195.893566 220.061765 
L 196.226084 217.55229 
L 196.305218 217.500088 
L 196.341742 217.556767 
L 196.433051 217.906002 
L 196.731327 220.533687 
L 197.156675 224.058588 
L 197.241897 224.222422 
L 197.2944 224.15988 
L 197.41158 223.405217 
L 197.636809 219.919948 
L 198.148901 211.882983 
L 198.245536 211.688693 
L 198.291952 211.802217 
L 198.438046 212.955575 
L 198.715017 217.334113 
L 199.067318 221.919941 
L 199.106125 221.950505 
L 199.15254 221.803778 
L 199.324505 219.891046 
L 199.581693 214.282422 
L 199.980409 207.331987 
L 200.074762 207.038911 
L 200.127265 207.185197 
L 200.320535 209.241961 
L 200.840236 216.973003 
L 200.895022 217.027216 
L 200.934589 216.912681 
L 201.136991 214.803817 
L 201.83094 204.711151 
L 201.851485 204.729648 
L 201.862137 204.717786 
L 201.913879 204.867189 
L 202.683919 209.295287 
L 202.69305 209.263836 
L 203.032415 207.899921 
L 203.820717 201.193175 
L 203.915831 200.631181 
L 204.071056 200.340903 
L 204.077905 200.348991 
L 204.276502 201.118213 
L 204.703372 204.436168 
L 204.705655 204.432238 
L 204.714025 204.426584 
L 204.739895 204.519073 
L 204.775658 204.532248 
L 204.77718 204.533235 
L 204.824356 204.420689 
L 205.099805 202.094278 
L 205.700924 195.801907 
L 205.746578 195.765624 
L 205.797559 195.867451 
L 206.035724 196.774763 
L 206.041811 196.766962 
L 206.056268 196.800068 
L 206.066921 196.873195 
L 206.224429 197.306301 
L 206.226712 197.302965 
L 206.238125 197.28224 
L 206.299759 197.421867 
L 206.318782 197.38706 
L 206.451941 197.453656 
L 206.467159 197.39055 
L 206.488465 197.420564 
L 206.888703 196.310091 
L 207.18774 194.906883 
L 207.769075 190.084687 
L 207.91593 189.881331 
L 207.780488 190.092674 
L 207.965389 189.98358 
L 208.318451 191.725631 
L 208.329104 191.705431 
L 208.354214 191.814186 
L 208.431065 191.88174 
L 208.368671 191.78347 
L 208.47672 191.811675 
L 209.409595 186.714852 
L 209.416443 186.726 
L 209.417965 186.726357 
L 209.434705 186.603084 
L 209.827334 184.845832 
L 209.833421 184.854921 
L 209.836465 184.859855 
L 209.885924 184.65877 
L 210.039627 184.341013 
L 210.124088 184.296002 
L 210.066259 184.368214 
L 210.157568 184.318628 
L 210.162134 184.317259 
L 210.181156 184.400226 
L 210.213875 184.424039 
L 210.373666 184.839466 
L 210.23442 184.416802 
L 210.375188 184.838197 
L 210.387363 184.8121 
L 210.444431 184.95627 
L 210.48552 184.968399 
L 210.53574 184.853975 
L 211.07142 181.307792 
L 211.310345 179.952044 
L 211.321759 179.972766 
L 211.871896 178.672015 
L 212.145824 177.861369 
L 212.148867 177.865239 
L 212.158759 177.897794 
L 212.213545 177.735994 
L 212.332246 177.623587 
L 212.23485 177.771036 
L 212.345943 177.677277 
L 212.465405 177.7446 
L 212.36877 177.619488 
L 212.46921 177.735515 
L 212.482145 177.693986 
L 212.540735 177.805181 
L 212.574976 177.772889 
L 212.578781 177.779449 
L 212.639654 177.587158 
L 212.651067 177.611918 
L 212.698244 177.433709 
L 212.988911 175.46426 
L 213.019347 175.189133 
L 213.511655 172.741672 
L 213.518504 172.758704 
L 213.568724 172.81752 
L 213.621226 172.713091 
L 213.936243 171.922261 
L 213.643293 172.755501 
L 213.947656 171.943594 
L 214.082337 171.377524 
L 214.427029 170.514128 
L 214.098316 171.390189 
L 214.439965 170.567782 
L 214.443769 170.573675 
L 214.500837 170.473523 
L 214.531274 170.48697 
L 215.453495 165.833503 
L 214.557145 170.516938 
L 215.455017 165.834664 
L 215.6247 166.003927 
L 215.642962 165.921919 
L 215.752533 165.805444 
L 216.181685 164.205286 
L 215.773838 165.830489 
L 216.190816 164.224142 
L 216.206035 164.109728 
L 216.36963 163.508534 
L 216.378761 163.535819 
L 216.382565 163.543765 
L 216.439634 163.334587 
L 216.459417 163.373003 
L 216.934225 161.28767 
L 217.282721 159.23251 
L 217.294135 159.259071 
L 217.349681 159.042227 
L 217.469144 158.906629 
L 217.372508 159.061911 
L 217.478275 158.937949 
L 217.603064 159.063366 
L 217.505667 158.930317 
L 217.606107 159.057481 
L 218.461369 156.05449 
L 218.465935 156.064451 
L 218.477348 156.113309 
L 218.538982 155.89933 
L 218.542786 155.904763 
L 218.551917 155.934663 
L 218.601376 155.719316 
L 218.809105 154.541012 
L 218.83041 154.414907 
L 219.037377 153.038359 
L 219.038899 153.0392 
L 219.044225 153.046463 
L 219.063248 152.876227 
L 219.261845 152.039991 
L 219.263367 152.041516 
L 219.275542 152.084669 
L 219.328805 151.930945 
L 219.372938 151.890449 
L 219.429245 151.996314 
L 219.582188 152.087522 
L 219.445985 151.935829 
L 219.595885 152.005184 
L 219.796004 151.499018 
L 219.618712 152.049743 
L 219.802852 151.517618 
L 219.806656 151.524132 
L 219.854594 151.30869 
L 220.063844 150.213757 
L 220.065365 150.214848 
L 220.072214 150.228152 
L 220.093519 150.049525 
L 220.364403 148.993085 
L 220.432124 148.884731 
L 220.595719 148.484643 
L 220.456473 148.925399 
L 220.605611 148.509313 
L 220.622351 148.381544 
L 220.874212 147.00569 
L 221.389347 144.934801 
L 221.398478 144.973054 
L 221.447176 145.031504 
L 221.501962 144.907353 
L 221.520985 144.959494 
L 221.91894 143.296319 
L 222.154822 142.207181 
L 222.159387 142.216613 
L 222.166235 142.237379 
L 222.223304 141.990092 
L 222.342766 141.765131 
L 222.243087 142.012092 
L 222.363311 141.828086 
L 222.826705 139.657374 
L 222.993344 138.669204 
L 223.002475 138.685535 
L 223.021497 138.534488 
L 223.180527 137.99092 
L 223.189658 138.027283 
L 223.195745 138.043363 
L 223.255096 137.893806 
L 223.282489 137.935018 
L 223.292381 137.885825 
L 223.38369 138.019505 
L 223.426301 138.022422 
L 223.446085 137.925109 
L 223.474238 137.934007 
L 223.60131 137.586053 
L 223.618811 137.597562 
L 224.171231 134.919311 
L 224.177318 134.937822 
L 224.184166 134.955298 
L 224.2458 134.725836 
L 224.257975 134.773024 
L 224.261779 134.777422 
L 224.317325 134.62841 
L 224.338631 134.692982 
L 224.845396 132.390727 
L 225.009753 131.498312 
L 225.019645 131.518911 
L 225.037906 131.387034 
L 225.196936 130.931687 
L 225.371945 130.899017 
L 225.377272 130.861087 
L 225.542389 130.350273 
L 225.555325 130.368832 
L 225.570543 130.243677 
L 225.772184 129.211806 
L 225.779032 129.222856 
L 225.796533 129.101943 
L 225.960889 128.246156 
L 225.967737 128.262986 
L 225.971542 128.265714 
L 225.998174 128.086541 
L 226.011109 128.109034 
L 226.142746 127.654091 
L 226.261448 127.522861 
L 226.164052 127.684231 
L 226.269057 127.554192 
L 226.281232 127.606949 
L 226.370258 127.462061 
L 226.571138 126.748567 
L 226.391564 127.477252 
L 226.573421 126.752648 
L 226.578747 126.761944 
L 226.624402 126.5363 
L 227.101492 124.0337 
L 227.109862 124.065068 
L 227.115188 124.072943 
L 227.170735 123.896999 
L 227.290197 123.832427 
L 227.19204 123.939749 
L 227.293241 123.839415 
L 227.307698 123.902859 
L 227.367049 123.75538 
L 227.391398 123.769636 
L 227.636411 122.769843 
L 227.640215 122.77735 
L 227.64402 122.781012 
L 227.66913 122.586238 
L 228.127958 120.54539 
L 228.132524 120.556684 
L 228.143176 120.593756 
L 228.203288 120.445053 
L 228.230681 120.481727 
L 228.240573 120.430484 
L 228.334165 120.540202 
L 228.374493 120.518895 
L 228.354709 120.456863 
L 228.388189 120.440896 
L 228.587547 119.82713 
L 228.409495 120.470345 
L 228.590591 119.833588 
L 228.595917 119.841003 
L 228.64005 119.634951 
L 229.268561 116.757146 
L 229.291388 116.821189 
L 229.758586 114.983707 
L 229.957184 113.987444 
L 229.96251 114.001042 
L 229.967075 114.004251 
L 229.993707 113.837091 
L 230.008925 113.853142 
L 230.257743 113.368741 
L 230.271439 113.441925 
L 230.390902 113.512499 
L 230.295027 113.394678 
L 230.398511 113.492271 
L 231.211162 109.778764 
L 231.217249 109.799787 
L 231.224858 109.816216 
L 231.285731 109.655466 
L 231.308558 109.706808 
L 231.361061 109.638306 
L 231.416607 109.732779 
L 231.456935 109.716778 
L 231.437152 109.658961 
L 231.473675 109.633586 
L 231.491937 109.674886 
L 232.079359 107.053813 
L 232.238389 106.488457 
L 232.242194 106.496527 
L 232.252085 106.522721 
L 232.313719 106.354883 
L 232.335785 106.399519 
L 232.389049 106.314207 
L 232.446878 106.416668 
L 232.526013 106.410063 
L 232.463618 106.361719 
L 232.539709 106.333839 
L 232.55721 106.372638 
L 232.91712 104.759605 
L 233.125609 103.573814 
L 233.258768 102.945393 
L 233.379753 102.625952 
L 233.395732 102.671979 
L 233.709226 102.465908 
L 234.195447 100.141638 
L 234.520355 99.216653 
L 234.524921 99.23058 
L 234.65808 99.414845 
L 234.55764 99.224241 
L 234.663406 99.407597 
L 234.671776 99.380198 
L 234.729605 99.485927 
L 234.760042 99.465304 
L 234.76689 99.474879 
L 234.826241 99.334193 
L 234.840698 99.360871 
L 234.896245 99.160722 
L 235.132126 97.936793 
L 235.196804 97.551727 
L 235.437251 96.083183 
L 235.438012 96.083578 
L 235.443338 96.086864 
L 235.46997 95.9267 
L 235.661719 95.408391 
L 235.738571 95.399873 
L 235.676937 95.454687 
L 235.755311 95.473791 
L 235.909775 95.585347 
L 235.775095 95.437214 
L 235.923472 95.537385 
L 236.083263 95.166947 
L 235.944777 95.551758 
L 236.090111 95.176699 
L 236.099242 95.163259 
L 236.113699 95.070217 
L 236.333602 94.027621 
L 236.615899 92.606325 
L 236.626552 92.614917 
L 236.688946 92.375633 
L 236.841889 92.165425 
L 236.701882 92.391126 
L 236.855585 92.217235 
L 237.052661 92.425979 
L 236.879174 92.172917 
L 237.063314 92.400082 
L 238.022059 88.306762 
L 237.086902 92.414616 
L 238.040321 88.361976 
L 238.150653 88.50617 
L 238.384252 89.022856 
L 238.394905 88.998948 
L 238.972435 86.037943 
L 239.241035 84.784175 
L 239.26158 84.787225 
L 239.35365 84.654343 
L 239.401587 84.716853 
L 239.642795 85.252093 
L 239.648122 85.246359 
L 239.676275 85.267707 
L 239.992053 84.293595 
L 240.351202 82.146067 
L 240.447837 81.724079 
L 240.609911 81.325558 
L 240.616759 81.345314 
L 240.791007 81.528019 
L 240.647195 81.310902 
L 240.797095 81.520015 
L 240.798616 81.519612 
L 240.825248 81.635276 
L 240.830575 81.637726 
L 240.837423 81.635606 
L 240.856445 81.746272 
L 241.009388 82.000456 
L 241.028411 81.9513 
L 241.10298 81.835044 
L 241.482674 79.722027 
L 241.758884 78.039585 
L 241.860085 77.687875 
L 241.979547 77.539898 
L 241.990961 77.576469 
L 242.016832 77.562436 
L 242.29152 78.55349 
L 242.459681 79.133321 
L 242.470334 79.116857 
L 242.490878 79.142 
L 242.780024 77.840209 
L 242.959598 76.293272 
L 243.286789 73.824193 
L 243.464081 73.410877 
L 243.508214 73.469193 
L 243.887146 75.557967 
L 244.058351 76.254679 
L 244.069004 76.240473 
L 244.087265 76.258861 
L 244.299559 75.32917 
L 245.024705 69.308444 
L 245.036119 69.327533 
L 245.178409 69.590565 
L 245.763548 73.580567 
L 245.819855 73.460167 
L 246.068673 71.462704 
L 246.698705 65.026691 
L 246.722294 65.036771 
L 246.736751 65.017614 
L 246.788493 65.124706 
L 246.95361 66.072516 
L 247.183405 68.562065 
L 247.560055 71.935966 
L 247.605709 71.882435 
L 247.753325 70.826023 
L 248.060733 65.589215 
L 248.430535 60.183992 
L 248.525648 59.825732 
L 248.58576 59.905149 
L 248.680113 60.404383 
L 248.963171 64.237967 
L 249.433413 70.288698 
L 249.527765 70.436585 
L 249.574942 70.333497 
L 249.719515 69.332061 
L 249.910503 66.041883 
L 250.534448 54.807472 
L 250.542057 54.791398 
L 250.608256 54.910975 
L 250.704131 55.628288 
L 250.940013 59.565973 
L 251.455909 68.064451 
L 251.518304 68.223195 
L 251.578415 68.122374 
L 251.673529 67.501918 
L 251.916259 63.930499 
L 252.453461 56.498253 
L 252.51966 56.462196 
L 252.552379 56.548127 
L 252.656624 57.078075 
L 253.338398 60.432494 
L 253.349812 60.426499 
L 253.495145 60.152602 
L 253.756898 58.846408 
L 254.221814 56.701224 
L 254.346603 56.65997 
L 254.36106 56.680676 
L 254.517807 57.062343 
L 254.842715 58.648856 
L 255.163819 59.874816 
L 255.313718 59.95068 
L 255.327415 59.93757 
L 255.518403 59.498026 
L 256.248875 57.049475 
L 256.25268 57.052462 
L 256.442907 57.329278 
L 257.2236 59.606046 
L 257.269255 59.583326 
L 257.496766 59.139809 
L 258.126038 57.386099 
L 258.295721 57.438781 
L 258.429641 57.684167 
L 259.166201 59.329688 
L 259.176854 59.322798 
L 259.294034 59.06583 
L 259.462955 57.711496 
L 259.939285 52.984984 
L 260.003201 53.073722 
L 260.110489 53.711147 
L 260.33724 56.632515 
L 260.850854 63.051824 
L 260.918575 63.170849 
L 260.979447 63.080055 
L 261.095105 62.426767 
L 261.331748 59.637626 
L 261.808838 54.38212 
L 261.884929 54.241836 
L 261.947324 54.316959 
L 262.050807 54.797776 
L 262.277558 57.041486 
L 262.791172 61.976869 
L 262.880198 62.062115 
L 262.92357 61.992767 
L 263.04912 61.410624 
L 263.347396 58.525037 
L 263.74383 55.327064 
L 263.857966 55.216881 
L 263.891446 55.270099 
L 263.988082 55.617899 
L 264.220159 57.378122 
L 264.735295 61.158788 
L 264.821277 61.217924 
L 264.860084 61.171767 
L 264.975742 60.787752 
L 265.207819 59.1807 
L 265.698605 56.017677 
L 265.798285 55.95526 
L 265.83633 56.001172 
L 266.029601 56.749086 
L 266.473972 60.270781 
L 267.078895 65.417918 
L 267.081177 65.417349 
L 267.185422 65.253596 
L 267.34293 64.33349 
L 268.080251 58.908175 
L 268.102317 58.943395 
L 268.202757 59.229221 
L 268.477445 61.220662 
L 268.944644 64.516084 
L 269.05041 64.612599 
L 269.095304 64.556882 
L 269.487933 63.633149 
L 269.564024 63.742981 
L 269.831103 64.821789 
L 270.197861 66.702619 
L 270.455809 67.106355 
L 270.45657 67.106054 
L 270.572989 66.925154 
L 270.813436 65.997046 
L 271.183999 64.380283 
L 271.390205 64.048222 
L 271.396293 64.058195 
L 271.557605 64.494325 
L 271.771421 66.709516 
L 272.263729 72.920294 
L 272.399932 73.367185 
L 272.452435 73.28633 
L 272.697447 71.554548 
L 273.367808 65.20577 
L 273.408897 65.303374 
L 273.60369 67.355019 
L 274.335685 78.997921 
L 274.345576 78.985762 
L 274.4658 78.374545 
L 274.772446 73.62578 
L 275.134639 67.969531 
L 275.19399 67.764159 
L 275.253341 67.935033 
L 275.355303 68.841544 
L 275.649014 74.906715 
L 276.10632 83.211831 
L 276.165671 83.389941 
L 276.225783 83.239374 
L 276.269915 82.989172 
L 276.390139 81.610133 
L 276.981365 73.004077 
L 277.063544 73.271026 
L 277.325296 76.645253 
L 277.821409 84.9091 
L 277.951525 85.432047 
L 277.97283 85.378155 
L 277.982722 85.390958 
L 278.032181 85.220111 
L 278.807547 80.933033 
L 278.821244 80.97652 
L 278.844071 80.948973 
L 279.043429 81.558913 
L 280.194685 89.840262 
L 280.196967 89.838921 
L 280.317952 89.536067 
L 280.898525 85.613867 
L 280.955594 85.765178 
L 281.091796 86.537609 
L 281.765962 94.07094 
L 281.769766 94.067744 
L 281.772049 94.066187 
L 281.816943 94.207938 
L 281.868685 94.28569 
L 281.922709 94.164361 
L 282.079456 93.840367 
L 281.939449 94.178606 
L 282.088587 93.862306 
L 282.093914 93.863154 
L 282.116741 93.75836 
L 282.14109 93.755516 
L 282.307729 93.378884 
L 282.331317 93.388433 
L 282.497195 93.14831 
L 282.500239 93.156391 
L 282.514696 93.194963 
L 282.572525 93.117056 
L 282.606766 93.125799 
L 282.610571 93.115638 
L 282.702641 93.206607 
L 282.723946 93.166862 
L 283.223103 94.340509 
L 283.672039 98.762894 
L 283.99923 100.50279 
L 284.089778 100.325651 
L 284.413925 98.575748 
L 284.588174 98.205779 
L 284.633067 98.28917 
L 285.303428 102.496827 
L 285.305711 102.494942 
L 285.307994 102.493671 
L 285.33006 102.660987 
L 286.129015 106.209139 
L 286.209671 106.13527 
L 286.604583 104.787899 
L 286.61904 104.849388 
L 286.641106 104.789272 
L 286.833616 105.473124 
L 287.538979 110.620981 
L 287.53974 110.620674 
L 287.554197 110.580651 
L 287.575503 110.696556 
L 287.599852 110.710968 
L 287.766491 111.214451 
L 287.779426 111.191147 
L 287.870735 111.529034 
L 288.034331 112.009257 
L 288.044984 111.978523 
L 288.047266 111.975279 
L 288.097486 112.135343 
L 288.222275 112.347826 
L 288.233689 112.306866 
L 288.239015 112.290958 
L 288.296845 112.395361 
L 288.331085 112.395455 
L 288.372935 112.387994 
L 288.353152 112.322271 
L 288.420112 112.329384 
L 288.545662 112.108667 
L 288.558597 112.14935 
L 288.605013 112.092997 
L 288.579903 112.046788 
L 288.612622 112.050307 
L 288.61947 112.020868 
L 288.706214 112.187389 
L 289.515821 117.515949 
L 289.731919 117.697806 
L 289.893232 118.079022 
L 290.465435 119.39431 
L 289.909972 118.050774 
L 290.483697 119.327191 
L 290.616856 119.385218 
L 290.627509 119.336431 
L 290.635118 119.302957 
L 290.722623 119.475882 
L 291.4569 124.212508 
L 291.467553 124.187338 
L 291.521577 124.379353 
L 291.605277 124.482201 
L 291.546687 124.365092 
L 291.644845 124.459411 
L 291.737675 124.368886 
L 291.781808 124.419018 
L 291.912685 124.702208 
L 291.924859 124.662212 
L 291.927142 124.662146 
L 291.946165 124.790918 
L 292.633265 126.677136 
L 291.963665 124.762806 
L 292.639353 126.66059 
L 292.650005 126.612878 
L 292.710878 126.809971 
L 292.728379 126.784128 
L 293.161336 129.61172 
L 293.435264 131.140884 
L 293.448199 131.107633 
L 293.470265 131.245599 
L 293.493854 131.234921 
L 293.58288 131.371472 
L 293.617882 131.347208 
L 293.659732 131.329166 
L 293.639187 131.253877 
L 293.675711 131.247785 
L 293.716039 131.259719 
L 293.696255 131.332652 
L 293.759411 131.317044 
L 293.929094 131.763011 
L 293.929855 131.762615 
L 293.941268 131.730732 
L 293.965617 131.889873 
L 293.977792 131.862349 
L 294.031055 132.110641 
L 294.196173 132.808894 
L 294.209869 132.792765 
L 294.572823 133.892051 
L 294.581954 133.857151 
L 294.588802 133.833964 
L 294.651196 134.05819 
L 294.667175 134.033381 
L 295.014911 136.144782 
L 295.224161 137.564731 
L 295.228726 137.556543 
L 295.232531 137.551999 
L 295.261445 137.757663 
L 295.275142 137.749986 
L 295.485153 138.340382 
L 295.496566 138.281087 
L 295.617551 138.168944 
L 295.521676 138.331645 
L 295.622877 138.183681 
L 295.752993 138.365853 
L 295.654835 138.17227 
L 295.761363 138.332254 
L 295.76745 138.315745 
L 295.829845 138.549323 
L 295.839736 138.51581 
L 295.84278 138.512821 
L 295.86789 138.668548 
L 295.887674 138.666705 
L 296.136491 139.806836 
L 296.141056 139.795542 
L 296.145622 139.788207 
L 296.192798 140.006294 
L 296.362481 140.734604 
L 296.376177 140.699779 
L 296.655431 141.323782 
L 296.870768 142.36915 
L 297.499279 145.274986 
L 297.512975 145.204546 
L 297.519063 145.190621 
L 297.576892 145.30866 
L 297.604285 145.30108 
L 297.731356 145.646787 
L 297.746575 145.61968 
L 298.065395 147.112096 
L 298.263993 147.90426 
L 298.27845 147.868907 
L 298.299755 148.009011 
L 298.323344 147.997244 
L 298.451176 148.241052 
L 298.461068 148.197186 
L 298.467916 148.176115 
L 298.528789 148.369825 
L 298.547812 148.34279 
L 299.401552 152.293944 
L 299.412205 152.235613 
L 299.495905 152.172938 
L 299.438075 152.26713 
L 299.527863 152.208347 
L 299.533189 152.196625 
L 299.593301 152.36398 
L 299.613085 152.327492 
L 300.35421 155.33105 
L 300.358015 155.321485 
L 300.370189 155.272192 
L 300.428779 155.399427 
L 300.456933 155.385326 
L 300.622811 155.907883 
L 300.624333 155.90589 
L 300.631942 155.889168 
L 300.660856 156.085864 
L 300.673792 156.081152 
L 300.915 157.575784 
L 301.094575 158.536969 
L 301.304585 159.255138 
L 301.325891 159.200609 
L 301.456767 159.352749 
L 301.466659 159.30932 
L 301.471985 159.300484 
L 301.526771 159.490994 
L 301.80222 160.643964 
L 301.545794 159.479452 
L 301.805264 160.637816 
L 301.809829 160.631852 
L 301.839505 160.841522 
L 301.850918 160.834503 
L 301.984077 161.573051 
L 302.180392 162.300895 
L 302.184196 162.290897 
L 302.194088 162.259441 
L 302.254961 162.447539 
L 302.276266 162.397393 
L 302.406382 162.516992 
L 302.41323 162.490232 
L 302.423122 162.455839 
L 302.483995 162.640481 
L 302.5053 162.627167 
L 303.131528 165.929804 
L 303.138376 165.910259 
L 303.142942 165.904435 
L 303.193162 166.072826 
L 303.319473 166.322983 
L 303.328604 166.275888 
L 303.375019 166.250554 
L 303.426761 166.354842 
L 303.588074 166.795214 
L 303.448827 166.333239 
L 303.5934 166.780474 
L 303.597965 166.77398 
L 303.644381 166.960113 
L 304.082665 169.155532 
L 304.091795 169.131427 
L 304.0956 169.133019 
L 304.111579 169.241999 
L 304.232564 169.545987 
L 304.249304 169.491708 
L 304.569646 169.836312 
L 304.933361 171.705686 
L 305.335121 173.377828 
L 305.346535 173.325553 
L 305.429474 173.313522 
L 305.372405 173.395109 
L 305.444692 173.384716 
L 305.641767 173.814567 
L 305.465236 173.334282 
L 305.653181 173.796915 
L 305.710249 174.090904 
L 305.946892 175.301923 
L 305.951457 175.295144 
L 305.955262 175.296197 
L 305.972763 175.410867 
L 306.136358 176.187179 
L 306.147772 176.168862 
L 306.239842 176.481887 
L 306.361587 176.684097 
L 306.368435 176.654857 
L 306.45594 176.597417 
L 306.398872 176.688576 
L 306.482572 176.643494 
L 306.492464 176.615393 
L 306.552575 176.772026 
L 306.573881 176.755473 
L 307.426099 180.44615 
L 307.439795 180.380717 
L 307.483167 180.360622 
L 307.463384 180.430104 
L 307.534909 180.441501 
L 307.6947 180.836761 
L 307.556215 180.41833 
L 307.700026 180.824876 
L 307.704592 180.821183 
L 307.732745 180.984175 
L 307.744159 180.975203 
L 307.829381 181.370517 
L 308.189291 183.244539 
L 308.193856 183.235417 
L 308.199183 183.230613 
L 308.226575 183.384472 
L 308.244837 183.380329 
L 308.453326 183.783442 
L 308.457131 183.771446 
L 308.584964 183.657219 
L 308.587246 183.658662 
L 308.755407 184.084174 
L 309.517838 187.530713 
L 309.520121 187.52784 
L 309.65328 187.366658 
L 309.668498 187.415531 
L 309.685238 187.352173 
L 309.855682 187.646237 
L 310.092325 188.709623 
L 310.094607 188.708375 
L 310.116674 188.816811 
L 310.357882 190.155264 
L 310.360925 190.1514 
L 310.366252 190.15243 
L 310.386796 190.271637 
L 310.545826 190.808065 
L 310.54887 190.802739 
L 310.560284 190.777862 
L 310.621156 190.913553 
L 310.646266 190.874926 
L 310.696486 190.920546 
L 310.748228 190.828258 
L 310.7916 190.825295 
L 310.810623 190.896204 
L 310.839537 190.892459 
L 311.498485 194.022186 
L 311.504572 194.015153 
L 311.52816 194.121429 
L 311.649145 194.452678 
L 311.674255 194.442357 
L 311.761759 194.518048 
L 311.798283 194.488559 
L 311.83785 194.434183 
L 311.818066 194.40798 
L 311.845459 194.389301 
L 312.00525 194.084529 
L 312.0471 194.092577 
L 312.027316 194.13632 
L 312.091233 194.154578 
L 312.556148 196.623436 
L 312.753985 197.755405 
L 312.760072 197.753846 
L 312.814857 197.959419 
L 312.979214 198.299036 
L 312.980735 198.296648 
L 313.15194 198.077989 
L 313.159549 198.090618 
L 313.186181 198.073252 
L 313.770559 200.365705 
L 313.969917 201.183367 
L 313.971439 201.180542 
L 313.979809 201.172301 
L 314.035355 201.306511 
L 314.157862 201.435597 
L 314.165471 201.405781 
L 314.333632 201.146646 
L 314.195146 201.416813 
L 314.341241 201.156902 
L 314.462986 201.213263 
L 314.367112 201.111645 
L 314.4744 201.196362 
L 314.523098 201.31494 
L 314.902792 203.482047 
L 315.224656 205.219411 
L 315.231505 205.211319 
L 315.284007 205.309809 
L 315.375316 205.410106 
L 315.417927 205.361969 
L 315.669027 204.608445 
L 315.672832 204.611027 
L 315.678158 204.618325 
L 315.732944 204.507742 
L 315.775555 204.503748 
L 315.754249 204.539262 
L 315.823492 204.571406 
L 316.350041 207.592947 
L 316.624729 208.939661 
L 316.744192 209.069906 
L 316.753323 209.037785 
L 317.14443 208.064794 
L 317.181715 208.085076 
L 317.305743 208.403226 
L 318.075783 212.568399 
L 318.084153 212.550525 
L 318.113067 212.582379 
L 318.367972 211.885364 
L 318.590157 211.211438 
L 318.66777 211.304643 
L 318.861802 212.218119 
L 319.484225 216.387425 
L 319.488791 216.382904 
L 319.519988 216.440031 
L 319.717825 216.126842 
L 320.151543 213.956712 
L 320.188066 213.968536 
L 320.300681 214.311285 
L 320.507648 215.946502 
L 320.953541 220.154767 
L 321.118658 220.686223 
L 321.142246 220.663805 
L 321.194749 220.622507 
L 321.207685 220.570892 
L 321.402477 219.554594 
L 321.854457 216.490508 
L 321.902395 216.578679 
L 322.053055 217.517331 
L 322.399268 221.911974 
L 322.723415 224.935811 
L 322.829943 225.097531 
L 322.874075 225.010295 
L 323.074955 223.726704 
L 323.654007 218.099211 
L 323.740751 218.33127 
L 323.927174 220.351385 
L 324.618079 230.322031 
L 324.639385 230.310561 
L 324.700257 230.171075 
L 324.865375 228.760086 
L 325.235176 222.81601 
L 325.533453 219.729262 
L 325.594325 219.605394 
L 325.655959 219.687221 
L 325.751834 220.1942 
L 325.938256 222.69957 
L 326.638293 235.33248 
L 326.687752 235.261353 
L 326.793518 234.525628 
L 327.018747 230.823824 
L 327.543775 222.018588 
L 327.613778 221.846843 
L 327.673129 221.956085 
L 327.784983 222.762575 
L 328.007929 226.149359 
L 328.532195 233.589274 
L 328.585459 233.668536 
L 328.642527 233.576209 
L 328.779491 232.850902 
L 329.399632 229.648159 
L 329.50692 229.718652 
L 329.663667 230.223756 
L 330.107277 232.742277 
L 330.371313 233.467411 
L 330.484688 233.392954 
L 330.650566 232.894903 
L 331.377235 230.116559 
L 331.425172 230.146625 
L 331.571266 230.453044 
L 331.877152 231.760238 
L 332.256085 233.014867 
L 332.396853 233.028609 
L 332.407505 233.018166 
L 332.567296 232.688104 
L 332.959165 231.17391 
L 333.260485 230.489362 
L 333.402014 230.538222 
L 333.585393 230.935407 
L 334.304452 232.734352 
L 334.305974 232.733823 
L 334.456634 232.562173 
L 334.730561 231.81513 
L 335.168084 230.784663 
L 335.337005 230.798025 
L 335.528755 231.114705 
L 336.246292 232.490729 
L 336.416735 232.329504 
L 336.737078 231.622427 
L 337.117533 230.987802 
L 337.300912 231.020426 
L 337.526902 231.354214 
L 338.133346 232.305629 
L 338.321291 232.219895 
L 338.605871 231.772234 
L 339.060895 231.147621 
L 339.265579 231.19067 
L 339.534941 231.536769 
L 340.045511 232.1564 
L 340.260848 232.096465 
L 340.572821 231.71319 
L 341.011865 231.268787 
L 341.24166 231.32777 
L 341.587874 231.71337 
L 341.99496 232.048407 
L 342.240734 231.974973 
L 342.469767 231.676256 
L 342.64782 230.536598 
L 343.352422 224.904213 
L 343.424708 225.006879 
L 343.555585 225.607965 
L 343.913973 228.81564 
L 344.262469 230.942311 
L 344.324864 230.991775 
L 344.382693 230.922007 
L 344.515852 230.431684 
L 344.904676 227.394159 
L 345.215888 225.720277 
L 345.382527 225.637299 
L 345.470793 225.537685 
L 346.281161 223.68581 
L 346.411276 223.764477 
L 347.29317 225.420998 
L 347.308388 225.402941 
L 347.532095 225.122829 
L 347.680473 224.447014 
L 348.075385 220.061765 
L 348.407902 217.55229 
L 348.487036 217.500088 
L 348.52356 217.556767 
L 348.614869 217.906002 
L 348.913145 220.533687 
L 349.338494 224.058588 
L 349.423715 224.222422 
L 349.476218 224.15988 
L 349.593398 223.405217 
L 349.818627 219.919948 
L 350.330719 211.882983 
L 350.427355 211.688693 
L 350.47377 211.802217 
L 350.619865 212.955575 
L 350.896835 217.334113 
L 351.249136 221.919941 
L 351.287943 221.950505 
L 351.334358 221.803778 
L 351.506324 219.891046 
L 351.763511 214.282422 
L 352.162227 207.331987 
L 352.25658 207.038911 
L 352.309083 207.185197 
L 352.502354 209.241961 
L 353.022055 216.973003 
L 353.07684 217.027216 
L 353.116407 216.912681 
L 353.318809 214.803817 
L 354.012758 204.711151 
L 354.033303 204.729648 
L 354.043955 204.717786 
L 354.095697 204.867189 
L 354.865737 209.295287 
L 354.874868 209.263836 
L 355.214234 207.899921 
L 356.002535 201.193175 
L 356.097649 200.631181 
L 356.252875 200.340903 
L 356.259723 200.348991 
L 356.45832 201.118213 
L 356.88519 204.436168 
L 356.887473 204.432238 
L 356.895843 204.426584 
L 356.921714 204.519073 
L 356.957476 204.532248 
L 356.958998 204.533235 
L 357.006175 204.420689 
L 357.281624 202.094278 
L 357.882742 195.801907 
L 357.928396 195.765624 
L 357.979377 195.867451 
L 358.217542 196.774763 
L 358.223629 196.766962 
L 358.238086 196.800068 
L 358.248739 196.873195 
L 358.406247 197.306301 
L 358.40853 197.302965 
L 358.419944 197.28224 
L 358.481577 197.421867 
L 358.5006 197.38706 
L 358.633759 197.453656 
L 358.648977 197.39055 
L 358.670283 197.420564 
L 359.070521 196.310091 
L 359.369558 194.906883 
L 359.950893 190.084687 
L 360.097748 189.881331 
L 359.962306 190.092674 
L 360.147207 189.98358 
L 360.500269 191.725631 
L 360.510922 191.705431 
L 360.536032 191.814186 
L 360.612884 191.88174 
L 360.550489 191.78347 
L 360.658538 191.811675 
L 361.591413 186.714852 
L 361.598261 186.726 
L 361.599783 186.726357 
L 361.616523 186.603084 
L 362.009152 184.845832 
L 362.015239 184.854921 
L 362.018283 184.859855 
L 362.067742 184.65877 
L 362.221445 184.341013 
L 362.305906 184.296002 
L 362.248077 184.368214 
L 362.339386 184.318628 
L 362.343952 184.317259 
L 362.362975 184.400226 
L 362.395694 184.424039 
L 362.555485 184.839466 
L 362.416238 184.416802 
L 362.557006 184.838197 
L 362.569181 184.8121 
L 362.626249 184.95627 
L 362.667338 184.968399 
L 362.717558 184.853975 
L 363.253238 181.307792 
L 363.492164 179.952044 
L 363.503577 179.972766 
L 364.053715 178.672015 
L 364.327642 177.861369 
L 364.330685 177.865239 
L 364.340577 177.897794 
L 364.395363 177.735994 
L 364.514065 177.623587 
L 364.416668 177.771036 
L 364.527761 177.677277 
L 364.647224 177.7446 
L 364.550588 177.619488 
L 364.651028 177.735515 
L 364.663964 177.693986 
L 364.722554 177.805181 
L 364.756795 177.772889 
L 364.760599 177.779449 
L 364.821472 177.587158 
L 364.832885 177.611918 
L 364.880062 177.433709 
L 365.170729 175.46426 
L 365.201165 175.189133 
L 365.693474 172.741672 
L 365.700322 172.758704 
L 365.750542 172.81752 
L 365.803045 172.713091 
L 366.118061 171.922261 
L 365.825111 172.755501 
L 366.129475 171.943594 
L 366.264155 171.377524 
L 366.608847 170.514128 
L 366.280135 171.390189 
L 366.621783 170.567782 
L 366.625587 170.573675 
L 366.682655 170.473523 
L 366.713092 170.48697 
L 367.635314 165.833503 
L 366.738963 170.516938 
L 367.636835 165.834664 
L 367.806518 166.003927 
L 367.82478 165.921919 
L 367.934351 165.805444 
L 368.363504 164.205286 
L 367.955656 165.830489 
L 368.372635 164.224142 
L 368.387853 164.109728 
L 368.551448 163.508534 
L 368.560579 163.535819 
L 368.564384 163.543765 
L 368.621452 163.334587 
L 368.641235 163.373003 
L 369.116043 161.28767 
L 369.464539 159.23251 
L 369.475953 159.259071 
L 369.531499 159.042227 
L 369.650962 158.906629 
L 369.554326 159.061911 
L 369.660093 158.937949 
L 369.784882 159.063366 
L 369.687485 158.930317 
L 369.787925 159.057481 
L 370.643187 156.05449 
L 370.647753 156.064451 
L 370.659166 156.113309 
L 370.7208 155.89933 
L 370.724605 155.904763 
L 370.733735 155.934663 
L 370.783195 155.719316 
L 370.990923 154.541012 
L 371.012228 154.414907 
L 371.219195 153.038359 
L 371.220717 153.0392 
L 371.226044 153.046463 
L 371.245066 152.876227 
L 371.443664 152.039991 
L 371.445185 152.041516 
L 371.45736 152.084669 
L 371.510624 151.930945 
L 371.554756 151.890449 
L 371.611064 151.996314 
L 371.764006 152.087522 
L 371.627804 151.935829 
L 371.777703 152.005184 
L 371.977822 151.499018 
L 371.80053 152.049743 
L 371.98467 151.517618 
L 371.988475 151.524132 
L 372.036412 151.30869 
L 372.245662 150.213757 
L 372.247184 150.214848 
L 372.254032 150.228152 
L 372.275337 150.049525 
L 372.546221 148.993085 
L 372.613942 148.884731 
L 372.777537 148.484643 
L 372.638291 148.925399 
L 372.787429 148.509313 
L 372.804169 148.381544 
L 373.05603 147.00569 
L 373.571165 144.934801 
L 373.580296 144.973054 
L 373.581818 144.986788 
L 373.581818 144.986788 
" clip-path="url(#p61f76788c2)" style="fill: none; stroke: #1f77b4; stroke-width: 1.5; stroke-linecap: square"/>
   </g>
   <g id="patch_3">
    <path d="M 54 252 
L 54 34.56 
" style="fill: none; stroke: #000000; stroke-width: 0.8; stroke-linejoin: miter; stroke-linecap: square"/>
   </g>
   <g id="patch_4">
    <path d="M 388.8 252 
L 388.8 34.56 
" style="fill: none; stroke: #000000; stroke-width: 0.8; stroke-linejoin: miter; stroke-linecap: square"/>
   </g>
   <g id="patch_5">
    <path d="M 54 252 
L 388.8 252 
" style="fill: none; stroke: #000000; stroke-width: 0.8; stroke-linejoin: miter; stroke-linecap: square"/>
   </g>
   <g id="patch_6">
    <path d="M 54 34.56 
L 388.8 34.56 
" style="fill: none; stroke: #000000; stroke-width: 0.8; stroke-linejoin: miter; stroke-linecap: square"/>
   </g>
   <g id="text_21">
    <!-- Tension aux bornes de la charge -->
    <g transform="translate(124.482188 28.56) scale(0.12 -0.12)">
     <defs>
      <path id="DejaVuSans-61" d="M 2194 1759 
Q 1497 1759 1228 1600 
Q 959 1441 959 1056 
Q 959 750 1161 570 
Q 1363 391 1709 391 
Q 2188 391 2477 730 
Q 2766 1069 2766 1631 
L 2766 1759 
L 2194 1759 
z
M 3341 1997 
L 3341 0 
L 2766 0 
L 2766 531 
Q 2569 213 2275 61 
Q 1981 -91 1556 -91 
Q 1019 -91 701 211 
Q 384 513 384 1019 
Q 384 1609 779 1909 
Q 1175 2209 1959 2209 
L 2766 2209 
L 2766 2266 
Q 2766 2663 2505 2880 
Q 2244 3097 1772 3097 
Q 1472 3097 1187 3025 
Q 903 2953 641 2809 
L 641 3341 
Q 956 3463 1253 3523 
Q 1550 3584 1831 3584 
Q 2591 3584 2966 3190 
Q 3341 2797 3341 1997 
z
" transform="scale(0.015625)"/>
      <path id="DejaVuSans-75" d="M 544 1381 
L 544 3500 
L 1119 3500 
L 1119 1403 
Q 1119 906 1312 657 
Q 1506 409 1894 409 
Q 2359 409 2629 706 
Q 2900 1003 2900 1516 
L 2900 3500 
L 3475 3500 
L 3475 0 
L 2900 0 
L 2900 538 
Q 2691 219 2414 64 
Q 2138 -91 1772 -91 
Q 1169 -91 856 284 
Q 544 659 544 1381 
z
M 1991 3584 
L 1991 3584 
z
" transform="scale(0.015625)"/>
      <path id="DejaVuSans-78" d="M 3513 3500 
L 2247 1797 
L 3578 0 
L 2900 0 
L 1881 1375 
L 863 0 
L 184 0 
L 1544 1831 
L 300 3500 
L 978 3500 
L 1906 2253 
L 2834 3500 
L 3513 3500 
z
" transform="scale(0.015625)"/>
      <path id="DejaVuSans-62" d="M 3116 1747 
Q 3116 2381 2855 2742 
Q 2594 3103 2138 3103 
Q 1681 3103 1420 2742 
Q 1159 2381 1159 1747 
Q 1159 1113 1420 752 
Q 1681 391 2138 391 
Q 2594 391 2855 752 
Q 3116 1113 3116 1747 
z
M 1159 2969 
Q 1341 3281 1617 3432 
Q 1894 3584 2278 3584 
Q 2916 3584 3314 3078 
Q 3713 2572 3713 1747 
Q 3713 922 3314 415 
Q 2916 -91 2278 -91 
Q 1894 -91 1617 61 
Q 1341 213 1159 525 
L 1159 0 
L 581 0 
L 581 4863 
L 1159 4863 
L 1159 2969 
z
" transform="scale(0.015625)"/>
      <path id="DejaVuSans-72" d="M 2631 2963 
Q 2534 3019 2420 3045 
Q 2306 3072 2169 3072 
Q 1681 3072 1420 2755 
Q 1159 2438 1159 1844 
L 1159 0 
L 581 0 
L 581 3500 
L 1159 3500 
L 1159 2956 
Q 1341 3275 1631 3429 
Q 1922 3584 2338 3584 
Q 2397 3584 2469 3576 
Q 2541 3569 2628 3553 
L 2631 2963 
z
" transform="scale(0.015625)"/>
      <path id="DejaVuSans-64" d="M 2906 2969 
L 2906 4863 
L 3481 4863 
L 3481 0 
L 2906 0 
L 2906 525 
Q 2725 213 2448 61 
Q 2172 -91 1784 -91 
Q 1150 -91 751 415 
Q 353 922 353 1747 
Q 353 2572 751 3078 
Q 1150 3584 1784 3584 
Q 2172 3584 2448 3432 
Q 2725 3281 2906 2969 
z
M 947 1747 
Q 947 1113 1208 752 
Q 1469 391 1925 391 
Q 2381 391 2643 752 
Q 2906 1113 2906 1747 
Q 2906 2381 2643 2742 
Q 2381 3103 1925 3103 
Q 1469 3103 1208 2742 
Q 947 2381 947 1747 
z
" transform="scale(0.015625)"/>
      <path id="DejaVuSans-6c" d="M 603 4863 
L 1178 4863 
L 1178 0 
L 603 0 
L 603 4863 
z
" transform="scale(0.015625)"/>
      <path id="DejaVuSans-63" d="M 3122 3366 
L 3122 2828 
Q 2878 2963 2633 3030 
Q 2388 3097 2138 3097 
Q 1578 3097 1268 2742 
Q 959 2388 959 1747 
Q 959 1106 1268 751 
Q 1578 397 2138 397 
Q 2388 397 2633 464 
Q 2878 531 3122 666 
L 3122 134 
Q 2881 22 2623 -34 
Q 2366 -91 2075 -91 
Q 1284 -91 818 406 
Q 353 903 353 1747 
Q 353 2603 823 3093 
Q 1294 3584 2113 3584 
Q 2378 3584 2631 3529 
Q 2884 3475 3122 3366 
z
" transform="scale(0.015625)"/>
      <path id="DejaVuSans-68" d="M 3513 2113 
L 3513 0 
L 2938 0 
L 2938 2094 
Q 2938 2591 2744 2837 
Q 2550 3084 2163 3084 
Q 1697 3084 1428 2787 
Q 1159 2491 1159 1978 
L 1159 0 
L 581 0 
L 581 4863 
L 1159 4863 
L 1159 2956 
Q 1366 3272 1645 3428 
Q 1925 3584 2291 3584 
Q 2894 3584 3203 3211 
Q 3513 2838 3513 2113 
z
" transform="scale(0.015625)"/>
      <path id="DejaVuSans-67" d="M 2906 1791 
Q 2906 2416 2648 2759 
Q 2391 3103 1925 3103 
Q 1463 3103 1205 2759 
Q 947 2416 947 1791 
Q 947 1169 1205 825 
Q 1463 481 1925 481 
Q 2391 481 2648 825 
Q 2906 1169 2906 1791 
z
M 3481 434 
Q 3481 -459 3084 -895 
Q 2688 -1331 1869 -1331 
Q 1566 -1331 1297 -1286 
Q 1028 -1241 775 -1147 
L 775 -588 
Q 1028 -725 1275 -790 
Q 1522 -856 1778 -856 
Q 2344 -856 2625 -561 
Q 2906 -266 2906 331 
L 2906 616 
Q 2728 306 2450 153 
Q 2172 0 1784 0 
Q 1141 0 747 490 
Q 353 981 353 1791 
Q 353 2603 747 3093 
Q 1141 3584 1784 3584 
Q 2172 3584 2450 3431 
Q 2728 3278 2906 2969 
L 2906 3500 
L 3481 3500 
L 3481 434 
z
" transform="scale(0.015625)"/>
     </defs>
     <use xlink:href="#DejaVuSans-54"/>
     <use xlink:href="#DejaVuSans-65" x="44.083984"/>
     <use xlink:href="#DejaVuSans-6e" x="105.607422"/>
     <use xlink:href="#DejaVuSans-73" x="168.986328"/>
     <use xlink:href="#DejaVuSans-69" x="221.085938"/>
     <use xlink:href="#DejaVuSans-6f" x="248.869141"/>
     <use xlink:href="#DejaVuSans-6e" x="310.050781"/>
     <use xlink:href="#DejaVuSans-20" x="373.429688"/>
     <use xlink:href="#DejaVuSans-61" x="405.216797"/>
     <use xlink:href="#DejaVuSans-75" x="466.496094"/>
     <use xlink:href="#DejaVuSans-78" x="529.875"/>
     <use xlink:href="#DejaVuSans-20" x="589.054688"/>
     <use xlink:href="#DejaVuSans-62" x="620.841797"/>
     <use xlink:href="#DejaVuSans-6f" x="684.318359"/>
     <use xlink:href="#DejaVuSans-72" x="745.5"/>
     <use xlink:href="#DejaVuSans-6e" x="784.863281"/>
     <use xlink:href="#DejaVuSans-65" x="848.242188"/>
     <use xlink:href="#DejaVuSans-73" x="909.765625"/>
     <use xlink:href="#DejaVuSans-20" x="961.865234"/>
     <use xlink:href="#DejaVuSans-64" x="993.652344"/>
     <use xlink:href="#DejaVuSans-65" x="1057.128906"/>
     <use xlink:href="#DejaVuSans-20" x="1118.652344"/>
     <use xlink:href="#DejaVuSans-6c" x="1150.439453"/>
     <use xlink:href="#DejaVuSans-61" x="1178.222656"/>
     <use xlink:href="#DejaVuSans-20" x="1239.501953"/>
     <use xlink:href="#DejaVuSans-63" x="1271.289062"/>
     <use xlink:href="#DejaVuSans-68" x="1326.269531"/>
     <use xlink:href="#DejaVuSans-61" x="1389.648438"/>
     <use xlink:href="#DejaVuSans-72" x="1450.927734"/>
     <use xlink:href="#DejaVuSans-67" x="1490.291016"/>
     <use xlink:href="#DejaVuSans-65" x="1553.767578"/>
    </g>
   </g>
   <g id="legend_1">
    <g id="patch_7">
     <path d="M 337.60625 57.238125 
L 381.8 57.238125 
Q 383.8 57.238125 383.8 55.238125 
L 383.8 41.56 
Q 383.8 39.56 381.8 39.56 
L 337.60625 39.56 
Q 335.60625 39.56 335.60625 41.56 
L 335.60625 55.238125 
Q 335.60625 57.238125 337.60625 57.238125 
z
" style="fill: #ffffff; opacity: 0.8; stroke: #cccccc; stroke-linejoin: miter"/>
    </g>
    <g id="line2d_38">
     <path d="M 339.60625 47.658437 
L 349.60625 47.658437 
L 359.60625 47.658437 
" style="fill: none; stroke: #1f77b4; stroke-width: 1.5; stroke-linecap: square"/>
    </g>
    <g id="text_22">
     <!-- Va -->
     <g transform="translate(367.60625 51.158437) scale(0.1 -0.1)">
      <use xlink:href="#DejaVuSans-56"/>
      <use xlink:href="#DejaVuSans-61" x="60.658203"/>
     </g>
    </g>
   </g>
  </g>
 </g>
 <defs>
  <clipPath id="p61f76788c2">
   <rect x="54" y="34.56" width="334.8" height="217.44"/>
  </clipPath>
 </defs>
</svg>
