<?xml version="1.0" encoding="utf-8" standalone="no"?>
<!DOCTYPE svg PUBLIC "-//W3C//DTD SVG 1.1//EN"
  "http://www.w3.org/Graphics/SVG/1.1/DTD/svg11.dtd">
<svg xmlns:xlink="http://www.w3.org/1999/xlink" width="432pt" height="288pt" viewBox="0 0 432 288" xmlns="http://www.w3.org/2000/svg" version="1.1">
 <metadata>
  <rdf:RDF xmlns:dc="http://purl.org/dc/elements/1.1/" xmlns:cc="http://creativecommons.org/ns#" xmlns:rdf="http://www.w3.org/1999/02/22-rdf-syntax-ns#">
   <cc:Work>
    <dc:type rdf:resource="http://purl.org/dc/dcmitype/StillImage"/>
    <dc:date>2024-05-29T16:27:56.999794</dc:date>
    <dc:format>image/svg+xml</dc:format>
    <dc:creator>
     <cc:Agent>
      <dc:title>Matplotlib v3.8.3, https://matplotlib.org/</dc:title>
     </cc:Agent>
    </dc:creator>
   </cc:Work>
  </rdf:RDF>
 </metadata>
 <defs>
  <style type="text/css">*{stroke-linejoin: round; stroke-linecap: butt}</style>
 </defs>
 <g id="figure_1">
  <g id="patch_1">
   <path d="M 0 288 
L 432 288 
L 432 0 
L 0 0 
z
" style="fill: #ffffff"/>
  </g>
  <g id="axes_1">
   <g id="patch_2">
    <path d="M 54 252 
L 388.8 252 
L 388.8 34.56 
L 54 34.56 
z
" style="fill: #ffffff"/>
   </g>
   <g id="matplotlib.axis_1">
    <g id="xtick_1">
     <g id="line2d_1">
      <path d="M 69.218182 252 
L 69.218182 34.56 
" clip-path="url(#p6c7816c99d)" style="fill: none; stroke: #b0b0b0; stroke-width: 0.8; stroke-linecap: square"/>
     </g>
     <g id="line2d_2">
      <defs>
       <path id="m777b01fd64" d="M 0 0 
L 0 3.5 
" style="stroke: #000000; stroke-width: 0.8"/>
      </defs>
      <g>
       <use xlink:href="#m777b01fd64" x="69.218182" y="252" style="stroke: #000000; stroke-width: 0.8"/>
      </g>
     </g>
     <g id="text_1">
      <!-- 0.960 -->
      <g transform="translate(54.904119 266.598437) scale(0.1 -0.1)">
       <defs>
        <path id="DejaVuSans-30" d="M 2034 4250 
Q 1547 4250 1301 3770 
Q 1056 3291 1056 2328 
Q 1056 1369 1301 889 
Q 1547 409 2034 409 
Q 2525 409 2770 889 
Q 3016 1369 3016 2328 
Q 3016 3291 2770 3770 
Q 2525 4250 2034 4250 
z
M 2034 4750 
Q 2819 4750 3233 4129 
Q 3647 3509 3647 2328 
Q 3647 1150 3233 529 
Q 2819 -91 2034 -91 
Q 1250 -91 836 529 
Q 422 1150 422 2328 
Q 422 3509 836 4129 
Q 1250 4750 2034 4750 
z
" transform="scale(0.015625)"/>
        <path id="DejaVuSans-2e" d="M 684 794 
L 1344 794 
L 1344 0 
L 684 0 
L 684 794 
z
" transform="scale(0.015625)"/>
        <path id="DejaVuSans-39" d="M 703 97 
L 703 672 
Q 941 559 1184 500 
Q 1428 441 1663 441 
Q 2288 441 2617 861 
Q 2947 1281 2994 2138 
Q 2813 1869 2534 1725 
Q 2256 1581 1919 1581 
Q 1219 1581 811 2004 
Q 403 2428 403 3163 
Q 403 3881 828 4315 
Q 1253 4750 1959 4750 
Q 2769 4750 3195 4129 
Q 3622 3509 3622 2328 
Q 3622 1225 3098 567 
Q 2575 -91 1691 -91 
Q 1453 -91 1209 -44 
Q 966 3 703 97 
z
M 1959 2075 
Q 2384 2075 2632 2365 
Q 2881 2656 2881 3163 
Q 2881 3666 2632 3958 
Q 2384 4250 1959 4250 
Q 1534 4250 1286 3958 
Q 1038 3666 1038 3163 
Q 1038 2656 1286 2365 
Q 1534 2075 1959 2075 
z
" transform="scale(0.015625)"/>
        <path id="DejaVuSans-36" d="M 2113 2584 
Q 1688 2584 1439 2293 
Q 1191 2003 1191 1497 
Q 1191 994 1439 701 
Q 1688 409 2113 409 
Q 2538 409 2786 701 
Q 3034 994 3034 1497 
Q 3034 2003 2786 2293 
Q 2538 2584 2113 2584 
z
M 3366 4563 
L 3366 3988 
Q 3128 4100 2886 4159 
Q 2644 4219 2406 4219 
Q 1781 4219 1451 3797 
Q 1122 3375 1075 2522 
Q 1259 2794 1537 2939 
Q 1816 3084 2150 3084 
Q 2853 3084 3261 2657 
Q 3669 2231 3669 1497 
Q 3669 778 3244 343 
Q 2819 -91 2113 -91 
Q 1303 -91 875 529 
Q 447 1150 447 2328 
Q 447 3434 972 4092 
Q 1497 4750 2381 4750 
Q 2619 4750 2861 4703 
Q 3103 4656 3366 4563 
z
" transform="scale(0.015625)"/>
       </defs>
       <use xlink:href="#DejaVuSans-30"/>
       <use xlink:href="#DejaVuSans-2e" x="63.623047"/>
       <use xlink:href="#DejaVuSans-39" x="95.410156"/>
       <use xlink:href="#DejaVuSans-36" x="159.033203"/>
       <use xlink:href="#DejaVuSans-30" x="222.65625"/>
      </g>
     </g>
    </g>
    <g id="xtick_2">
     <g id="line2d_3">
      <path d="M 107.263636 252 
L 107.263636 34.56 
" clip-path="url(#p6c7816c99d)" style="fill: none; stroke: #b0b0b0; stroke-width: 0.8; stroke-linecap: square"/>
     </g>
     <g id="line2d_4">
      <g>
       <use xlink:href="#m777b01fd64" x="107.263636" y="252" style="stroke: #000000; stroke-width: 0.8"/>
      </g>
     </g>
     <g id="text_2">
      <!-- 0.965 -->
      <g transform="translate(92.949574 266.598437) scale(0.1 -0.1)">
       <defs>
        <path id="DejaVuSans-35" d="M 691 4666 
L 3169 4666 
L 3169 4134 
L 1269 4134 
L 1269 2991 
Q 1406 3038 1543 3061 
Q 1681 3084 1819 3084 
Q 2600 3084 3056 2656 
Q 3513 2228 3513 1497 
Q 3513 744 3044 326 
Q 2575 -91 1722 -91 
Q 1428 -91 1123 -41 
Q 819 9 494 109 
L 494 744 
Q 775 591 1075 516 
Q 1375 441 1709 441 
Q 2250 441 2565 725 
Q 2881 1009 2881 1497 
Q 2881 1984 2565 2268 
Q 2250 2553 1709 2553 
Q 1456 2553 1204 2497 
Q 953 2441 691 2322 
L 691 4666 
z
" transform="scale(0.015625)"/>
       </defs>
       <use xlink:href="#DejaVuSans-30"/>
       <use xlink:href="#DejaVuSans-2e" x="63.623047"/>
       <use xlink:href="#DejaVuSans-39" x="95.410156"/>
       <use xlink:href="#DejaVuSans-36" x="159.033203"/>
       <use xlink:href="#DejaVuSans-35" x="222.65625"/>
      </g>
     </g>
    </g>
    <g id="xtick_3">
     <g id="line2d_5">
      <path d="M 145.309091 252 
L 145.309091 34.56 
" clip-path="url(#p6c7816c99d)" style="fill: none; stroke: #b0b0b0; stroke-width: 0.8; stroke-linecap: square"/>
     </g>
     <g id="line2d_6">
      <g>
       <use xlink:href="#m777b01fd64" x="145.309091" y="252" style="stroke: #000000; stroke-width: 0.8"/>
      </g>
     </g>
     <g id="text_3">
      <!-- 0.970 -->
      <g transform="translate(130.995028 266.598437) scale(0.1 -0.1)">
       <defs>
        <path id="DejaVuSans-37" d="M 525 4666 
L 3525 4666 
L 3525 4397 
L 1831 0 
L 1172 0 
L 2766 4134 
L 525 4134 
L 525 4666 
z
" transform="scale(0.015625)"/>
       </defs>
       <use xlink:href="#DejaVuSans-30"/>
       <use xlink:href="#DejaVuSans-2e" x="63.623047"/>
       <use xlink:href="#DejaVuSans-39" x="95.410156"/>
       <use xlink:href="#DejaVuSans-37" x="159.033203"/>
       <use xlink:href="#DejaVuSans-30" x="222.65625"/>
      </g>
     </g>
    </g>
    <g id="xtick_4">
     <g id="line2d_7">
      <path d="M 183.354545 252 
L 183.354545 34.56 
" clip-path="url(#p6c7816c99d)" style="fill: none; stroke: #b0b0b0; stroke-width: 0.8; stroke-linecap: square"/>
     </g>
     <g id="line2d_8">
      <g>
       <use xlink:href="#m777b01fd64" x="183.354545" y="252" style="stroke: #000000; stroke-width: 0.8"/>
      </g>
     </g>
     <g id="text_4">
      <!-- 0.975 -->
      <g transform="translate(169.040483 266.598437) scale(0.1 -0.1)">
       <use xlink:href="#DejaVuSans-30"/>
       <use xlink:href="#DejaVuSans-2e" x="63.623047"/>
       <use xlink:href="#DejaVuSans-39" x="95.410156"/>
       <use xlink:href="#DejaVuSans-37" x="159.033203"/>
       <use xlink:href="#DejaVuSans-35" x="222.65625"/>
      </g>
     </g>
    </g>
    <g id="xtick_5">
     <g id="line2d_9">
      <path d="M 221.4 252 
L 221.4 34.56 
" clip-path="url(#p6c7816c99d)" style="fill: none; stroke: #b0b0b0; stroke-width: 0.8; stroke-linecap: square"/>
     </g>
     <g id="line2d_10">
      <g>
       <use xlink:href="#m777b01fd64" x="221.4" y="252" style="stroke: #000000; stroke-width: 0.8"/>
      </g>
     </g>
     <g id="text_5">
      <!-- 0.980 -->
      <g transform="translate(207.085938 266.598437) scale(0.1 -0.1)">
       <defs>
        <path id="DejaVuSans-38" d="M 2034 2216 
Q 1584 2216 1326 1975 
Q 1069 1734 1069 1313 
Q 1069 891 1326 650 
Q 1584 409 2034 409 
Q 2484 409 2743 651 
Q 3003 894 3003 1313 
Q 3003 1734 2745 1975 
Q 2488 2216 2034 2216 
z
M 1403 2484 
Q 997 2584 770 2862 
Q 544 3141 544 3541 
Q 544 4100 942 4425 
Q 1341 4750 2034 4750 
Q 2731 4750 3128 4425 
Q 3525 4100 3525 3541 
Q 3525 3141 3298 2862 
Q 3072 2584 2669 2484 
Q 3125 2378 3379 2068 
Q 3634 1759 3634 1313 
Q 3634 634 3220 271 
Q 2806 -91 2034 -91 
Q 1263 -91 848 271 
Q 434 634 434 1313 
Q 434 1759 690 2068 
Q 947 2378 1403 2484 
z
M 1172 3481 
Q 1172 3119 1398 2916 
Q 1625 2713 2034 2713 
Q 2441 2713 2670 2916 
Q 2900 3119 2900 3481 
Q 2900 3844 2670 4047 
Q 2441 4250 2034 4250 
Q 1625 4250 1398 4047 
Q 1172 3844 1172 3481 
z
" transform="scale(0.015625)"/>
       </defs>
       <use xlink:href="#DejaVuSans-30"/>
       <use xlink:href="#DejaVuSans-2e" x="63.623047"/>
       <use xlink:href="#DejaVuSans-39" x="95.410156"/>
       <use xlink:href="#DejaVuSans-38" x="159.033203"/>
       <use xlink:href="#DejaVuSans-30" x="222.65625"/>
      </g>
     </g>
    </g>
    <g id="xtick_6">
     <g id="line2d_11">
      <path d="M 259.445455 252 
L 259.445455 34.56 
" clip-path="url(#p6c7816c99d)" style="fill: none; stroke: #b0b0b0; stroke-width: 0.8; stroke-linecap: square"/>
     </g>
     <g id="line2d_12">
      <g>
       <use xlink:href="#m777b01fd64" x="259.445455" y="252" style="stroke: #000000; stroke-width: 0.8"/>
      </g>
     </g>
     <g id="text_6">
      <!-- 0.985 -->
      <g transform="translate(245.131392 266.598437) scale(0.1 -0.1)">
       <use xlink:href="#DejaVuSans-30"/>
       <use xlink:href="#DejaVuSans-2e" x="63.623047"/>
       <use xlink:href="#DejaVuSans-39" x="95.410156"/>
       <use xlink:href="#DejaVuSans-38" x="159.033203"/>
       <use xlink:href="#DejaVuSans-35" x="222.65625"/>
      </g>
     </g>
    </g>
    <g id="xtick_7">
     <g id="line2d_13">
      <path d="M 297.490909 252 
L 297.490909 34.56 
" clip-path="url(#p6c7816c99d)" style="fill: none; stroke: #b0b0b0; stroke-width: 0.8; stroke-linecap: square"/>
     </g>
     <g id="line2d_14">
      <g>
       <use xlink:href="#m777b01fd64" x="297.490909" y="252" style="stroke: #000000; stroke-width: 0.8"/>
      </g>
     </g>
     <g id="text_7">
      <!-- 0.990 -->
      <g transform="translate(283.176847 266.598437) scale(0.1 -0.1)">
       <use xlink:href="#DejaVuSans-30"/>
       <use xlink:href="#DejaVuSans-2e" x="63.623047"/>
       <use xlink:href="#DejaVuSans-39" x="95.410156"/>
       <use xlink:href="#DejaVuSans-39" x="159.033203"/>
       <use xlink:href="#DejaVuSans-30" x="222.65625"/>
      </g>
     </g>
    </g>
    <g id="xtick_8">
     <g id="line2d_15">
      <path d="M 335.536364 252 
L 335.536364 34.56 
" clip-path="url(#p6c7816c99d)" style="fill: none; stroke: #b0b0b0; stroke-width: 0.8; stroke-linecap: square"/>
     </g>
     <g id="line2d_16">
      <g>
       <use xlink:href="#m777b01fd64" x="335.536364" y="252" style="stroke: #000000; stroke-width: 0.8"/>
      </g>
     </g>
     <g id="text_8">
      <!-- 0.995 -->
      <g transform="translate(321.222301 266.598437) scale(0.1 -0.1)">
       <use xlink:href="#DejaVuSans-30"/>
       <use xlink:href="#DejaVuSans-2e" x="63.623047"/>
       <use xlink:href="#DejaVuSans-39" x="95.410156"/>
       <use xlink:href="#DejaVuSans-39" x="159.033203"/>
       <use xlink:href="#DejaVuSans-35" x="222.65625"/>
      </g>
     </g>
    </g>
    <g id="xtick_9">
     <g id="line2d_17">
      <path d="M 373.581818 252 
L 373.581818 34.56 
" clip-path="url(#p6c7816c99d)" style="fill: none; stroke: #b0b0b0; stroke-width: 0.8; stroke-linecap: square"/>
     </g>
     <g id="line2d_18">
      <g>
       <use xlink:href="#m777b01fd64" x="373.581818" y="252" style="stroke: #000000; stroke-width: 0.8"/>
      </g>
     </g>
     <g id="text_9">
      <!-- 1.000 -->
      <g transform="translate(359.267756 266.598437) scale(0.1 -0.1)">
       <defs>
        <path id="DejaVuSans-31" d="M 794 531 
L 1825 531 
L 1825 4091 
L 703 3866 
L 703 4441 
L 1819 4666 
L 2450 4666 
L 2450 531 
L 3481 531 
L 3481 0 
L 794 0 
L 794 531 
z
" transform="scale(0.015625)"/>
       </defs>
       <use xlink:href="#DejaVuSans-31"/>
       <use xlink:href="#DejaVuSans-2e" x="63.623047"/>
       <use xlink:href="#DejaVuSans-30" x="95.410156"/>
       <use xlink:href="#DejaVuSans-30" x="159.033203"/>
       <use xlink:href="#DejaVuSans-30" x="222.65625"/>
      </g>
     </g>
    </g>
    <g id="text_10">
     <!-- Temps (s) -->
     <g transform="translate(197.375 280.276563) scale(0.1 -0.1)">
      <defs>
       <path id="DejaVuSans-54" d="M -19 4666 
L 3928 4666 
L 3928 4134 
L 2272 4134 
L 2272 0 
L 1638 0 
L 1638 4134 
L -19 4134 
L -19 4666 
z
" transform="scale(0.015625)"/>
       <path id="DejaVuSans-65" d="M 3597 1894 
L 3597 1613 
L 953 1613 
Q 991 1019 1311 708 
Q 1631 397 2203 397 
Q 2534 397 2845 478 
Q 3156 559 3463 722 
L 3463 178 
Q 3153 47 2828 -22 
Q 2503 -91 2169 -91 
Q 1331 -91 842 396 
Q 353 884 353 1716 
Q 353 2575 817 3079 
Q 1281 3584 2069 3584 
Q 2775 3584 3186 3129 
Q 3597 2675 3597 1894 
z
M 3022 2063 
Q 3016 2534 2758 2815 
Q 2500 3097 2075 3097 
Q 1594 3097 1305 2825 
Q 1016 2553 972 2059 
L 3022 2063 
z
" transform="scale(0.015625)"/>
       <path id="DejaVuSans-6d" d="M 3328 2828 
Q 3544 3216 3844 3400 
Q 4144 3584 4550 3584 
Q 5097 3584 5394 3201 
Q 5691 2819 5691 2113 
L 5691 0 
L 5113 0 
L 5113 2094 
Q 5113 2597 4934 2840 
Q 4756 3084 4391 3084 
Q 3944 3084 3684 2787 
Q 3425 2491 3425 1978 
L 3425 0 
L 2847 0 
L 2847 2094 
Q 2847 2600 2669 2842 
Q 2491 3084 2119 3084 
Q 1678 3084 1418 2786 
Q 1159 2488 1159 1978 
L 1159 0 
L 581 0 
L 581 3500 
L 1159 3500 
L 1159 2956 
Q 1356 3278 1631 3431 
Q 1906 3584 2284 3584 
Q 2666 3584 2933 3390 
Q 3200 3197 3328 2828 
z
" transform="scale(0.015625)"/>
       <path id="DejaVuSans-70" d="M 1159 525 
L 1159 -1331 
L 581 -1331 
L 581 3500 
L 1159 3500 
L 1159 2969 
Q 1341 3281 1617 3432 
Q 1894 3584 2278 3584 
Q 2916 3584 3314 3078 
Q 3713 2572 3713 1747 
Q 3713 922 3314 415 
Q 2916 -91 2278 -91 
Q 1894 -91 1617 61 
Q 1341 213 1159 525 
z
M 3116 1747 
Q 3116 2381 2855 2742 
Q 2594 3103 2138 3103 
Q 1681 3103 1420 2742 
Q 1159 2381 1159 1747 
Q 1159 1113 1420 752 
Q 1681 391 2138 391 
Q 2594 391 2855 752 
Q 3116 1113 3116 1747 
z
" transform="scale(0.015625)"/>
       <path id="DejaVuSans-73" d="M 2834 3397 
L 2834 2853 
Q 2591 2978 2328 3040 
Q 2066 3103 1784 3103 
Q 1356 3103 1142 2972 
Q 928 2841 928 2578 
Q 928 2378 1081 2264 
Q 1234 2150 1697 2047 
L 1894 2003 
Q 2506 1872 2764 1633 
Q 3022 1394 3022 966 
Q 3022 478 2636 193 
Q 2250 -91 1575 -91 
Q 1294 -91 989 -36 
Q 684 19 347 128 
L 347 722 
Q 666 556 975 473 
Q 1284 391 1588 391 
Q 1994 391 2212 530 
Q 2431 669 2431 922 
Q 2431 1156 2273 1281 
Q 2116 1406 1581 1522 
L 1381 1569 
Q 847 1681 609 1914 
Q 372 2147 372 2553 
Q 372 3047 722 3315 
Q 1072 3584 1716 3584 
Q 2034 3584 2315 3537 
Q 2597 3491 2834 3397 
z
" transform="scale(0.015625)"/>
       <path id="DejaVuSans-20" transform="scale(0.015625)"/>
       <path id="DejaVuSans-28" d="M 1984 4856 
Q 1566 4138 1362 3434 
Q 1159 2731 1159 2009 
Q 1159 1288 1364 580 
Q 1569 -128 1984 -844 
L 1484 -844 
Q 1016 -109 783 600 
Q 550 1309 550 2009 
Q 550 2706 781 3412 
Q 1013 4119 1484 4856 
L 1984 4856 
z
" transform="scale(0.015625)"/>
       <path id="DejaVuSans-29" d="M 513 4856 
L 1013 4856 
Q 1481 4119 1714 3412 
Q 1947 2706 1947 2009 
Q 1947 1309 1714 600 
Q 1481 -109 1013 -844 
L 513 -844 
Q 928 -128 1133 580 
Q 1338 1288 1338 2009 
Q 1338 2731 1133 3434 
Q 928 4138 513 4856 
z
" transform="scale(0.015625)"/>
      </defs>
      <use xlink:href="#DejaVuSans-54"/>
      <use xlink:href="#DejaVuSans-65" x="44.083984"/>
      <use xlink:href="#DejaVuSans-6d" x="105.607422"/>
      <use xlink:href="#DejaVuSans-70" x="203.019531"/>
      <use xlink:href="#DejaVuSans-73" x="266.496094"/>
      <use xlink:href="#DejaVuSans-20" x="318.595703"/>
      <use xlink:href="#DejaVuSans-28" x="350.382812"/>
      <use xlink:href="#DejaVuSans-73" x="389.396484"/>
      <use xlink:href="#DejaVuSans-29" x="441.496094"/>
     </g>
    </g>
   </g>
   <g id="matplotlib.axis_2">
    <g id="ytick_1">
     <g id="line2d_19">
      <path d="M 54 230.727324 
L 388.8 230.727324 
" clip-path="url(#p6c7816c99d)" style="fill: none; stroke: #b0b0b0; stroke-width: 0.8; stroke-linecap: square"/>
     </g>
     <g id="line2d_20">
      <defs>
       <path id="md10b8dfafb" d="M 0 0 
L -3.5 0 
" style="stroke: #000000; stroke-width: 0.8"/>
      </defs>
      <g>
       <use xlink:href="#md10b8dfafb" x="54" y="230.727324" style="stroke: #000000; stroke-width: 0.8"/>
      </g>
     </g>
     <g id="text_11">
      <!-- −30 -->
      <g transform="translate(25.895312 234.526543) scale(0.1 -0.1)">
       <defs>
        <path id="DejaVuSans-2212" d="M 678 2272 
L 4684 2272 
L 4684 1741 
L 678 1741 
L 678 2272 
z
" transform="scale(0.015625)"/>
        <path id="DejaVuSans-33" d="M 2597 2516 
Q 3050 2419 3304 2112 
Q 3559 1806 3559 1356 
Q 3559 666 3084 287 
Q 2609 -91 1734 -91 
Q 1441 -91 1130 -33 
Q 819 25 488 141 
L 488 750 
Q 750 597 1062 519 
Q 1375 441 1716 441 
Q 2309 441 2620 675 
Q 2931 909 2931 1356 
Q 2931 1769 2642 2001 
Q 2353 2234 1838 2234 
L 1294 2234 
L 1294 2753 
L 1863 2753 
Q 2328 2753 2575 2939 
Q 2822 3125 2822 3475 
Q 2822 3834 2567 4026 
Q 2313 4219 1838 4219 
Q 1578 4219 1281 4162 
Q 984 4106 628 3988 
L 628 4550 
Q 988 4650 1302 4700 
Q 1616 4750 1894 4750 
Q 2613 4750 3031 4423 
Q 3450 4097 3450 3541 
Q 3450 3153 3228 2886 
Q 3006 2619 2597 2516 
z
" transform="scale(0.015625)"/>
       </defs>
       <use xlink:href="#DejaVuSans-2212"/>
       <use xlink:href="#DejaVuSans-33" x="83.789062"/>
       <use xlink:href="#DejaVuSans-30" x="147.412109"/>
      </g>
     </g>
    </g>
    <g id="ytick_2">
     <g id="line2d_21">
      <path d="M 54 201.2606 
L 388.8 201.2606 
" clip-path="url(#p6c7816c99d)" style="fill: none; stroke: #b0b0b0; stroke-width: 0.8; stroke-linecap: square"/>
     </g>
     <g id="line2d_22">
      <g>
       <use xlink:href="#md10b8dfafb" x="54" y="201.2606" style="stroke: #000000; stroke-width: 0.8"/>
      </g>
     </g>
     <g id="text_12">
      <!-- −20 -->
      <g transform="translate(25.895312 205.059819) scale(0.1 -0.1)">
       <defs>
        <path id="DejaVuSans-32" d="M 1228 531 
L 3431 531 
L 3431 0 
L 469 0 
L 469 531 
Q 828 903 1448 1529 
Q 2069 2156 2228 2338 
Q 2531 2678 2651 2914 
Q 2772 3150 2772 3378 
Q 2772 3750 2511 3984 
Q 2250 4219 1831 4219 
Q 1534 4219 1204 4116 
Q 875 4013 500 3803 
L 500 4441 
Q 881 4594 1212 4672 
Q 1544 4750 1819 4750 
Q 2544 4750 2975 4387 
Q 3406 4025 3406 3419 
Q 3406 3131 3298 2873 
Q 3191 2616 2906 2266 
Q 2828 2175 2409 1742 
Q 1991 1309 1228 531 
z
" transform="scale(0.015625)"/>
       </defs>
       <use xlink:href="#DejaVuSans-2212"/>
       <use xlink:href="#DejaVuSans-32" x="83.789062"/>
       <use xlink:href="#DejaVuSans-30" x="147.412109"/>
      </g>
     </g>
    </g>
    <g id="ytick_3">
     <g id="line2d_23">
      <path d="M 54 171.793876 
L 388.8 171.793876 
" clip-path="url(#p6c7816c99d)" style="fill: none; stroke: #b0b0b0; stroke-width: 0.8; stroke-linecap: square"/>
     </g>
     <g id="line2d_24">
      <g>
       <use xlink:href="#md10b8dfafb" x="54" y="171.793876" style="stroke: #000000; stroke-width: 0.8"/>
      </g>
     </g>
     <g id="text_13">
      <!-- −10 -->
      <g transform="translate(25.895312 175.593095) scale(0.1 -0.1)">
       <use xlink:href="#DejaVuSans-2212"/>
       <use xlink:href="#DejaVuSans-31" x="83.789062"/>
       <use xlink:href="#DejaVuSans-30" x="147.412109"/>
      </g>
     </g>
    </g>
    <g id="ytick_4">
     <g id="line2d_25">
      <path d="M 54 142.327152 
L 388.8 142.327152 
" clip-path="url(#p6c7816c99d)" style="fill: none; stroke: #b0b0b0; stroke-width: 0.8; stroke-linecap: square"/>
     </g>
     <g id="line2d_26">
      <g>
       <use xlink:href="#md10b8dfafb" x="54" y="142.327152" style="stroke: #000000; stroke-width: 0.8"/>
      </g>
     </g>
     <g id="text_14">
      <!-- 0 -->
      <g transform="translate(40.6375 146.12637) scale(0.1 -0.1)">
       <use xlink:href="#DejaVuSans-30"/>
      </g>
     </g>
    </g>
    <g id="ytick_5">
     <g id="line2d_27">
      <path d="M 54 112.860428 
L 388.8 112.860428 
" clip-path="url(#p6c7816c99d)" style="fill: none; stroke: #b0b0b0; stroke-width: 0.8; stroke-linecap: square"/>
     </g>
     <g id="line2d_28">
      <g>
       <use xlink:href="#md10b8dfafb" x="54" y="112.860428" style="stroke: #000000; stroke-width: 0.8"/>
      </g>
     </g>
     <g id="text_15">
      <!-- 10 -->
      <g transform="translate(34.275 116.659646) scale(0.1 -0.1)">
       <use xlink:href="#DejaVuSans-31"/>
       <use xlink:href="#DejaVuSans-30" x="63.623047"/>
      </g>
     </g>
    </g>
    <g id="ytick_6">
     <g id="line2d_29">
      <path d="M 54 83.393703 
L 388.8 83.393703 
" clip-path="url(#p6c7816c99d)" style="fill: none; stroke: #b0b0b0; stroke-width: 0.8; stroke-linecap: square"/>
     </g>
     <g id="line2d_30">
      <g>
       <use xlink:href="#md10b8dfafb" x="54" y="83.393703" style="stroke: #000000; stroke-width: 0.8"/>
      </g>
     </g>
     <g id="text_16">
      <!-- 20 -->
      <g transform="translate(34.275 87.192922) scale(0.1 -0.1)">
       <use xlink:href="#DejaVuSans-32"/>
       <use xlink:href="#DejaVuSans-30" x="63.623047"/>
      </g>
     </g>
    </g>
    <g id="ytick_7">
     <g id="line2d_31">
      <path d="M 54 53.926979 
L 388.8 53.926979 
" clip-path="url(#p6c7816c99d)" style="fill: none; stroke: #b0b0b0; stroke-width: 0.8; stroke-linecap: square"/>
     </g>
     <g id="line2d_32">
      <g>
       <use xlink:href="#md10b8dfafb" x="54" y="53.926979" style="stroke: #000000; stroke-width: 0.8"/>
      </g>
     </g>
     <g id="text_17">
      <!-- 30 -->
      <g transform="translate(34.275 57.726198) scale(0.1 -0.1)">
       <use xlink:href="#DejaVuSans-33"/>
       <use xlink:href="#DejaVuSans-30" x="63.623047"/>
      </g>
     </g>
    </g>
    <g id="text_18">
     <!-- Courant (A) -->
     <g transform="translate(19.815625 172.158906) rotate(-90) scale(0.1 -0.1)">
      <defs>
       <path id="DejaVuSans-43" d="M 4122 4306 
L 4122 3641 
Q 3803 3938 3442 4084 
Q 3081 4231 2675 4231 
Q 1875 4231 1450 3742 
Q 1025 3253 1025 2328 
Q 1025 1406 1450 917 
Q 1875 428 2675 428 
Q 3081 428 3442 575 
Q 3803 722 4122 1019 
L 4122 359 
Q 3791 134 3420 21 
Q 3050 -91 2638 -91 
Q 1578 -91 968 557 
Q 359 1206 359 2328 
Q 359 3453 968 4101 
Q 1578 4750 2638 4750 
Q 3056 4750 3426 4639 
Q 3797 4528 4122 4306 
z
" transform="scale(0.015625)"/>
       <path id="DejaVuSans-6f" d="M 1959 3097 
Q 1497 3097 1228 2736 
Q 959 2375 959 1747 
Q 959 1119 1226 758 
Q 1494 397 1959 397 
Q 2419 397 2687 759 
Q 2956 1122 2956 1747 
Q 2956 2369 2687 2733 
Q 2419 3097 1959 3097 
z
M 1959 3584 
Q 2709 3584 3137 3096 
Q 3566 2609 3566 1747 
Q 3566 888 3137 398 
Q 2709 -91 1959 -91 
Q 1206 -91 779 398 
Q 353 888 353 1747 
Q 353 2609 779 3096 
Q 1206 3584 1959 3584 
z
" transform="scale(0.015625)"/>
       <path id="DejaVuSans-75" d="M 544 1381 
L 544 3500 
L 1119 3500 
L 1119 1403 
Q 1119 906 1312 657 
Q 1506 409 1894 409 
Q 2359 409 2629 706 
Q 2900 1003 2900 1516 
L 2900 3500 
L 3475 3500 
L 3475 0 
L 2900 0 
L 2900 538 
Q 2691 219 2414 64 
Q 2138 -91 1772 -91 
Q 1169 -91 856 284 
Q 544 659 544 1381 
z
M 1991 3584 
L 1991 3584 
z
" transform="scale(0.015625)"/>
       <path id="DejaVuSans-72" d="M 2631 2963 
Q 2534 3019 2420 3045 
Q 2306 3072 2169 3072 
Q 1681 3072 1420 2755 
Q 1159 2438 1159 1844 
L 1159 0 
L 581 0 
L 581 3500 
L 1159 3500 
L 1159 2956 
Q 1341 3275 1631 3429 
Q 1922 3584 2338 3584 
Q 2397 3584 2469 3576 
Q 2541 3569 2628 3553 
L 2631 2963 
z
" transform="scale(0.015625)"/>
       <path id="DejaVuSans-61" d="M 2194 1759 
Q 1497 1759 1228 1600 
Q 959 1441 959 1056 
Q 959 750 1161 570 
Q 1363 391 1709 391 
Q 2188 391 2477 730 
Q 2766 1069 2766 1631 
L 2766 1759 
L 2194 1759 
z
M 3341 1997 
L 3341 0 
L 2766 0 
L 2766 531 
Q 2569 213 2275 61 
Q 1981 -91 1556 -91 
Q 1019 -91 701 211 
Q 384 513 384 1019 
Q 384 1609 779 1909 
Q 1175 2209 1959 2209 
L 2766 2209 
L 2766 2266 
Q 2766 2663 2505 2880 
Q 2244 3097 1772 3097 
Q 1472 3097 1187 3025 
Q 903 2953 641 2809 
L 641 3341 
Q 956 3463 1253 3523 
Q 1550 3584 1831 3584 
Q 2591 3584 2966 3190 
Q 3341 2797 3341 1997 
z
" transform="scale(0.015625)"/>
       <path id="DejaVuSans-6e" d="M 3513 2113 
L 3513 0 
L 2938 0 
L 2938 2094 
Q 2938 2591 2744 2837 
Q 2550 3084 2163 3084 
Q 1697 3084 1428 2787 
Q 1159 2491 1159 1978 
L 1159 0 
L 581 0 
L 581 3500 
L 1159 3500 
L 1159 2956 
Q 1366 3272 1645 3428 
Q 1925 3584 2291 3584 
Q 2894 3584 3203 3211 
Q 3513 2838 3513 2113 
z
" transform="scale(0.015625)"/>
       <path id="DejaVuSans-74" d="M 1172 4494 
L 1172 3500 
L 2356 3500 
L 2356 3053 
L 1172 3053 
L 1172 1153 
Q 1172 725 1289 603 
Q 1406 481 1766 481 
L 2356 481 
L 2356 0 
L 1766 0 
Q 1100 0 847 248 
Q 594 497 594 1153 
L 594 3053 
L 172 3053 
L 172 3500 
L 594 3500 
L 594 4494 
L 1172 4494 
z
" transform="scale(0.015625)"/>
       <path id="DejaVuSans-41" d="M 2188 4044 
L 1331 1722 
L 3047 1722 
L 2188 4044 
z
M 1831 4666 
L 2547 4666 
L 4325 0 
L 3669 0 
L 3244 1197 
L 1141 1197 
L 716 0 
L 50 0 
L 1831 4666 
z
" transform="scale(0.015625)"/>
      </defs>
      <use xlink:href="#DejaVuSans-43"/>
      <use xlink:href="#DejaVuSans-6f" x="69.824219"/>
      <use xlink:href="#DejaVuSans-75" x="131.005859"/>
      <use xlink:href="#DejaVuSans-72" x="194.384766"/>
      <use xlink:href="#DejaVuSans-61" x="235.498047"/>
      <use xlink:href="#DejaVuSans-6e" x="296.777344"/>
      <use xlink:href="#DejaVuSans-74" x="360.15625"/>
      <use xlink:href="#DejaVuSans-20" x="399.365234"/>
      <use xlink:href="#DejaVuSans-28" x="431.152344"/>
      <use xlink:href="#DejaVuSans-41" x="470.166016"/>
      <use xlink:href="#DejaVuSans-29" x="538.574219"/>
     </g>
    </g>
   </g>
   <g id="line2d_33">
    <path d="M 69.218182 144.150467 
L 69.272206 144.200488 
L 69.326231 144.123352 
L 69.343732 144.131688 
L 69.626029 143.060347 
L 69.945611 141.364289 
L 70.004962 141.127486 
L 70.168557 140.717345 
L 70.175405 140.728894 
L 70.184536 140.740518 
L 70.242365 140.608448 
L 70.412048 139.987865 
L 70.686736 138.21058 
L 70.937075 136.853374 
L 70.988056 136.710528 
L 71.118172 136.506312 
L 71.134912 136.549049 
L 71.288615 136.572804 
L 71.152413 136.522804 
L 71.293181 136.563313 
L 71.757335 134.472422 
L 72.003109 133.304559 
L 72.052568 133.17444 
L 72.241274 132.876855 
L 72.442154 132.010837 
L 72.816521 129.723936 
L 73.023488 128.976739 
L 73.158169 128.935764 
L 73.163495 128.916417 
L 74.164852 125.243007 
L 74.170939 125.250262 
L 74.18007 125.257635 
L 74.229529 125.138247 
L 74.985873 121.390837 
L 75.114466 121.270515 
L 75.122836 121.285583 
L 75.133489 121.30005 
L 75.192079 121.195625 
L 75.207297 121.201246 
L 75.295563 120.932039 
L 75.80385 118.231843 
L 76.465841 116.699177 
L 77.093591 113.605453 
L 77.108048 113.629574 
L 77.150659 113.601999 
L 77.169682 113.542016 
L 77.184139 113.54882 
L 77.23512 113.424101 
L 77.897111 110.183543 
L 77.964832 110.016987 
L 78.082012 109.925449 
L 78.09723 109.962837 
L 78.216693 110.03731 
L 78.117775 109.948912 
L 78.233433 109.99247 
L 78.381049 109.638653 
L 79.046845 106.047226 
L 79.145002 105.883126 
L 79.224136 105.903592 
L 79.166307 105.910178 
L 79.240876 105.937736 
L 79.282726 105.924846 
L 79.26066 105.905025 
L 79.326098 105.866555 
L 80.213318 102.278886 
L 80.302345 102.349857 
L 80.347238 102.347889 
L 80.392893 102.282606 
L 80.933138 99.380281 
L 81.182716 98.358814 
L 81.316636 98.232658 
L 81.366095 98.289195 
L 81.413272 98.298795 
L 81.46197 98.232252 
L 82.381909 94.587955 
L 82.420715 94.61805 
L 82.593442 94.823324 
L 82.639096 94.759113 
L 83.089555 92.324735 
L 83.435768 90.565279 
L 83.561318 90.439936 
L 83.574254 90.467302 
L 83.734805 90.607931 
L 83.742415 90.596175 
L 84.130478 89.098473 
L 84.524629 87.166351 
L 84.741488 86.970517 
L 84.790186 87.057912 
L 84.913454 87.171967 
L 84.92715 87.143253 
L 85.233035 85.87405 
L 85.700995 83.024351 
L 85.883613 82.760053 
L 85.939159 82.846064 
L 86.210804 83.491845 
L 86.292221 83.402058 
L 86.623977 81.643424 
L 87.142917 78.811901 
L 87.152809 78.8181 
L 87.332384 79.045408 
L 87.50511 79.421849 
L 87.531742 79.409608 
L 87.578157 79.36697 
L 87.594136 79.319808 
L 87.79806 78.520939 
L 88.036985 76.963989 
L 88.390808 75.251222 
L 88.507988 75.174148 
L 88.522445 75.198786 
L 88.836701 75.881455 
L 88.922684 75.759126 
L 89.240744 74.002698 
L 89.803055 71.075321 
L 89.809904 71.081201 
L 90.002414 71.532766 
L 90.318952 72.784113 
L 90.338735 72.759884 
L 90.405695 72.631371 
L 90.67734 70.800756 
L 91.223673 66.661761 
L 91.324874 66.621893 
L 91.361397 66.686823 
L 91.483143 67.170298 
L 91.9161 69.6603 
L 91.968603 69.572849 
L 92.138285 68.610965 
L 92.412974 65.568176 
L 92.791906 62.287612 
L 92.885498 62.141028 
L 92.934196 62.205447 
L 93.106162 63.04712 
L 93.311607 64.970773 
L 93.578686 66.750867 
L 93.596187 66.752857 
L 93.642603 66.660612 
L 93.795545 65.653823 
L 94.155455 60.746313 
L 94.498625 57.570206 
L 94.56102 57.493086 
L 94.615045 57.584486 
L 94.756574 58.375879 
L 95.107353 62.536597 
L 95.402585 64.968339 
L 95.453566 64.865155 
L 95.564659 64.002825 
L 95.78304 60.374457 
L 96.317198 51.949587 
L 96.382636 51.867487 
L 96.42753 51.970349 
L 96.559167 52.974914 
L 96.824725 57.202385 
L 97.254638 63.152062 
L 97.351274 63.352959 
L 97.397689 63.263617 
L 97.520956 62.466187 
L 97.705857 59.404984 
L 98.381545 46.406903 
L 98.390675 46.408835 
L 98.442417 46.541922 
L 98.565685 47.694053 
L 98.831242 52.96689 
L 99.265721 60.671454 
L 99.360835 60.944304 
L 99.40725 60.847983 
L 99.514538 60.059612 
L 99.726832 56.702346 
L 100.25262 48.360886 
L 100.337842 48.202712 
L 100.380453 48.293521 
L 100.54557 49.263742 
L 101.101795 52.465886 
L 101.199191 52.489609 
L 101.231149 52.448961 
L 101.362025 52.062676 
L 101.693021 50.091657 
L 102.059779 48.453069 
L 102.16935 48.417835 
L 102.200547 48.453022 
L 102.321532 48.752783 
L 102.593176 50.114261 
L 103.008633 51.924255 
L 103.138748 51.988515 
L 103.161575 51.966572 
L 103.294735 51.685435 
L 103.573988 50.445298 
L 103.97727 48.916387 
L 104.111951 48.859034 
L 104.137822 48.882287 
L 104.27022 49.138279 
L 104.608064 50.4919 
L 104.961125 51.568476 
L 105.111785 51.578457 
L 105.251032 51.328408 
L 105.565287 50.218998 
L 105.953351 49.209313 
L 106.109337 49.245229 
L 106.29576 49.625159 
L 106.992753 51.312453 
L 106.993514 51.312189 
L 107.095475 51.155686 
L 107.235483 50.184511 
L 107.555065 45.955543 
L 107.778772 44.44373 
L 107.782576 44.444395 
L 107.844971 44.574956 
L 107.978891 45.612639 
L 108.251296 49.85875 
L 108.673601 55.316095 
L 108.75654 55.470582 
L 108.805238 55.389859 
L 108.919375 54.722755 
L 109.150691 51.826315 
L 109.650608 45.917346 
L 109.728221 45.805615 
L 109.776919 45.878769 
L 109.89486 46.499273 
L 110.143677 49.307502 
L 110.613158 54.156493 
L 110.702185 54.277427 
L 110.747839 54.212513 
L 110.866541 53.660816 
L 111.114597 51.200777 
L 111.587883 46.945114 
L 111.676909 46.852361 
L 111.71952 46.910329 
L 111.846592 47.452382 
L 112.119758 49.914387 
L 112.546628 53.251869 
L 112.647068 53.360484 
L 112.689679 53.309906 
L 112.813707 52.852547 
L 113.092961 50.649226 
L 113.524396 47.73472 
L 113.620271 47.655588 
L 113.662882 47.703892 
L 113.802889 48.193783 
L 114.060837 50.012376 
L 114.426835 53.887761 
L 114.826312 57.740482 
L 114.932078 57.908523 
L 114.974689 57.852288 
L 115.097195 57.313306 
L 115.389385 54.476609 
L 115.811689 50.968887 
L 115.902998 50.861453 
L 115.947892 50.917554 
L 116.092465 51.531614 
L 116.367914 53.95397 
L 116.764347 56.903983 
L 116.874679 57.039622 
L 116.915768 56.996195 
L 117.045123 56.544419 
L 117.276439 55.976255 
L 117.284048 55.979793 
L 117.425577 56.1896 
L 117.649285 57.205936 
L 118.248881 59.750956 
L 118.258012 59.744788 
L 118.427695 59.473171 
L 118.619444 58.673044 
L 119.211431 56.441145 
L 119.295892 56.494049 
L 119.305784 56.5225 
L 119.42829 57.225051 
L 119.642866 59.953197 
L 120.147349 66.350153 
L 120.228005 66.522327 
L 120.284313 66.446528 
L 120.375622 66.024326 
L 120.581828 63.874903 
L 121.155554 57.743188 
L 121.192838 57.702605 
L 121.240775 57.816275 
L 121.373174 59.044678 
L 121.583945 63.158321 
L 122.075493 72.355021 
L 122.162997 72.626002 
L 122.210935 72.527912 
L 122.364638 71.175117 
L 122.749658 63.777207 
L 123.020542 60.485502 
L 123.025868 60.488065 
L 123.095111 60.693397 
L 123.235118 62.410876 
L 123.484696 68.360981 
L 123.900153 76.976899 
L 123.992984 77.382413 
L 124.044725 77.280659 
L 124.146687 76.498508 
L 124.384852 72.12581 
L 124.74324 66.339245 
L 124.806395 66.163405 
L 124.866507 66.302356 
L 124.971513 67.130913 
L 125.233265 71.721541 
L 125.675354 79.228773 
L 125.778837 79.598095 
L 125.835145 79.480852 
L 125.957651 78.798489 
L 126.231578 76.635638 
L 126.580835 74.815179 
L 126.667579 74.767039 
L 126.701059 74.810775 
L 126.745192 74.895995 
L 126.748996 74.908479 
L 127.029772 76.394012 
L 127.546429 81.050566 
L 127.904056 84.170616 
L 128.020475 84.379187 
L 128.05776 84.34406 
L 128.152113 84.023115 
L 128.343862 82.641462 
L 128.722795 79.834737 
L 128.773015 79.918427 
L 128.951828 81.125733 
L 129.694475 89.195782 
L 129.77361 89.078685 
L 130.176131 88.193919 
L 130.240047 88.093291 
L 130.397555 87.969528 
L 130.717898 88.260217 
L 131.073243 89.442117 
L 131.20488 90.692242 
L 131.700232 95.610072 
L 131.825782 95.932555 
L 131.859262 95.918832 
L 131.913286 95.793596 
L 132.411682 93.484354 
L 132.47712 93.598324 
L 132.515165 93.707229 
L 132.569951 93.915341 
L 133.882519 102.061729 
L 133.89165 102.051089 
L 133.912955 102.099528 
L 134.138185 101.786282 
L 134.232537 101.37829 
L 134.429613 100.630384 
L 134.445592 100.652308 
L 134.557445 100.839252 
L 134.825285 102.745754 
L 135.309224 106.724073 
L 135.519995 107.287612 
L 135.555758 107.406386 
L 135.645545 107.67805 
L 136.011543 108.718899 
L 136.01763 108.711545 
L 136.024478 108.706318 
L 136.083829 108.801976 
L 136.103613 108.782054 
L 136.197965 108.819284 
L 136.236772 108.794638 
L 136.481024 108.483321 
L 136.531244 108.597652 
L 136.866044 110.851209 
L 137.25639 114.057337 
L 137.41542 114.455505 
L 137.425312 114.4363 
L 137.43216 114.425948 
L 137.492272 114.506447 
L 137.51586 114.510561 
L 137.805766 115.210069 
L 137.834681 115.324146 
L 138.403841 116.426329 
L 138.416015 116.393537 
L 138.460148 116.362278 
L 138.516455 116.442979 
L 138.660267 116.954362 
L 139.358782 121.844063 
L 139.364108 121.838754 
L 139.450852 121.884357 
L 139.393023 121.901943 
L 139.4577 121.89672 
L 139.545965 121.882738 
L 139.486615 121.857386 
L 139.558901 121.85269 
L 139.59999 121.875415 
L 139.621295 121.935625 
L 139.641079 121.925528 
L 140.792335 125.861272 
L 141.194855 128.813616 
L 141.408671 129.39227 
L 141.461174 129.324453 
L 141.540308 129.31932 
L 141.481718 129.350349 
L 141.560092 129.373185 
L 141.671185 129.559657 
L 142.732653 133.752052 
L 143.116912 136.44791 
L 143.310183 136.944349 
L 143.315509 136.935921 
L 143.443342 136.815239 
L 143.461604 136.851836 
L 143.557478 136.891643 
L 143.565848 136.926903 
L 144.229361 139.64869 
L 144.234687 139.647592 
L 144.284907 139.775926 
L 144.460677 140.100724 
L 144.486548 140.212613 
L 144.778737 141.927303 
L 145.086145 143.931847 
L 145.251262 144.438182 
L 145.260393 144.422281 
L 145.344854 144.424523 
L 145.287025 144.467494 
L 145.361594 144.467432 
L 145.376812 144.440925 
L 145.509971 144.702777 
L 146.203159 147.587675 
L 146.207725 147.582518 
L 146.216855 147.574543 
L 146.275445 147.674953 
L 146.293707 147.654137 
L 146.387299 147.906565 
L 146.715251 149.778978 
L 147.059182 151.777651 
L 147.224299 152.072481 
L 147.304195 152.028774 
L 147.244083 152.026342 
L 147.314086 152.002107 
L 147.321695 151.992143 
L 147.379525 152.07552 
L 147.402352 152.077771 
L 148.253809 155.435884 
L 148.266745 155.415197 
L 148.272071 155.414446 
L 148.320769 155.518612 
L 149.203424 159.656465 
L 149.20875 159.649102 
L 149.223207 159.62387 
L 149.281036 159.717766 
L 149.30082 159.714846 
L 149.599857 160.921149 
L 150.231412 163.152389 
L 150.248913 163.132905 
L 150.340222 163.362984 
L 151.220594 167.296607 
L 151.228964 167.284298 
L 151.237334 167.27726 
L 151.291358 167.395767 
L 151.776818 169.689379 
L 152.006613 170.63444 
L 152.132924 170.841485 
L 152.150425 170.809406 
L 152.30565 170.826835 
L 152.31402 170.8607 
L 153.273526 174.946084 
L 153.280375 174.936967 
L 153.291788 174.925457 
L 153.349617 175.041081 
L 153.450057 175.299276 
L 154.042805 178.234549 
L 154.102156 178.388591 
L 154.223141 178.519399 
L 154.236076 178.492228 
L 154.282492 178.467068 
L 154.259665 178.503825 
L 154.338038 178.534394 
L 154.414129 178.692642 
L 154.552615 179.237193 
L 155.074598 182.250491 
L 155.631584 183.513239 
L 156.277595 186.211065 
L 156.363578 186.137467 
L 156.411515 186.117102 
L 156.462496 186.189943 
L 156.811754 187.796386 
L 157.379392 190.275297 
L 157.390805 190.253236 
L 157.551357 190.127691 
L 157.557445 190.135593 
L 157.86333 191.200492 
L 158.25672 193.442757 
L 158.519995 193.953796 
L 158.533691 193.925613 
L 158.617391 193.885377 
L 158.656197 193.918934 
L 158.81751 194.398701 
L 159.379822 197.494125 
L 159.581463 197.851255 
L 159.586028 197.853473 
L 159.647662 197.771625 
L 159.661358 197.773305 
L 159.87213 197.424987 
L 159.923111 197.509516 
L 160.24878 199.127365 
L 160.803483 201.949236 
L 160.806526 201.947319 
L 161.051539 201.761872 
L 161.08578 201.805346 
L 161.177089 202.037982 
L 161.911366 205.311145 
L 161.921258 205.308069 
L 162.103115 205.209685 
L 162.230187 205.031117 
L 162.259863 205.05597 
L 162.31617 205.156722 
L 162.708038 207.42904 
L 163.163062 209.655833 
L 163.168388 209.652791 
L 163.360898 209.340177 
L 163.599063 208.70961 
L 163.601345 208.71058 
L 163.717765 208.935068 
L 163.987887 210.555816 
L 164.39193 213.292017 
L 164.5677 213.634338 
L 164.610311 213.600259 
L 164.84391 212.800623 
L 164.970982 212.572259 
L 165.005223 212.587218 
L 165.09501 212.784305 
L 165.42981 214.845031 
L 165.8232 217.273659 
L 165.973099 217.430366 
L 165.991361 217.400268 
L 166.168653 216.868442 
L 166.415948 215.982685 
L 166.438775 215.99705 
L 166.50117 216.097494 
L 166.754553 217.55307 
L 167.372411 221.633525 
L 167.419587 221.633097 
L 167.462198 221.570733 
L 167.655469 220.737337 
L 168.006248 218.961715 
L 168.015379 218.968103 
L 168.125711 219.312285 
L 168.322786 220.925857 
L 168.89499 226.147679 
L 168.977929 226.228903 
L 169.019018 226.175632 
L 169.156743 225.580301 
L 169.395668 223.499087 
L 169.679487 221.701138 
L 169.688618 221.70679 
L 169.776123 221.99079 
L 169.954175 223.604937 
L 170.650407 231.021491 
L 170.656495 231.017845 
L 170.749325 230.752506 
L 170.925095 229.344167 
L 171.495016 223.452114 
L 171.547519 223.568406 
L 171.664699 224.529326 
L 171.909712 228.828109 
L 172.386041 236.500054 
L 172.473545 236.67757 
L 172.516156 236.584502 
L 172.632575 235.761237 
L 172.877588 232.01175 
L 173.350874 225.264818 
L 173.440661 225.083863 
L 173.487076 225.168681 
L 173.601974 225.880134 
L 173.764808 228.347247 
L 174.475497 242.116336 
L 174.526478 242.01257 
L 174.629962 241.175779 
L 174.848343 237.257831 
L 175.384784 227.643938 
L 175.450983 227.512292 
L 175.502725 227.624094 
L 175.619144 228.540394 
L 175.859591 232.592102 
L 176.334398 240.105272 
L 176.41962 240.314798 
L 176.471362 240.222798 
L 176.629631 239.298383 
L 177.214009 235.975322 
L 177.301514 235.984992 
L 177.327385 236.021385 
L 177.473479 236.488173 
L 177.802192 238.506561 
L 178.15221 240.053746 
L 178.257976 240.092863 
L 178.290695 240.059235 
L 178.433746 239.679454 
L 178.740393 238.055886 
L 179.116282 236.5224 
L 179.234984 236.484385 
L 179.261615 236.510074 
L 179.409232 236.859945 
L 179.729575 238.36161 
L 180.090245 239.614391 
L 180.220361 239.63198 
L 180.237101 239.615261 
L 180.393087 239.272268 
L 180.757563 237.748509 
L 181.078666 236.883295 
L 181.221717 236.914008 
L 181.393683 237.287493 
L 182.131765 239.307725 
L 182.166766 239.289056 
L 182.327318 239.032016 
L 182.679619 237.905865 
L 183.01518 237.18299 
L 183.173449 237.214724 
L 183.365198 237.566454 
L 184.069039 239.044702 
L 184.231113 238.894775 
L 184.517975 238.234815 
L 184.941802 237.418396 
L 185.120615 237.440481 
L 185.332909 237.759737 
L 185.984247 238.843789 
L 186.165344 238.73414 
L 186.460576 238.21519 
L 186.888207 237.58923 
L 187.086044 237.626211 
L 187.338665 237.962131 
L 187.884237 238.682511 
L 188.091205 238.615916 
L 188.392525 238.217878 
L 188.839178 237.719977 
L 189.060603 237.774032 
L 189.377902 238.144525 
L 189.816185 238.561688 
L 190.052067 238.498438 
L 190.290993 238.192775 
L 190.44774 237.204816 
L 191.180495 230.822424 
L 191.255065 230.932351 
L 191.396594 231.656849 
L 191.695631 234.549595 
L 192.073042 237.323132 
L 192.15522 237.411493 
L 192.206962 237.354238 
L 192.335555 236.868857 
L 192.586655 234.884361 
L 193.036353 231.729732 
L 193.20147 231.618918 
L 193.330064 231.449574 
L 193.652689 230.471907 
L 194.03847 229.533566 
L 194.221088 229.556147 
L 194.39001 229.861243 
L 195.071785 231.374568 
L 195.192769 231.327897 
L 195.399736 230.956676 
L 195.551918 229.963329 
L 195.93846 225.174014 
L 196.245867 222.837132 
L 196.31511 222.795353 
L 196.357721 222.866471 
L 196.495445 223.566244 
L 196.735893 225.990192 
L 197.183307 229.944008 
L 197.282225 230.063596 
L 197.317988 229.98056 
L 197.39484 229.493716 
L 197.553109 227.312062 
L 198.250102 216.495433 
L 198.258472 216.500325 
L 198.334563 216.777935 
L 198.492832 218.447309 
L 199.11069 227.599686 
L 199.18602 227.330267 
L 199.316135 225.748244 
L 199.645609 217.992605 
L 200.000193 211.706684 
L 200.083132 211.460571 
L 200.131069 211.572733 
L 200.280207 212.98566 
L 200.897305 222.268273 
L 200.978722 221.954095 
L 201.148405 219.887518 
L 201.867464 208.940186 
L 201.901705 209.007957 
L 201.980839 209.42394 
L 202.265419 211.794817 
L 202.55913 213.651328 
L 202.689245 213.877736 
L 202.730335 213.849166 
L 202.909148 213.238936 
L 203.049155 212.338998 
L 203.659405 206.735187 
L 203.983552 204.326318 
L 204.079426 204.198572 
L 204.122798 204.255391 
L 204.311504 205.176537 
L 204.782506 208.711081 
L 204.843379 208.580492 
L 204.95295 207.920751 
L 205.225355 204.441284 
L 205.691032 199.336073 
L 205.757992 199.244082 
L 205.820386 199.367532 
L 205.917783 199.767544 
L 206.170405 200.690413 
L 206.454985 201.040905 
L 206.540967 200.93545 
L 207.189262 198.408465 
L 207.839839 192.918408 
L 207.922017 192.860371 
L 207.95778 192.908943 
L 208.029305 193.129311 
L 208.12518 193.652096 
L 208.37628 194.911907 
L 208.475198 194.970435 
L 208.520853 194.87872 
L 208.83663 192.990356 
L 209.331982 189.742599 
L 209.618845 188.480545 
L 209.949079 187.040259 
L 209.950601 187.040593 
L 210.000821 186.940226 
L 210.131697 186.809566 
L 210.144633 186.838661 
L 210.491607 187.497378 
L 210.165177 186.828717 
L 210.528131 187.46417 
L 210.606505 187.258951 
L 210.841625 185.729435 
L 211.273061 182.297455 
L 211.466332 181.84939 
L 211.478506 181.867703 
L 211.521117 181.817674 
L 211.49829 181.818305 
L 211.534053 181.771639 
L 212.303332 179.603217 
L 212.319311 179.622813 
L 212.45247 179.608354 
L 212.457796 179.617695 
L 212.547584 179.728342 
L 212.593999 179.681013 
L 212.905211 178.026989 
L 213.378496 174.571536 
L 213.778735 173.971195 
L 214.251259 172.277823 
L 214.283217 172.170555 
L 214.644649 171.640993 
L 215.109565 168.422637 
L 215.362947 167.025958 
L 215.497628 166.794615 
L 215.541761 166.836434 
L 215.630787 166.934611 
L 215.673398 166.915168 
L 216.293539 164.591405 
L 216.527899 163.965225 
L 216.582685 163.920357 
L 216.592576 163.875226 
L 217.123691 160.592476 
L 217.351964 159.472236 
L 217.476753 159.29163 
L 217.490449 159.328388 
L 217.609912 159.411366 
L 217.511755 159.312139 
L 217.62513 159.371092 
L 217.644914 159.391822 
L 217.92645 158.524648 
L 218.284838 156.761889 
L 218.335819 156.584867 
L 218.543547 156.049248 
L 218.681272 155.47772 
L 219.168254 152.276851 
L 219.417071 151.693082 
L 219.423158 151.705019 
L 219.550991 151.861793 
L 219.570014 151.820488 
L 219.67578 151.701539 
L 220.410818 148.472679 
L 220.415384 148.477127 
L 220.423754 148.483451 
L 220.477778 148.375629 
L 220.886386 146.340957 
L 221.194555 144.534013 
L 221.359672 144.149547 
L 221.361194 144.150518 
L 221.491309 144.179173 
L 221.50044 144.152319 
L 222.428749 140.603698 
L 222.431032 140.604684 
L 222.440924 140.60648 
L 222.465273 140.501634 
L 222.473643 140.498902 
L 222.503318 140.369726 
L 222.600715 139.944904 
L 223.053455 137.14254 
L 223.262705 136.519203 
L 223.274119 136.542359 
L 223.396625 136.607226 
L 223.298468 136.506427 
L 223.411083 136.571963 
L 223.430866 136.603885 
L 223.636312 136.09231 
L 224.152208 133.43498 
L 224.588209 132.199409 
L 225.063777 129.41842 
L 225.605545 128.125902 
L 226.094809 125.599969 
L 226.636576 124.144816 
L 226.990399 121.970266 
L 227.220955 121.287141 
L 227.234651 121.310772 
L 227.316068 121.299558 
L 227.255956 121.269768 
L 227.331286 121.252558 
L 227.348787 121.264551 
L 227.588474 120.455244 
L 227.952188 118.40057 
L 228.085347 117.868007 
L 228.241334 117.593984 
L 228.284705 117.590421 
L 228.306011 117.641907 
L 228.33873 117.649803 
L 228.38058 117.634986 
L 228.400364 117.57693 
L 228.42243 117.575838 
L 228.754186 116.043205 
L 228.961154 114.725264 
L 229.174969 113.804088 
L 229.412373 113.447668 
L 230.26383 109.925449 
L 230.320898 110.006175 
L 230.399272 110.036834 
L 230.337638 109.992018 
L 230.441122 109.992104 
L 230.800271 108.314516 
L 231.367148 105.880387 
L 231.415085 105.922169 
L 231.463023 105.925767 
L 231.509438 105.86014 
L 232.395136 102.278886 
L 232.405789 102.299105 
L 232.529056 102.347889 
L 232.537426 102.330586 
L 232.99245 100.181505 
L 233.280074 98.586413 
L 233.835537 97.613963 
L 234.301975 95.085705 
L 234.563727 94.587955 
L 234.611665 94.643422 
L 234.774499 94.823706 
L 234.779065 94.81859 
L 234.998206 94.119534 
L 235.195282 92.861647 
L 235.606173 90.590379 
L 235.781182 90.475388 
L 235.819227 90.536452 
L 235.918145 90.607043 
L 235.966083 90.541252 
L 236.532199 87.865995 
L 236.75895 87.053425 
L 236.885261 86.9417 
L 236.899718 86.970113 
L 237.096033 87.171713 
L 237.108207 87.145678 
L 237.442246 85.711601 
L 237.92238 82.911685 
L 238.102715 82.795656 
L 238.144565 82.872036 
L 238.392622 83.491845 
L 238.435233 83.464635 
L 238.693942 82.428237 
L 239.359737 78.792463 
L 239.388652 78.811922 
L 239.396261 78.804409 
L 239.457134 78.912322 
L 239.72193 79.411268 
L 239.795738 79.294486 
L 239.922049 78.823482 
L 240.543712 75.313225 
L 240.691328 75.174951 
L 240.740787 75.24249 
L 241.017758 75.881728 
L 241.064935 75.836516 
L 241.35408 74.514782 
L 241.984874 71.075321 
L 242.004657 71.097555 
L 242.121837 71.311143 
L 242.296846 72.111423 
L 242.50077 72.784113 
L 242.503053 72.783304 
L 242.599688 72.588798 
L 242.714585 71.993739 
L 242.932966 70.085776 
L 243.346901 66.818216 
L 243.469407 66.596834 
L 243.497561 66.622309 
L 243.54702 66.695958 
L 243.553868 66.718939 
L 243.785945 67.985828 
L 244.091831 69.658916 
L 244.135964 69.616056 
L 244.151943 69.567862 
L 244.299559 68.776589 
L 245.066555 62.140827 
L 245.111449 62.192531 
L 245.275045 62.958117 
L 245.771918 66.756569 
L 245.861705 66.515112 
L 246.062585 64.692477 
L 246.740555 57.492371 
L 246.772514 57.526894 
L 246.825777 57.675981 
L 247.012961 59.082194 
L 247.588969 64.968607 
L 247.63995 64.846508 
L 247.764739 63.781027 
L 248.049319 58.611 
L 248.475428 52.051485 
L 248.563694 51.867329 
L 248.607065 51.961496 
L 248.730333 52.855078 
L 249.00426 57.159565 
L 249.433413 63.1395 
L 249.533092 63.352959 
L 249.577225 63.270826 
L 249.692883 62.561344 
L 249.855717 60.090903 
L 250.563363 46.406903 
L 250.605213 46.471352 
L 250.705653 47.18026 
L 250.917946 50.797918 
L 251.502325 60.905448 
L 251.545696 60.943523 
L 251.592873 60.833914 
L 251.708531 59.927912 
L 251.946695 55.943861 
L 252.41922 48.433236 
L 252.513573 48.2015 
L 252.560749 48.288528 
L 252.709887 49.141356 
L 253.336115 52.505898 
L 253.430468 52.417439 
L 253.613086 51.734601 
L 254.316166 48.402882 
L 254.351929 48.418434 
L 254.476718 48.666235 
L 254.736949 49.893739 
L 255.194255 51.930739 
L 255.320566 51.988515 
L 255.343394 51.966572 
L 255.476553 51.685435 
L 255.755806 50.445298 
L 256.159088 48.916387 
L 256.293769 48.859034 
L 256.31964 48.882287 
L 256.452038 49.138279 
L 256.789882 50.4919 
L 257.142944 51.568476 
L 257.293604 51.578457 
L 257.43285 51.328408 
L 257.747105 50.218998 
L 258.135169 49.209313 
L 258.291155 49.245229 
L 258.477578 49.625159 
L 259.174571 51.312453 
L 259.175332 51.312189 
L 259.277294 51.155686 
L 259.417301 50.184511 
L 259.736883 45.955543 
L 259.96059 44.44373 
L 259.964395 44.444395 
L 260.026789 44.574956 
L 260.160709 45.612639 
L 260.433115 49.85875 
L 260.855419 55.316095 
L 260.938358 55.470582 
L 260.987056 55.389859 
L 261.101193 54.722755 
L 261.332509 51.826315 
L 261.832426 45.917346 
L 261.910039 45.805615 
L 261.958737 45.878769 
L 262.076678 46.499273 
L 262.325495 49.307502 
L 262.794976 54.156493 
L 262.884003 54.277427 
L 262.929657 54.212513 
L 263.048359 53.660816 
L 263.296415 51.200777 
L 263.769701 46.945114 
L 263.858727 46.852361 
L 263.901338 46.910329 
L 264.02841 47.452382 
L 264.301576 49.914387 
L 264.728446 53.251869 
L 264.828886 53.360484 
L 264.871497 53.309906 
L 264.995525 52.852547 
L 265.274779 50.649226 
L 265.706215 47.73472 
L 265.802089 47.655588 
L 265.8447 47.703892 
L 265.984707 48.193783 
L 266.242655 50.012376 
L 266.608653 53.887761 
L 267.00813 57.740482 
L 267.113896 57.908523 
L 267.156507 57.852288 
L 267.279014 57.313306 
L 267.571203 54.476609 
L 267.993507 50.968887 
L 268.084816 50.861453 
L 268.12971 50.917554 
L 268.274283 51.531614 
L 268.549732 53.95397 
L 268.946165 56.903983 
L 269.056497 57.039622 
L 269.097586 56.996195 
L 269.226941 56.544419 
L 269.458257 55.976255 
L 269.465866 55.979793 
L 269.607395 56.1896 
L 269.831103 57.205936 
L 270.430699 59.750956 
L 270.43983 59.744788 
L 270.609513 59.473171 
L 270.801262 58.673044 
L 271.393249 56.441145 
L 271.47771 56.494049 
L 271.487602 56.5225 
L 271.610108 57.225051 
L 271.824685 59.953197 
L 272.329167 66.350153 
L 272.409824 66.522327 
L 272.466131 66.446528 
L 272.55744 66.024326 
L 272.763646 63.874903 
L 273.337372 57.743188 
L 273.374656 57.702605 
L 273.422594 57.816275 
L 273.554992 59.044678 
L 273.765764 63.158321 
L 274.257311 72.355021 
L 274.344815 72.626002 
L 274.392753 72.527912 
L 274.546456 71.175117 
L 274.931476 63.777207 
L 275.20236 60.485502 
L 275.207686 60.488065 
L 275.276929 60.693397 
L 275.416936 62.410876 
L 275.666515 68.360981 
L 276.081971 76.976899 
L 276.174802 77.382413 
L 276.226544 77.280659 
L 276.328505 76.498508 
L 276.56667 72.12581 
L 276.925058 66.339245 
L 276.988214 66.163405 
L 277.048325 66.302356 
L 277.153331 67.130913 
L 277.415084 71.721541 
L 277.857172 79.228773 
L 277.960655 79.598095 
L 278.016963 79.480852 
L 278.139469 78.798489 
L 278.413396 76.635638 
L 278.762654 74.815179 
L 278.849397 74.767039 
L 278.882877 74.810775 
L 278.92701 74.895995 
L 278.930815 74.908479 
L 279.21159 76.394012 
L 279.728247 81.050566 
L 280.085875 84.170616 
L 280.202294 84.379187 
L 280.239578 84.34406 
L 280.333931 84.023115 
L 280.52568 82.641462 
L 280.904613 79.834737 
L 280.954833 79.918427 
L 281.133646 81.125733 
L 281.876294 89.195782 
L 281.955428 89.078685 
L 282.357949 88.193919 
L 282.421865 88.093291 
L 282.579374 87.969528 
L 282.899716 88.260217 
L 283.255061 89.442117 
L 283.386698 90.692242 
L 283.88205 95.610072 
L 284.0076 95.932555 
L 284.04108 95.918832 
L 284.095105 95.793596 
L 284.5935 93.484354 
L 284.658938 93.598324 
L 284.696984 93.707229 
L 284.751769 93.915341 
L 286.064337 102.061729 
L 286.073468 102.051089 
L 286.094774 102.099528 
L 286.320003 101.786282 
L 286.414355 101.37829 
L 286.611431 100.630384 
L 286.62741 100.652308 
L 286.739264 100.839252 
L 287.007104 102.745754 
L 287.491042 106.724073 
L 287.701814 107.287612 
L 287.737576 107.406386 
L 287.827364 107.67805 
L 288.193361 108.718899 
L 288.199448 108.711545 
L 288.206296 108.706318 
L 288.265647 108.801976 
L 288.285431 108.782054 
L 288.379784 108.819284 
L 288.41859 108.794638 
L 288.662842 108.483321 
L 288.713062 108.597652 
L 289.047862 110.851209 
L 289.438208 114.057337 
L 289.597238 114.455505 
L 289.60713 114.4363 
L 289.613978 114.425948 
L 289.67409 114.506447 
L 289.697678 114.510561 
L 289.987585 115.210069 
L 290.016499 115.324146 
L 290.585659 116.426329 
L 290.597834 116.393537 
L 290.641966 116.362278 
L 290.698274 116.442979 
L 290.842085 116.954362 
L 291.5406 121.844063 
L 291.545926 121.838754 
L 291.63267 121.884357 
L 291.574841 121.901943 
L 291.639518 121.89672 
L 291.727784 121.882738 
L 291.668433 121.857386 
L 291.740719 121.85269 
L 291.781808 121.875415 
L 291.803114 121.935625 
L 291.822897 121.925528 
L 292.974153 125.861272 
L 293.376674 128.813616 
L 293.590489 129.39227 
L 293.642992 129.324453 
L 293.722126 129.31932 
L 293.663536 129.350349 
L 293.74191 129.373185 
L 293.853003 129.559657 
L 294.914471 133.752052 
L 295.29873 136.44791 
L 295.492001 136.944349 
L 295.497327 136.935921 
L 295.62516 136.815239 
L 295.643422 136.851836 
L 295.739296 136.891643 
L 295.747666 136.926903 
L 296.411179 139.64869 
L 296.416505 139.647592 
L 296.466725 139.775926 
L 296.642495 140.100724 
L 296.668366 140.212613 
L 296.960555 141.927303 
L 297.267963 143.931847 
L 297.43308 144.438182 
L 297.442211 144.422281 
L 297.526672 144.424523 
L 297.468843 144.467494 
L 297.543412 144.467432 
L 297.55863 144.440925 
L 297.691789 144.702777 
L 298.384977 147.587675 
L 298.389543 147.582518 
L 298.398674 147.574543 
L 298.457264 147.674953 
L 298.475525 147.654137 
L 298.569117 147.906565 
L 298.897069 149.778978 
L 299.241 151.777651 
L 299.406117 152.072481 
L 299.486013 152.028774 
L 299.425901 152.026342 
L 299.495905 152.002107 
L 299.503514 151.992143 
L 299.561343 152.07552 
L 299.58417 152.077771 
L 300.435627 155.435884 
L 300.448563 155.415197 
L 300.453889 155.414446 
L 300.502587 155.518612 
L 301.385242 159.656465 
L 301.390568 159.649102 
L 301.405025 159.62387 
L 301.462855 159.717766 
L 301.482638 159.714846 
L 301.781675 160.921149 
L 302.41323 163.152389 
L 302.430731 163.132905 
L 302.52204 163.362984 
L 303.402412 167.296607 
L 303.410782 167.284298 
L 303.419152 167.27726 
L 303.473176 167.395767 
L 303.958636 169.689379 
L 304.188431 170.63444 
L 304.314742 170.841485 
L 304.332243 170.809406 
L 304.487468 170.826835 
L 304.495838 170.8607 
L 305.455345 174.946084 
L 305.462193 174.936967 
L 305.473606 174.925457 
L 305.531435 175.041081 
L 305.631875 175.299276 
L 306.224624 178.234549 
L 306.283975 178.388591 
L 306.404959 178.519399 
L 306.417895 178.492228 
L 306.46431 178.467068 
L 306.441483 178.503825 
L 306.519856 178.534394 
L 306.595947 178.692642 
L 306.734433 179.237193 
L 307.256416 182.250491 
L 307.813402 183.513239 
L 308.459414 186.211065 
L 308.545396 186.137467 
L 308.593334 186.117102 
L 308.644315 186.189943 
L 308.993572 187.796386 
L 309.56121 190.275297 
L 309.572624 190.253236 
L 309.733175 190.127691 
L 309.739263 190.135593 
L 310.045148 191.200492 
L 310.438538 193.442757 
L 310.701813 193.953796 
L 310.715509 193.925613 
L 310.799209 193.885377 
L 310.838015 193.918934 
L 310.999328 194.398701 
L 311.56164 197.494125 
L 311.763281 197.851255 
L 311.767846 197.853473 
L 311.82948 197.771625 
L 311.843176 197.773305 
L 312.053948 197.424987 
L 312.104929 197.509516 
L 312.430598 199.127365 
L 312.985301 201.949236 
L 312.988345 201.947319 
L 313.233357 201.761872 
L 313.267598 201.805346 
L 313.358907 202.037982 
L 314.093185 205.311145 
L 314.103076 205.308069 
L 314.284934 205.209685 
L 314.412005 205.031117 
L 314.441681 205.05597 
L 314.497988 205.156722 
L 314.889856 207.42904 
L 315.34488 209.655833 
L 315.350206 209.652791 
L 315.542716 209.340177 
L 315.780881 208.70961 
L 315.783164 208.71058 
L 315.899583 208.935068 
L 316.169705 210.555816 
L 316.573748 213.292017 
L 316.749518 213.634338 
L 316.792129 213.600259 
L 317.025728 212.800623 
L 317.1528 212.572259 
L 317.187041 212.587218 
L 317.276828 212.784305 
L 317.611628 214.845031 
L 318.005018 217.273659 
L 318.154917 217.430366 
L 318.173179 217.400268 
L 318.350471 216.868442 
L 318.597766 215.982685 
L 318.620594 215.99705 
L 318.682988 216.097494 
L 318.936371 217.55307 
L 319.554229 221.633525 
L 319.601405 221.633097 
L 319.644016 221.570733 
L 319.837287 220.737337 
L 320.188066 218.961715 
L 320.197197 218.968103 
L 320.307529 219.312285 
L 320.504605 220.925857 
L 321.076808 226.147679 
L 321.159747 226.228903 
L 321.200836 226.175632 
L 321.338561 225.580301 
L 321.577486 223.499087 
L 321.861305 221.701138 
L 321.870436 221.70679 
L 321.957941 221.99079 
L 322.135994 223.604937 
L 322.832225 231.021491 
L 322.838313 231.017845 
L 322.931144 230.752506 
L 323.106914 229.344167 
L 323.676835 223.452114 
L 323.729337 223.568406 
L 323.846517 224.529326 
L 324.09153 228.828109 
L 324.567859 236.500054 
L 324.655364 236.67757 
L 324.697975 236.584502 
L 324.814394 235.761237 
L 325.059406 232.01175 
L 325.532692 225.264818 
L 325.622479 225.083863 
L 325.668895 225.168681 
L 325.783792 225.880134 
L 325.946626 228.347247 
L 326.657315 242.116336 
L 326.708296 242.01257 
L 326.81178 241.175779 
L 327.030161 237.257831 
L 327.566602 227.643938 
L 327.632801 227.512292 
L 327.684543 227.624094 
L 327.800962 228.540394 
L 328.041409 232.592102 
L 328.516216 240.105272 
L 328.601438 240.314798 
L 328.65318 240.222798 
L 328.811449 239.298383 
L 329.395827 235.975322 
L 329.483332 235.984992 
L 329.509203 236.021385 
L 329.655297 236.488173 
L 329.98401 238.506561 
L 330.334028 240.053746 
L 330.439795 240.092863 
L 330.472514 240.059235 
L 330.615565 239.679454 
L 330.922211 238.055886 
L 331.2981 236.5224 
L 331.416802 236.484385 
L 331.443434 236.510074 
L 331.59105 236.859945 
L 331.911393 238.36161 
L 332.272064 239.614391 
L 332.402179 239.63198 
L 332.418919 239.615261 
L 332.574905 239.272268 
L 332.939381 237.748509 
L 333.260485 236.883295 
L 333.403535 236.914008 
L 333.575501 237.287493 
L 334.313583 239.307725 
L 334.348585 239.289056 
L 334.509136 239.032016 
L 334.861437 237.905865 
L 335.196998 237.18299 
L 335.355267 237.214724 
L 335.547016 237.566454 
L 336.250857 239.044702 
L 336.412931 238.894775 
L 336.699794 238.234815 
L 337.12362 237.418396 
L 337.302434 237.440481 
L 337.514727 237.759737 
L 338.166065 238.843789 
L 338.347162 238.73414 
L 338.642395 238.21519 
L 339.070025 237.58923 
L 339.267862 237.626211 
L 339.520484 237.962131 
L 340.066055 238.682511 
L 340.273023 238.615916 
L 340.574343 238.217878 
L 341.020996 237.719977 
L 341.242421 237.774032 
L 341.55972 238.144525 
L 341.998004 238.561688 
L 342.233885 238.498438 
L 342.472811 238.192775 
L 342.629558 237.204816 
L 343.362314 230.822424 
L 343.436883 230.932351 
L 343.578412 231.656849 
L 343.877449 234.549595 
L 344.25486 237.323132 
L 344.337038 237.411493 
L 344.38878 237.354238 
L 344.517374 236.868857 
L 344.768474 234.884361 
L 345.218171 231.729732 
L 345.383288 231.618918 
L 345.511882 231.449574 
L 345.834507 230.471907 
L 346.220288 229.533566 
L 346.402906 229.556147 
L 346.571828 229.861243 
L 347.253603 231.374568 
L 347.374587 231.327897 
L 347.581555 230.956676 
L 347.733736 229.963329 
L 348.120278 225.174014 
L 348.427685 222.837132 
L 348.496928 222.795353 
L 348.539539 222.866471 
L 348.677264 223.566244 
L 348.917711 225.990192 
L 349.365125 229.944008 
L 349.464044 230.063596 
L 349.499806 229.98056 
L 349.576658 229.493716 
L 349.734927 227.312062 
L 350.43192 216.495433 
L 350.44029 216.500325 
L 350.516381 216.777935 
L 350.67465 218.447309 
L 351.292508 227.599686 
L 351.367838 227.330267 
L 351.497954 225.748244 
L 351.827427 217.992605 
L 352.182011 211.706684 
L 352.26495 211.460571 
L 352.312887 211.572733 
L 352.462025 212.98566 
L 353.079123 222.268273 
L 353.16054 221.954095 
L 353.330223 219.887518 
L 354.049282 208.940186 
L 354.083523 209.007957 
L 354.162657 209.42394 
L 354.447237 211.794817 
L 354.740948 213.651328 
L 354.871064 213.877736 
L 354.912153 213.849166 
L 355.090966 213.238936 
L 355.230974 212.338998 
L 355.841223 206.735187 
L 356.16537 204.326318 
L 356.261245 204.198572 
L 356.304616 204.255391 
L 356.493322 205.176537 
L 356.964325 208.711081 
L 357.025197 208.580492 
L 357.134768 207.920751 
L 357.407174 204.441284 
L 357.87285 199.336073 
L 357.93981 199.244082 
L 358.002205 199.367532 
L 358.099601 199.767544 
L 358.352223 200.690413 
L 358.636803 201.040905 
L 358.722785 200.93545 
L 359.37108 198.408465 
L 360.021657 192.918408 
L 360.103835 192.860371 
L 360.139598 192.908943 
L 360.211124 193.129311 
L 360.306998 193.652096 
L 360.558098 194.911907 
L 360.657016 194.970435 
L 360.702671 194.87872 
L 361.018448 192.990356 
L 361.5138 189.742599 
L 361.800663 188.480545 
L 362.130897 187.040259 
L 362.132419 187.040593 
L 362.182639 186.940226 
L 362.313515 186.809566 
L 362.326451 186.838661 
L 362.673425 187.497378 
L 362.346995 186.828717 
L 362.709949 187.46417 
L 362.788323 187.258951 
L 363.023444 185.729435 
L 363.454879 182.297455 
L 363.64815 181.84939 
L 363.660325 181.867703 
L 363.702935 181.817674 
L 363.680108 181.818305 
L 363.715871 181.771639 
L 364.48515 179.603217 
L 364.501129 179.622813 
L 364.634288 179.608354 
L 364.639615 179.617695 
L 364.729402 179.728342 
L 364.775817 179.681013 
L 365.087029 178.026989 
L 365.560315 174.571536 
L 365.960553 173.971195 
L 366.433077 172.277823 
L 366.465035 172.170555 
L 366.826467 171.640993 
L 367.291383 168.422637 
L 367.544765 167.025958 
L 367.679446 166.794615 
L 367.723579 166.836434 
L 367.812605 166.934611 
L 367.855216 166.915168 
L 368.475357 164.591405 
L 368.709717 163.965225 
L 368.764503 163.920357 
L 368.774395 163.875226 
L 369.305509 160.592476 
L 369.533782 159.472236 
L 369.658571 159.29163 
L 369.672267 159.328388 
L 369.79173 159.411366 
L 369.693573 159.312139 
L 369.806948 159.371092 
L 369.826732 159.391822 
L 370.108268 158.524648 
L 370.466656 156.761889 
L 370.517637 156.584867 
L 370.725365 156.049248 
L 370.86309 155.47772 
L 371.350072 152.276851 
L 371.598889 151.693082 
L 371.604976 151.705019 
L 371.732809 151.861793 
L 371.751832 151.820488 
L 371.857598 151.701539 
L 372.592636 148.472679 
L 372.597202 148.477127 
L 372.605572 148.483451 
L 372.659596 148.375629 
L 373.068205 146.340957 
L 373.376373 144.534013 
L 373.54149 144.149547 
L 373.543012 144.150518 
L 373.560513 144.183392 
L 373.581818 144.150467 
" clip-path="url(#p6c7816c99d)" style="fill: none; stroke: #1f77b4; stroke-width: 1.5; stroke-linecap: square"/>
   </g>
   <g id="patch_3">
    <path d="M 54 252 
L 54 34.56 
" style="fill: none; stroke: #000000; stroke-width: 0.8; stroke-linejoin: miter; stroke-linecap: square"/>
   </g>
   <g id="patch_4">
    <path d="M 388.8 252 
L 388.8 34.56 
" style="fill: none; stroke: #000000; stroke-width: 0.8; stroke-linejoin: miter; stroke-linecap: square"/>
   </g>
   <g id="patch_5">
    <path d="M 54 252 
L 388.8 252 
" style="fill: none; stroke: #000000; stroke-width: 0.8; stroke-linejoin: miter; stroke-linecap: square"/>
   </g>
   <g id="patch_6">
    <path d="M 54 34.56 
L 388.8 34.56 
" style="fill: none; stroke: #000000; stroke-width: 0.8; stroke-linejoin: miter; stroke-linecap: square"/>
   </g>
   <g id="text_19">
    <!-- Intensité dans la charge -->
    <g transform="translate(149.025 28.56) scale(0.12 -0.12)">
     <defs>
      <path id="DejaVuSans-49" d="M 628 4666 
L 1259 4666 
L 1259 0 
L 628 0 
L 628 4666 
z
" transform="scale(0.015625)"/>
      <path id="DejaVuSans-69" d="M 603 3500 
L 1178 3500 
L 1178 0 
L 603 0 
L 603 3500 
z
M 603 4863 
L 1178 4863 
L 1178 4134 
L 603 4134 
L 603 4863 
z
" transform="scale(0.015625)"/>
      <path id="DejaVuSans-e9" d="M 3597 1894 
L 3597 1613 
L 953 1613 
Q 991 1019 1311 708 
Q 1631 397 2203 397 
Q 2534 397 2845 478 
Q 3156 559 3463 722 
L 3463 178 
Q 3153 47 2828 -22 
Q 2503 -91 2169 -91 
Q 1331 -91 842 396 
Q 353 884 353 1716 
Q 353 2575 817 3079 
Q 1281 3584 2069 3584 
Q 2775 3584 3186 3129 
Q 3597 2675 3597 1894 
z
M 3022 2063 
Q 3016 2534 2758 2815 
Q 2500 3097 2075 3097 
Q 1594 3097 1305 2825 
Q 1016 2553 972 2059 
L 3022 2063 
z
M 2469 5119 
L 3091 5119 
L 2072 3944 
L 1594 3944 
L 2469 5119 
z
" transform="scale(0.015625)"/>
      <path id="DejaVuSans-64" d="M 2906 2969 
L 2906 4863 
L 3481 4863 
L 3481 0 
L 2906 0 
L 2906 525 
Q 2725 213 2448 61 
Q 2172 -91 1784 -91 
Q 1150 -91 751 415 
Q 353 922 353 1747 
Q 353 2572 751 3078 
Q 1150 3584 1784 3584 
Q 2172 3584 2448 3432 
Q 2725 3281 2906 2969 
z
M 947 1747 
Q 947 1113 1208 752 
Q 1469 391 1925 391 
Q 2381 391 2643 752 
Q 2906 1113 2906 1747 
Q 2906 2381 2643 2742 
Q 2381 3103 1925 3103 
Q 1469 3103 1208 2742 
Q 947 2381 947 1747 
z
" transform="scale(0.015625)"/>
      <path id="DejaVuSans-6c" d="M 603 4863 
L 1178 4863 
L 1178 0 
L 603 0 
L 603 4863 
z
" transform="scale(0.015625)"/>
      <path id="DejaVuSans-63" d="M 3122 3366 
L 3122 2828 
Q 2878 2963 2633 3030 
Q 2388 3097 2138 3097 
Q 1578 3097 1268 2742 
Q 959 2388 959 1747 
Q 959 1106 1268 751 
Q 1578 397 2138 397 
Q 2388 397 2633 464 
Q 2878 531 3122 666 
L 3122 134 
Q 2881 22 2623 -34 
Q 2366 -91 2075 -91 
Q 1284 -91 818 406 
Q 353 903 353 1747 
Q 353 2603 823 3093 
Q 1294 3584 2113 3584 
Q 2378 3584 2631 3529 
Q 2884 3475 3122 3366 
z
" transform="scale(0.015625)"/>
      <path id="DejaVuSans-68" d="M 3513 2113 
L 3513 0 
L 2938 0 
L 2938 2094 
Q 2938 2591 2744 2837 
Q 2550 3084 2163 3084 
Q 1697 3084 1428 2787 
Q 1159 2491 1159 1978 
L 1159 0 
L 581 0 
L 581 4863 
L 1159 4863 
L 1159 2956 
Q 1366 3272 1645 3428 
Q 1925 3584 2291 3584 
Q 2894 3584 3203 3211 
Q 3513 2838 3513 2113 
z
" transform="scale(0.015625)"/>
      <path id="DejaVuSans-67" d="M 2906 1791 
Q 2906 2416 2648 2759 
Q 2391 3103 1925 3103 
Q 1463 3103 1205 2759 
Q 947 2416 947 1791 
Q 947 1169 1205 825 
Q 1463 481 1925 481 
Q 2391 481 2648 825 
Q 2906 1169 2906 1791 
z
M 3481 434 
Q 3481 -459 3084 -895 
Q 2688 -1331 1869 -1331 
Q 1566 -1331 1297 -1286 
Q 1028 -1241 775 -1147 
L 775 -588 
Q 1028 -725 1275 -790 
Q 1522 -856 1778 -856 
Q 2344 -856 2625 -561 
Q 2906 -266 2906 331 
L 2906 616 
Q 2728 306 2450 153 
Q 2172 0 1784 0 
Q 1141 0 747 490 
Q 353 981 353 1791 
Q 353 2603 747 3093 
Q 1141 3584 1784 3584 
Q 2172 3584 2450 3431 
Q 2728 3278 2906 2969 
L 2906 3500 
L 3481 3500 
L 3481 434 
z
" transform="scale(0.015625)"/>
     </defs>
     <use xlink:href="#DejaVuSans-49"/>
     <use xlink:href="#DejaVuSans-6e" x="29.492188"/>
     <use xlink:href="#DejaVuSans-74" x="92.871094"/>
     <use xlink:href="#DejaVuSans-65" x="132.080078"/>
     <use xlink:href="#DejaVuSans-6e" x="193.603516"/>
     <use xlink:href="#DejaVuSans-73" x="256.982422"/>
     <use xlink:href="#DejaVuSans-69" x="309.082031"/>
     <use xlink:href="#DejaVuSans-74" x="336.865234"/>
     <use xlink:href="#DejaVuSans-e9" x="376.074219"/>
     <use xlink:href="#DejaVuSans-20" x="437.597656"/>
     <use xlink:href="#DejaVuSans-64" x="469.384766"/>
     <use xlink:href="#DejaVuSans-61" x="532.861328"/>
     <use xlink:href="#DejaVuSans-6e" x="594.140625"/>
     <use xlink:href="#DejaVuSans-73" x="657.519531"/>
     <use xlink:href="#DejaVuSans-20" x="709.619141"/>
     <use xlink:href="#DejaVuSans-6c" x="741.40625"/>
     <use xlink:href="#DejaVuSans-61" x="769.189453"/>
     <use xlink:href="#DejaVuSans-20" x="830.46875"/>
     <use xlink:href="#DejaVuSans-63" x="862.255859"/>
     <use xlink:href="#DejaVuSans-68" x="917.236328"/>
     <use xlink:href="#DejaVuSans-61" x="980.615234"/>
     <use xlink:href="#DejaVuSans-72" x="1041.894531"/>
     <use xlink:href="#DejaVuSans-67" x="1081.257812"/>
     <use xlink:href="#DejaVuSans-65" x="1144.734375"/>
    </g>
   </g>
   <g id="legend_1">
    <g id="patch_7">
     <path d="M 340.721875 57.238125 
L 381.8 57.238125 
Q 383.8 57.238125 383.8 55.238125 
L 383.8 41.56 
Q 383.8 39.56 381.8 39.56 
L 340.721875 39.56 
Q 338.721875 39.56 338.721875 41.56 
L 338.721875 55.238125 
Q 338.721875 57.238125 340.721875 57.238125 
z
" style="fill: #ffffff; opacity: 0.8; stroke: #cccccc; stroke-linejoin: miter"/>
    </g>
    <g id="line2d_34">
     <path d="M 342.721875 47.658437 
L 352.721875 47.658437 
L 362.721875 47.658437 
" style="fill: none; stroke: #1f77b4; stroke-width: 1.5; stroke-linecap: square"/>
    </g>
    <g id="text_20">
     <!-- Ia -->
     <g transform="translate(370.721875 51.158437) scale(0.1 -0.1)">
      <use xlink:href="#DejaVuSans-49"/>
      <use xlink:href="#DejaVuSans-61" x="29.492188"/>
     </g>
    </g>
   </g>
  </g>
 </g>
 <defs>
  <clipPath id="p6c7816c99d">
   <rect x="54" y="34.56" width="334.8" height="217.44"/>
  </clipPath>
 </defs>
</svg>
